<svg xmlns="http://www.w3.org/2000/svg" viewBox="0 0 1038.9987 169"><defs><style>.cls-1{fill:#00629b;}.cls-2{fill:#75787b;}.cls-3{fill:#1d1d1b;}.cls-4{fill:#1e1d1b;}.cls-5{fill:#1e1d1c;}.cls-6{fill:#1e1e1c;}.cls-7{fill:#818d8b;}.cls-8{fill:#c5cecd;}.cls-9{fill:#b4b4b4;}.cls-10{fill:#53585a;}.cls-11{fill:#6dae55;}.cls-12{fill:#63a85b;}.cls-13{fill:#5fa75b;}.cls-14{fill:#399a56;}.cls-15{fill:#6aad58;}.cls-16{fill:#57a35a;}.cls-17{fill:#188d4c;}.cls-18{fill:#158c4a;}.cls-19{fill:#70b054;}.cls-20{fill:#1e914e;}.cls-21{fill:#188f4e;}.cls-22{fill:#249351;}.cls-23{fill:#329755;}.cls-24{fill:#2b9554;}.cls-25{fill:#72b152;}.cls-26{fill:#439d59;}.cls-27{fill:#5ba65b;}.cls-28{fill:#53a15a;}.cls-29{fill:#409d57;}.cls-30{fill:#279452;}.cls-31{fill:#77b549;}.cls-32{fill:#67aa59;}.cls-33{fill:#479f59;}.cls-34{fill:#78b545;}.cls-35{fill:#0d8847;}.cls-36{fill:#4fa05a;}.cls-37{fill:#138b48;}.cls-38{fill:#2f9654;}.cls-39{fill:#76b839;}.cls-40{fill:#75b44c;}.cls-41{fill:#76b73f;}.cls-42{fill:#73b24f;}.cls-43{fill:#4aa05a;}.cls-44{fill:#0a8644;}.cls-45{fill:#75b933;}.cls-46{fill:#77b642;}.cls-47{fill:#068542;}.cls-48{fill:#3c9b57;}.cls-49{fill:#018441;}.cls-50{fill:#74bb27;}.cls-51{fill:#75ba2c;}.cls-52{fill:#1f1f1d;}.cls-53{fill:#20201e;}.cls-54{fill:#21211f;}.cls-55{fill:#bed87e;}</style></defs><g id="Layer_2" data-name="Layer 2"><g id="UNI"><g id="ieee_uni_cas_rgb_horizontal_c"><path class="cls-1" d="M5.5928,98.7686c-.125,2.8144-.209,6.1337-.209,13.3584,0,8.0654.084,11.5107.3359,15.8369l-.2519.2939c-1.8487.042-2.4375.042-4.6631.126l-.2529-.294c.0839-2.5625.1679-4.789.1679-10.208,0-6.3427,0-12.6435-.2929-18.9453l.2089-.3359c1.85,0,2.5215,0,4.6641-.126Z"/><path class="cls-1" d="M29.7158,124.8135c-.125,1.4287-.125,1.7226-.209,3.15l-.2949.2939c-8.1914,0-9.4941.042-17.4746.126l-.2109-.294c.1269-3.3183.2519-5.5869.2519-13.2744,0-7.0566,0-11.09-.2929-15.9209l.2519-.2939c8.2754-.042,9.9141-.042,17.6426-.126l.2519.294c-.125,1.2607-.2089,1.7646-.2929,3.2773l-.253.2939c-5.4189-.1679-7.2255-.1679-12.5595-.21-.127,3.8642-.127,5.082-.127,8.9472,5.168.042,6.7637,0,11.8887-.0839l.21.2939a29.8005,29.8005,0,0,0-.21,3.2344l-.252.2939c-4.873-.1259-5.9238-.1259-11.6367-.1259-.084,4.873-.041,6.0488,0,10.04,6.3438,0,7.6465,0,13.0645-.21Z"/><path class="cls-1" d="M51.8584,124.8135c-.126,1.4287-.126,1.7226-.21,3.15l-.2939.2939c-8.1914,0-9.4941.042-17.4756.126l-.21-.294c.126-3.3183.252-5.5869.252-13.2744,0-7.0566,0-11.09-.2939-15.9209l.2519-.2939c8.2764-.042,9.9141-.042,17.6436-.126l.2519.294c-.126,1.2607-.21,1.7646-.2939,3.2773l-.253.2939c-5.4179-.1679-7.2246-.1679-12.5595-.21-.126,3.8642-.126,5.082-.126,8.9472,5.167.042,6.7637,0,11.8887-.0839l.2089.2939a29.5384,29.5384,0,0,0-.2089,3.2344l-.252.2939c-4.873-.1259-5.9238-.1259-11.6367-.1259-.084,4.873-.042,6.0488,0,10.04,6.3437,0,7.6455,0,13.0644-.21Z"/><path class="cls-1" d="M74.001,124.8135c-.127,1.4287-.127,1.7226-.211,3.15l-.2939.2939c-8.1914,0-9.4932.042-17.4756.126l-.209-.294c.125-3.3183.252-5.5869.252-13.2744,0-7.0566,0-11.09-.2949-15.9209l.2519-.2939c8.2764-.042,9.9141-.042,17.6445-.126l.252.294c-.127,1.2607-.2109,1.7646-.2949,3.2773l-.252.2939c-5.4189-.1679-7.2246-.1679-12.56-.21-.125,3.8642-.125,5.082-.125,8.9472,5.166.042,6.7627,0,11.8877-.0839l.21.2939a29.8005,29.8005,0,0,0-.21,3.2344l-.252.2939c-4.873-.1259-5.9228-.1259-11.6357-.1259-.084,4.873-.043,6.0488,0,10.04,6.3427,0,7.6445,0,13.0644-.21Z"/><path class="cls-1" d="M101.6768,111.4551c3.0664,1.3447,7.1406,3.1084,7.1406,8.4853,0,4.7051-3.4863,8.9473-10.7949,8.9473a18.2052,18.2052,0,0,1-8.3184-1.8477l-.168-.2939c.168-1.4707.211-2.2686.336-3.8652l.42-.168a12.3935,12.3935,0,0,0,7.3935,2.4785c4.3272,0,6.1338-2.2266,6.1338-4.7471,0-2.94-2.4375-4.0742-5.1679-5.125l-2.1-.9238c-2.9825-1.3857-6.9737-3.1924-6.9737-8.3174A7.7709,7.7709,0,0,1,90.88,101.667c1.9336-2.7725,5.42-3.6963,8.8222-3.6963a21.9755,21.9755,0,0,1,7.5616,1.3438l.21.3369c-.1679,1.5957-.21,2.1836-.3359,3.6963l-.3359.1679A13.8768,13.8768,0,0,0,99.87,101.583c-3.4863,0-5.6709,1.6387-5.6709,4.1172a3.768,3.768,0,0,0,2.1416,3.3184,22.79,22.79,0,0,0,3.2354,1.5126Z"/><path class="cls-1" d="M122.1846,124.94c-.127,1.3867-.127,1.6806-.168,2.8984l-.2109.2519a11.4143,11.4143,0,0,1-3.15.378c-1.0078,0-3.6543,0-4.9571-2.1836-.7558-1.2188-.7558-2.2266-.7558-7.1836l.084-9.2422c-1.4707,0-1.5118.042-3.0244.084l-.168-.252c.084-1.3437.084-1.68.084-3.0244l.2519-.2519c.9248,0,1.47.042,2.8565,0-.041-.8819-.041-1.8067-.041-2.6885q-.0645-1.1968-.127-2.3945l.2109-.294c1.89-.4619,2.3516-.5879,4.2842-1.1758l.294.21c-.126,2.7725-.168,3.3183-.168,6.3848,1.7637-.042,2.2685-.042,4.6621-.126l.2109.2519c-.0839,1.0928-.1269,1.5547-.1269,2.9825l-.209.2519c-2.1006-.042-2.3535-.084-4.5791-.084l-.084,7.8135c.042.5039.042,2.8984.042,3.4873,0,3.0664.3779,4.0322,2.4785,4.0322a5.71,5.71,0,0,0,2.0156-.3779Z"/><path class="cls-1" d="M144.1641,106.54c-.084,3.1924-.126,6.1748-.126,9.5782,0,5.167.126,8.2754.21,10.081,0,.5889.042,1.1768.084,1.7647l-.1679.2519c-2.0166.042-2.3526.084-4.2842.168l-.252-.252.041-1.7636a10.7342,10.7342,0,0,1-6.5947,2.3935,7.843,7.843,0,0,1-4.789-1.4277c-2.6885-2.1846-2.6885-5.7549-2.7305-9.0313v-2.6045c-.084-6.0078-.084-6.68-.21-8.9482l.21-.2939c1.9746-.042,2.3525-.042,4.3271-.21l.252.2939-.168,9.2c0,1.1338-.0429,1.9737,0,3.99.041,1.7646.126,5.5449,4.3692,5.5449a8.37,8.37,0,0,0,5.25-2.1846c.0429-2.2685.0429-4.2.0429-6.6367a86.4859,86.4859,0,0,0-.2949-9.7461l.252-.2939c1.9326-.042,2.3945-.042,4.3271-.168Z"/><path class="cls-1" d="M163.4453,95.6182c2.1416-.378,2.5625-.462,4.4522-.8819l.2949.252c-.2949,5.8388-.336,16.2568-.336,20.457,0,6.5117.168,9.62.336,12.5186l-.211.2939c-1.8476,0-2.3515.042-4.2841.126l-.294-.252.084-1.5537a8.8881,8.8881,0,0,1-5.7969,2.1c-5.5879,0-9.4521-4.41-9.4521-10.7959a11.67,11.67,0,0,1,3.6963-9.0312c3.0664-2.7725,7.0576-2.8985,9.2422-2.8985.8828,0,1.3027,0,2.4365.084a93.2937,93.2937,0,0,0-.3779-10.166Zm.042,13.82c-.7148-.042-1.2187-.126-2.1006-.126a8.778,8.778,0,0,0-6.0908,1.9746c-.9238.8818-2.4365,2.8565-2.4365,6.5947a7.9556,7.9556,0,0,0,1.5537,5.167A5.5288,5.5288,0,0,0,158.74,124.94a6.97,6.97,0,0,0,4.7051-1.8487C163.5293,117.5879,163.5293,116.3281,163.4873,109.4385Z"/><path class="cls-1" d="M190.6064,123.1328c-.2089,1.6807-.2519,2.1006-.3359,3.7393l-.2519.2939a13.7238,13.7238,0,0,1-6.7207,1.5957c-6.8887,0-11.2168-3.9482-11.2168-11.2578,0-7.8135,4.705-11.6357,10.2089-11.6357a8.7691,8.7691,0,0,1,6.8887,2.8984c2.3945,2.8564,2.3106,7.0156,2.2686,8.8633l-.294.2519c-6.5527-.042-7.6875-.042-14.5762,0a8.1843,8.1843,0,0,0,1.5958,5.251,6.8139,6.8139,0,0,0,5.4189,2.2686,10.9777,10.9777,0,0,0,3.6553-.63,10.57,10.57,0,0,0,3.0234-1.8486ZM186.7,112.1689a4.6952,4.6952,0,0,0-4.5781-3.2763c-2.3535,0-5.125,1.5967-5.545,5.7969,5.0821.0419,6.6788,0,10.543-.042A9.1576,9.1576,0,0,0,186.7,112.1689Z"/><path class="cls-1" d="M214.1475,128.2158c-2.0157.042-2.2676.042-4.2.168l-.294-.294c0-.4619.042-.9238.042-1.3857.042-2.0586.042-4.1172.042-6.1758,0-6.4687-.042-6.8887-.2519-7.7715-.7989-3.1923-3.1934-3.1923-3.7813-3.1923a9.2032,9.2032,0,0,0-5.5859,2.3525c-.043,7.31.041,11.1318.3359,16.0469l-.252.2519c-2.0585.042-2.3945.042-4.4121.168l-.2089-.294c.041-2.3525.125-4.621.125-7.7294,0-6.7208-.293-10.292-.504-13.1065l.252-.2939c2.1016-.378,2.4785-.462,4.4531-.84l.2949.294-.0429,2.1845a12.7231,12.7231,0,0,1,7.3935-2.6045,7.2649,7.2649,0,0,1,3.4873.7979,5.6953,5.6953,0,0,1,2.4356,2.73c.5469,1.2607.5879,2.5205.6308,5.125v4.915c.125,4.915.168,6.8057.293,8.4014Z"/><path class="cls-1" d="M229.333,124.94c-.126,1.3867-.126,1.6806-.168,2.8984l-.21.2519a11.42,11.42,0,0,1-3.15.378c-1.0088,0-3.6553,0-4.957-2.1836-.7569-1.2188-.7569-2.2266-.7569-7.1836l.085-9.2422c-1.4707,0-1.5127.042-3.0244.084l-.168-.252c.084-1.3437.084-1.68.084-3.0244l.2519-.2519c.9239,0,1.4707.042,2.8565,0-.042-.8819-.042-1.8067-.042-2.6885q-.0645-1.1968-.127-2.3945l.211-.294c1.8906-.4619,2.3515-.5879,4.2851-1.1758l.293.21c-.125,2.7725-.168,3.3183-.168,6.3848,1.7647-.042,2.27-.042,4.6631-.126l.21.2519c-.084,1.0928-.126,1.5547-.126,2.9825l-.21.2519c-2.1-.042-2.3525-.084-4.5781-.084l-.084,7.8135c.041.5039.041,2.8984.041,3.4873,0,3.0664.379,4.0322,2.4786,4.0322a5.7172,5.7172,0,0,0,2.0166-.3779Z"/><path class="cls-1" d="M245.627,128.3838l-.21-.294c.084-2.0166.125-3.9482.125-7.7714,0-1.8057.043-10.586.043-12.56,0-4.4111-.127-6.68-.295-8.8643l.211-.2939,5.6289-.084c.84-.042,2.1426-.042,3.2763-.042,2.4786,0,5.125.084,7.2256,1.3027a6.3567,6.3567,0,0,1,3.3184,5.7549c0,1.47-.42,5.6709-6.26,7.0987a9.9948,9.9948,0,0,1,3.8653.7568,6.5388,6.5388,0,0,1,3.99,6.3428,8.1426,8.1426,0,0,1-5.7539,7.8134c-2.2266.7979-4.4531.7979-7.7715.7979Zm4.5361-17.0967c3.7812.042,6.68,0,8.4433-1.3867a4.8855,4.8855,0,0,0,1.7227-3.6543,4.4161,4.4161,0,0,0-1.1758-2.9824c-1.4707-1.4287-4.0742-1.4287-5.041-1.4287-1.3437,0-2.6465.042-3.9492.1259Zm0,3.5283c0,4.7891,0,5.503.168,10.0821h.7988c3.15,0,5.7129.042,7.3515-.63a4.7584,4.7584,0,0,0,3.15-4.6211c0-4.9151-5.42-4.957-7.4355-4.957-.3779,0-.7559,0-3.0244.0839Z"/><path class="cls-1" d="M280.627,110.7832a4.32,4.32,0,0,0-1.6807-.3779,3.1323,3.1323,0,0,0-1.7637.5459c-1.7226,1.2177-1.7226,3.0664-1.7226,7.4355,0,4.7461.1269,7.2246.2949,9.5772l-.211.2939c-1.9746,0-2.4355.042-4.4531.126l-.209-.252c.0411-3.1923.084-6.0908.084-9.998a90.0792,90.0792,0,0,0-.3789-10.88l.252-.2939c1.5966-.294,2.6054-.5039,4.3691-.84l.252.252-.21,3.57c.5049-1.3438,1.5547-4.0322,5.125-4.0322a4.3607,4.3607,0,0,1,1.1768.1259l.1679.252c-.42,2.0166-.5039,2.4365-.7988,4.2851Z"/><path class="cls-1" d="M300.0322,119.6045a78.8867,78.8867,0,0,0,.252,8.4014l-.21.21c-1.9736.042-2.3105.084-4.2431.168l-.168-.252.043-1.5117a9.0045,9.0045,0,0,1-5.8809,2.1416,6.76,6.76,0,0,1-7.1426-7.0146c0-5.6289,4.7051-7.4356,12.2666-8.3174l.7139-.084a5.2684,5.2684,0,0,0-.377-2.6045c-.4209-.7568-1.3867-1.5547-3.4873-1.5547a14.9906,14.9906,0,0,0-6.3857,1.5967l-.336-.21c.084-1.9326.084-2.1845.127-3.0664l.252-.2529a21.6565,21.6565,0,0,1,7.2675-1.3857c3.1075,0,6.1328,1.05,7.0147,4.3271a28.12,28.12,0,0,1,.2939,5.25Zm-4.7051-3.0664c-4.2421.63-8.1914,1.2178-8.1914,4.957a3.704,3.704,0,0,0,3.99,3.8223,6.5544,6.5544,0,0,0,4.58-1.8486v-7.0147Z"/><path class="cls-1" d="M323.8633,128.2158c-2.0166.042-2.2686.042-4.2.168l-.2949-.294c0-.4619.0429-.9238.0429-1.3857.041-2.0586.041-4.1172.041-6.1758,0-6.4687-.041-6.8887-.2519-7.7715-.7979-3.1923-3.1924-3.1923-3.78-3.1923a9.2063,9.2063,0,0,0-5.5869,2.3525c-.042,7.31.042,11.1318.3359,16.0469l-.2519.2519c-2.0586.042-2.3945.042-4.4111.168l-.21-.294c.042-2.3525.126-4.621.126-7.7294,0-6.7208-.294-10.292-.5039-13.1065l.2519-.2939c2.1006-.378,2.4785-.462,4.4522-.84l.2949.294-.042,2.1845a12.72,12.72,0,0,1,7.3936-2.6045,7.2614,7.2614,0,0,1,3.4863.7979,5.6971,5.6971,0,0,1,2.4365,2.73c.5459,1.2607.5879,2.5205.63,5.125v4.915c.126,4.915.168,6.8057.2939,8.4014Z"/><path class="cls-1" d="M344.7871,123.2588c-.168,1.8066-.21,2.0166-.3359,3.7392l-.294.294A11.8452,11.8452,0,0,1,338.36,128.72c-6.3438,0-10.461-4.5781-10.461-11.1318,0-6.6787,4.0332-11.72,10.5449-11.72a13.8088,13.8088,0,0,1,5.7539,1.3437l.169.2949c-.169,1.5118-.21,2.0577-.294,3.3184l-.3359.168a7.9575,7.9575,0,0,0-4.6631-1.6387c-3.4873,0-6.5537,2.6885-6.5537,8.0654,0,5.7129,3.2344,7.7715,6.5117,7.7715a8.3225,8.3225,0,0,0,5.419-2.1006Z"/><path class="cls-1" d="M366.6279,128.2158c-2.0166.042-2.2695.042-4.2011.168l-.294-.294.042-1.3857c.042-2.1846.042-4.4111.042-6.5957l-.042-4.4941a12.9159,12.9159,0,0,0-.21-2.8575,3.668,3.668,0,0,0-3.78-3.1923c-2.3946,0-4.2432,1.3447-5.6289,2.3525-.043,7.31.041,11.1318.2929,16.0469l-.209.2519c-1.9335.042-2.4375.042-4.496.168l-.209-.294c.084-2.9824.209-6.7627.209-14.8281,0-3.5293-.0411-7.0576-.084-10.5859-.084-3.6973-.209-4.9151-.336-6.8057l.211-.2519c2.0156-.336,2.6875-.462,4.5781-.8819l.2519.294c-.2519,4.4951-.2519,9.0312-.2519,13.5683a13.5589,13.5589,0,0,1,7.5195-2.6045,7.115,7.115,0,0,1,2.8145.5039,5.6348,5.6348,0,0,1,3.4453,3.9913,19.3093,19.3093,0,0,1,.293,4.1582v4.915l.0429,1.9746c.084,3.5283.084,4.1162.252,6.4268Z"/><path class="cls-1" d="M27.8428,47.9053l-.1446,14.2568v4.8965c-.0957,6.0967-.2871,8.8809-2.832,11.5693-3.5527,3.7442-8.832,3.7442-10.56,3.7442-6.4336,0-10.1289-2.4-11.9532-4.9922C.6729,75.0752.3838,72.4834.24,67.2988V63.7461C.1924,56.2578.1924,54.9141,0,48.0488l.2881-.2881c3.2637.0489,4.3691.0489,8.4492-.1435l.24.2881c-.0966,4.7519-.1445,8.4482-.1445,12.3369,0,2.5439,0,5.0889.0957,7.6328.0957,3.0244.3848,4.7041,1.1035,5.9521a5.67,5.67,0,0,0,4.8965,2.545,5.542,5.542,0,0,0,4.2246-1.7285c1.2969-1.5362,1.4405-3.8409,1.4405-8.8809,0-5.9043-.2393-11.8086-.48-17.7139l.2871-.2881c2.7363.0489,3.6972.0489,7.2011-.1435Z"/><path class="cls-1" d="M56.0752,81.6045c-3.84,0-4.6563.0478-7.8242.1435l-.2891-.288c0-1.6319.0488-3.3125.0488-4.9444,0-1.8242-.0488-8.4-.1445-9.9844-.1445-1.7285-.3838-4.56-3.0234-4.56a6.5842,6.5842,0,0,0-3.6973,1.4883c.0488,8.5928.0957,10.4648.3848,17.8574l-.2891.2881c-3.84,0-4.56,0-8.0156.1435l-.2891-.288c.0489-3.0723.0967-6.1446.0967-9.2168A133.3357,133.3357,0,0,0,32.36,57.2178l.289-.336c3.6-.48,4.416-.624,8.1123-1.3916l.48.336-.0957,2.64c2.209-1.2959,4.752-2.832,7.6816-2.832,1.7276,0,4.4639.3838,5.9512,2.88,1.2012,1.9687,1.2481,4.1767,1.2969,8.7851V71.043c.0957,4.705.0957,6.0488.3359,10.2734Z"/><path class="cls-1" d="M69.542,81.6523c-3.8887-.0478-4.8477,0-8.3047.1436l-.2881-.3359c.1436-3.9366.2881-6.8643.2881-12.0967A91.2952,91.2952,0,0,0,60.71,57.2178l.2871-.2881L69.2539,55.49l.3359.3838c-.0478,4.08-.1435,8.209-.1435,12.2891,0,6.624.1914,9.457.4316,13.1533ZM68.87,51.2178c-3.4082.4316-4.32.5273-7.5849,1.1035l-.336-.2881c.0479-.9121.0479-1.8721.0479-2.7842,0-1.1513-.0479-2.16-.1436-3.8877l.2881-.3359,7.8242-.9609.2881.288L69.11,50.8818Z"/><path class="cls-1" d="M88.1035,81.6523c-3.456-.0478-4.7041,0-7.8252.1436l-.3359-.3359c-1.0557-3.9366-1.584-5.712-7.9688-24.626l.1924-.3838a63.2345,63.2345,0,0,0,8.4014-.5283l.3359.2881c.6719,3.1679.8633,4.08,2.0645,8.5449l.9121,3.6963,1.1992,5.1845,2.4482-9.457c.96-3.7441,1.1045-4.416,1.7764-7.6328L89.64,56.21l6.7208-.1446.24.3369c-1.3438,3.9356-3.457,10.1768-4.752,14.0645-1.0088,3.0244-1.9209,6.001-3.457,10.8018Z"/><path class="cls-1" d="M119.7646,74.6914l-.3359,5.4248-.2871.3838a18.5509,18.5509,0,0,1-8.2578,1.7285c-3.4561,0-9.9844-.5762-12.7686-7.0566a15.972,15.972,0,0,1-1.1523-6.2891c0-8.3047,4.9932-13.249,12.5293-13.249a12.2967,12.2967,0,0,1,3.4082.4316c1.6318.3848,5.3291,1.5362,7.0088,7.2012a28.1472,28.1472,0,0,1,.7676,7.1523l-.2872.336-15.5058.2881a6.7846,6.7846,0,0,0,1.0566,2.9287c1.1514,1.7275,3.1192,2.64,6,2.64a14.6737,14.6737,0,0,0,7.4883-2.0634ZM112.9,65.7627a5.8679,5.8679,0,0,0-.72-3.3125,3.6842,3.6842,0,0,0-4.9922-1.1514c-1.8242,1.1514-2.16,3.168-2.3047,4.6563Z"/><path class="cls-1" d="M137.9941,64.0342a3.5922,3.5922,0,0,0-1.9677-.6719c-3.2647,0-3.2647,3.1689-3.2647,5.3291,0,3.3115.2881,8.7363.48,12.625l-.2392.3359c-3.8409-.0478-4.6084,0-8.1612.1436l-.2871-.2881c.0957-3.9844.1436-7.92.1436-11.8564,0-6.6729-.1436-8.833-.4327-12.4336l.2891-.2881c3.5039-.5274,4.416-.6719,7.9688-1.4395l.3828.3838-.1436,4.416c1.5362-3.5517,3.7451-4.6562,5.7119-4.6562.3369,0,.6729.0478,1.0088.0478l.2881.336-1.3437,7.8252Z"/><path class="cls-1" d="M154.7471,65.9551c2.64,1.0078,6.3359,2.3994,6.3359,7.6806a8.1639,8.1639,0,0,1-.0478,1.0557c-.8643,6.8643-8.0655,7.5371-11.7139,7.5371a19.9958,19.9958,0,0,1-7.8721-1.6328l-.2392-.4316c.1914-2.4.2392-2.9287.3359-5.4248l.4316-.1914a10.5671,10.5671,0,0,0,1.92,1.3437,12.01,12.01,0,0,0,5.0879,1.3438c2.6894,0,3.7929-1.2959,3.7929-2.4961,0-1.7276-2.1123-2.4483-3.4082-2.88l-1.8242-.6719c-2.2559-.8643-6.24-2.4-6.24-7.5371a7.2175,7.2175,0,0,1,1.2959-4.2246c2.4961-3.6,7.2-3.792,9.5527-3.792a24.4482,24.4482,0,0,1,7.3447,1.2l.24.2881-.48,5.2324-.4317.1435a10.4229,10.4229,0,0,0-6.0009-2.0156c-2.9756,0-3.36,1.584-3.36,2.16,0,1.3437,1.2969,1.872,2.9278,2.4482Z"/><path class="cls-1" d="M173.1387,81.6523c-3.8877-.0478-4.8487,0-8.3047.1436l-.2881-.3359c.1445-3.9366.2881-6.8643.2881-12.0967a90.92,90.92,0,0,0-.5283-12.1455l.289-.2881,8.2559-1.4395.3359.3838c-.0478,4.08-.1445,8.209-.1445,12.2891,0,6.624.1934,9.457.4326,13.1533Zm-.6719-30.4345c-3.4082.4316-4.32.5273-7.585,1.1035l-.3359-.2881c.0488-.9121.0488-1.8721.0488-2.7842,0-1.1513-.0488-2.16-.1445-3.8877l.2871-.3359,7.8252-.9609.2881.288-.1445,6.5293Z"/><path class="cls-1" d="M201.3779,81.6523c-3.6,0-4.5117,0-7.8242.1436l-.24-.2881.0957-1.8721a8.7945,8.7945,0,0,1-6.336,2.5928,10.1263,10.1263,0,0,1-6.289-2.1123c-2.8321-2.3525-3.84-6.0967-3.84-9.8408,0-4.9443,1.3916-8.9287,4.752-11.5215,3.6484-2.88,8.16-2.7842,11.7617-2.6885.0469-5.4716,0-6.6718-.2891-11.1845l.24-.2881,7.9209-1.2481.3359.2881c-.1924,6.3369-.3838,11.5693-.3838,24.2422,0,6.2881.1446,9.1689.336,13.4893Zm-9.5527-19.97c-5.377,0-6.4326,4.1279-6.4326,7.8242,0,.96,0,6.9131,4.6572,6.9131a6.0682,6.0682,0,0,0,3.2637-1.1523c.1445-5.8086.1914-7.0567.1445-13.4414A10.7956,10.7956,0,0,0,191.8252,61.6826Z"/><path class="cls-1" d="M227.7334,70.8994c0,4.5117,0,5.7119.3359,10.417l-.24.3359c-3.1191-.0478-4.1758,0-7.6328.1436l-.2871-.3359V79.6836a9.9229,9.9229,0,0,1-6.6729,2.5449,8.1043,8.1043,0,0,1-8.4013-8.4492,7.6738,7.6738,0,0,1,3.6015-6.5762c2.88-1.7763,5.5684-2.3047,11.3281-3.0722a3.03,3.03,0,0,0-.623-2.0645c-.625-.624-1.3447-.9121-3.1211-.9121a22.2636,22.2636,0,0,0-8.0166,1.92l-.3838-.1914.24-5.2324.2871-.3848a29.2381,29.2381,0,0,1,9.4091-1.584c6.1446,0,8.0655,1.92,9.0245,3.4561,1.248,2.0166,1.248,3.8887,1.2011,8.209Zm-7.873-1.7285c-3.2637.4326-7.0567.96-7.0567,4.1289,0,2.0156,1.4414,2.9277,3.169,2.9277A7.77,7.77,0,0,0,219.86,74.98Z"/><path class="cls-1" d="M255.9287,81.6523c-3.6,0-4.5117,0-7.8242.1436l-.24-.2881.0957-1.8721a8.7945,8.7945,0,0,1-6.336,2.5928,10.1261,10.1261,0,0,1-6.289-2.1123c-2.8321-2.3525-3.84-6.0967-3.84-9.8408,0-4.9443,1.3916-8.9287,4.752-11.5215,3.6484-2.88,8.16-2.7842,11.7617-2.6885.0469-5.4716,0-6.6718-.2891-11.1845l.24-.2881,7.9209-1.2481.3359.2881c-.1924,6.3369-.3838,11.5693-.3838,24.2422,0,6.2881.1445,9.1689.3359,13.4893Zm-9.5527-19.97c-5.377,0-6.4326,4.1279-6.4326,7.8242,0,.96,0,6.9131,4.6572,6.9131a6.0685,6.0685,0,0,0,3.2637-1.1523c.1445-5.8086.1914-7.0567.1445-13.4414A10.7966,10.7966,0,0,0,246.376,61.6826Z"/><path class="cls-1" d="M304.792,47.9053c-.0479,5.3759-.0957,10.7051-.0957,16.081,0,5.7608.0478,10.4649.0957,17.4258l-.24.24c-2.544,0-3.4082,0-6.336.1436l-.3359-.24-4.2725-6.24-4.8008-7.0566c-3.2646-4.752-4.0322-6-6.288-9.7451l.2871,6.4326.1445,5.9053.4805,10.5127-.24.288c-2.7842,0-3.7929,0-7.0088.1436l-.2392-.2881c.0469-4.6562.1435-9.36.1435-14.0644,0-6.4327-.1435-11.9532-.3838-19.3946l.24-.2881c3.5039.0489,4.1269.0489,7.92-.1435l.3359.24c1.2,1.92,1.92,2.9756,5.5206,8.4483l4.3681,6.3847c2.4492,3.6485,2.6885,4.0323,4.08,6.3848l-.1914-7.9209-.1914-6.625-.336-6.48.2393-.2881c2.9766.0489,3.792,0,6.8174-.1435Z"/><path class="cls-1" d="M331.665,70.8994c0,4.5117,0,5.7119.337,10.417l-.24.3359c-3.12-.0478-4.1767,0-7.6328.1436l-.2881-.3359V79.6836a9.9218,9.9218,0,0,1-6.6719,2.5449,8.1038,8.1038,0,0,1-8.4013-8.4492,7.6749,7.6749,0,0,1,3.6006-6.5762c2.8808-1.7763,5.5683-2.3047,11.3291-3.0722a3.0252,3.0252,0,0,0-.6241-2.0645c-.625-.624-1.3437-.9121-3.1211-.9121a22.2576,22.2576,0,0,0-8.0156,1.92l-.3847-.1914.24-5.2324.2881-.3848a29.2337,29.2337,0,0,1,9.4092-1.584c6.1445,0,8.0644,1.92,9.0244,3.4561,1.248,2.0166,1.248,3.8887,1.2,8.209Zm-7.872-1.7285c-3.2647.4326-7.0567.96-7.0567,4.1289,0,2.0156,1.44,2.9277,3.169,2.9277a7.7691,7.7691,0,0,0,3.8877-1.248Z"/><path class="cls-1" d="M355.66,74.98l-.1924,5.7607-.2871.2881a20.1059,20.1059,0,0,1-6.1934,1.0557c-10.8008,0-13.6807-7.4883-13.6807-13.0088,0-4.8965,2.208-13.4414,13.4893-13.4414a19.9656,19.9656,0,0,1,6.7207,1.248l.24.2881c-.3847,2.544-.4326,3.2168-.625,5.7608l-.4795.1435a7.5907,7.5907,0,0,0-4.7041-1.7275c-4.6562,0-6.1933,4.0322-6.1933,7.5361,0,2.8809,1.1045,7.3926,6.5293,7.3926a8.5508,8.5508,0,0,0,4.9922-1.5361Z"/><path class="cls-1" d="M367.7744,81.6523c-3.8887-.0478-4.8486,0-8.3047.1436l-.289-.3359c.1445-3.9366.289-6.8643.289-12.0967a91.0762,91.0762,0,0,0-.5283-12.1455l.2881-.2881,8.2559-1.4395.3359.3838c-.0469,4.08-.1426,8.209-.1426,12.2891,0,6.624.1914,9.457.4317,13.1533Zm-.6719-30.4345c-3.4082.4316-4.32.5273-7.5859,1.1035l-.3359-.2881c.0488-.9121.0488-1.8721.0488-2.7842,0-1.1513-.0488-2.16-.1445-3.8877l.288-.3359,7.8252-.9609.2872.288-.1436,6.5293Z"/><path class="cls-1" d="M384.2812,82.2285c-6.8642,0-9.2167-2.5928-10.4648-4.4648A15.2456,15.2456,0,0,1,371.56,68.98c0-8.833,4.705-13.2979,13.0576-13.2979a17.2682,17.2682,0,0,1,5.8564.9122c6.7207,2.6406,6.7207,10.4169,6.7207,12.289C397.1943,76.084,394.458,82.2285,384.2812,82.2285Zm3.2159-20.1142a4.0371,4.0371,0,0,0-3.0723-1.4883,3.977,3.977,0,0,0-3.5039,2.16c-.96,1.6807-.96,4.753-.96,6.1446,0,4.6572.9121,6.289,1.7276,7.1045A3.8828,3.8828,0,0,0,384.377,77.14c3.9843,0,4.5126-4.3681,4.5126-8.3046C388.89,66.2432,388.6494,63.5068,387.4971,62.1143Z"/><path class="cls-1" d="M424.29,81.6045c-3.8408,0-4.6572.0478-7.8252.1435l-.288-.288c0-1.6319.0478-3.3125.0478-4.9444,0-1.8242-.0478-8.4-.1435-9.9844-.1446-1.7285-.3848-4.56-3.0245-4.56A6.5837,6.5837,0,0,0,409.36,63.459c.0478,8.5928.0957,10.4648.3837,17.8574l-.288.2881c-3.84,0-4.5606,0-8.0166.1435l-.2881-.288c.0478-3.0723.0957-6.1446.0957-9.2168a133.3633,133.3633,0,0,0-.6719-15.0254l.2881-.336c3.6006-.48,4.417-.624,8.1123-1.3916l.4805.336-.0957,2.64c2.208-1.2959,4.7519-2.832,7.68-2.832,1.7286,0,4.4649.3838,5.9532,2.88,1.2,1.9687,1.248,4.1767,1.2968,8.7851V71.043c.0957,4.705.0957,6.0488.336,10.2734Z"/><path class="cls-1" d="M450.6123,70.8994c0,4.5117,0,5.7119.3359,10.417l-.24.3359c-3.1211-.0478-4.1768,0-7.6328.1436l-.2881-.3359V79.6836a9.9251,9.9251,0,0,1-6.6728,2.5449,8.1031,8.1031,0,0,1-8.4-8.4492,7.6761,7.6761,0,0,1,3.6-6.5762c2.8808-1.7763,5.5683-2.3047,11.33-3.0722a3.0262,3.0262,0,0,0-.625-2.0645c-.6231-.624-1.3438-.9121-3.12-.9121a22.2636,22.2636,0,0,0-8.0166,1.92l-.3838-.1914.2393-5.2324.2891-.3848a29.2271,29.2271,0,0,1,9.4082-1.584c6.1445,0,8.0644,1.92,9.0254,3.4561,1.248,2.0166,1.248,3.8887,1.1992,8.209Zm-7.873-1.7285c-3.2647.4326-7.0567.96-7.0567,4.1289,0,2.0156,1.44,2.9277,3.168,2.9277a7.7733,7.7733,0,0,0,3.8887-1.248Z"/><path class="cls-1" d="M463.7764,81.6523c-3.5039-.0478-4.8008,0-8.0166.1436l-.2881-.3359c.1914-4.752.2881-7.6329.2881-12.8174,0-2.8321,0-5.6641-.0479-8.4961-.0957-7.7774-.1445-9.3613-.625-15.2178l.1934-.2881,8.208-1.2959.3359.336c-.1924,5.1845-.2392,7.3447-.2392,11.9052,0,15.169.2392,20.21.48,25.7305Z"/><path class="cls-1" d="M506.9287,81.6523c-3.6,0-4.5117,0-7.8242.1436l-.24-.2881.0957-1.8721a8.7945,8.7945,0,0,1-6.336,2.5928,10.1278,10.1278,0,0,1-6.289-2.1123c-2.8321-2.3525-3.84-6.0967-3.84-9.8408,0-4.9443,1.3926-8.9287,4.752-11.5215,3.6484-2.88,8.16-2.7842,11.7617-2.6885.0469-5.4716,0-6.6718-.2891-11.1845l.24-.2881,7.9218-1.2481.336.2881c-.1934,6.3369-.3848,11.5693-.3848,24.2422,0,6.2881.1445,9.1689.3359,13.4893Zm-9.5527-19.97c-5.377,0-6.4317,4.1279-6.4317,7.8242,0,.96,0,6.9131,4.6563,6.9131a6.0715,6.0715,0,0,0,3.2637-1.1523c.1445-5.8086.1914-7.0567.1445-13.4414A10.7966,10.7966,0,0,0,497.376,61.6826Z"/><path class="cls-1" d="M533.4873,74.6914l-.3359,5.4248-.2891.3838a18.5359,18.5359,0,0,1-8.2559,1.7285c-3.457,0-9.9863-.5762-12.7695-7.0566a15.9881,15.9881,0,0,1-1.1523-6.2891c0-8.3047,4.9922-13.249,12.5293-13.249a12.2967,12.2967,0,0,1,3.4082.4316c1.6328.3848,5.3281,1.5362,7.0078,7.2012a28.1051,28.1051,0,0,1,.7695,7.1523l-.289.336-15.5059.2881a6.8368,6.8368,0,0,0,1.0566,2.9287c1.1524,1.7275,3.1211,2.64,6,2.64a14.676,14.676,0,0,0,7.49-2.0634Zm-6.8652-8.9287a5.8689,5.8689,0,0,0-.7207-3.3125,3.6842,3.6842,0,0,0-4.9922-1.1514c-1.8242,1.1514-2.16,3.168-2.3047,4.6563Z"/><path class="cls-1" d="M561.9482,47.9053c-.1425,6.624-.24,13.249-.24,19.874,0,6.96.0977,9.168.3359,13.585l-.2871.288c-3.9843,0-4.9453,0-8.5449.1436l-.24-.2881c.1914-4.9922.289-7.92.289-13.5849,0-12.2413-.1445-14.6895-.4336-19.8741l.1934-.2881c3.4551.0489,4.5606.0489,8.6875-.1435Z"/><path class="cls-1" d="M590.5869,81.6045c-3.8418,0-4.6562.0478-7.8262.1435l-.2871-.288c0-1.6319.0489-3.3125.0489-4.9444,0-1.8242-.0489-8.4-.1446-9.9844-.1445-1.7285-.3847-4.56-3.0254-4.56a6.5838,6.5838,0,0,0-3.6953,1.4883c.0469,8.5928.0957,10.4648.3848,17.8574l-.2891.2881c-3.84,0-4.56,0-8.0175.1435l-.2872-.288c.0489-3.0723.0957-6.1446.0957-9.2168a133.3934,133.3934,0,0,0-.6718-15.0254l.289-.336c3.6-.48,4.416-.624,8.1114-1.3916l.48.336-.0957,2.64c2.2071-1.2959,4.752-2.832,7.68-2.832,1.7285,0,4.4649.3838,5.9531,2.88,1.2012,1.9687,1.2481,4.1767,1.2969,8.7851V71.043c.0957,4.705.0957,6.0488.336,10.2734Z"/><path class="cls-1" d="M603.6826,75.22a20.2407,20.2407,0,0,0,4.752,1.2l1.1523.1914c3.1211.7207,8.4,1.8721,8.4,7.9209,0,4.6563-4.0312,9.0733-12.8164,9.0733-1.873,0-5.5195-.0967-8.209-2.0166a6.7691,6.7691,0,0,1-2.9765-5.4248c0-3.12,2.2558-4.9444,3.6972-6.0479l-2.0156-1.44v-.4317c1.1035-1.9687,1.8223-3.2646,3.168-5.8564a8.2471,8.2471,0,0,1-3.2168-2.6885,7.7793,7.7793,0,0,1-1.3926-4.6562,8.05,8.05,0,0,1,3.0723-6.4805c3.121-2.5928,7.6816-2.4971,11.09-2.4l2.207.0479c3.0254.0478,4.0332,0,7.7285-.1446l.2891.24-.3359,4.8007-.2891.24-3.3125-.1924a6.2745,6.2745,0,0,1,1.2969,4.1768c0,4.6562-3.6485,6.7207-6.1446,7.5839a13.45,13.45,0,0,1-5.3769.6241Zm-1.248,7.1045a4.56,4.56,0,0,0-1.3926,3.168c0,1.6807,1.2012,3.6963,4.7539,3.6963,3.168,0,4.3672-1.4883,4.3672-2.9278a2.118,2.118,0,0,0-.959-1.872c-.5762-.4805-.625-.4805-4.8965-1.584Zm2.7851-21.65c-1.7773,0-3.2168,1.5362-3.2168,3.9366a6.6176,6.6176,0,0,0,.4317,2.496,3.1058,3.1058,0,0,0,2.8808,2.0166c.6719,0,3.0235-.3359,3.0723-4.2246C608.4346,62.7861,607.4268,60.6738,605.22,60.6738Z"/><path class="cls-1" d="M642.6123,74.6914l-.3359,5.4248-.2891.3838a18.5359,18.5359,0,0,1-8.2559,1.7285c-3.457,0-9.9863-.5762-12.7695-7.0566a15.9881,15.9881,0,0,1-1.1523-6.2891c0-8.3047,4.9922-13.249,12.5293-13.249a12.2967,12.2967,0,0,1,3.4082.4316c1.6328.3848,5.3281,1.5362,7.0078,7.2012a28.1051,28.1051,0,0,1,.7695,7.1523l-.289.336L627.73,71.043a6.8368,6.8368,0,0,0,1.0566,2.9287c1.1524,1.7275,3.1211,2.64,6,2.64a14.676,14.676,0,0,0,7.49-2.0634Zm-6.8652-8.9287a5.8689,5.8689,0,0,0-.7207-3.3125,3.6842,3.6842,0,0,0-4.9922-1.1514c-1.8242,1.1514-2.16,3.168-2.3047,4.6563Z"/><path class="cls-1" d="M670.624,81.6045c-3.84,0-4.6562.0478-7.8242.1435l-.2891-.288c0-1.6319.0489-3.3125.0489-4.9444,0-1.8242-.0489-8.4-.1446-9.9844-.1425-1.7285-.3828-4.56-3.0234-4.56a6.59,6.59,0,0,0-3.6973,1.4883c.0489,8.5928.0977,10.4648.3848,17.8574l-.2871.2881c-3.8418,0-4.5606,0-8.0176.1435l-.2871-.288c.0469-3.0723.0957-6.1446.0957-9.2168a133.8509,133.8509,0,0,0-.6719-15.0254l.2871-.336c3.6-.48,4.4161-.624,8.1133-1.3916l.4805.336-.0977,2.64c2.209-1.2959,4.7539-2.832,7.6817-2.832,1.7285,0,4.4648.3838,5.9531,2.88,1.1992,1.9687,1.248,4.1767,1.2949,8.7851V71.043c.0957,4.705.0957,6.0488.336,10.2734Z"/><path class="cls-1" d="M684.0908,81.6523c-3.8887-.0478-4.8476,0-8.3047.1436l-.2871-.3359c.1426-3.9366.2871-6.8643.2871-12.0967a91.2952,91.2952,0,0,0-.5273-12.1455l.2871-.2881,8.2578-1.4395.3359.3838c-.0488,4.08-.1445,8.209-.1445,12.2891,0,6.624.1914,9.457.4317,13.1533Zm-.6719-30.4345c-3.4082.4316-4.32.5273-7.5839,1.1035l-.336-.2881c.0469-.9121.0469-1.8721.0469-2.7842,0-1.1513-.0469-2.16-.1445-3.8877l.289-.3359,7.8242-.9609.2891.288-.1445,6.5293Z"/><path class="cls-1" d="M710.6025,74.6914l-.3359,5.4248-.2891.3838a18.5351,18.5351,0,0,1-8.2558,1.7285c-3.4571,0-9.9863-.5762-12.77-7.0566A15.99,15.99,0,0,1,687.8,68.8828c0-8.3047,4.9922-13.249,12.5293-13.249a12.2967,12.2967,0,0,1,3.4082.4316c1.6328.3848,5.3281,1.5362,7.0078,7.2012a28.1051,28.1051,0,0,1,.7695,7.1523l-.289.336L695.72,71.043a6.8358,6.8358,0,0,0,1.0567,2.9287c1.1523,1.7275,3.1211,2.64,6,2.64a14.6756,14.6756,0,0,0,7.49-2.0634Zm-6.8652-8.9287a5.8681,5.8681,0,0,0-.7207-3.3125,3.6842,3.6842,0,0,0-4.9922-1.1514c-1.8242,1.1514-2.16,3.168-2.3047,4.6563Z"/><path class="cls-1" d="M728.8311,64.0342a3.595,3.595,0,0,0-1.9668-.6719c-3.2657,0-3.2657,3.1689-3.2657,5.3291,0,3.3115.2891,8.7363.4805,12.625l-.24.3359c-3.84-.0478-4.6075,0-8.16.1436l-.2891-.2881c.0977-3.9844.1446-7.92.1446-11.8564,0-6.6729-.1446-8.833-.4317-12.4336l.2871-.2881c3.5059-.5274,4.418-.6719,7.9688-1.4395l.3848.3838-.1446,4.416c1.5371-3.5517,3.7442-4.6562,5.7129-4.6562.336,0,.6719.0478,1.0078.0478l.2891.336-1.3438,7.8252Z"/><path class="cls-1" d="M741.7334,81.6523c-3.8887-.0478-4.8477,0-8.3047.1436l-.2871-.3359c.1426-3.9366.2871-6.8643.2871-12.0967a91.2952,91.2952,0,0,0-.5273-12.1455l.2871-.2881,8.2578-1.4395.3359.3838c-.0488,4.08-.1445,8.209-.1445,12.2891,0,6.624.1914,9.457.4316,13.1533Zm3.2637-36.7236c-1.5352,2.3525-3.6953,5.6651-5.1836,8.1133l-.336.1914H734.292l-.1914-.2881a52.3838,52.3838,0,0,0,2.9277-8.0166l.24-.24,7.5859-.0957Z"/><path class="cls-1" d="M767.8662,70.8994c0,4.5117,0,5.7119.3359,10.417l-.24.3359c-3.1211-.0478-4.1777,0-7.6328.1436L760.04,81.46V79.6836a9.9217,9.9217,0,0,1-6.6718,2.5449,8.1031,8.1031,0,0,1-8.4-8.4492,7.6761,7.6761,0,0,1,3.6-6.5762c2.8808-1.7763,5.5683-2.3047,11.33-3.0722a3.0262,3.0262,0,0,0-.625-2.0645c-.6231-.624-1.3438-.9121-3.1192-.9121a22.2642,22.2642,0,0,0-8.0176,1.92l-.3847-.1914.24-5.2324.2891-.3848a29.2271,29.2271,0,0,1,9.4082-1.584c6.1445,0,8.0644,1.92,9.0254,3.4561,1.248,2.0166,1.248,3.8887,1.1992,8.209Zm-7.873-1.7285c-3.2637.4326-7.0567.96-7.0567,4.1289,0,2.0156,1.4395,2.9277,3.168,2.9277a7.773,7.773,0,0,0,3.8887-1.248Z"/><rect class="cls-2" x="834.9609" width="3" height="169"/><g id="CAS"><path class="cls-3" d="M991.2849,10a3.4877,3.4877,0,0,0,.1345.7777c.0122.1017.0349.2021.0529.3031a1.6922,1.6922,0,0,1,.3131.74q1.8989,8.4923,3.805,16.983c.2751,1.2234.5567,2.4455.81,3.6737.1244.6039.0046.7282-.6014.5934a36.2973,36.2973,0,0,0-9.4636-.7129,56.4605,56.4605,0,0,0-9.7778,1.3116A61.076,61.076,0,0,0,965.97,36.98a37.1169,37.1169,0,0,0-10.1017,5.9762,37.539,37.539,0,0,0-8.0859,9.2869,13.893,13.893,0,0,0-1.6249,4.0191,7.1474,7.1474,0,0,0,1.8387,6.9491,1.9726,1.9726,0,0,0,.38.3854,6.0192,6.0192,0,0,0,1.8068,1.2648,14.28,14.28,0,0,0,3.6716,1.2573,22.282,22.282,0,0,0,5.2738.4136,32.7243,32.7243,0,0,0,9.4914-1.7712,38.4529,38.4529,0,0,0,23.5613-22.34,41.1453,41.1453,0,0,0,1.3562-3.9828c.064-.224.11-.2368.3116-.2226q.6552.0461,1.31.0916,1.3557.0941,2.7115.1885a1.82,1.82,0,0,1,.224.0312.1006.1006,0,0,1,.0809.1352c-.0739.2922-.1489.5843-.2308.8744a33.122,33.122,0,0,1-3.4962,7.9794,44.5763,44.5763,0,0,1-5.6456,7.47,58.72,58.72,0,0,1-10.3413,8.7818,62.7667,62.7667,0,0,1-7.7264,4.4459,53.9449,53.9449,0,0,1-10.8211,3.9461,41.9129,41.9129,0,0,1-4.9435.8884,32.1274,32.1274,0,0,1-4.4788.1962,23.3432,23.3432,0,0,1-7.0948-1.3177,20.5759,20.5759,0,0,1-5.761-2.9962,16.7245,16.7245,0,0,1-5.8564-8.099,20.6272,20.6272,0,0,1-1.0172-4.7248,26.3159,26.3159,0,0,1-.1422-3.4813,14.5309,14.5309,0,0,1,.9207-4.5054,23.81,23.81,0,0,1,2.476-4.8238A40.84,40.84,0,0,1,938.6,37.5718a73.4877,73.4877,0,0,1,10.6829-9.1625,108.9143,108.9143,0,0,1,12.9277-7.921,117.3754,117.3754,0,0,1,15.115-6.6307c3.0428-1.0839,6.1283-2.0285,9.2619-2.8133,1.4346-.3592,2.8771-.6844,4.3294-.9651.0536-.0466.1391-.018.1867-.0789Z"/><path class="cls-3" d="M1038.9246,140.3235a7.1913,7.1913,0,0,1-4.2328,5.8077,11.4288,11.4288,0,0,1-3.0744.899,19.6132,19.6132,0,0,1-3.1608.2187q-15.2844.0006-30.5688,0c-.0907,0-.1816.0045-.272-.001-.1638-.01-.3547.0618-.485-.036-.1459-.1093-.0393-.3116-.069-.47a4.8477,4.8477,0,0,1-.0345-.8591q-.0187-2.0622-.0347-4.1246a3.2838,3.2838,0,0,1,.0108-.362c.0034-.0325.05-.0717.0852-.0869a.3637.3637,0,0,1,.1341-.0126c.1361-.0014.2722-.0008.4082-.0008q15.6246,0,31.2491,0a6.38,6.38,0,0,0,1.3492-.1344,3.1966,3.1966,0,0,0,2.5127-2.3441,6.1848,6.1848,0,0,0,.2761-1.83c.0046-1.4812.0015-2.9624.0012-4.4436,0-.06-.0021-.1209-.0062-.1811a.1084.1084,0,0,0-.1142-.1119q-.2267-.0058-.4533-.0059-17.3706,0-34.7413-.0018c-.1939,0-.4325.0787-.5711-.04-.1643-.1409-.0654-.3969-.0659-.6006-.0056-2.373.004-4.746-.0067-7.1188-.0055-1.2079-.0406-2.4156-.0681-3.6233a12.754,12.754,0,0,1,.37-3.683,7.0856,7.0856,0,0,1,3.11-4.299,9.07,9.07,0,0,1,2.3533-1.0358,14.7229,14.7229,0,0,1,3.9793-.5634c10.5516-.0778,21.1034-.0131,31.6552-.036a1.3676,1.3676,0,0,0,.5378-.0358v5.9854a1.1918,1.1918,0,0,1-.8289.1422q-6.936.0054-13.8719.0025-8.3412,0-16.6825-.0027a10.4844,10.4844,0,0,0-1.4889.1185,3.0994,3.0994,0,0,0-2.659,2.2825,4.64,4.64,0,0,0-.2415,1.4251c-.01,1.4654-.0063,2.9308-.002,4.3962.0015.5041.048.5445.5381.5583.1661.0047.3324.0014.4986.0014q16.9318,0,33.8637.0029a1.2718,1.2718,0,0,1,.8743.1419v13.6938c-.0626.0581-.0421.1351-.0469.2064A.2881.2881,0,0,1,1038.9246,140.3235Z"/><path class="cls-3" d="M901.8327,127.4344a19.1623,19.1623,0,0,1,1.6662-7.0518,13.7967,13.7967,0,0,1,5.1919-5.9087A18.7358,18.7358,0,0,1,914,112.2132a27.9307,27.9307,0,0,1,4.0478-.7491,41.2983,41.2983,0,0,1,4.7022-.2593q10.2264.0022,20.4528.002c.6473,0,.5546-.0923.5562.5407.0042,1.6473.0014,3.2946.0014,4.9419,0,.1057.002.2116-.0009.3173-.0057.2085-.0161.2183-.2426.2239-.1209.003-.2419.0008-.3628.0008-3.9,0-7.8-.0262-11.7.0084-3.0833.0274-6.1664.0047-9.25.0261a25.8036,25.8036,0,0,0-4.9083.4751,14.6363,14.6363,0,0,0-4.5757,1.6546,9.5017,9.5017,0,0,0-4.531,6.0216,15.2791,15.2791,0,0,0-.4523,4.31,14.0659,14.0659,0,0,0,.5393,3.6176,9.5469,9.5469,0,0,0,4.9609,6.0031,15.5337,15.5337,0,0,0,4.2794,1.4232,25.636,25.636,0,0,0,3.5529.4039q.951.0476,1.9021.0479,10.113,0,20.2261,0c.136,0,.272.0017.4081.0016.1167,0,.1549.0674.1538.1725-.001.0907.0006.1814.0006.2721q0,2.5616,0,5.1232c0,.1058-.0016.2115-.004.3173a.1282.1282,0,0,1-.1436.1357c-.136.003-.2721.0034-.4081.0034-3.2652,0-6.5307-.0283-9.7955.0076-3.6879.0405-7.3756.0156-11.0634.02a37.4646,37.4646,0,0,1-4.0236-.223,29.402,29.402,0,0,1-3.8814-.66,19.5486,19.5486,0,0,1-5.29-2.078,13.9186,13.9186,0,0,1-6.2-7.48,18.7,18.7,0,0,1-.9352-3.8647c-.0861-.6286-.1607-1.2579-.1866-1.8923-.1241-.2021-.0582-.4265-.0747-.6411-.012-.1566.0334-.3241-.0915-.4579v-1.36A6.952,6.952,0,0,0,901.8327,127.4344Z"/><path class="cls-4" d="M982.9363,158.915c-.14-.0552-.2852-.1011-.42-.1671a1.5817,1.5817,0,0,1-.9439-1.3383c-.0138-.1424.0329-.2034.17-.2064a1.2788,1.2788,0,0,1,.4463.0051c.186.8905.7923,1.1258,1.6107,1.1322a1.56,1.56,0,0,0,.6586-.1466.8536.8536,0,0,0,.38-.31.6741.6741,0,0,0-.1522-.9286,1.3222,1.3222,0,0,0-.4893-.2276c-.3357-.0873-.6722-.1715-1.0058-.2662a4.4952,4.4952,0,0,1-.6427-.2134,1.2024,1.2024,0,0,1-.795-1.1567,1.2464,1.2464,0,0,1,.7906-1.2138,2.47,2.47,0,0,1,2.1875.06,1.3808,1.3808,0,0,1,.7477,1.12c.016.1163-.0151.1485-.15.1689-.0447.0068-.09.0073-.1351.0144-.3746.0594-.3658.0133-.449-.2695a.8893.8893,0,0,0-.7061-.6315,1.9883,1.9883,0,0,0-1.1148.0532.71.71,0,0,0-.4315.3771.5717.5717,0,0,0,.2367.7808,2.1147,2.1147,0,0,0,.4625.1794c.3633.1008.7315.1842,1.0957.2818a2.9306,2.9306,0,0,1,.6325.24,1.3687,1.3687,0,0,1,.1934,2.2838,2.7667,2.7667,0,0,1-.7164.38c-.0513.0524-.14.0221-.1869.0834h-1.0885C983.0745,158.9392,982.9855,158.97,982.9363,158.915Z"/><path class="cls-4" d="M973.4116,158.915c-.1271-.0473-.2592-.0846-.3807-.1437a1.605,1.605,0,0,1-.9845-1.3608c-.0127-.1424.0316-.2047.1682-.207a1.021,1.021,0,0,1,.4528.0148c.0222.0688.049.1389.0675.2111a1.0943,1.0943,0,0,0,.7443.7868,1.9775,1.9775,0,0,0,1.332.0278.8.8,0,0,0,.6191-.749.62.62,0,0,0-.2717-.5434,1.528,1.528,0,0,0-.4911-.2247c-.3358-.0873-.6715-.1746-1.0064-.2649a3.5831,3.5831,0,0,1-.7221-.26,1.18,1.18,0,0,1-.7111-1.0705,1.2593,1.2593,0,0,1,.6744-1.1958,2.2816,2.2816,0,0,1,1.268-.2717,2.5642,2.5642,0,0,1,.8389.1753,1.4547,1.4547,0,0,1,.9456,1.2257.1228.1228,0,0,1-.1128.1589c-.0748.01-.15.0164-.2251.0257-.2981.0374-.3128.0129-.3845-.2419a.9208.9208,0,0,0-.7709-.6789,2.0149,2.0149,0,0,0-1.0286.0523.7386.7386,0,0,0-.4706.396.5784.5784,0,0,0,.2074.7569,1.6207,1.6207,0,0,0,.5028.1993c.3647.0954.7317.1825,1.0957.28a2.5642,2.5642,0,0,1,.6707.2659,1.3517,1.3517,0,0,1,.1489,2.2562,2.6065,2.6065,0,0,1-.7162.381c-.0513.0524-.1395.0222-.1868.0834h-1.0885C973.55,158.9392,973.4609,158.97,973.4116,158.915Z"/><path class="cls-5" d="M950.0083,158.915c-.1267-.0484-.2569-.089-.3794-.1463a1.6245,1.6245,0,0,1-.9893-1.3573c-.0162-.1391.0311-.204.1667-.2076a1.291,1.291,0,0,1,.4527.0064c.0287.0877.0611.1711.0833.2572a1.0276,1.0276,0,0,0,.64.7125,1.9605,1.9605,0,0,0,1.4983.0336.8391.8391,0,0,0,.425-.322.6791.6791,0,0,0-.1749-.9572,1.3374,1.3374,0,0,0-.4508-.2031c-.349-.0943-.7-.18-1.049-.2753a4.1256,4.1256,0,0,1-.7205-.2621,1.2719,1.2719,0,0,1-.0737-2.225,2.175,2.175,0,0,1,.8073-.2755,2.52,2.52,0,0,1,1.4188.1708,1.4305,1.4305,0,0,1,.8808,1.1745c.02.1258-.0094.168-.128.1857-.1043.0156-.2092.0291-.3144.0366-.1658.012-.2049-.0046-.2514-.1848a1.01,1.01,0,0,0-1.0318-.7816,1.9924,1.9924,0,0,0-.8034.0908.776.776,0,0,0-.4465.3619.5679.5679,0,0,0,.2024.7888,2.1324,2.1324,0,0,0,.5019.1983c.3625.1017.7309.1823,1.0945.28a2.6,2.6,0,0,1,.67.2657,1.36,1.36,0,0,1,.1457,2.2573,2.5239,2.5239,0,0,1-.7174.376c-.0481.0569-.1378.0256-.1839.0867h-1.0886C950.1465,158.9392,950.0575,158.97,950.0083,158.915Z"/><path class="cls-4" d="M1009.5145,158.915c-.1544-.06-.3146-.1088-.462-.1829a1.5941,1.5941,0,0,1-.9126-1.3128c-.0161-.1381.0349-.21.1645-.2142a1.057,1.057,0,0,1,.4556.0123c.0371.1087.0743.2214.1139.3332a1.0332,1.0332,0,0,0,.6089.6311,2.0092,2.0092,0,0,0,1.4154.0658.9069.9069,0,0,0,.5092-.3555.6718.6718,0,0,0-.1384-.9289,1.255,1.255,0,0,0-.4857-.2325c-.3348-.0892-.6708-.1737-1.0049-.2652-.174-.0477-.3473-.1-.5167-.1622a2.3126,2.3126,0,0,1-.3254-.155,1.2756,1.2756,0,0,1,.0788-2.2237,2.4851,2.4851,0,0,1,1.4053-.2474,2.5265,2.5265,0,0,1,.7842.2038,1.4542,1.4542,0,0,1,.8418,1.1542c.0207.1194-.0162.172-.1289.1892-.1043.0159-.2092.03-.3144.0365-.1637.0106-.2106-.011-.2515-.188a.9724.9724,0,0,0-.9425-.77,1.9318,1.9318,0,0,0-.85.07.8184.8184,0,0,0-.4874.3777.5546.5546,0,0,0,.1975.7843,2.227,2.227,0,0,0,.5023.1987c.3626.1017.7308.1831,1.0948.28a2.7,2.7,0,0,1,.67.2652,1.37,1.37,0,0,1,.1889,2.2317,2.572,2.572,0,0,1-.7526.4049c-.0488.0558-.1381.0246-.1843.0858h-1.0886C1009.6527,158.9392,1009.5637,158.97,1009.5145,158.915Z"/><path class="cls-4" d="M1002.7149,158.9091c-.1647-.0739-.3361-.1359-.4928-.2238a1.631,1.631,0,0,1-.8391-1.32.1339.1339,0,0,1,.1271-.1556c.0744-.0109.15-.0124.2257-.016.2623-.0127.2641-.0129.3547.2656a1.1287,1.1287,0,0,0,.7246.7534,2.0525,2.0525,0,0,0,1.3334.0362,1.02,1.02,0,0,0,.393-.219.6822.6822,0,0,0-.0867-1.1188,1.4852,1.4852,0,0,0-.4564-.1917q-.5046-.1267-1.0064-.2642a3.38,3.38,0,0,1-.721-.2625,1.1927,1.1927,0,0,1-.7011-1.0835,1.2706,1.2706,0,0,1,.6629-1.1626,2.3486,2.3486,0,0,1,1.4447-.2709,2.3892,2.3892,0,0,1,.7029.1675,1.482,1.482,0,0,1,.9284,1.2413.1108.1108,0,0,1-.0956.13,3.3116,3.3116,0,0,1-.3581.0452c-.1636.0128-.1934-.0018-.2417-.1848a.9927.9927,0,0,0-.9032-.7691,1.8852,1.8852,0,0,0-.9391.0814.7.7,0,0,0-.516.6225.5174.5174,0,0,0,.2791.528,2.5462,2.5462,0,0,0,.5039.1967c.3628.1019.7313.1834,1.0952.2816a2.6263,2.6263,0,0,1,.7457.316,1.3616,1.3616,0,0,1,.2149,2.0568,2.0383,2.0383,0,0,1-.5884.415c-.0822.0371-.1662.07-.2494.1053-.0442.0623-.1362.0295-.181.0907h-.9071c-.0845-.08-.19-.0339-.2856-.0468C1002.8232,158.9514,1002.76,158.9638,1002.7149,158.9091Z"/><path class="cls-6" d="M938.6672,158.9215c-.1249-.0521-.251-.1016-.3745-.1569a1.3965,1.3965,0,0,1-.7829-.8874,2.7755,2.7755,0,0,1-.1316-.8465c-.0047-1.0109-.0022-2.0219-.0017-3.0328a.8824.8824,0,0,1,.0107-.1348.1143.1143,0,0,1,.1213-.1069c.5976-.0032.5331-.0806.5369.47.0061.905.0084,1.81.0213,2.7151a3.1254,3.1254,0,0,0,.07.5822.9268.9268,0,0,0,.6238.7172,1.8374,1.8374,0,0,0,1.2846-.0183.8479.8479,0,0,0,.5387-.5683,2.875,2.875,0,0,0,.111-.894q.002-1.2222,0-2.4444c0-.1057-.0025-.2114.0008-.3169.0072-.2273.0233-.2412.2709-.2461.0755-.0015.151-.0018.2264.0005.187.0055.2062.0185.2064.2125.001,1.026.0035,2.052-.0078,3.0779a3.3636,3.3636,0,0,1-.0933.67,1.4446,1.4446,0,0,1-.8431,1.0531c-.1092.0506-.2206.0966-.3309.1447-.0459.06-.1369.0279-.1822.089h-1.0885C938.8064,158.94,938.721,158.968,938.6672,158.9215Z"/><path class="cls-6" d="M933.6774,158.9186c-.0847-.032-.1693-.0646-.2543-.0959a1.8269,1.8269,0,0,1-1.005-.8706,3.33,3.33,0,0,1-.1913-2.8831,2.1,2.1,0,0,1,1.5109-1.3131,2.5074,2.5074,0,0,1,1.3-.0134,1.8879,1.8879,0,0,1,1.3986,1.3765.3751.3751,0,0,1-.26.1309c-.3629.0907-.3682.0906-.5444-.2465a1.3605,1.3605,0,0,0-1.659-.6814,1.3805,1.3805,0,0,0-1.0755.9435,3.0761,3.0761,0,0,0,.03,2.1713,1.5523,1.5523,0,0,0,2.352.6274,1.4311,1.4311,0,0,0,.4286-.5738c.04-.0974.0693-.1992.1069-.2977a.1392.1392,0,0,1,.182-.0873c.1173.0282.2343.0578.35.0907.1535.0435.1909.1128.1382.2692a2.0537,2.0537,0,0,1-1.2276,1.3645c-.07.0269-.1393.058-.209.0871-.0512.0524-.1395.0221-.1868.0834h-.9978C933.8173,158.9391,933.73,158.9688,933.6774,158.9186Z"/><path class="cls-6" d="M1020.1276,158.915a4.4044,4.4044,0,0,1-.4982-.2145,2.0156,2.0156,0,0,1-.8559-.9675,3.4912,3.4912,0,0,1-.13-2.5185,2.1079,2.1079,0,0,1,1.5481-1.45,2.5592,2.5592,0,0,1,1.1215-.0618,1.8948,1.8948,0,0,1,1.5042,1.1654c.0184.0412.0332.0841.0477.127s.0263.086.04.13c-.0584.1126-.1772.1029-.27.1271-.352.0912-.355.0874-.5345-.257a1.2787,1.2787,0,0,0-1.1682-.7182,1.56,1.56,0,0,0-1.6448,1.2566,3.2136,3.2136,0,0,0,.0838,1.8284,1.4619,1.4619,0,0,0,1.4142,1.0035,1.4205,1.4205,0,0,0,1.4329-.9646c.0346-.0974.0681-.1951.1022-.2929a.717.717,0,0,1,.15.0013c.6132.1543.6219.18.3188.7621a2,2,0,0,1-.9634.9221c-.0819.0376-.1644.074-.2466.111-.0669.0957-.2.0045-.2686.0954h-.9978C1020.2658,158.9392,1020.1768,158.97,1020.1276,158.915Z"/><path class="cls-6" d="M921.4246,158.9245c-.071-.0252-.1416-.0516-.2132-.0753a1.9226,1.9226,0,0,1-1.198-1.0986,3.4643,3.4643,0,0,1-.1288-2.5606,2.1187,2.1187,0,0,1,1.6523-1.45,2.5421,2.5421,0,0,1,.988-.04,1.9229,1.9229,0,0,1,1.6246,1.4433,1.0784,1.0784,0,0,1-.4349.1426c-.1813.0319-.2443.0548-.337-.1836a1.1619,1.1619,0,0,0-.7863-.7547,1.5719,1.5719,0,0,0-2.0089.9877,3.1958,3.1958,0,0,0,.0113,2.001,1.5407,1.5407,0,0,0,1.9765.9533,1.2985,1.2985,0,0,0,.7711-.6571c.0815-.16.1425-.33.223-.52.19-.0457.3637.0774.55.1089.1058.0179.1266.0884.09.208a2.044,2.044,0,0,1-1.2432,1.4029c-.0561.0215-.1088.0517-.1631.0779-.0442.0623-.1362.0295-.181.0907h-.9978C921.5685,158.9384,921.483,158.9663,921.4246,158.9245Z"/><path class="cls-6" d="M1038.9987,153.9218c-.5814.8427-1.1581,1.6887-1.748,2.5254a.9181.9181,0,0,0-.1874.5843c.0159.5876.0142,1.1757.02,1.7636-.2025.2775-.4549.1685-.7033.0911-.0065-.528-.0346-1.0569-.0122-1.5837a1.5913,1.5913,0,0,0-.31-1.0481c-.507-.7127-.9786-1.4506-1.463-2.1793a1.6667,1.6667,0,0,1-.1271-.2367c-.0071-.0159.017-.0581.0376-.0713a.1622.1622,0,0,1,.0879-.0135c.2106.0061.4211.0139.6316.0213.1137.1585.2345.3125.34.4764.367.5708.7283,1.1453,1.0933,1.7174a1.0712,1.0712,0,0,0,.1114.1206c.2087-.3224.4085-.6336.6108-.9433.2641-.4041.5325-.8055.7936-1.2114a.3342.3342,0,0,1,.3283-.1858c.1649.0106.3315-.0045.4974-.0084Z"/><path class="cls-6" d="M901.6627,153.74c.1955.004.391.0063.5864.0123.19.0058.2129.028.2215.2.0023.045.0011.09.0011.1354q0,2.3025-.0007,4.6051c0,.06-.0055.12-.0084.18a1.1314,1.1314,0,0,1-.8.0358Z"/><path class="cls-7" d="M1038.9209,140.1442c-.0125-.0786-.0229-.1564.0778-.1883v.1814Q1038.9645,140.1943,1038.9209,140.1442Z"/><path class="cls-8" d="M1038.9209,140.1442a.5636.5636,0,0,0,.0778-.0069v.1814l-.0367.0084-.0374-.0036Z"/><path class="cls-9" d="M991.1034,10c-.0274.1088-.1066.095-.1867.0789A.36.36,0,0,0,990.922,10Z"/><path class="cls-10" d="M948.3764,63.5962a.2985.2985,0,0,1-.2366-.111,7.4367,7.4367,0,0,1-1.4206-1.7507,7.0228,7.0228,0,0,1-.8608-2.4124,1.9472,1.9472,0,0,1-.0194-.3162c-.0043-.3626-.0026-.7253-.0085-1.0878a7.5885,7.5885,0,0,1,.3539-2.2674,16.37,16.37,0,0,1,1.7781-3.95c.5052-.8246,1.0576-1.6148,1.6328-2.3895.3051-.4109.6486-.7932.9713-1.1912.5994-.7393,1.2533-1.428,1.9146-2.1116.24-.248.4471-.5324.7076-.7608.6022-.528,1.1482-1.1151,1.7429-1.6492A30.6937,30.6937,0,0,1,959.09,40.41c.8178-.5139,1.6379-1.0232,2.4968-1.4672.55-.2842,1.092-.5836,1.6474-.8561,1.26-.6184,2.5475-1.1756,3.8531-1.6915q1.7472-.69,3.5357-1.2638c1.5216-.4864,3.0616-.9078,4.6145-1.2843q1.6242-.3939,3.267-.6953,1.2629-.2329,2.5387-.4075c.5953-.0824,1.1929-.161,1.7889-.2292a7.3825,7.3825,0,0,1,1.3949-.1176c.6054-.1543,1.2352-.0218,1.8436-.1574a2.1123,2.1123,0,0,1,.4522-.0156q1.7683-.0015,3.5367.0006a2.0138,2.0138,0,0,1,.6736.0628.5826.5826,0,0,0,.2249.0156,8.5422,8.5422,0,0,1,1.5769.1146,25.1139,25.1139,0,0,1,3.07.5c.1606.0395.3234.07.4857.1021.2092.0416.2971-.0362.2613-.2331-.03-.1628-.061-.3254-.098-.4867-.2251-.9826-.4544-1.9643-.678-2.9473q-.4155-1.8267-.8242-3.6549-.3654-1.63-.7269-3.26-.404-1.806-.81-3.6116-.4105-1.8277-.8217-3.6555c-.24-1.0719-.4853-2.1426-.7085-3.2179-.061-.2939-.1565-.5777-.2123-.8718a.28.28,0,0,0,.288.0809q.38-.0587.7619-.1068a2.3991,2.3991,0,0,1,.3157-.02c.149.001.1777.025.2112.1764q.1571.7069.3084,1.4153.8062,3.7387,1.6115,7.4777.7516,3.4961,1.5,6.9926.7443,3.4512,1.4957,6.9008c.0382.1766.0749.3538.1037.5322.0119.0736-.04.11-.1108.0955-.546-.1157-1.09-.2413-1.6374-.35-.7852-.1555-1.5777-.2618-2.374-.3461-.9918-.1049-1.9853-.1609-2.982-.1981-.7254-.027-1.4507-.0421-2.1741-.0192-1.2066.0382-2.4127.0935-3.6165.2047-1.3389.1236-2.6726.2846-3.9992.4964a62.3745,62.3745,0,0,0-6.7216,1.4541,57.05,57.05,0,0,0-9.3387,3.42,37.0228,37.0228,0,0,0-6.9284,4.18c-.931.7242-1.8037,1.5164-2.6577,2.3279-1.1171,1.0614-2.2085,2.149-3.2246,3.3093a28.4143,28.4143,0,0,0-3.53,4.87,14.8228,14.8228,0,0,0-1.4057,3.3769,8.6642,8.6642,0,0,0-.3151,2.19,6.253,6.253,0,0,0,1.0874,3.6754A1.1772,1.1772,0,0,1,948.3764,63.5962Z"/><path class="cls-11" d="M961.8937,99.3385c-.3588.0071-.7177.0236-1.0763.02-.6735-.0078-1.3468-.03-2.02-.0407a4.2373,4.2373,0,0,1-.7131-.07,1.3008,1.3008,0,0,1-.1445-.875q-.0048-9.7221-.0024-19.4443c0-.6194-.0024-1.2388.0016-1.8583a.8831.8831,0,0,1,.1419-.604,3.2106,3.2106,0,0,1,.73-.212q1.4295-.4093,2.8613-.8111c.1-.0283.2038-.0448.3059-.0668a.7419.7419,0,0,1,.0673.44q-.0128,11.3242-.0058,22.6485A1.2887,1.2887,0,0,1,961.8937,99.3385Z"/><path class="cls-12" d="M969.9858,98.704a1.9706,1.9706,0,0,1-.7047.1208,17.3472,17.3472,0,0,1-2.37.2421c-.206.0837-.2744-.0518-.3174-.2083a2.0206,2.0206,0,0,1-.0384-.5408q-.0014-11.9173.0019-23.8347c0-.2952-.0576-.6153.2275-.8372l-.0043.0048c.0616-.0327.1427-.0207.1911-.0835l-.0012.0008c.0726-.0764.2192.0142.2669-.1183.6036-.267,1.2056-.5377,1.8115-.7994a4.792,4.792,0,0,1,.8276-.3474.8347.8347,0,0,1,.0593.4428q-.01,12.414-.0038,24.828A9.3551,9.3551,0,0,0,969.9858,98.704Z"/><path class="cls-13" d="M969.9858,98.704c-.1151-.0218-.1955-.0765-.1966-.2066-.0011-.1207-.0026-.2414-.0026-.3621q0-12.6077,0-25.2152a1.096,1.096,0,0,1,.0893-.6172,7.7155,7.7155,0,0,1,.9962-.5023c.5432-.2832,1.0958-.5485,1.6453-.82a1.4825,1.4825,0,0,1,.1673-.06.717.717,0,0,1,.0654.4392q-.018,13.1511-.0045,26.3023a1.7817,1.7817,0,0,1-.0487.5833,1.1347,1.1347,0,0,1-.522.1249c-.6075.115-1.2182.2131-1.8286.3124A3.3534,3.3534,0,0,1,969.9858,98.704Z"/><path class="cls-14" d="M988.8428,92.622a3.0267,3.0267,0,0,1-.6623.3761,12.28,12.28,0,0,1-1.5023.7164c-.2129.0879-.2682-.0631-.3106-.2139a1.82,1.82,0,0,1-.0369-.4955q-.0016-15.3564-.0063-30.7128a1.1463,1.1463,0,0,1,.4141-.9958c.3651-.348.7222-.7051,1.0983-1.0409a4.7689,4.7689,0,0,1,.7243-.6552.5937.5937,0,0,1,.23.5161c.0175.2262.01.4531.01.68q0,15.2109,0,30.4218C988.8005,91.6866,988.799,92.1549,988.8428,92.622Z"/><path class="cls-15" d="M961.8937,99.3385q0-11.6479.0013-23.2958a1.3737,1.3737,0,0,1,.0829-.6664l.0007.0035c.0785-.07.2062.0055.2752-.0928a2.0307,2.0307,0,0,1,.4981-.1952c.6385-.2209,1.2756-.4455,1.9141-.6663a1.8672,1.8672,0,0,1,.2185-.0483.4156.4156,0,0,1,.102.3352c-.0961,7.3082-.0154,14.6167-.0417,21.9251-.0024.6644.003,1.3289-.0024,1.9933a.8131.8131,0,0,1-.1455.6,12.9965,12.9965,0,0,1-1.92.107C962.55,99.347,962.2216,99.3389,961.8937,99.3385Z"/><path class="cls-16" d="M977.0548,97.2494a.9684.9684,0,0,1-.4239.1413c-.48.1307-.9637.2447-1.4473.36a2.7622,2.7622,0,0,1-.3122.0393c-.3824.1331-.5292-.0742-.5833-.4076a3.6515,3.6515,0,0,1-.0226-.5878q-.0007-12.9772.0009-25.9543a1.3947,1.3947,0,0,1,.1342-.8354c.0865-.0574.17-.1193.26-.1715q.91-.53,1.8231-1.0565c.09-.0519.1863-.0933.28-.1395a1.8813,1.8813,0,0,1,.151,1.0571q.0081,5.388.0032,10.7762,0,7.9013-.0011,15.8023A2.3477,2.3477,0,0,0,977.0548,97.2494Z"/><path class="cls-17" d="M998.8932,44.3375a2.4412,2.4412,0,0,1,.2282-.7293,33.3023,33.3023,0,0,0,1.1542-3.2326.5426.5426,0,0,1,.0671-.1147.8391.8391,0,0,1,.2336.617,6.4758,6.4758,0,0,1,.0174.77q.0008,20.7278.0018,41.4553a3.0344,3.0344,0,0,1-.0517.63,10.0315,10.0315,0,0,1-1.2532,1.2751.1515.1515,0,0,0-.1047.099l.0078-.0074a.1405.1405,0,0,0-.0977.098l.007-.0073a.1357.1357,0,0,0-.0977.098l.0016.0014c-.2287-.0335-.2132-.2252-.2357-.3811a4.1206,4.1206,0,0,1-.0142-.5882q0-19.3866-.0021-38.7731A4.8186,4.8186,0,0,1,998.8932,44.3375Z"/><path class="cls-18" d="M1000.5438,83.7327a.2351.2351,0,0,1-.0951-.1951q-.0021-.2267-.002-.4532,0-20.2848-.0019-40.57a10.6316,10.6316,0,0,0-.1021-2.2538,1.5,1.5,0,0,1,.13-.5228c.1076.0289.113.127.1374.199q.7716,2.2772,1.5349,4.5571a1.5475,1.5475,0,0,1,.0406.2195,2.43,2.43,0,0,0-.0487.8094q-.0026,17.649.0008,35.2982a4.1805,4.1805,0,0,0,.0526,1.0363,3.954,3.954,0,0,1-.5577.695A11.1623,11.1623,0,0,1,1000.5438,83.7327Z"/><path class="cls-19" d="M958.0806,76.4661c.0014.1057.004.2113.004.317q0,11.2323-.0006,22.4646c-.7188.0232-1.4288-.0909-2.1432-.1367-.1934-.0124-.3859-.0387-.5787-.06a.54.54,0,0,1-.3-.07,6.7026,6.7026,0,0,0,.0653-1.0386q-.0024-9.9228-.0011-19.8456c0-.1963.0062-.3928.0048-.5889a.44.44,0,0,1,.4143-.49,1.4706,1.4706,0,0,1,.5188-.13c.5817-.1377,1.1655-.2665,1.7493-.3951A2.23,2.23,0,0,1,958.0806,76.4661Z"/><path class="cls-20" d="M995.9007,50.511a1.3051,1.3051,0,0,1,.07-.162q.6777-1.1365,1.2857-2.3118a1.2769,1.2769,0,0,1,.1-.1438.59.59,0,0,1,.2327.514c.0194.2411.0108.483.0108.7245q0,18.12.0006,36.24a10.2067,10.2067,0,0,0,.0388,1.1756,6.7522,6.7522,0,0,1-.8874.7963,2.0885,2.0885,0,0,1-.4911.374c-.0355.0592-.137.0317-.1532.1163l0,.003c-.2559-.04-.2712-.2561-.3116-.4423a3.1862,3.1862,0,0,1-.0317-.678q-.0009-17.6359-.0018-35.2719A2.33,2.33,0,0,1,995.9007,50.511Z"/><path class="cls-21" d="M997.6393,86.5476a.3079.3079,0,0,1-.1846-.2877c0-.1359-.0014-.2719-.0014-.4078q0-18.5784.0022-37.1568a2.4533,2.4533,0,0,0-.0991-.8019,2.9372,2.9372,0,0,1,.2755-.6146c.4156-.8865.8-1.7861,1.1448-2.7024.0311-.0827.0365-.1795.1165-.2389.0038.2266.0109.4531.0109.68q.0007,19.8117.0006,39.6234,0,.2267.0039.4532a.26.26,0,0,0,.0983.1957,5.0948,5.0948,0,0,1-.843.7958c-.068.083-.1952.0984-.2387.2094l.0064-.0074a.11.11,0,0,0-.1048.09l.0064-.0066a.1423.1423,0,0,0-.0988.094l.0051-.005a.1854.1854,0,0,0-.1.0876Z"/><path class="cls-22" d="M995.9007,50.511c.0035.2113.01.4226.01.6339q.0008,17.9175,0,35.8348a1.1927,1.1927,0,0,0,.1964.8574,10.0032,10.0032,0,0,1-1.517,1.1665c-.2712.0935-.3109-.1063-.3441-.2863a3.9812,3.9812,0,0,1-.0243-.7236q-.0009-16.9047.0053-33.8094a3.0694,3.0694,0,0,1,.0452-1.211c.07-.1139.136-.23.2093-.3413q.6034-.9181,1.21-1.834C995.7574,50.7,995.831,50.6065,995.9007,50.511Z"/><path class="cls-23" d="M988.8428,92.622c-.0937-.02-.1765-.0556-.1809-.1676-.0059-.1509-.0074-.302-.0074-.453q0-15.8218.0014-31.6436a2.2814,2.2814,0,0,0-.0948-.7574c.0461-.0579.0879-.12.1389-.1732q.8883-.9267,1.78-1.85a2.14,2.14,0,0,1,.17-.1441.1956.1956,0,0,1,.02.2143,2.5311,2.5311,0,0,0-.2361,1.4939q-.0016,15.6293-.0017,31.2585c0,.438.0061.8754.0358,1.3124A10.4124,10.4124,0,0,1,988.8428,92.622Z"/><path class="cls-24" d="M993.1949,89.99a8.3643,8.3643,0,0,1-1.3753.9027c-.041.0576-.1308.0343-.1668.1l.0033-.0028c-.0328.0222-.0647.0453-.0961.0694l-.0832.0491c-.2-.1939-.1546-.4478-.1555-.6835-.0057-1.6158-.0028-3.2315-.0029-4.8473q0-14.0661.001-28.1322a1.5924,1.5924,0,0,1,.1451-.9249c.3556-.4358.71-.8728,1.0676-1.3071.15-.1824.3072-.3593.4611-.5387a.5565.5565,0,0,1,.1565.455c.0121.2113.0058.423.0058.6346q0,16.5468,0,33.0938C993.1552,89.2366,993.1578,89.614,993.1949,89.99Z"/><path class="cls-25" d="M955.5455,77.018a1.01,1.01,0,0,1-.1472.0984.18.18,0,0,0-.1213.1715q-.0041.204-.0041.408,0,10.3155,0,20.6311c0,.1511,0,.3023-.0042.4533-.0035.1311-.0947.1774-.2062.2a7.5746,7.5746,0,0,1-1.2578-.1256c-.389-.041-.7743-.1183-1.1607-.1829a.522.522,0,0,1-.1219-.0548,2.0351,2.0351,0,0,0,.1562-.9717q-.0021-9.6754.0011-19.3507a1.2335,1.2335,0,0,1,.1407-.8305.5234.5234,0,0,1,.3726-.063.2355.2355,0,0,0,.2679-.0251,1.6936,1.6936,0,0,1,.6157-.1242C954.5635,77.1616,955.0554,77.0946,955.5455,77.018Z"/><path class="cls-26" d="M982.7525,64.5832c.3508-.283.6972-.5718,1.0543-.8466a3.3543,3.3543,0,0,1,.5764-.4321c.2147.2261.1515.5116.1519.776q.0073,4.8255.0032,9.6511,0,10.1721.0006,20.3443a2.1,2.1,0,0,1-.0572.629,6.858,6.858,0,0,1-1.3512.5478c-.0552.0451-.1369.0262-.1891.0786l-.0287.0234-.037-.0012c-.219.0054-.22-.1711-.2442-.3108a3.6623,3.6623,0,0,1-.0209-.6329q-.0006-14.45,0-28.9A1.6556,1.6556,0,0,1,982.7525,64.5832Z"/><path class="cls-27" d="M974.4006,70.0049c.0041.2113.0116.4227.0116.6341q.0009,13.1652,0,26.3306c0,.1208-.004.2418.001.3625.0152.3605.0793.423.4577.4579-.1084.0982-.2513.0833-.38.1121-.4791.1075-.9588.2125-1.44.3117a3.02,3.02,0,0,1-.3545.0321.2389.2389,0,0,1-.0964-.1947q-.0027-.1812-.0024-.3625,0-13.0507,0-26.1016a1.3761,1.3761,0,0,1,.0863-.6659C973.2444,70.5922,973.8118,70.2786,974.4006,70.0049Z"/><path class="cls-28" d="M977.0548,97.2494c-.2718-.0593-.2743-.0592-.2817-.2586-.0051-.1358-.0019-.2719-.0019-.4079q0-13.4828-.0017-26.9654a2.1951,2.1951,0,0,0-.05-.7188c-.0247-.0739.0272-.1734.0441-.2612a19.657,19.657,0,0,1,1.7163-1.0629c.2254.2213.1588.5084.1592.7719q.0081,4.4418.0034,8.8836.0015,9.5408.0031,19.0814c0,.167-.017.3316-.0329.4968A8.1238,8.1238,0,0,1,977.0548,97.2494Z"/><path class="cls-29" d="M984.4817,94.7049a.2462.2462,0,0,1-.0894-.1984q-.0014-.2037-.0014-.4075,0-15.08,0-30.1607c0-.2113-.0047-.4225-.0073-.6338a8.4851,8.4851,0,0,1,.876-.7518,5.2761,5.2761,0,0,1,.7576-.6156.5971.5971,0,0,1,.07.3925c-.0164,10.0528-.002,20.1056-.0074,30.1585,0,.4981-.0038.9961.0393,1.493a7.9036,7.9036,0,0,1-1.4406.6386c-.0583.0422-.144.0215-.1935.084Z"/><path class="cls-30" d="M993.1949,89.99c-.0949-.0185-.1753-.0562-.1794-.1678-.0055-.1508-.0069-.3017-.0069-.4526q0-17.0079-.0009-34.0157c0-.2263-.0094-.4526-.0144-.6789.263-.3579.5208-.72.7911-1.0721a4.0567,4.0567,0,0,1,.488-.63,4.8486,4.8486,0,0,1,.0962,1.3471q.0007,17.02.0007,34.04c0,.151-.0006.3022.0063.453.0061.132.1035.1713.2147.19A8.7481,8.7481,0,0,1,993.1949,89.99Z"/><path class="cls-31" d="M948.7316,97.79a10.3831,10.3831,0,0,1-1.5013-.416,1.75,1.75,0,0,1-.58-.2151.89.89,0,0,1-.1412-.6047q-.0028-9.0208.0017-18.0417c0-.6028.0415-.6253.6455-.6338a3.475,3.475,0,0,0,.8559-.033,2.6761,2.6761,0,0,1,.7212-.0157c.34-.1266.4783.0331.5055.3539.0141.1659.0123.3321.0123.4982q0,9.0878,0,18.1755a3.3756,3.3756,0,0,1-.0232.588C949.18,97.7236,949.0512,97.8978,948.7316,97.79Z"/><path class="cls-32" d="M964.7969,99.2311q0-11.867.0008-23.7337a2.5682,2.5682,0,0,1,.081-.8951.72.72,0,0,0,.0058-.2251c.46-.2425.9636-.3749,1.4382-.5807a1.18,1.18,0,0,1,.462-.15,1.0291,1.0291,0,0,0-.0836.44c.0067.09.0012.1812.0012.2718q0,12.0287,0,24.0572c0,.151,0,.3021.0037.453.0031.131.0906.18.2049.1986-.026.0137-.0516.0378-.0785.0394A17.51,17.51,0,0,1,964.7969,99.2311Z"/><path class="cls-33" d="M982.7525,64.5832c.0019.2114.0053.4228.0053.6342q0,14.7489,0,29.4977c0,.1509.0014.302.0056.4529a.2271.2271,0,0,0,.1118.1855,3.66,3.66,0,0,1-.9307.35c-.0742.0778-.2047-.0044-.2712.0954l.0018-.0013c-.055.041-.1317.0277-.1848.0734l-.0337.0214-.04-.0016c-.2475.0884-.2813-.0972-.32-.2589a2.3366,2.3366,0,0,1-.0288-.5418q-.001-14.2731.0007-28.5463c0-.3137-.0454-.6433.2276-.8891A16.5792,16.5792,0,0,1,982.7525,64.5832Z"/><path class="cls-34" d="M948.0126,77.8461c-.0806.0916-.19.0785-.2944.0792-.287.002-.5741-.0011-.861.0068-.1368.0037-.1884.059-.1959.1965-.0082.1506-.0059.3019-.0059.4529q0,8.9944,0,17.9888c0,.1963-.0028.3927-.0043.589l-.0891-.0208c-.0524-.0434-.13-.0275-.18-.0754l0,0c-.07-.0892-.1961-.0131-.2694-.092L946.11,96.97c-.0582-.06-.143-.049-.212-.08l-.0335.0031-.0267-.02c-.0553-.0524-.1374-.0364-.1973-.0773l-.0407.0007-.0355-.02c-.0517-.0453-.1316-.0247-.18-.077a5.9226,5.9226,0,0,1-1.2751-.5327,1.1927,1.1927,0,0,1-.0532-.4462c.0121-5.6467.0022-11.2934.0054-16.94,0-.1359-.0047-.2719-.0012-.4076.0071-.2742-.0724-.4666-.3863-.5036-.122-.0143-.2864-.0272-.2816-.2242.1794.0063.3594.0065.5383.02.627.0471,1.2529.1117,1.8806.1446.5085.0266,1.0188.0166,1.5283.0237C947.5634,77.8363,947.788,77.8417,948.0126,77.8461Z"/><path class="cls-35" d="M1003.7127,49.2684a2.087,2.087,0,0,1,.1986.4941c.29.8611.5834,1.721.8733,2.5821a.9929.9929,0,0,1,.0264.1756c.1049,8.2318.0164,16.4639.0469,24.6958a8.7111,8.7111,0,0,1-.049,1.0847,3.8507,3.8507,0,0,1-.473.7492,7.5991,7.5991,0,0,1-.7114.9638c-.0337.0305-.073.0567-.0813.1066l.0073-.0079c-.0771.0246-.0549.1208-.1142.1583l-.0073.0113q-.0376.0483-.0759.0962l0,.0007c-.24-.02-.2689-.2124-.3052-.3881a2.6634,2.6634,0,0,1-.0263-.5425q-.0008-15.12,0-30.239a2.6571,2.6571,0,0,1,.0311-.5874c.04-.1758.078-.3653.3193-.3752l-.0025.0034c.02.0686.0143.1461.0708.2019l.0218.02-.0087.028c.0234.0756.0192.1608.0778.2241l0,.0007c.08.0739.0053.1994.0908.2714l0,0C1003.7016,49.07,1003.626,49.1965,1003.7127,49.2684Z"/><path class="cls-36" d="M978.6123,96.8083a.2607.2607,0,0,1-.1155-.2318c-.0009-.151-.0021-.3021-.0021-.4531q0-13.9575-.0007-27.915c0-.2113-.0094-.4225-.0144-.6338l.0025.0048c.0453-.0112.0687-.0517.1031-.0774l.0072-.0041c.0439-.0549.1354-.0375.1677-.11a12.1436,12.1436,0,0,1,1.3629-.9078.6434.6434,0,0,1,.0671.3947q-.0213,14.3723-.0068,28.7445a1.2067,1.2067,0,0,1-.136.7447,4.7531,4.7531,0,0,1-1.0913.3391c-.0794.0729-.2034,0-.279.085l-.0286.0222Z"/><path class="cls-37" d="M1003.3716,48.2467a.5624.5624,0,0,0-.2038.48c.0019.0906,0,.1812,0,.2718V79.6645c0,.0906.0012.1812,0,.2718a.5347.5347,0,0,0,.1845.4426,4.4714,4.4714,0,0,1-.7026.9112c-.1041.0589-.1345.1765-.2073.26l-.0026.0036a.3775.3775,0,0,0-.0832.0988l.0038-.0044a.1677.1677,0,0,0-.089.1032l.007-.0073c-.0508.0183-.0908.0454-.0883.1075l0,.0059c-.1032-.0386-.1944-.0894-.1974-.2174-.0031-.1358-.0039-.2717-.0039-.4075q0-17.936,0-35.8719c0-.1057.0033-.2114,0-.317a.3441.3441,0,0,1,.1965-.33l-.0015.004c.0283.0638.0208.1407.0716.1963a.04.04,0,0,1,.0165.06c.03.0688.0213.1513.0743.2121a.0394.0394,0,0,1,.0164.06c.03.0688.0213.1513.0743.2122a.0393.0393,0,0,1,.0165.06c.03.0689.0212.1514.0743.2123.2271.5085.3724,1.0461.5541,1.5707A5.0961,5.0961,0,0,1,1003.3716,48.2467Z"/><path class="cls-38" d="M991.4645,56.5212q.0009,3.2638.0017,6.5278,0,13.69,0,27.38c0,.2266.0066.4531.01.68a1.6824,1.6824,0,0,1-.5516.3321c-.0494.0508-.1422.0268-.1772.1025l.0064-.0058c-.0445.01-.0692.049-.1044.0726l-.0126.006c-.04.0594-.1255.0365-.1663.0936l-.003.0017a.2847.2847,0,0,1-.176-.2443c-.0058-.1205-.0049-.2414-.0049-.3622q0-16.3524,0-32.7049c0-.0755.0048-.1514-.0008-.2264a.4722.4722,0,0,1,.1589-.4047c.0985-.0915.2074-.1815.2047-.3366A6.9161,6.9161,0,0,1,991.4645,56.5212Z"/><path class="cls-39" d="M940.2637,93.9887a2.9156,2.9156,0,0,1-.6543-.4642,12.4967,12.4967,0,0,1-1.6377-1.5288,2.1078,2.1078,0,0,1-.1268-.1815,4.8343,4.8343,0,0,0,.0449-.9911q.0036-6.7647.0049-13.5294c0-.2786-.0711-.5788.1467-.8222a7.6287,7.6287,0,0,1,.94.2664c.4732.1279.9457.2583,1.4185.3876.262.1476.227.4076.23.6428.01.8748.0038,1.75.0038,2.6246q0,6.471-.0063,12.9421c0,.2591.119.5863-.2382.7437l.0032-.0007A.1561.1561,0,0,0,940.2637,93.9887Z"/><path class="cls-40" d="M948.7316,97.79c.3418-.0575.3624-.0777.3721-.3831.0033-.1057.0007-.2116.0007-.3174V78.4552c0-.1209.0033-.242-.0018-.3627-.009-.2179-.0173-.2237-.2782-.2579-.03-.0039-.06-.0029-.0906-.0041a.44.44,0,0,1,.1234-.0481q1.1442-.0741,2.2889-.1419a1.1706,1.1706,0,0,1,.1345.0073,4.7953,4.7953,0,0,0-.1243,1.52q-.0014,9.17-.0039,18.34c0,.2788.071.5788-.1439.8238a2.1714,2.1714,0,0,1-.6664-.1125c-.5011-.1061-.9965-.239-1.4935-.3639A.52.52,0,0,1,948.7316,97.79Z"/><path class="cls-41" d="M940.3892,94.0787a.4984.4984,0,0,0,.0863-.1521,2.1233,2.1233,0,0,0,.0111-.3164q0-7.9788,0-15.9576a.8782.8782,0,0,0-.0864-.5271c.5545.102,1.1106.1963,1.6626.31a1.6851,1.6851,0,0,1,.607.1159.893.893,0,0,1,.14.6048q.0032,8.2468-.0067,16.4936c0,.2675.1107.645-.3534.703a.0537.0537,0,0,1-.06-.0274.2691.2691,0,0,0-.1184-.0688,7.7948,7.7948,0,0,1-1.2726-.7347A2.5767,2.5767,0,0,1,940.3892,94.0787Z"/><path class="cls-42" d="M951.0085,98.3319q0-9.9345.0008-19.8691a1.6173,1.6173,0,0,0-.0034-.3161.44.44,0,0,1,.2747-.4989c.0259-.0139.0512-.0384.078-.04.4888-.03.969-.1489,1.4612-.1432.0013.1659.0036.3318.0036.4977q0,10,0,20c0,.1206.0028.2414-.0012.3619-.0075.2259-.0091.2259-.3.293A6.8062,6.8062,0,0,1,951.0085,98.3319Z"/><path class="cls-43" d="M980.0473,96.3638c-.0035-.1811-.01-.3622-.01-.5433q-.0007-14.3374,0-28.6749a1.3623,1.3623,0,0,1,.0859-.6657,9.1152,9.1152,0,0,1,1.1743-.825,1.18,1.18,0,0,0-.0826.4868c.0074.09.0013.1811.0013.2718q0,14.41,0,28.82c0,.1511.0013.3021.0029.4531.0013.13.082.1848.1983.2041a4.0909,4.0909,0,0,1-1.0712.3667c-.0723.0262-.157.0173-.2177.0766A.0835.0835,0,0,1,980.0473,96.3638Z"/><path class="cls-44" d="M1004.8089,78.3007a.253.253,0,0,1-.0958-.1963q-.0032-.1812-.003-.3626,0-12.3319,0-24.6639c0-.1209.0008-.2418.0031-.3626a.2481.2481,0,0,1,.0977-.1951l-.0013.0013c.0662.0813-.01.2109.0943.2792l-.0038-.0071c.0664.0813-.01.2112.0954.2791.0648.0511.07.13.0935.2q.6063,1.8,1.2116,3.601a2.4025,2.4025,0,0,1,.0574.263c.0886,3.3057.0235,6.612.0383,9.9181.01,2.3708.002,4.7417.0021,7.1126a12.1193,12.1193,0,0,1-.0557,1.5825,11.3879,11.3879,0,0,1-.7644,1.3717,5.468,5.468,0,0,1-.5888.8979c-.0614.0384-.043.1258-.102.1656l-.0058.011c-.02.0375-.065.0572-.0739.1028Z"/><path class="cls-45" d="M938.0414,76.4715q-.0018,2.5819-.0035,5.1638-.0009,4.8015,0,9.6029c0,.1358-.0013.2717-.009.4072-.0063.1107-.0933.1438-.1835.1688l.0048-.0006a.2012.2012,0,0,0-.0928-.0994l.0044.0046a.3952.3952,0,0,0-.0858-.0987l-.0013-.0016a.7805.7805,0,0,1-.08-.092l-.006-.0075c-.0567-.0433-.043-.1434-.1306-.1616a7.9687,7.9687,0,0,1-1.1978-1.8493,10.9693,10.9693,0,0,1-.8494-2.5135c.1231-.23.0316-.4725.032-.7076.0055-3.3145.0013-6.629.0067-9.9435a1.5754,1.5754,0,0,1,.1438-.8787,4.1108,4.1108,0,0,1,.6562.2765c.5379.2176,1.0747.4382,1.6119.6576.0531.04.1279.0267.1789.0721Z"/><path class="cls-46" d="M942.45,95.3531a.3146.3146,0,0,0,.2132-.3144c-.0012-.1359.0009-.2718.0009-.4077q0-8.2452,0-16.49c0-.1963.0036-.3926.0056-.5889a1.7642,1.7642,0,0,1,.7217.0932.2191.2191,0,0,0,.1921.0976c.1207.0017.2417-.0017.3623.004.2186.01.2491.0439.2587.2773.0038.09.0014.1811.0014.2717q0,8.6277,0,17.2555a1.0481,1.0481,0,0,1-.0972.6156l-.0871-.0285a.2787.2787,0,0,0-.1173-.0651,2.223,2.223,0,0,1-.6468-.2733A3.6351,3.6351,0,0,1,942.45,95.3531Z"/><path class="cls-47" d="M1006.3428,75.75a.4891.4891,0,0,1-.0816-.1537,3.1629,3.1629,0,0,1-.0089-.362q0-8.77,0-17.5411c0-.1208.0012-.2417.0046-.3624a.2575.2575,0,0,1,.1012-.194l-.0009.0045c.0275.0643.02.1413.0712.1971a.0377.0377,0,0,1,.0164.0588c.03.07.02.1544.0783.2139l.0223.0181-.0085.0275c.0232.0766.0188.1628.0784.2268l.0217.0185-.0093.027c.0232.0765.0187.1626.0782.2266l.0218.0185-.0093.027c.0232.0765.0187.1625.0782.2265a1.0933,1.0933,0,0,1,.0819.1562q.3441,1.0146.6826,2.0311a2.4814,2.4814,0,0,1,.0577.2586c.11,3.9333.0186,7.8676.05,11.8013.0014.1821-.0621.3569-.0459.5392a8.9307,8.9307,0,0,1-.8025,1.6362c-.0836.037-.07.1244-.0993.19l.0055-.0077c-.0832.0354-.0647.1248-.099.1861l.0044-.0065c-.0776.0373-.0594.1263-.0993.184l.0032-.0054c-.07.04-.0518.1279-.0982.1807l.0007-.0012c-.0615.0434-.0435.1288-.0944.1778Z"/><path class="cls-48" d="M986.1186,93.9811c-.0948-.0192-.1737-.0574-.1789-.1689-.0049-.1055-.0065-.2112-.0065-.3168q0-15.491-.0014-30.982a1.3544,1.3544,0,0,1,.085-.5762,3.78,3.78,0,0,1,.7217-.6406c-.0034.0147-.0019.034-.0109.0434a1.1588,1.1588,0,0,0-.2555.8739q.0093,15.4217.0052,30.8435c0,.1509.0013.3019.0029.4529.0013.13.0817.1848.198.2042A1.4221,1.4221,0,0,1,986.1186,93.9811Z"/><path class="cls-49" d="M1007.6228,73.2142c-.0311-.0493-.0825-.096-.0893-.1485a2.8047,2.8047,0,0,1-.0111-.3613q-.0006-5.66,0-11.319a2.96,2.96,0,0,1,.01-.3614c.0066-.0529.0563-.1.0864-.15a4.4354,4.4354,0,0,1,.3093.8436c.5913,1.7421,1.1722,3.4877,1.7683,5.228a1.2772,1.2772,0,0,1,.0134.8324,43.948,43.948,0,0,1-1.9319,5.1656A3.0157,3.0157,0,0,1,1007.6228,73.2142Z"/><path class="cls-50" d="M933.7752,81.4624a.0327.0327,0,0,1-.0127-.0522c-.0555-.0951.0121-.2263-.0905-.3075a.6471.6471,0,0,1-.13-.3311q-1.2015-4.0494-2.3941-8.1012c-.0085-.0288-.0123-.059-.0183-.0886-.0178-.0942.0223-.1259.1122-.1037a17.7053,17.7053,0,0,0,2.679,2.0318,1.1624,1.1624,0,0,1,.1368.1145c.0225.0964.12.0783.18.118l-.0037-.0028a.6778.6778,0,0,1,.2282.6077c.0046,2.1664.01,4.3328-.007,6.4991-.0019.2427.0825.6315-.4108.5228a.0314.0314,0,0,1-.01-.0513.6847.6847,0,0,0-.0711-.2193.05.05,0,0,1-.0165-.0659c-.0625-.0889.0076-.2173-.0882-.2963l.0021.0045C933.7891,81.6612,933.8588,81.5384,933.7752,81.4624Z"/><path class="cls-51" d="M934.0442,82.3692c.2534-.0479.2616-.0531.2717-.2148.0047-.0752.0026-.1509.0026-.2264q0-3.3293.0006-6.6586a1.0786,1.0786,0,0,0-.0853-.53,13.8934,13.8934,0,0,1,1.3587.7252c.022.0858.09.1668.05.26a1.3822,1.3822,0,0,0-.0522.5808q-.0028,5.1159-.0015,10.2317a3.7524,3.7524,0,0,1-.0059.4069c-.0136.1239-.106.0617-.1724.0509a.044.044,0,0,1-.0136-.0607c-.06-.0908.0112-.2215-.0908-.3A2.3607,2.3607,0,0,1,935.09,86c-.3426-1.1352-.6771-2.2728-1.0122-3.41A1.5811,1.5811,0,0,1,934.0442,82.3692Z"/><path class="cls-3" d="M996.2658,158.8941l-.6079-.0176q-.0057-1.2463-.0109-2.4927c-.0019-.74-.0006-1.4807,0-2.221,0-.0906.0007-.1813.0053-.2717a.1353.1353,0,0,1,.1455-.1363.4018.4018,0,0,1,.0452-.0017,4.4,4.4,0,0,1,.81.0292,2.792,2.792,0,0,1,.2682.711q.5376,1.5852,1.0656,3.1737a.6348.6348,0,0,0,.1533.3013c.0445-.1134.089-.2159.1254-.3212q.6277-1.8177,1.2539-3.636c.0878-.2539.0906-.2619.344-.2573.8059.0143.6748-.1367.6792.6469.0075,1.33.0028,2.6592.0012,3.9888,0,.1658-.0127.3316-.0195.4974l-.6142.0071a1.5979,1.5979,0,0,1-.0332-.4952q-.0021-1.5865-.0008-3.173c0-.0977-.001-.1953-.0016-.29-.0873-.0034-.1124.0318-.1274.0753q-.6434,1.86-1.285,3.72a.4317.4317,0,0,0-.0114.09.8988.8988,0,0,1-.7257,0c-.2432-.741-.4841-1.4829-.7306-2.2229-.1755-.5271-.359-1.0515-.5381-1.5774a.2763.2763,0,0,0-.1568-.1937v.325q0,1.6243-.0007,3.2489A1.5865,1.5865,0,0,1,996.2658,158.8941Z"/><path class="cls-3" d="M960.612,158.8866l-.6145.008c-.0115-.1346-.0329-.2692-.0331-.4038q-.0036-2.1733-.0012-4.3467c0-.09.0015-.181.01-.2709a.1137.1137,0,0,1,.1121-.116c.03-.0019.06-.0035.09-.0046.4821-.0171.4817-.0169.7568.394q1.0194,1.5231,2.04,3.0454c.0908.1353.1882.266.28.3947.1223-.0489.085-.1354.0851-.2012q.0038-1.5621.0019-3.1241c0-.1207-.0008-.2415.0037-.3621a.1305.1305,0,0,1,.1359-.1435c.0754-.0022.1508-.0038.2263-.0034.2967.0012.302.0016.3024.3012q.0028,2.2865-.0006,4.5731a2.1734,2.1734,0,0,1-.0331.2681l-.7022-.0158q-1.254-1.878-2.5093-3.7554c-.0141-.0211-.0469-.03-.0737-.0459-.093.0424-.0536.1284-.0537.1936-.0029,1.04-.0012,2.0795-.003,3.1193C960.6309,158.5559,960.6187,158.7213,960.612,158.8866Z"/><path class="cls-6" d="M912.2643,158.7976c-.1218.1257-.2793.0881-.4259.0884q-1.4225.0032-2.8449.001c-.1355,0-.271-.0022-.4064,0a.3043.3043,0,0,1-.2-.0889c.005-.1958.0143-.3916.0145-.5874q.0021-1.9466.0008-3.893c0-.1207-.0029-.2416.002-.3621.007-.1678.0394-.2015.2232-.2018q1.6525-.0033,3.3053,0c.1472,0,.18.0388.1867.1885.0032.0753.0031.1509.0007.2263-.0057.1827-.0217.203-.2129.2037q-1.2.0037-2.4.001c-.4289,0-.3988-.0141-.3987.3858,0,.3169-.0024.6338.0018.9506.0025.185.0191.2023.2164.2032.6943.0031,1.3886.0013,2.0829.0017.1207,0,.2414.0006.3621.0027.0848.0015.1444.0373.1449.13.0036.5623.0728.5-.4559.502-.6339.0021-1.2678,0-1.9017.0007-.1056,0-.2113.0005-.3167.0055-.09.0043-.129.061-.1314.147,0,.0151-.0016.03-.0016.0452q0,.679,0,1.358a.1455.1455,0,0,0,.1653.1649q.4982.0012.9961.0014.9057.0006,1.8112.0013a.1452.1452,0,0,1,.1662.1633C912.25,158.557,912.2587,158.6773,912.2643,158.7976Z"/><path class="cls-6" d="M907.4556,158.8869l-3.7848,0c-.0067-.1053-.0192-.2106-.0193-.316q-.0019-2.2207-.0008-4.4414c0-.0755-.0013-.1512.0025-.2266.0042-.084.0413-.1429.1346-.1462.0755-.0026.151-.0044.2265-.0044q1.4959,0,2.9919,0c.0755,0,.151.0013.2264.0052a.1315.1315,0,0,1,.135.1461c.0021.1057.001.2115.0008.3172a.1281.1281,0,0,1-.1318.1469c-.1055.0045-.2113.0054-.317.0055q-1.0653.0006-2.1306,0c-.1057,0-.2118-.0013-.3171.0063a.11.11,0,0,0-.1082.1175q-.0036.6343-.0036,1.2687a.1267.1267,0,0,0,.1343.1446q.2266.003.4533.0035c.65,0,1.2995-.0018,1.9492.0012.2656.0012.27.01.2721.2872,0,.03,0,.06,0,.0906-.0044.2448-.0091.2546-.2588.2556-.68.003-1.36.001-2.04.0012q-.1813,0-.3626.0025c-.0863.001-.1449.0393-.1452.1308q-.0028.725,0,1.45a.1268.1268,0,0,0,.1419.1361c.1058.0014.2115.0028.3173.0028q1.1106,0,2.2212.0009c.1336,0,.2672.01.4162.0163A2.1474,2.1474,0,0,1,907.4556,158.8869Z"/><path class="cls-6" d="M994.7193,158.8869l-3.7848,0c-.0068-.1053-.0193-.2106-.0193-.316q-.0019-2.2207-.0008-4.4414c0-.0756-.0014-.1512.0024-.2266.0043-.084.0414-.1429.1347-.1462.0755-.0026.151-.0043.2265-.0044q1.4959,0,2.9919,0c.0755,0,.151.0013.2264.0052a.1315.1315,0,0,1,.1349.1461c.0022.1057.001.2115.0008.3172a.128.128,0,0,1-.1317.1469c-.1056.0045-.2114.0054-.3171.0055q-1.0653.0006-2.1306,0c-.1057,0-.2117-.0013-.317.0063a.11.11,0,0,0-.1083.1175q-.0035.6343-.0036,1.2687a.1267.1267,0,0,0,.1344.1446q.2267.003.4532.0035c.65,0,1.3-.0018,1.9493.0012.2655.0012.27.01.272.2872,0,.03,0,.06,0,.0906-.0044.2448-.009.2546-.2588.2556-.68.003-1.36.001-2.04.0012q-.1813,0-.3626.0025c-.0863.001-.1448.0394-.1451.1308q-.0028.725,0,1.45a.1268.1268,0,0,0,.1419.1361c.1057.0014.2115.0028.3172.0028q1.1107,0,2.2213.0009c.1336,0,.2672.01.4161.0163A2.1437,2.1437,0,0,1,994.7193,158.8869Z"/><path class="cls-6" d="M916.98,158.8869l-3.7848,0c-.0067-.1053-.0192-.2106-.0193-.316q-.0019-2.2207-.0008-4.4414c0-.0756-.0013-.1512.0025-.2266.0042-.084.0413-.1429.1346-.1462.0755-.0027.151-.0044.2265-.0044q1.4959,0,2.9919,0c.0755,0,.1511.0013.2264.0052a.1314.1314,0,0,1,.135.1461c.0021.1057.001.2115.0008.3172a.1281.1281,0,0,1-.1318.1469c-.1055.0045-.2113.0054-.317.0055q-1.0653.0006-2.1306,0c-.1057,0-.2118-.0013-.3171.0063a.11.11,0,0,0-.1082.1175q-.0036.6343-.0036,1.2686a.1267.1267,0,0,0,.1344.1447q.2265.003.4532.0035c.65,0,1.2995-.0018,1.9493.0012.2655.0012.27.0105.272.2872,0,.03,0,.06,0,.0906-.0044.2448-.0091.2546-.2588.2556-.68.003-1.36.001-2.04.0012q-.1814,0-.3626.0025c-.0863.001-.1448.0394-.1452.1308q-.0028.725,0,1.45a.1269.1269,0,0,0,.1419.1361c.1058.0014.2115.0028.3173.0028q1.1106,0,2.2213.0009c.1336,0,.2671.01.4161.0163A2.1436,2.1436,0,0,1,916.98,158.8869Z"/><path class="cls-6" d="M1029.6429,158.8868l-3.79.0079c-.0115-.1346-.033-.2692-.0332-.4038q-.0036-2.1729-.0011-4.3459c0-.09.0022-.1808.0089-.2708a.12.12,0,0,1,.1132-.1162,1.5578,1.5578,0,0,1,.1809-.0057q1.5622,0,3.1244,0c.0452,0,.0906-.0006.1358.0022a.14.14,0,0,1,.1492.1346c.0056.06.0057.12.0059.1807.0009.2978.0007.3019-.3013.3028-.77.0024-1.54,0-2.3093.0014-.1053,0-.2106.0075-.3158.0114a.1.1,0,0,0-.0912.0859.7685.7685,0,0,0-.0117.18c-.001.3169-.0026.6338,0,.9507.0026.3065.0048.31.2938.3118.498.0029.9961.0007,1.4942.0009.2868,0,.5736-.0025.86.0017.1658.0025.1961.0288.1974.1772.0043.4853.0448.4572-.4185.4566q-.9735-.001-1.9471,0c-.1056,0-.2113,0-.3169.0018a.1485.1485,0,0,0-.1625.1691c0,.3018-.0108.604.0021.9053.0088.2058-.0983.4627.0651.6046.1372.1191.3774.0388.5716.04.7094.0041,1.4188.0008,2.1282.0024.1183,0,.2366.0109.37.0174A2.1459,2.1459,0,0,1,1029.6429,158.8868Z"/><path class="cls-6" d="M979.1217,158.8948l-.6192,0a2.2524,2.2524,0,0,1-.0334-.63c-.0047-.4072-.0117-.8149.0027-1.2217a.9358.9358,0,0,0-.1837-.5874c-.5606-.8219-1.1112-1.6506-1.6646-2.4774-.0326-.0487-.0588-.1016-.0891-.1545a2.1949,2.1949,0,0,1,.7411-.063c.0954.03.1376.1148.1856.1891q.6007.9306,1.1973,1.8639c.0546.085.0793.1922.1767.2453.1117-.0189.13-.1221.1769-.1938.4126-.63.8246-1.2615,1.23-1.897a.3806.3806,0,0,1,.4025-.2193c.1336.0178.271.0051.4066.0094a.0849.0849,0,0,1,.06.1316c-.064.102-.131.2021-.1994.3011-.523.7563-1.0427,1.5149-1.573,2.266a.9188.9188,0,0,0-.1857.5861c.0136.4672.0049.9351.0036,1.4027A1.3844,1.3844,0,0,1,979.1217,158.8948Z"/><path class="cls-52" d="M1032.5459,158.8872c-.157,0-.314-.0034-.4709.001a.3139.3139,0,0,1-.2311-.09c.0051-.15.0144-.3009.0146-.4514q.0018-1.72.0007-3.4392c0-.1056.002-.2113-.0012-.3168-.0058-.1906-.0241-.21-.2008-.2161-.1055-.0034-.2112-.001-.3168-.001-.3018,0-.6036.0025-.9053-.0011-.2328-.0028-.24-.0144-.2431-.2647-.0006-.06.0009-.1207.0011-.181,0-.104.04-.1724.1554-.1729.06,0,.1206-.0021.181-.0021q1.6974,0,3.3948,0c.06,0,.1208,0,.1809.0031a.1374.1374,0,0,1,.1448.1384c.0055.09.0061.1809.0038.2712-.0047.1831-.0234.2056-.2141.2074-.4224.0041-.845,0-1.2674.0034-.1835.0017-.2043.0227-.2046.2141-.002,1.252-.0005,2.504-.0024,3.756C1032.5651,158.526,1032.5527,158.7066,1032.5459,158.8872Z"/><path class="cls-52" d="M946.4615,158.8872c-.157,0-.3141-.0034-.4709.001a.3139.3139,0,0,1-.2311-.09c.0051-.15.0144-.3009.0146-.4514q.0018-1.72.0006-3.4391c0-.1056.0021-.2113-.0011-.3168-.0058-.1906-.0242-.21-.2006-.2162-.1055-.0034-.2112-.001-.3168-.001-.3018,0-.6036.0025-.9053-.0011-.2329-.0028-.2407-.0145-.2433-.2645-.0006-.06.0009-.1207.0011-.181,0-.1038.0393-.1725.1551-.173.0453,0,.0905-.0021.1357-.0021q1.7427,0,3.4853,0c.06,0,.1206.002.1806.007a.1132.1132,0,0,1,.1162.1122c.0174.5428.0653.5018-.4076.5023q-.5658.0007-1.1316.0015c-.1118,0-.1614.06-.16.1693.0015.1206,0,.2413,0,.362q0,1.7423-.001,3.4844C946.4807,158.5562,946.4682,158.7217,946.4615,158.8872Z"/><path class="cls-52" d="M988.5523,158.7981a.2921.2921,0,0,1-.2.0891c-.1653-.0049-.3307-.007-.4961-.01q-.0057-1.5178-.0112-3.0357c-.0012-.3625,0-.725,0-1.0875,0-.4061.031-.3805-.4019-.38-.3324,0-.6648.0022-.9972-.0008-.2669-.0023-.2669-.0051-.2681-.2866,0-.0151,0-.03,0-.0453.0029-.2756.01-.2856.2711-.2885.2719-.0031.5439-.0008.8158-.0008q1.2692,0,2.5383,0a2.9588,2.9588,0,0,1,.3168.0086.0952.0952,0,0,1,.09.0871c.0042.075.0133.15.0135.225.0011.2958,0,.2982-.2992.3-.4079.0029-.8158.0023-1.2238.0017a.1423.1423,0,0,0-.1614.165c0,.03-.0012.06-.0012.0906q.0006,2.0391.002,4.0783A.613.613,0,0,0,988.5523,158.7981Z"/><path class="cls-53" d="M925.8637,158.8775l-.6884,0c-.0039-.6472-.01-1.2944-.0112-1.9416q-.0028-1.3324,0-2.6647c0-.1205,0-.2409.0023-.3613.0019-.1123.0673-.1576.1731-.157.015,0,.03-.0008.0452-.0007.5395.0039.4907-.06.491.4741q.0014,2.1228,0,4.2455C925.875,158.6067,925.8677,158.7421,925.8637,158.8775Z"/><path class="cls-54" d="M1024.6554,158.7985a.3124.3124,0,0,1-.2313.09c-.1571-.0045-.3143-.0013-.4715-.0013-.0068-.12-.0194-.24-.0195-.3607q-.002-2.1945,0-4.3888,0-.1355.0089-.2708a.1125.1125,0,0,1,.1168-.1105c.03-.0025.06-.005.09-.0048.5294.0032.4916-.0592.4917.478q0,2.0586.0007,4.1172C1024.6411,158.4976,1024.65,158.6481,1024.6554,158.7985Z"/><path class="cls-6" d="M943.2863,158.8869l-.6146.0079c-.0116-.1347-.033-.2695-.0332-.4042q-.0038-2.1752-.0011-4.35c0-.09.002-.1811.01-.271a.1157.1157,0,0,1,.1159-.113c.0151-.0011.03-.0035.0452-.0034.5443.0045.4974-.0707.4977.4677q.0012,2.1072-.0006,4.2144C943.3056,158.5856,943.2931,158.7362,943.2863,158.8869Z"/><path class="cls-20" d="M997.9252,86.2947c.0139-.1447.1085-.1973.2387-.2094A.4527.4527,0,0,1,997.9252,86.2947Z"/><path class="cls-55" d="M931.2417,72.4781l-.1122.1037a.3422.3422,0,0,1-.067-.104.3123.3123,0,0,1,.0234-.1175.6074.6074,0,0,1,.11.0478C931.2173,72.4226,931.2269,72.4542,931.2417,72.4781Z"/><path class="cls-18" d="M1002.4427,81.55a.2412.2412,0,0,1,.2073-.26A.4882.4882,0,0,1,1002.4427,81.55Z"/><path class="cls-31" d="M946.1118,96.9709c.1.0016.2068-.0181.2694.092A.31.31,0,0,1,946.1118,96.9709Z"/><path class="cls-28" d="M978.677,96.7879c.0686-.1083.1765-.0879.279-.085A.3268.3268,0,0,1,978.677,96.7879Z"/><path class="cls-32" d="M967.2372,73.45c-.0427.1438-.1606.1181-.2669.1183A.4075.4075,0,0,1,967.2372,73.45Z"/><path class="cls-51" d="M933.7752,81.4624c.1077.0686.0884.176.0852.2785A.3315.3315,0,0,1,933.7752,81.4624Z"/><path class="cls-45" d="M935.3057,86.6342c.127.0706.0969.1887.0908.3A.3738.3738,0,0,1,935.3057,86.6342Z"/><path class="cls-43" d="M981.6738,95.7991c.06-.118.1695-.0959.2712-.0954A.3265.3265,0,0,1,981.6738,95.7991Z"/><path class="cls-42" d="M953.46,77.3764a.1534.1534,0,0,1-.2679.0251Z"/><path class="cls-51" d="M933.672,81.1027c.13.0729.0963.1942.0905.3073A.4142.4142,0,0,1,933.672,81.1027Z"/><path class="cls-35" d="M1004.9956,53.0727c-.1254-.061-.1017-.173-.0954-.279A.34.34,0,0,1,1004.9956,53.0727Z"/><path class="cls-35" d="M1004.904,52.8007c-.125-.0615-.1009-.1733-.0944-.2792A.3364.3364,0,0,1,1004.904,52.8007Z"/><path class="cls-37" d="M1003.7127,49.2684c-.1074-.065-.09-.1716-.0909-.2723A.3245.3245,0,0,1,1003.7127,49.2684Z"/><path class="cls-37" d="M1003.6217,48.9957c-.1075-.0647-.09-.1711-.0908-.2714A.3207.3207,0,0,1,1003.6217,48.9957Z"/><path class="cls-11" d="M962.2538,75.287c-.0618.1194-.1719.096-.2752.0928A.33.33,0,0,1,962.2538,75.287Z"/><path class="cls-51" d="M933.8582,81.7364c.1217.0712.0937.187.0882.2963A.37.37,0,0,1,933.8582,81.7364Z"/><path class="cls-44" d="M1006.7966,58.4278a.2064.2064,0,0,1-.0782-.2264A.2418.2418,0,0,1,1006.7966,58.4278Z"/><path class="cls-36" d="M980.1284,96.3343a.1935.1935,0,0,1,.2176-.0766A.2358.2358,0,0,1,980.1284,96.3343Z"/><path class="cls-31" d="M945.3835,96.6993a.1885.1885,0,0,1,.18.077A.1885.1885,0,0,1,945.3835,96.6993Z"/><path class="cls-31" d="M945.64,96.7956a.1911.1911,0,0,1,.1973.0774A.2071.2071,0,0,1,945.64,96.7956Z"/><path class="cls-31" d="M945.8976,96.89a.1891.1891,0,0,1,.212.08A.2373.2373,0,0,1,945.8976,96.89Z"/><path class="cls-31" d="M946.3816,97.0631a.1855.1855,0,0,1,.18.0754A.1855.1855,0,0,1,946.3816,97.0631Z"/><path class="cls-26" d="M984.4845,94.7037a.1731.1731,0,0,1,.1935-.084A.2094.2094,0,0,1,984.4845,94.7037Z"/><path class="cls-23" d="M990.4711,91.71a.1719.1719,0,0,1,.1663-.0936A.1835.1835,0,0,1,990.4711,91.71Z"/><path class="cls-28" d="M978.76,67.3877c-.0247.0843-.0908.1056-.1678.11A.2133.2133,0,0,1,978.76,67.3877Z"/><path class="cls-23" d="M990.748,91.5437c.0291-.086.0981-.1031.1772-.1025A.1988.1988,0,0,1,990.748,91.5437Z"/><path class="cls-39" d="M937.4573,91.3574c.0957.0118.122.0795.1306.1616A.2327.2327,0,0,1,937.4573,91.3574Z"/><path class="cls-38" d="M991.6528,90.9934a.1607.1607,0,0,1,.1668-.1A.1823.1823,0,0,1,991.6528,90.9934Z"/><path class="cls-22" d="M996.1076,87.8342c.0131-.0887.077-.1107.1532-.1164A.1856.1856,0,0,1,996.1076,87.8342Z"/><path class="cls-51" d="M933.9629,82.0986a.2021.2021,0,0,1,.0711.2192A.2317.2317,0,0,1,933.9629,82.0986Z"/><path class="cls-37" d="M1003.4363,80.2707c.0066-.0755.0289-.14.1142-.1583A.1934.1934,0,0,1,1003.4363,80.2707Z"/><path class="cls-35" d="M1004.8876,78.1854a.1662.1662,0,0,1,.102-.1656A.1935.1935,0,0,1,1004.8876,78.1854Z"/><path class="cls-39" d="M938.04,76.471a.1813.1813,0,0,1-.1789-.0721A.1813.1813,0,0,1,938.04,76.471Z"/><path class="cls-44" d="M1006.3439,75.7483a.1711.1711,0,0,1,.0944-.1778A.1871.1871,0,0,1,1006.3439,75.7483Z"/><path class="cls-44" d="M1006.4376,75.5717a.1635.1635,0,0,1,.0982-.1807A.19.19,0,0,1,1006.4376,75.5717Z"/><path class="cls-44" d="M1006.5326,75.3964c-.0057-.0822.0065-.1548.0993-.184A.2082.2082,0,0,1,1006.5326,75.3964Z"/><path class="cls-44" d="M1006.6275,75.2189c-.0093-.0844.0018-.1581.0989-.1861A.1973.1973,0,0,1,1006.6275,75.2189Z"/><path class="cls-44" d="M1006.721,75.0405c-.0116-.0868.0008-.161.0993-.19A.2194.2194,0,0,1,1006.721,75.0405Z"/><path class="cls-51" d="M934.2375,74.7424c-.0888.0046-.1621-.0145-.18-.118A.2445.2445,0,0,1,934.2375,74.7424Z"/><path class="cls-44" d="M1006.4284,57.3386a.1741.1741,0,0,1-.0713-.1971A.1927.1927,0,0,1,1006.4284,57.3386Z"/><path class="cls-32" d="M966.9715,73.5672a.1588.1588,0,0,1-.191.0836A.1885.1885,0,0,1,966.9715,73.5672Z"/><path class="cls-33" d="M982.9414,95.3313a.1832.1832,0,0,1,.1891-.0786A.1964.1964,0,0,1,982.9414,95.3313Z"/><path class="cls-18" d="M1002.2555,44.9141a.1743.1743,0,0,1-.0716-.1963A.1919.1919,0,0,1,1002.2555,44.9141Z"/><path class="cls-18" d="M1002.3463,45.1862a.1947.1947,0,0,1-.0743-.212A.2234.2234,0,0,1,1002.3463,45.1862Z"/><path class="cls-18" d="M1002.437,45.4583a.1949.1949,0,0,1-.0743-.2122A.2238.2238,0,0,1,1002.437,45.4583Z"/><path class="cls-18" d="M1002.5278,45.73a.1947.1947,0,0,1-.0743-.2123A.2248.2248,0,0,1,1002.5278,45.73Z"/><path class="cls-43" d="M981.4908,95.8712a.1789.1789,0,0,1,.1848-.0734A.1757.1757,0,0,1,981.4908,95.8712Z"/><path class="cls-37" d="M1003.44,48.452a.1629.1629,0,0,1-.0708-.2019A.1963.1963,0,0,1,1003.44,48.452Z"/><path class="cls-37" d="M1003.5308,48.7236a.2016.2016,0,0,1-.0778-.224A.2377.2377,0,0,1,1003.5308,48.7236Z"/><path class="cls-44" d="M1006.5231,57.6113a.1937.1937,0,0,1-.0783-.2139A.2351.2351,0,0,1,1006.5231,57.6113Z"/><path class="cls-44" d="M1006.6153,57.8837a.2067.2067,0,0,1-.0783-.2267A.2426.2426,0,0,1,1006.6153,57.8837Z"/><path class="cls-44" d="M1006.7059,58.1558a.2066.2066,0,0,1-.0782-.2265A.2421.2421,0,0,1,1006.7059,58.1558Z"/><path class="cls-20" d="M997.8268,86.3768a.1045.1045,0,0,1,.1047-.09A.1148.1148,0,0,1,997.8268,86.3768Z"/><path class="cls-20" d="M997.6393,86.5468a.123.123,0,0,1,.1-.0876A.1074.1074,0,0,1,997.6393,86.5468Z"/><path class="cls-38" d="M991.56,91.06l.0961-.0694A.084.084,0,0,1,991.56,91.06Z"/><path class="cls-46" d="M942.2709,95.2569l.1184.0688A.1251.1251,0,0,1,942.2709,95.2569Z"/><path class="cls-39" d="M937.5939,91.5265l.08.092A.0961.0961,0,0,1,937.5939,91.5265Z"/><path class="cls-20" d="M997.7344,86.4642a.1155.1155,0,0,1,.0988-.0941A.1085.1085,0,0,1,997.7344,86.4642Z"/><path class="cls-23" d="M990.65,91.6105l.1044-.0726A.096.096,0,0,1,990.65,91.6105Z"/><path class="cls-35" d="M1004.8079,78.2992l.0739-.1029A.0949.0949,0,0,1,1004.8079,78.2992Z"/><path class="cls-39" d="M937.6755,91.62l.0858.0986A.1113.1113,0,0,1,937.6755,91.62Z"/><path class="cls-18" d="M1002.2717,81.7516a.1226.1226,0,0,1,.089-.1032A.1081.1081,0,0,1,1002.2717,81.7516Z"/><path class="cls-37" d="M1003.3531,80.3782l.0759-.0962A.0884.0884,0,0,1,1003.3531,80.3782Z"/><path class="cls-39" d="M937.7569,91.7142a.1289.1289,0,0,1,.0928.0994A.11.11,0,0,1,937.7569,91.7142Z"/><path class="cls-18" d="M1002.3569,81.6528l.0832-.0988A.101.101,0,0,1,1002.3569,81.6528Z"/><path class="cls-37" d="M1003.5432,80.12a.1227.1227,0,0,1,.0813-.1066A.1044.1044,0,0,1,1003.5432,80.12Z"/><path class="cls-18" d="M1002.19,81.8518a.1051.1051,0,0,1,.0883-.1075A.1167.1167,0,0,1,1002.19,81.8518Z"/><path class="cls-41" d="M940.2637,93.9887a.1419.1419,0,0,1,.1286.0893A.1582.1582,0,0,1,940.2637,93.9887Z"/><path class="cls-34" d="M943.904,96.073l.1173.0652A.1166.1166,0,0,1,943.904,96.073Z"/><path class="cls-21" d="M999.1859,85.1068a.1265.1265,0,0,1,.1047-.0991A.1265.1265,0,0,1,999.1859,85.1068Z"/><path class="cls-21" d="M999.096,85.1974a.1174.1174,0,0,1,.0977-.098A.113.113,0,0,1,999.096,85.1974Z"/><path class="cls-28" d="M978.5852,67.502l-.1031.0774A.1.1,0,0,1,978.5852,67.502Z"/><path class="cls-21" d="M999.0053,85.2881a.1175.1175,0,0,1,.0977-.098A.1129.1129,0,0,1,999.0053,85.2881Z"/><path class="cls-3" d="M1017.78,155.8644a2.4287,2.4287,0,0,0-4.756-.4349,3.3646,3.3646,0,0,0-.0712,1.4761,2.3612,2.3612,0,0,0,1.569,1.9327c.0565.02.11.0485.1653.073.0458.06.1369.0278.1821.089h.9071c.0688-.0906.2009-.0006.2686-.0942.084-.0324.1685-.0638.252-.0975a2.2755,2.2755,0,0,0,1.3833-1.5108A3.6052,3.6052,0,0,0,1017.78,155.8644Zm-.83,1.3878a1.6261,1.6261,0,0,1-1.5952,1.1108,1.6571,1.6571,0,0,1-1.6447-1.294,3.1821,3.1821,0,0,1,.0692-1.6986,1.6765,1.6765,0,0,1,1.4275-1.09,1.6584,1.6584,0,0,1,1.7772,1.2364A2.8138,2.8138,0,0,1,1016.95,157.2522Z"/><path class="cls-3" d="M991.2465,146.7933q-1.3682-2.7327-2.743-5.4619-2.8215-5.6262-5.64-11.2541-2.89-5.7682-5.78-11.5369c-.6016-1.2008-1.1833-2.4122-1.8627-3.5725a13.3818,13.3818,0,0,0-1.15-1.7355,5.2617,5.2617,0,0,0-2.7124-1.7961,2.84,2.84,0,0,0-1.3847-.1139,5.4288,5.4288,0,0,0-3.263,2.0538,14.6366,14.6366,0,0,0-.8356,1.239c-.7054,1.1454-1.3109,2.3449-1.9127,3.5458q-5.0307,10.0382-10.0554,20.0793-2.1285,4.2513-4.2546,8.5036c-.0607.1212-.1232.2421-.1747.3673a.0894.0894,0,0,0,.0781.1293,3.1269,3.1269,0,0,0,.3169.0083q2.6755.0006,5.3511,0,.136,0,.2721-.0021a.215.215,0,0,0,.2144-.1348c.0357-.0832.0735-.1655.1109-.248q.7578-1.6695,1.5163-3.3386c.42-.9194.8332-1.8423,1.2729-2.7523.4071-.8423.8446-1.67,1.2705-2.5031a.6612.6612,0,0,1,.2078-.3115h20.2076c.0907,0,.1817.0051.2721-.0007a.23.23,0,0,1,.2407.1611c.0436.0961.0937.1893.1412.2837.3937.7818.7732,1.5711,1.1839,2.3439,1.0837,2.0389,2.1808,4.0708,3.2727,6.1053.05.0931.1035.1844.1522.2781a.207.207,0,0,0,.1817.1137c.0753.0055.151.0052.2265.0052q2.5848,0,5.17,0a.419.419,0,0,0,.267-.0435A.8021.8021,0,0,0,991.2465,146.7933ZM977.5844,131.95c-.1358.0054-.2718.0056-.4078.0056q-3.3784,0-6.7568,0-3.4466,0-6.8929,0c-.4426,0-.4465-.0046-.2408-.41q1.8133-3.5729,3.6294-7.1443,1.0869-2.1392,2.1746-4.2779a6.4059,6.4059,0,0,1,.5658-.9268,1.91,1.91,0,0,1,.4736-.4836.487.487,0,0,1,.666-.0044,1.5622,1.5622,0,0,1,.3878.3779,7.0363,7.0363,0,0,1,.7778,1.2733q1.3952,2.7952,2.7879,5.5918,1.3845,2.775,2.7707,5.5492a3.3851,3.3851,0,0,1,.15.3279A.0853.0853,0,0,1,977.5844,131.95Z"/><path class="cls-6" d="M930.8887,157.7883a3.8264,3.8264,0,0,0-1.0219-1.1929,1.121,1.121,0,0,1,.3875-.1574,1.27,1.27,0,0,0,.8344-.8277,1.4865,1.4865,0,0,0-.1649-1.2584,1.0918,1.0918,0,0,0-.7189-.5067,3.7434,3.7434,0,0,0-.8068-.0956c-.6484.0075-1.297.0022-1.9455.0026q-.1356,0-.2713.0056a.1119.1119,0,0,0-.1175.11c-.0072.09-.0094.18-.0094.2706q-.0007,2.1939,0,4.3877c0,.12.0125.24.0191.3607.157,0,.314-.0035.4709.001a.3142.3142,0,0,0,.2309-.09c-.0051-.4513-.02-.9027-.0116-1.3536a1.8763,1.8763,0,0,1,.0537-.793,4.5453,4.5453,0,0,1,.8055-.0262c.0449-.0016.09.0085.1351.01a.8106.8106,0,0,1,.5955.2808,4.6364,4.6364,0,0,1,.3926.4938c.3248.4877.6381.983.956,1.4753.2343,0,.4687.0013.703-.0024.1007-.0016.0995-.0844.1075-.1557C931.3044,158.4144,931.0879,158.1067,930.8887,157.7883Zm-1.4162-1.7851q-.77,0-1.5409.0013c-.11,0-.169-.0475-.1692-.1589-.0007-.438-.0029-.876,0-1.314.0011-.1465.0313-.1715.1969-.174.2567-.0039.5136-.001.77-.001.2418,0,.4836-.0044.7251.0016a1.2365,1.2365,0,0,1,.4864.0876.7208.7208,0,0,1,.4844.6941.7675.7675,0,0,1-.4692.7575A1.286,1.286,0,0,1,929.4725,156.0032Z"/><path class="cls-3" d="M969.2765,155.4653a2.3724,2.3724,0,0,0-.2016-.5983,1.8016,1.8016,0,0,0-1.2-1.02,3.23,3.23,0,0,0-.717-.09c-.5884-.0125-1.1773-.0042-1.7661-.0039a1.0217,1.0217,0,0,0-.1356.0053.1206.1206,0,0,0-.1137.1159c-.0068.09-.0091.18-.0091.2709q-.0008,2.173.0012,4.3463c0,.1346.0216.2693.0331.4039l2.1684.0115a1.9994,1.9994,0,0,1,.26-.0694,1.8371,1.8371,0,0,0,1.5542-1.2778A3.7585,3.7585,0,0,0,969.2765,155.4653Zm-.7913,1.8693a1.21,1.21,0,0,1-.8195.8375,2.1057,2.1057,0,0,1-.4888.0822c-.3915.0154-.7836.0154-1.1755.0152-.141,0-.1765-.04-.1773-.1982-.0031-.5879-.0013-1.1758-.0014-1.7637,0-.5729-.0021-1.1457.001-1.7186.0011-.185.0278-.2135.2073-.2138.3768,0,.7537.0085,1.1305.012a1.3689,1.3689,0,0,1,1.396,1.1193A3.3643,3.3643,0,0,1,968.4852,157.3346Z"/><path class="cls-6" d="M959.3043,158.5369q-.8934-2.1951-1.7911-4.3884c-.1956-.4748-.1045-.3858-.623-.3963-.0452-.0009-.0905.0021-.1357.0007a.1965.1965,0,0,0-.2024.1457c-.0324.0843-.0652.1684-.0976.2526-.3345.8706-.671,1.74-1.0029,2.6121-.2676.7029-.53,1.4079-.7943,2.1119l.6991.02c.0633-.1515.1309-.3013.189-.4548.1166-.3081.233-.6166.3391-.9284a.2143.2143,0,0,1,.2321-.163c.5851.001,1.17.0031,1.7551-.0017a.248.248,0,0,1,.2629.19c.1665.4489.34.895.5114,1.3422l.7793-.0035C959.3852,158.763,959.35,158.648,959.3043,158.5369Zm-3.1137-1.8091a7.8678,7.8678,0,0,1,.3641-1.0543c.1138-.3428.2362-.6828.3548-1.024h0a.376.376,0,0,1-.0036-.0831c.0046-.0262.0138-.0633.0327-.0731.045-.0235.0666.0191.0881.05a.25.25,0,0,1,.051.1975c.24.66.497,1.3147.7378,1.9821A7.2081,7.2081,0,0,1,956.1906,156.7278Z"/></g></g></g></g></svg>