<svg xmlns="http://www.w3.org/2000/svg" viewBox="0 0 1086.6071 288.9374"><defs><style>.cls-1{fill:#00629b;}.cls-2{fill:#75787b;}.cls-3{fill:#1d1d1b;}.cls-4{fill:#1e1d1b;}.cls-5{fill:#1e1d1c;}.cls-6{fill:#1e1e1c;}.cls-7{fill:#818d8b;}.cls-8{fill:#c5cecd;}.cls-9{fill:#b4b4b4;}.cls-10{fill:#53585a;}.cls-11{fill:#6dae55;}.cls-12{fill:#63a85b;}.cls-13{fill:#5fa75b;}.cls-14{fill:#399a56;}.cls-15{fill:#6aad58;}.cls-16{fill:#57a35a;}.cls-17{fill:#188d4c;}.cls-18{fill:#158c4a;}.cls-19{fill:#70b054;}.cls-20{fill:#1e914e;}.cls-21{fill:#188f4e;}.cls-22{fill:#249351;}.cls-23{fill:#329755;}.cls-24{fill:#2b9554;}.cls-25{fill:#72b152;}.cls-26{fill:#439d59;}.cls-27{fill:#5ba65b;}.cls-28{fill:#53a15a;}.cls-29{fill:#409d57;}.cls-30{fill:#279452;}.cls-31{fill:#77b549;}.cls-32{fill:#67aa59;}.cls-33{fill:#479f59;}.cls-34{fill:#78b545;}.cls-35{fill:#0d8847;}.cls-36{fill:#4fa05a;}.cls-37{fill:#138b48;}.cls-38{fill:#2f9654;}.cls-39{fill:#76b839;}.cls-40{fill:#75b44c;}.cls-41{fill:#76b73f;}.cls-42{fill:#73b24f;}.cls-43{fill:#4aa05a;}.cls-44{fill:#0a8644;}.cls-45{fill:#75b933;}.cls-46{fill:#77b642;}.cls-47{fill:#068542;}.cls-48{fill:#3c9b57;}.cls-49{fill:#018441;}.cls-50{fill:#74bb27;}.cls-51{fill:#75ba2c;}.cls-52{fill:#1f1f1d;}.cls-53{fill:#20201e;}.cls-54{fill:#21211f;}.cls-55{fill:#bed87e;}</style></defs><g id="Layer_2" data-name="Layer 2"><g id="UNI"><g id="ieee_uni_cas_rgb_stacked_c"><path class="cls-1" d="M38.1271,58.7533l-.1966,19.5229v6.7051C37.8,93.33,37.536,97.1425,34.0524,100.824c-4.865,5.1271-12.0956,5.1271-14.4626,5.1271-8.8087,0-13.87-3.287-16.3683-6.8361C.9214,95.959.5269,92.41.329,85.31V80.4452C.2634,70.191.2634,68.3509,0,58.95l.3958-.3945c4.4692.0669,5.9817.0669,11.5688-.1965l.329.3945c-.1324,6.5072-.1966,11.5688-.1966,16.8938,0,3.4836,0,6.9685.1311,10.4521.131,4.1416.5255,6.4417,1.5111,8.1507a7.7625,7.7625,0,0,0,6.7051,3.485,7.5934,7.5934,0,0,0,5.7851-2.367c1.7745-2.1035,1.9711-5.26,1.9711-12.1612,0-8.0852-.3276-16.17-.6566-24.2569l.3945-.3945c3.747.0669,5.0616.0669,9.8611-.1965Z"/><path class="cls-1" d="M76.7891,104.9c-5.26,0-6.3775.0655-10.7156.1966l-.3945-.3945c0-2.2346.0656-4.536.0656-6.7706,0-2.4981-.0656-11.5033-.1966-13.6723-.1979-2.367-.5269-6.2451-4.1416-6.2451a9.0164,9.0164,0,0,0-5.0616,2.038c.0656,11.7653.1311,14.33.5256,24.4534l-.3945.3945c-5.2582,0-6.2451,0-10.9777.1966l-.3945-.3945c.0655-4.2071.131-8.4141.131-12.6212a182.6407,182.6407,0,0,0-.92-20.5754l.3945-.46c4.93-.6566,6.0485-.8545,11.1087-1.9056l.658.46-.1311,3.6147c3.0236-1.7746,6.5072-3.8781,10.5177-3.8781,2.3657,0,6.1127.5255,8.1507,3.9436,1.6435,2.696,1.7091,5.7195,1.7759,12.03v5.1271c.1311,6.443.1311,8.2831.46,14.0681Z"/><path class="cls-1" d="M95.23,104.9655c-5.3251-.0655-6.64,0-11.3722.1966l-.3959-.46c.198-5.3906.3959-9.4.3959-16.5648a124.7107,124.7107,0,0,0-.7235-16.6318l.3945-.3945L94.8343,69.14l.46.5255c-.0642,5.5872-.1966,11.2412-.1966,16.8283,0,9.0708.2634,12.95.5924,18.0118Zm-.92-41.6762c-4.6671.5911-5.9161.7221-10.3879,1.5111l-.46-.3945c.0669-1.249.0669-2.5635.0669-3.8125,0-1.5767-.0669-2.9581-.1979-5.3237l.3945-.46,10.7156-1.3158.3931.3945-.1965,8.941Z"/><path class="cls-1" d="M120.6465,104.9655c-4.7313-.0655-6.4417,0-10.7143.1966l-.46-.46C108.0252,99.3115,107.3031,96.88,98.56,70.98l.2621-.5256a86.5485,86.5485,0,0,0,11.5046-.7234l.46.3945c.9214,4.3381,1.1835,5.5871,2.827,11.7011l1.249,5.0616,1.6436,7.1,3.3512-12.95c1.3158-5.1272,1.5138-6.0486,2.4338-10.4522l.46-.46,9.2032-.1979.3276.4613c-1.84,5.3892-4.7326,13.9358-6.5072,19.2595-1.3814,4.1415-2.63,8.2175-4.7326,14.79Z"/><path class="cls-1" d="M164.0037,95.4334l-.46,7.4286-.3945.5256a25.3935,25.3935,0,0,1-11.3066,2.3669c-4.7327,0-13.6737-.789-17.4863-9.6631a21.8937,21.8937,0,0,1-1.578-8.6121c0-11.3722,6.8375-18.1428,17.1573-18.1428a16.8429,16.8429,0,0,1,4.6684.5911c2.2346.5268,7.2962,2.1035,9.5963,9.861a38.5464,38.5464,0,0,1,1.0525,9.7943l-.3945.46-21.2333.3945a9.3074,9.3074,0,0,0,1.4469,4.0105c1.578,2.3656,4.2726,3.6146,8.2163,3.6146a20.0944,20.0944,0,0,0,10.2555-2.8256Zm-9.4-12.2267a8.0354,8.0354,0,0,0-.9869-4.536,5.0476,5.0476,0,0,0-6.8361-1.578c-2.4981,1.578-2.9581,4.3394-3.156,6.3775Z"/><path class="cls-1" d="M188.9666,80.84a4.9236,4.9236,0,0,0-2.6946-.92c-4.47,0-4.47,4.34-4.47,7.2975,0,4.5347.3945,11.9633.6579,17.2883l-.329.46c-5.26-.0655-6.3106,0-11.1756.1966l-.3945-.3945c.1324-5.4561.1979-10.8466.1979-16.2358,0-9.1377-.1979-12.0957-.5924-17.0263l.3945-.3945c4.7995-.7221,6.0485-.92,10.9122-1.9711l.5269.5255-.1979,6.0472c2.1035-4.8637,5.1271-6.3761,7.823-6.3761.46,0,.92.0655,1.38.0655l.3945.46-1.84,10.7156Z"/><path class="cls-1" d="M211.9063,83.47c3.6146,1.38,8.6762,3.2856,8.6762,10.5176a11.1709,11.1709,0,0,1-.0655,1.4456c-1.1835,9.4-11.0433,10.3211-16.0393,10.3211a27.3766,27.3766,0,0,1-10.78-2.2359l-.329-.5911c.2621-3.287.329-4.01.46-7.4285l.5911-.2621a14.5929,14.5929,0,0,0,2.63,1.84,16.4421,16.4421,0,0,0,6.9673,1.84c3.6815,0,5.1926-1.7745,5.1926-3.418,0-2.3657-2.8912-3.3526-4.6671-3.9437l-2.498-.92c-3.0891-1.1835-8.5452-3.287-8.5452-10.3211a9.8846,9.8846,0,0,1,1.7745-5.7851c3.4181-4.9292,9.8611-5.1926,13.0813-5.1926A33.4713,33.4713,0,0,1,218.4134,70.98l.329.3945-.6566,7.1651-.5924.1966a14.2678,14.2678,0,0,0-8.2162-2.76c-4.0761,0-4.6016,2.169-4.6016,2.958,0,1.84,1.7746,2.5636,4.0092,3.3526Z"/><path class="cls-1" d="M237.0925,104.9655c-5.325-.0655-6.6395,0-11.3722.1966l-.3945-.46c.1966-5.3906.3945-9.4.3945-16.5648a124.7326,124.7326,0,0,0-.7234-16.6318l.3945-.3945L236.698,69.14l.46.5255c-.0656,5.5872-.198,11.2412-.198,16.8283,0,9.0708.2635,12.95.5925,18.0118Zm-.9214-41.6762c-4.667.5911-5.9161.7221-10.3852,1.5111l-.46-.3945c.0656-1.249.0656-2.5635.0656-3.8125,0-1.5767-.0656-2.9581-.198-5.3237l.3945-.46,10.7156-1.3158.3945.3945-.1979,8.941Z"/><path class="cls-1" d="M275.7612,104.9655c-4.93,0-6.1795,0-10.7142.1966l-.329-.3945.1311-2.5635a12.0435,12.0435,0,0,1-8.6763,3.55,13.8646,13.8646,0,0,1-8.6121-2.8925c-3.8781-3.2215-5.2581-8.3486-5.2581-13.4757,0-6.7707,1.9056-12.2268,6.5072-15.7772,4.996-3.9437,11.1756-3.8126,16.1048-3.6815.0668-7.4928,0-9.1363-.3945-15.3159l.329-.3945,10.8466-1.709.46.3945c-.2634,8.6776-.5255,15.8427-.5255,33.1965,0,8.6108.1966,12.5557.46,18.4719ZM262.68,77.62c-7.3617,0-8.8087,5.6526-8.8087,10.7142,0,1.3146,0,9.4666,6.3762,9.4666a8.31,8.31,0,0,0,4.4705-1.578c.1966-7.9541.2634-9.6631.1966-18.4062A14.7465,14.7465,0,0,0,262.68,77.62Z"/><path class="cls-1" d="M311.853,90.2408c0,6.1782,0,7.8217.46,14.2647l-.3289.46c-4.2726-.0655-5.72,0-10.4522.1966l-.3945-.46V102.27a13.5868,13.5868,0,0,1-9.1363,3.4849,11.0972,11.0972,0,0,1-11.5046-11.57,10.51,10.51,0,0,1,4.9306-9.0052c3.9436-2.4325,7.6251-3.156,15.5137-4.2071a4.1494,4.1494,0,0,0-.8545-2.827c-.8545-.8545-1.8414-1.249-4.2726-1.249-4.405,0-8.6776,1.709-10.9777,2.6291l-.5269-.2621.329-7.1651.3945-.5269a40.028,40.028,0,0,1,12.8846-2.1691c8.4142,0,11.0433,2.6291,12.3578,4.7326,1.7091,2.7615,1.7091,5.3251,1.6435,11.2412Zm-10.7811-2.367c-4.4705.5924-9.6632,1.3146-9.6632,5.654,0,2.76,1.9725,4.0092,4.3381,4.0092a10.64,10.64,0,0,0,5.3251-1.7091Z"/><path class="cls-1" d="M350.4615,104.9655c-4.93,0-6.18,0-10.7142.1966l-.329-.3945.1311-2.5635a12.0435,12.0435,0,0,1-8.6763,3.55,13.8646,13.8646,0,0,1-8.6121-2.8925c-3.8781-3.2215-5.2581-8.3486-5.2581-13.4757,0-6.7707,1.9056-12.2268,6.5071-15.7772,4.9961-3.9437,11.1757-3.8126,16.1049-3.6815.0668-7.4928,0-9.1363-.3945-15.3159l.329-.3945,10.8466-1.709.46.3945c-.2634,8.6776-.5255,15.8427-.5255,33.1965,0,8.6108.1966,12.5557.46,18.4719ZM337.38,77.62c-7.3617,0-8.8087,5.6526-8.8087,10.7142,0,1.3146,0,9.4666,6.3762,9.4666a8.31,8.31,0,0,0,4.4705-1.578c.1966-7.9541.2634-9.6631.1966-18.4062A14.7465,14.7465,0,0,0,337.38,77.62Z"/><path class="cls-1" d="M40.2306,129.9606c-.0655,7.3617-.131,14.6592-.131,22.0209,0,7.8886.0655,14.33.131,23.8624l-.3289.329c-3.4836,0-4.6671,0-8.6763.1966l-.46-.329-5.8506-8.5452-6.574-9.6632c-4.4706-6.5072-5.5217-8.2162-8.6108-13.3447l.3932,8.8087.1979,8.0865.6579,14.3958-.3289.3945c-3.8126,0-5.194,0-9.5977.1966l-.3276-.3945c.0642-6.3762.1966-12.8178.1966-19.26,0-8.8086-.1966-16.3683-.5256-26.5583l.329-.3945c4.7982.0668,5.6527.0668,10.8453-.1966l.46.329c1.6436,2.6291,2.6291,4.0747,7.56,11.5688l5.9816,8.7431c3.3539,4.996,3.6815,5.5216,5.5872,8.7431l-.2622-10.8467-.2621-9.0721-.46-8.8741.3277-.3945c4.076.0668,5.1926,0,9.3355-.1966Z"/><path class="cls-1" d="M77.0312,161.4481c0,6.1782,0,7.8218.46,14.2648l-.329.46c-4.2726-.0655-5.7195,0-10.4521.1966l-.3945-.46v-2.4325a13.5868,13.5868,0,0,1-9.1363,3.485,11.0972,11.0972,0,0,1-11.5046-11.57,10.51,10.51,0,0,1,4.9305-9.0052c3.945-2.4325,7.6252-3.1559,15.5138-4.207a4.1429,4.1429,0,0,0-.8545-2.8271c-.8546-.8545-1.84-1.249-4.274-1.249-4.4036,0-8.6762,1.7091-10.9763,2.6291l-.5269-.2621.3289-7.1651.3945-.5269a40.0319,40.0319,0,0,1,12.8847-2.1691c8.4142,0,11.0432,2.6291,12.3578,4.7327,1.709,2.7614,1.709,5.325,1.6435,11.2411ZM66.25,159.0811c-4.4705.5925-9.6631,1.3146-9.6631,5.654,0,2.76,1.9725,4.0092,4.3394,4.0092a10.6389,10.6389,0,0,0,5.3237-1.709Z"/><path class="cls-1" d="M109.8881,167.0353l-.2635,7.8886-.3931.3945a27.5333,27.5333,0,0,1-8.481,1.4456c-14.79,0-18.734-10.2543-18.734-17.8139,0-6.7051,3.0236-18.4063,18.4718-18.4063a27.3392,27.3392,0,0,1,9.2032,1.709l.329.3945c-.5269,3.4836-.5925,4.405-.8559,7.8886l-.6566.1966c-1.9725-1.3145-3.55-2.3656-6.4417-2.3656-6.3761,0-8.481,5.5216-8.481,10.32,0,3.945,1.5125,10.1232,8.9411,10.1232a11.7051,11.7051,0,0,0,6.8361-2.1035Z"/><path class="cls-1" d="M126.477,176.1729c-5.325-.0655-6.64,0-11.3722.1966l-.3959-.46c.198-5.3905.3959-9.4.3959-16.5648a124.708,124.708,0,0,0-.7235-16.6317l.3945-.3945,11.3054-1.9712.46.5256c-.0642,5.5871-.1966,11.2411-.1966,16.8283,0,9.0707.2634,12.95.5924,18.0118Zm-.92-41.6763c-4.6671.5911-5.9161.7222-10.3879,1.5112l-.46-.3945c.0669-1.2491.0669-2.5636.0669-3.8126,0-1.5767-.0669-2.9581-.1979-5.3237l.3945-.46,10.7156-1.3159.3932.3945-.1966,8.941Z"/><path class="cls-1" d="M149.081,176.9619c-9.4,0-12.6212-3.5505-14.33-6.1141-2.4325-3.5491-3.09-7.8217-3.09-12.0288,0-12.0956,6.443-18.21,17.8807-18.21a23.65,23.65,0,0,1,8.02,1.249c9.2031,3.616,9.2031,14.2648,9.2031,16.8283C166.7638,168.5477,163.0167,176.9619,149.081,176.9619Zm4.4036-27.5439a5.5281,5.5281,0,0,0-4.207-2.038,5.4431,5.4431,0,0,0-4.7982,2.958c-1.3145,2.3015-1.3145,6.5085-1.3145,8.4142,0,6.3774,1.249,8.612,2.3656,9.7287a5.3175,5.3175,0,0,0,3.6815,1.5124c5.4561,0,6.18-5.9816,6.18-11.3722C155.3916,155.072,155.0626,151.3249,153.4846,149.418Z"/><path class="cls-1" d="M203.8665,176.1074c-5.26,0-6.3761.0655-10.7156.1965l-.3945-.3945c0-2.2346.0669-4.536.0669-6.7706,0-2.498-.0669-11.5033-.1979-13.6723-.1966-2.367-.5256-6.2451-4.1416-6.2451a9.02,9.02,0,0,0-5.0615,2.038c.0655,11.7667.1323,14.33.5268,24.4535l-.3945.3945c-5.26,0-6.245,0-10.979.1965l-.3932-.3945c.0656-4.207.1311-8.4141.1311-12.6212a182.9479,182.9479,0,0,0-.92-20.5753l.3945-.46c4.9292-.6566,6.0472-.8545,11.1088-1.9056l.6579.46-.1323,3.6147c3.0235-1.7746,6.5085-3.8781,10.5176-3.8781,2.367,0,6.1141.5256,8.1521,3.9436,1.6435,2.696,1.709,5.72,1.7745,12.03v5.1271c.1311,6.443.1311,8.2831.46,14.0682Z"/><path class="cls-1" d="M239.9128,161.4481c0,6.1782,0,7.8218.46,14.2648l-.329.46c-4.2726-.0655-5.72,0-10.4522.1966l-.3945-.46v-2.4325a13.5862,13.5862,0,0,1-9.1362,3.485,11.0972,11.0972,0,0,1-11.5046-11.57,10.51,10.51,0,0,1,4.93-9.0052c3.9436-2.4325,7.6252-3.1559,15.5138-4.207a4.1491,4.1491,0,0,0-.8546-2.8271c-.8545-.8545-1.8414-1.249-4.2726-1.249-4.4049,0-8.6775,1.7091-10.9777,2.6291l-.5268-.2621.3289-7.1651.3945-.5269a40.0319,40.0319,0,0,1,12.8847-2.1691c8.4141,0,11.0432,2.6291,12.3578,4.7327,1.709,2.7614,1.709,5.325,1.6435,11.2411Zm-10.7811-2.367c-4.47.5925-9.6631,1.3146-9.6631,5.654,0,2.76,1.9724,4.0092,4.3381,4.0092a10.64,10.64,0,0,0,5.325-1.709Z"/><path class="cls-1" d="M257.9393,176.1729c-4.7981-.0655-6.574,0-10.9777.1966l-.3945-.46c.2635-6.5072.3945-10.4521.3945-17.5517,0-3.8781,0-7.7562-.0655-11.6343-.1324-10.65-.1979-12.8192-.8545-20.8388l.2621-.3945,11.2411-1.7746.46.46c-.2635,7.1-.329,10.0577-.329,16.3028,0,20.7719.329,27.6749.6579,35.2346Z"/><path class="cls-1" d="M317.0309,176.1729c-4.93,0-6.1795,0-10.7142.1966l-.329-.3945.1311-2.5636a12.0431,12.0431,0,0,1-8.6763,3.5505,13.8648,13.8648,0,0,1-8.6121-2.8926c-3.8781-3.2215-5.2581-8.3486-5.2581-13.4757,0-6.7706,1.9056-12.2267,6.5072-15.7772,4.996-3.9436,11.1756-3.8126,16.1048-3.6815.0669-7.4928,0-9.1363-.3945-15.3159l.329-.3944,10.8466-1.7091.46.3945c-.2634,8.6776-.5255,15.8427-.5255,33.1966,0,8.6107.1966,12.5557.46,18.4718ZM303.95,148.8269c-7.3617,0-8.8086,5.6527-8.8086,10.7143,0,1.3145,0,9.4665,6.3761,9.4665a8.31,8.31,0,0,0,4.4705-1.5779c.1966-7.9542.2635-9.6632.1966-18.4063A14.7465,14.7465,0,0,0,303.95,148.8269Z"/><path class="cls-1" d="M353.3982,166.6408l-.46,7.4285-.3945.5256a25.3921,25.3921,0,0,1-11.3067,2.367c-4.7326,0-13.6737-.789-17.4862-9.6632a21.8937,21.8937,0,0,1-1.5767-8.6121c0-11.3722,6.8362-18.1428,17.1559-18.1428a16.8313,16.8313,0,0,1,4.6671.5911c2.236.5269,7.2976,2.1035,9.5977,9.8611a38.4819,38.4819,0,0,1,1.0524,9.7942l-.3945.46-21.2333.3945a9.3259,9.3259,0,0,0,1.447,4.0105c1.5779,2.3656,4.2726,3.6147,8.2162,3.6147a20.0948,20.0948,0,0,0,10.2556-2.8257Zm-9.4011-12.2268a8.0349,8.0349,0,0,0-.9855-4.536,5.0451,5.0451,0,0,0-6.8362-1.5767c-2.498,1.5767-2.9581,4.3382-3.156,6.3762Z"/><path class="cls-1" d="M392.3731,129.9606c-.1965,9.0707-.3289,18.1428-.3289,27.2149,0,9.5308.1324,12.5544.46,18.6029l-.3945.3945c-5.4561,0-6.7706,0-11.7.1966l-.329-.3945c.2621-6.8362.3945-10.8454.3945-18.6029,0-16.7628-.1979-20.1153-.5924-27.2149l.2634-.3945c4.7326.0668,6.2451.0668,11.8978-.1966Z"/><path class="cls-1" d="M431.5888,176.1074c-5.26,0-6.3762.0655-10.7156.1965l-.3945-.3945c0-2.2346.0668-4.536.0668-6.7706,0-2.498-.0668-11.5033-.1979-13.6723-.1966-2.367-.5255-6.2451-4.1415-6.2451a9.02,9.02,0,0,0-5.0616,2.038c.0655,11.7667.1324,14.33.5269,24.4535l-.3945.3945c-5.26,0-6.2451,0-10.9791.1965l-.3931-.3945c.0655-4.207.131-8.4141.131-12.6212a182.9781,182.9781,0,0,0-.92-20.5753l.3945-.46c4.9292-.6566,6.0471-.8545,11.1087-1.9056l.658.46-.1324,3.6147c3.0236-1.7746,6.5085-3.8781,10.5177-3.8781,2.367,0,6.114.5256,8.152,3.9436,1.6435,2.696,1.7091,5.72,1.7746,12.03v5.1271c.131,6.443.131,8.2831.46,14.0682Z"/><path class="cls-1" d="M449.5243,167.3642a27.6819,27.6819,0,0,0,6.5072,1.6435l1.578.2622c4.2726.9869,11.5033,2.5635,11.5033,10.8466,0,6.3761-5.5216,12.4246-17.5518,12.4246-2.5635,0-7.56-.1323-11.24-2.7614a9.266,9.266,0,0,1-4.076-7.4286c0-4.2726,3.0891-6.7706,5.0616-8.2818l-2.76-1.9724v-.5911c1.5112-2.696,2.4967-4.47,4.3382-8.02a11.3021,11.3021,0,0,1-4.405-3.6815,10.6522,10.6522,0,0,1-1.9057-6.3761,11.0241,11.0241,0,0,1,4.2071-8.8742c4.2726-3.55,10.5177-3.4194,15.1848-3.287l3.0236.0655c4.1415.0655,5.5216,0,10.5832-.1979l.3945.329-.46,6.574-.3945.329-4.5361-.2635a8.6,8.6,0,0,1,1.7759,5.72c0,6.3761-4.996,9.2031-8.4141,10.3853a18.4222,18.4222,0,0,1-7.3631.8545Zm-1.709,9.7287a6.244,6.244,0,0,0-1.907,4.3382c0,2.3014,1.6436,5.0615,6.5072,5.0615,4.3395,0,5.983-2.038,5.983-4.0091a2.8983,2.8983,0,0,0-1.3145-2.5636c-.789-.6579-.8546-.6579-6.7051-2.169Zm3.8126-29.6474c-2.4325,0-4.405,2.1035-4.405,5.3906a9.0446,9.0446,0,0,0,.5924,3.418,4.2516,4.2516,0,0,0,3.9436,2.7615c.92,0,4.1416-.46,4.2071-5.785C456.0315,150.338,454.6515,147.4455,451.6279,147.4455Z"/><path class="cls-1" d="M502.8322,166.6408l-.46,7.4285-.3945.5256a25.3921,25.3921,0,0,1-11.3067,2.367c-4.7326,0-13.6736-.789-17.4862-9.6632a21.8937,21.8937,0,0,1-1.5767-8.6121c0-11.3722,6.8362-18.1428,17.156-18.1428a16.8471,16.8471,0,0,1,4.6684.5911c2.2346.5269,7.2962,2.1035,9.5963,9.8611a38.545,38.545,0,0,1,1.0524,9.7942l-.3945.46-21.2333.3945a9.309,9.309,0,0,0,1.447,4.0105c1.578,2.3656,4.2726,3.6147,8.2162,3.6147a20.0945,20.0945,0,0,0,10.2556-2.8257Zm-9.4-12.2268a8.0362,8.0362,0,0,0-.9869-4.536,5.0451,5.0451,0,0,0-6.8362-1.5767c-2.498,1.5767-2.958,4.3382-3.156,6.3762Z"/><path class="cls-1" d="M541.192,176.1074c-5.26,0-6.3761.0655-10.7156.1965l-.3945-.3945c0-2.2346.0669-4.536.0669-6.7706,0-2.498-.0669-11.5033-.1979-13.6723-.1966-2.367-.5256-6.2451-4.1416-6.2451a9.02,9.02,0,0,0-5.0616,2.038c.0655,11.7667.1324,14.33.5269,24.4535l-.3945.3945c-5.26,0-6.2451,0-10.979.1965l-.3932-.3945c.0655-4.207.1311-8.4141.1311-12.6212a182.9479,182.9479,0,0,0-.92-20.5753l.3945-.46c4.9292-.6566,6.0472-.8545,11.1088-1.9056l.6579.46-.1324,3.6147c3.0236-1.7746,6.5085-3.8781,10.5177-3.8781,2.367,0,6.114.5256,8.152,3.9436,1.6436,2.696,1.7091,5.72,1.7746,12.03v5.1271c.1311,6.443.1311,8.2831.46,14.0682Z"/><path class="cls-1" d="M559.6331,176.1729c-5.3251-.0655-6.64,0-11.3722.1966l-.3945-.46c.1965-5.3905.3945-9.4.3945-16.5648a124.7254,124.7254,0,0,0-.7235-16.6317l.3945-.3945,11.3067-1.9712.46.5256c-.0655,5.5871-.1979,11.2411-.1979,16.8283,0,9.0707.2634,12.95.5924,18.0118Zm-.9214-41.6763c-4.6671.5911-5.9161.7222-10.3853,1.5112l-.46-.3945c.0655-1.2491.0655-2.5636.0655-3.8126,0-1.5767-.0655-2.9581-.1979-5.3237l.3945-.46,10.7156-1.3159.3945.3945-.198,8.941Z"/><path class="cls-1" d="M595.9361,166.6408l-.46,7.4285-.3945.5256a25.3921,25.3921,0,0,1-11.3067,2.367c-4.7326,0-13.6736-.789-17.4862-9.6632a21.8937,21.8937,0,0,1-1.5767-8.6121c0-11.3722,6.8362-18.1428,17.156-18.1428a16.8471,16.8471,0,0,1,4.6684.5911c2.2346.5269,7.2962,2.1035,9.5963,9.8611a38.545,38.545,0,0,1,1.0524,9.7942l-.3945.46-21.2332.3945a9.3074,9.3074,0,0,0,1.4469,4.0105c1.578,2.3656,4.2726,3.6147,8.2162,3.6147a20.0945,20.0945,0,0,0,10.2556-2.8257Zm-9.4-12.2268a8.0362,8.0362,0,0,0-.9869-4.536,5.0451,5.0451,0,0,0-6.8362-1.5767c-2.498,1.5767-2.958,4.3382-3.1559,6.3762Z"/><path class="cls-1" d="M620.8977,152.0471a4.9229,4.9229,0,0,0-2.6946-.92c-4.47,0-4.47,4.3395-4.47,7.2975,0,4.5347.3945,11.9633.6579,17.2884l-.3289.46c-5.26-.0655-6.3106,0-11.1757.1966l-.3945-.3945c.1324-5.4561.198-10.8454.198-16.2359,0-9.1376-.198-12.0957-.5924-17.0262l.3944-.3945c4.7995-.7222,6.0486-.92,10.9122-1.9712l.5269.5256-.1979,6.0471c2.1035-4.8636,5.1271-6.3761,7.8231-6.3761.46,0,.92.0655,1.38.0655l.3945.46-1.84,10.7156Z"/><path class="cls-1" d="M638.5672,176.1729c-5.3251-.0655-6.64,0-11.3722.1966l-.3945-.46c.1965-5.3905.3945-9.4.3945-16.5648a124.7254,124.7254,0,0,0-.7235-16.6317l.3945-.3945,11.3067-1.9712.46.5256c-.0655,5.5871-.1979,11.2411-.1979,16.8283,0,9.0707.2634,12.95.5924,18.0118Zm4.4692-50.2883c-2.1036,3.2215-5.0616,7.7575-7.1,11.11l-.46.2621h-7.1l-.2621-.3945a71.7349,71.7349,0,0,0,4.0092-10.9777l.3289-.329,10.3867-.131Z"/><path class="cls-1" d="M674.3514,161.4481c0,6.1782,0,7.8218.46,14.2648l-.329.46c-4.2726-.0655-5.72,0-10.4521.1966l-.3945-.46v-2.4325a13.5868,13.5868,0,0,1-9.1363,3.485,11.0972,11.0972,0,0,1-11.5046-11.57,10.51,10.51,0,0,1,4.93-9.0052c3.9437-2.4325,7.6252-3.1559,15.5138-4.207a4.15,4.15,0,0,0-.8545-2.8271c-.8546-.8545-1.8415-1.249-4.2726-1.249-4.405,0-8.6776,1.7091-10.9777,2.6291l-.5269-.2621.3289-7.1651.3945-.5269a40.0319,40.0319,0,0,1,12.8847-2.1691c8.4141,0,11.0432,2.6291,12.3578,4.7327,1.709,2.7614,1.709,5.325,1.6435,11.2411Zm-10.7812-2.367c-4.4705.5925-9.6631,1.3146-9.6631,5.654,0,2.76,1.9725,4.0092,4.3381,4.0092a10.64,10.64,0,0,0,5.325-1.709Z"/><path class="cls-1" d="M7.66,199.6113c-.1725,3.8541-.2875,8.3995-.2875,18.2926,0,11.0446.115,15.7625.46,21.6867l-.345.4025c-2.5315.0575-3.3365.0575-6.3855.1725l-.345-.4025c.115-3.509.23-6.558.23-13.9786,0-8.6856,0-17.3137-.4025-25.9432l.2875-.46c2.5315,0,3.4515,0,6.3855-.1725Z"/><path class="cls-1" d="M40.6933,235.2765c-.1725,1.9564-.1725,2.359-.2875,4.3141l-.4025.4025c-11.2171,0-13.001.0575-23.9306.1725l-.2875-.4025c.1725-4.5441.345-7.6506.345-18.1776,0-9.6632,0-15.1862-.4025-21.8017l.345-.4025c11.3335-.0575,13.5761-.0575,24.1606-.1725l.345.4025c-.1725,1.7265-.2875,2.4165-.4025,4.4879l-.3463.4026c-7.4193-.23-9.8932-.23-17.1988-.2876-.1725,5.2916-.1725,6.9592-.1725,12.2522,7.0756.0575,9.262,0,16.28-.115l.2862.4025a40.4454,40.4454,0,0,0-.2862,4.429l-.345.4026c-6.673-.1725-8.1119-.1725-15.935-.1725-.115,6.673-.0575,8.2831,0,13.7485,8.687,0,10.47,0,17.89-.2875Z"/><path class="cls-1" d="M71.0148,235.2765c-.1739,1.9564-.1739,2.359-.2889,4.3141l-.4025.4025c-11.2171,0-13,.0575-23.9306.1725l-.2862-.4025c.1712-4.5441.3451-7.6506.3451-18.1776,0-9.6632,0-15.1862-.4039-21.8017l.345-.4025c11.3334-.0575,13.5761-.0575,24.1619-.1725l.3451.4025c-.1739,1.7265-.2889,2.4165-.4039,4.4879l-.345.4026c-7.4206-.23-9.8932-.23-17.2-.2876-.1711,5.2916-.1711,6.9592-.1711,12.2522,7.0741.0575,9.2606,0,16.2786-.115l.2875.4025a40.7859,40.7859,0,0,0-.2875,4.429l-.345.4026c-6.673-.1725-8.1106-.1725-15.9336-.1725-.1151,6.673-.0589,8.2831,0,13.7485,8.6856,0,10.4682,0,17.89-.2875Z"/><path class="cls-1" d="M101.3348,235.2765c-.1725,1.9564-.1725,2.359-.2875,4.3141l-.4038.4025c-11.2171,0-13,.0575-23.9293.1725l-.2875-.4025c.1725-4.5441.345-7.6506.345-18.1776,0-9.6632,0-15.1862-.4025-21.8017l.345-.4025c11.3321-.0575,13.5761-.0575,24.1606-.1725l.345.4025c-.1725,1.7265-.2875,2.4165-.4025,4.4879l-.345.4026c-7.4219-.23-9.8945-.23-17.2-.2876-.1725,5.2916-.1725,6.9592-.1725,12.2522,7.0756.0575,9.2607,0,16.2787-.115l.2889.4025a41.1077,41.1077,0,0,0-.2889,4.429l-.345.4026c-6.673-.1725-8.1106-.1725-15.9337-.1725-.115,6.673-.0575,8.2831,0,13.7485,8.6856,0,10.47,0,17.89-.2875Z"/><path class="cls-1" d="M139.2333,216.9839c4.199,1.8414,9.7795,4.2566,9.7795,11.62,0,6.443-4.7741,12.2521-14.7836,12.2521a24.9232,24.9232,0,0,1-11.39-2.53l-.23-.4025c.23-2.014.2875-3.1065.46-5.293l.575-.23a16.97,16.97,0,0,0,10.1232,3.394c5.9255,0,8.4-3.049,8.4-6.5005,0-4.0265-3.3365-5.5791-7.0756-7.018l-2.8751-1.2651c-4.0854-1.8976-9.5509-4.3715-9.5509-11.3895a10.6326,10.6326,0,0,1,1.784-6.0405c2.6464-3.7966,7.4205-5.0616,12.08-5.0616a30.0856,30.0856,0,0,1,10.3545,1.84l.2875.4613c-.23,2.1851-.2875,2.99-.46,5.0616l-.46.23a18.9969,18.9969,0,0,0-9.4907-2.6464c-4.7754,0-7.7669,2.2439-7.7669,5.6379a5.1582,5.1582,0,0,0,2.934,4.5441,31.2266,31.2266,0,0,0,4.4291,2.0714Z"/><path class="cls-1" d="M167.3174,235.449c-.1725,1.899-.1725,2.3015-.23,3.9691l-.2875.345a15.6515,15.6515,0,0,1-4.3154.5175c-1.38,0-5.0041,0-6.7867-2.99-1.0364-1.6689-1.0364-3.0489-1.0364-9.837l.115-12.656c-2.0126,0-2.07.0576-4.1415.1151l-.23-.3451c.115-1.84.115-2.3.115-4.1415l.345-.345c1.2664,0,2.0139.0575,3.9115,0-.0575-1.2076-.0575-2.474-.0575-3.6816q-.0863-1.6387-.1725-3.279l.2875-.4025c2.589-.6325,3.2215-.805,5.868-1.61l.4025.2876c-.1725,3.7965-.23,4.544-.23,8.7431,2.4165-.0575,3.1065-.0575,6.3855-.1725l.2875.345c-.115,1.4964-.1725,2.1289-.1725,4.084l-.2875.345c-2.8765-.0575-3.2215-.115-6.27-.115l-.115,10.7c.0575.69.0575,3.969.0575,4.7754,0,4.1991.5175,5.5216,3.394,5.5216a7.8426,7.8426,0,0,0,2.7615-.5175Z"/><path class="cls-1" d="M197.4142,210.2534c-.115,4.3715-.1725,8.4556-.1725,13.116,0,7.0755.1725,11.3321.2875,13.8047,0,.8064.0575,1.6114.115,2.4165l-.23.345c-2.7615.0575-3.2215.115-5.868.23l-.345-.345.0575-2.4151a14.6994,14.6994,0,0,1-9.0306,3.2776,10.7373,10.7373,0,0,1-6.558-1.9551c-3.6816-2.9915-3.6816-7.8806-3.7391-12.3671v-3.5665c-.115-8.227-.115-9.147-.2875-12.2535l.2875-.4025c2.704-.0575,3.2215-.0575,5.9255-.2875l.345.4025-.23,12.5985c0,1.5525-.0575,2.7026,0,5.4641.0575,2.4164.1725,7.593,5.9817,7.593a11.4654,11.4654,0,0,0,7.19-2.9914c.0575-3.1065.0575-5.7517.0575-9.0882a118.555,118.555,0,0,0-.4025-13.346l.345-.4025c2.6465-.0575,3.279-.0575,5.9255-.23Z"/><path class="cls-1" d="M223.8174,195.2973c2.934-.5176,3.509-.6326,6.098-1.2076l.4025.345c-.4025,7.9956-.46,22.2617-.46,28.0133,0,8.917.23,13.1735.46,17.1426l-.2875.4025c-2.5315,0-3.2215.0575-5.868.1725l-.4025-.345.115-2.1276a12.1717,12.1717,0,0,1-7.9381,2.8751c-7.6506,0-12.9422-6.0391-12.9422-14.7836,0-6.2691,2.6452-10.2382,5.0616-12.3671,4.1991-3.7965,9.6645-3.9691,12.6547-3.9691,1.2089,0,1.7839,0,3.3365.115a127.7385,127.7385,0,0,0-.5175-13.921Zm.0575,18.9251c-.9776-.0575-1.6676-.1725-2.8752-.1725-1.7839,0-5.58.115-8.3419,2.704-1.2651,1.2075-3.3365,3.9115-3.3365,9.0306A10.8952,10.8952,0,0,0,211.45,232.86a7.5715,7.5715,0,0,0,5.9255,2.5889,9.5375,9.5375,0,0,0,6.4417-2.5314C223.9324,225.382,223.9324,223.6569,223.8749,214.2224Z"/><path class="cls-1" d="M261.0124,232.9751c-.2875,2.3014-.3463,2.8764-.4614,5.12l-.345.4025a18.7919,18.7919,0,0,1-9.2031,2.1851c-9.4345,0-15.3586-5.4066-15.3586-15.4161,0-10.7,6.4416-15.9337,13.9772-15.9337a12.009,12.009,0,0,1,9.4345,3.9691c3.279,3.9115,3.164,9.607,3.1065,12.1371l-.4026.345c-8.9744-.0575-10.527-.0575-19.9615,0,.0575,2.014.23,4.8329,2.1865,7.1906a9.33,9.33,0,0,0,7.42,3.1065,15.0188,15.0188,0,0,0,5.0041-.8626,14.4826,14.4826,0,0,0,4.1415-2.5315Zm-5.35-15.0137a6.43,6.43,0,0,0-6.27-4.4865c-3.22,0-7.0167,2.1864-7.5931,7.9381,6.9605.0575,9.147,0,14.4386-.0575A12.5929,12.5929,0,0,0,255.662,217.9614Z"/><path class="cls-1" d="M293.2475,239.9356c-2.7615.0575-3.1065.0575-5.753.23l-.4025-.4025c0-.6326.0575-1.2651.0575-1.8976.0575-2.819.0575-5.638.0575-8.457,0-8.8581-.0575-9.4331-.345-10.642-1.0926-4.3716-4.3716-4.3716-5.1766-4.3716-3.4515,0-6.098,2.014-7.6506,3.2215-.0575,10.01.0575,15.2437.46,21.9742l-.345.345c-2.819.0575-3.279.0575-6.0405.23l-.2875-.4025c.0575-3.2215.1725-6.328.1725-10.5846,0-9.2031-.4025-14.0935-.69-17.9476l.345-.4025c2.8765-.5175,3.394-.6325,6.098-1.15l.4025.4025-.0575,2.9915a17.4181,17.4181,0,0,1,10.1245-3.5666,9.9443,9.9443,0,0,1,4.7741,1.0926,7.801,7.801,0,0,1,3.3365,3.739c.7476,1.7265.8051,3.4515.8626,7.0181v6.7305c.1725,6.73.23,9.3195.4025,11.5046Z"/><path class="cls-1" d="M314.0421,235.449c-.1725,1.899-.1725,2.3015-.23,3.9691l-.2875.345a15.6515,15.6515,0,0,1-4.3154.5175c-1.38,0-5.0041,0-6.7867-2.99-1.0364-1.6689-1.0364-3.0489-1.0364-9.837l.115-12.656c-2.0126,0-2.07.0576-4.1415.1151l-.23-.3451c.115-1.84.115-2.3.115-4.1415l.345-.345c1.2664,0,2.0139.0575,3.9115,0-.0575-1.2076-.0575-2.474-.0575-3.6816q-.0863-1.6387-.1725-3.279l.2875-.4025c2.589-.6325,3.2215-.805,5.868-1.61l.4025.2876c-.1725,3.7965-.23,4.544-.23,8.7431,2.4165-.0575,3.1065-.0575,6.3855-.1725l.2875.345c-.115,1.4964-.1725,2.1289-.1725,4.084l-.2875.345c-2.8765-.0575-3.2215-.115-6.27-.115l-.115,10.7c.0575.69.0575,3.969.0575,4.7754,0,4.1991.5175,5.5216,3.394,5.5216a7.8426,7.8426,0,0,0,2.7615-.5175Z"/><path class="cls-1" d="M336.3533,240.1656l-.2876-.4025c.115-2.7615.1726-5.4066.1726-10.6421,0-2.4726.0575-14.4961.0575-17.1987,0-6.0405-.1726-9.147-.4026-12.1385l.2875-.4025,7.7081-.115c1.1514-.0575,2.934-.0575,4.4879-.0575,3.3927,0,7.0167.115,9.8932,1.7839a8.7047,8.7047,0,0,1,4.5441,7.8806c0,2.0126-.5751,7.7656-8.5706,9.7207a13.6907,13.6907,0,0,1,5.2929,1.0364A8.9559,8.9559,0,0,1,365,228.316c0,5.2929-3.279,9.032-7.8806,10.7-3.049,1.0926-6.098,1.0926-10.642,1.0926Zm6.2129-23.4117c5.1766.0575,9.1457,0,11.5621-1.8989a6.69,6.69,0,0,0,2.359-5.0041,6.0426,6.0426,0,0,0-1.6114-4.0841c-2.0126-1.9564-5.5791-1.9564-6.903-1.9564-1.84,0-3.6241.0575-5.4067.1725Zm0,4.8316c0,6.558,0,7.5355.23,13.806h1.0925c4.3154,0,7.8231.0575,10.067-.8625a6.5143,6.5143,0,0,0,4.3141-6.328c0-6.7305-7.4206-6.788-10.182-6.788-.5176,0-1.0351,0-4.1416.115Z"/><path class="cls-1" d="M384.2826,216.0639a5.9193,5.9193,0,0,0-2.3014-.5176,4.2942,4.2942,0,0,0-2.4165.7476c-2.3576,1.6675-2.3576,4.199-2.3576,10.182,0,6.4992.1725,9.8932.4025,13.1147l-.2875.4025c-2.704,0-3.3365.0575-6.098.1725l-.2875-.345c.0575-4.3716.115-8.3406.115-13.6911,0-9.2031-.1725-11.5621-.5175-14.8986l.345-.4025c2.1864-.4025,3.5665-.69,5.983-1.15l.345.345-.2875,4.8891c.69-1.84,2.1276-5.5217,7.018-5.5217a5.9609,5.9609,0,0,1,1.61.1725l.23.3451c-.575,2.7614-.69,3.3365-1.0926,5.8679Z"/><path class="cls-1" d="M410.853,228.1435a108.0508,108.0508,0,0,0,.345,11.5046l-.2875.2875c-2.704.0575-3.164.115-5.81.23l-.23-.345.0575-2.07a12.3238,12.3238,0,0,1-8.0531,2.9326c-5.7516,0-9.7782-3.9115-9.7782-9.6056,0-7.7081,6.4417-10.1821,16.7962-11.39l.9776-.115a7.1992,7.1992,0,0,0-.5175-3.5666c-.5751-1.0363-1.8976-2.1289-4.7741-2.1289a20.51,20.51,0,0,0-8.7431,2.1865l-.4614-.2876c.1163-2.6464.1163-2.9915.1738-4.199l.3451-.3464a29.6551,29.6551,0,0,1,9.9506-1.8976c4.2566,0,8.4,1.4376,9.607,5.9255a38.4933,38.4933,0,0,1,.4026,7.1892Zm-6.443-4.1991c-5.8092.8626-11.2171,1.6676-11.2171,6.788a5.0725,5.0725,0,0,0,5.4654,5.2341,8.966,8.966,0,0,0,6.2692-2.5314v-9.6057Z"/><path class="cls-1" d="M443.4865,239.9356c-2.7614.0575-3.1065.0575-5.7529.23l-.4026-.4025c0-.6326.0576-1.2651.0576-1.8976.0575-2.819.0575-5.638.0575-8.457,0-8.8581-.0575-9.4331-.3451-10.642-1.0925-4.3716-4.3715-4.3716-5.1766-4.3716-3.4515,0-6.0979,2.014-7.65,3.2215-.0575,10.01.0575,15.2437.46,21.9742l-.345.345c-2.819.0575-3.279.0575-6.04.23l-.2875-.4025c.0575-3.2215.1725-6.328.1725-10.5846,0-9.2031-.4025-14.0935-.69-17.9476l.345-.4025c2.8765-.5175,3.394-.6325,6.098-1.15l.4025.4025-.0575,2.9915a17.4181,17.4181,0,0,1,10.1245-3.5666,9.9443,9.9443,0,0,1,4.7741,1.0926,7.801,7.801,0,0,1,3.3365,3.739c.7475,1.7265.805,3.4515.8625,7.0181v6.7305c.1725,6.73.23,9.3195.4026,11.5046Z"/><path class="cls-1" d="M472.139,233.1476c-.23,2.4739-.2875,2.7614-.46,5.12l-.4025.4025a16.2157,16.2157,0,0,1-7.9381,1.9551c-8.6869,0-14.3236-6.2691-14.3236-15.2436,0-9.1456,5.5217-16.0487,14.4386-16.0487a18.9231,18.9231,0,0,1,7.8806,1.84l.23.4039c-.23,2.07-.2875,2.8176-.4025,4.5441l-.46.23a10.9,10.9,0,0,0-6.3855-2.244c-4.7741,0-8.9745,3.6815-8.9745,11.0446,0,7.8231,4.43,10.642,8.917,10.642a11.3969,11.3969,0,0,0,7.42-2.8764Z"/><path class="cls-1" d="M502.0459,239.9356c-2.7615.0575-3.1065.0575-5.753.23l-.4025-.4025.0575-1.8976c.0575-2.9915.0575-6.0405.0575-9.032l-.0575-6.1541a17.69,17.69,0,0,0-.2875-3.9129c-.6325-2.6451-2.2426-4.3716-5.1766-4.3716-3.279,0-5.81,1.8415-7.7081,3.2215-.0575,10.01.0575,15.2437.4026,21.9742l-.2876.345c-2.6464.0575-3.3365.0575-6.1554.23l-.2876-.4025c.115-4.0841.2876-9.2607.2876-20.3052,0-4.833-.0576-9.6645-.1151-14.4961-.115-5.063-.2875-6.7305-.46-9.32l.2875-.345c2.7615-.46,3.6816-.6326,6.2705-1.2076l.345.4025c-.345,6.1555-.345,12.3672-.345,18.58a18.5626,18.5626,0,0,1,10.2971-3.5666,9.7509,9.7509,0,0,1,3.854.69,7.7142,7.7142,0,0,1,4.7166,5.4654c.2875,1.15.2875,1.84.4025,5.6942v6.7305l.0575,2.7039c.115,4.8316.115,5.6367.345,8.8007Z"/><rect class="cls-2" x="772.8646" width="4.1081" height="288.9374"/><g id="CAS"><path class="cls-3" d="M1011.6219,27.3879a5.4893,5.4893,0,0,0,.2114,1.2221c.0192.16.055.3177.0832.4764a2.6577,2.6577,0,0,1,.492,1.1627q2.9842,13.3462,5.98,26.69c.4323,1.9226.8747,3.8432,1.2724,5.7733.1956.9492.0072,1.1445-.9451.9326a57.0466,57.0466,0,0,0-14.8726-1.12,88.7338,88.7338,0,0,0-15.3665,2.0611,95.9891,95.9891,0,0,0-16.6378,5.2015,58.3319,58.3319,0,0,0-15.8756,9.392,58.9935,58.9935,0,0,0-12.7074,14.5948,21.8285,21.8285,0,0,0-2.5536,6.3163,11.2323,11.2323,0,0,0,2.89,10.921,3.0941,3.0941,0,0,0,.5969.6057,9.46,9.46,0,0,0,2.8394,1.9877,22.452,22.452,0,0,0,5.77,1.976,35.0253,35.0253,0,0,0,8.2882.65,51.4288,51.4288,0,0,0,14.9162-2.7836,60.43,60.43,0,0,0,37.0281-35.11,64.6057,64.6057,0,0,0,2.1314-6.2592c.1005-.3519.1734-.3721.49-.35q1.03.0725,2.0594.1439,2.1308.1479,4.2614.2963a2.8818,2.8818,0,0,1,.352.049.1583.1583,0,0,1,.1272.2125c-.1161.4593-.2341.9183-.3628,1.3742a52.0541,52.0541,0,0,1-5.4945,12.54,70.0571,70.0571,0,0,1-8.8724,11.74,92.2807,92.2807,0,0,1-16.252,13.8012,98.643,98.643,0,0,1-12.1424,6.9869,84.7811,84.7811,0,0,1-17.0061,6.2016,65.9146,65.9146,0,0,1-7.769,1.3962,50.5026,50.5026,0,0,1-7.0386.3083,36.6874,36.6874,0,0,1-11.15-2.0709,32.3315,32.3315,0,0,1-9.0538-4.7087,26.2823,26.2823,0,0,1-9.2037-12.7281,32.4185,32.4185,0,0,1-1.5987-7.4253,41.3735,41.3735,0,0,1-.2235-5.471,22.8412,22.8412,0,0,1,1.447-7.0805,37.4119,37.4119,0,0,1,3.8912-7.5809,64.1716,64.1716,0,0,1,7.2016-8.9948,115.5005,115.5005,0,0,1,16.7887-14.4A171.1852,171.1852,0,0,1,965.93,43.87a184.46,184.46,0,0,1,23.7542-10.42c4.782-1.7033,9.6309-3.1879,14.5556-4.4212,2.2545-.5646,4.5215-1.0757,6.8039-1.5168.0843-.0732.2186-.0283.2935-.1239Z"/><path class="cls-3" d="M1086.4906,232.1987a11.3013,11.3013,0,0,1-6.6521,9.1271,17.9563,17.9563,0,0,1-4.8316,1.4128,30.8168,30.8168,0,0,1-4.9674.3437q-24.02.0009-48.0406,0c-.1426,0-.2855.007-.4276-.0015-.2574-.0156-.5574.0969-.7622-.0566-.2293-.1719-.0618-.49-.1085-.7384a7.627,7.627,0,0,1-.0541-1.35q-.03-3.2411-.0546-6.482a5.1382,5.1382,0,0,1,.0171-.569c.0052-.0511.078-.1126.1339-.1366a.5712.5712,0,0,1,.2107-.02c.2139-.0021.4277-.0013.6415-.0013q24.555,0,49.11.0005a10.0264,10.0264,0,0,0,2.12-.2111,5.0237,5.0237,0,0,0,3.9488-3.6839,9.7118,9.7118,0,0,0,.4339-2.8762c.0073-2.3278.0025-4.6556.002-6.9834,0-.0949-.0033-.19-.01-.2845a.17.17,0,0,0-.1795-.1759q-.3561-.0093-.7123-.0092-27.2991-.0006-54.5982-.003c-.3046,0-.68.1237-.8974-.0629-.2583-.2215-.1028-.6238-.1036-.944-.0088-3.7292.0063-7.4585-.0106-11.1876-.0085-1.8982-.0637-3.7962-.1069-5.6941a20.0412,20.0412,0,0,1,.5819-5.7881,11.136,11.136,0,0,1,4.8882-6.7562,14.2574,14.2574,0,0,1,3.6983-1.6278,23.1453,23.1453,0,0,1,6.2537-.8855c16.5825-.1221,33.1654-.02,49.7481-.0564a2.1514,2.1514,0,0,0,.8452-.0564v9.4064a1.8726,1.8726,0,0,1-1.3027.2235q-10.9.0086-21.8005.0039-13.1088,0-26.2176-.0043a16.4648,16.4648,0,0,0-2.34.1864,4.8708,4.8708,0,0,0-4.1787,3.587,7.2847,7.2847,0,0,0-.38,2.24c-.0158,2.3029-.01,4.6059-.0031,6.9089.0023.7922.0753.8557.8455.8774.2611.0073.5225.0022.7837.0022q26.6094,0,53.2188.0045a1.9983,1.9983,0,0,1,1.374.223V231.621c-.0984.0913-.0662.2123-.0737.3244A.4528.4528,0,0,1,1086.4906,232.1987Z"/><path class="cls-3" d="M871.0425,211.9427a30.1132,30.1132,0,0,1,2.6184-11.0824,21.6822,21.6822,0,0,1,8.1594-9.2858,29.4405,29.4405,0,0,1,8.3431-3.5528,43.89,43.89,0,0,1,6.3614-1.1774,64.9383,64.9383,0,0,1,7.39-.4075q16.0715.0036,32.1429.0032c1.0171,0,.8714-.1451.8739.85.0067,2.5888.0023,5.1777.0022,7.7665,0,.1662.0032.3326-.0014.4987-.0089.3277-.0251.343-.3813.3518-.19.0048-.38.0014-.57.0014-6.1292,0-12.2588-.0413-18.3876.0132-4.8456.043-9.6908.0073-14.5361.0409a40.5628,40.5628,0,0,0-7.7137.7467,23.0056,23.0056,0,0,0-7.1909,2.6,14.9329,14.9329,0,0,0-7.1209,9.4634,24.0211,24.0211,0,0,0-.7107,6.774,22.1015,22.1015,0,0,0,.8475,5.6852,15.0034,15.0034,0,0,0,7.7963,9.4342,24.4136,24.4136,0,0,0,6.7255,2.2366,40.2806,40.2806,0,0,0,5.5835.6348q1.4946.0747,2.9893.0753,15.8932,0,31.7865,0c.2138,0,.4275.0026.6413.0025.1835,0,.2436.106.2418.2712-.0016.1425.001.285.001.4275q0,4.0257,0,8.0515c0,.1662-.0026.3324-.0063.4985a.2015.2015,0,0,1-.2257.2134c-.2137.0047-.4276.0053-.6413.0053-5.1315,0-10.2634-.0444-15.3943.012-5.7958.0637-11.5912.0244-17.3867.0322a58.8753,58.8753,0,0,1-6.3234-.3505,46.1731,46.1731,0,0,1-6.1-1.037,30.7146,30.7146,0,0,1-8.313-3.2657,21.8739,21.8739,0,0,1-9.7434-11.7552,29.3807,29.3807,0,0,1-1.47-6.0736c-.1354-.9879-.2526-1.9769-.2933-2.9739-.195-.3176-.0915-.67-.1174-1.0075-.0188-.246.0525-.5093-.1437-.72v-2.1378A10.9451,10.9451,0,0,0,871.0425,211.9427Z"/><path class="cls-4" d="M998.5016,261.4163c-.2206-.0867-.4482-.1588-.66-.2626a2.4859,2.4859,0,0,1-1.4834-2.1032c-.0217-.2237.0518-.32.2672-.3244a2.01,2.01,0,0,1,.7014.0081c.2924,1.3995,1.2451,1.7692,2.5313,1.7793a2.4524,2.4524,0,0,0,1.0351-.23,1.3415,1.3415,0,0,0,.5973-.4869,1.06,1.06,0,0,0-.2392-1.4594,2.0822,2.0822,0,0,0-.769-.3577c-.5275-.1371-1.0564-.2695-1.5806-.4182a7.0877,7.0877,0,0,1-1.01-.3355,1.89,1.89,0,0,1-1.2494-1.8178,1.9587,1.9587,0,0,1,1.2425-1.9076,3.8817,3.8817,0,0,1,3.4377.0946,2.17,2.17,0,0,1,1.1751,1.76c.0251.1828-.0238.2335-.2362.2655-.07.0106-.1421.0114-.2124.0225-.5886.0935-.5748.021-.7057-.4234a1.3974,1.3974,0,0,0-1.11-.9925,3.1238,3.1238,0,0,0-1.752.0836,1.1155,1.1155,0,0,0-.678.5926.8983.8983,0,0,0,.3719,1.2271,3.3245,3.3245,0,0,0,.7269.282c.571.1584,1.1495.2894,1.7219.4428a4.5971,4.5971,0,0,1,.994.3776,2.1509,2.1509,0,0,1,.304,3.5891,4.34,4.34,0,0,1-1.126.5976c-.0806.0824-.2192.0348-.2936.1312h-1.7107C998.7188,261.4543,998.5789,261.503,998.5016,261.4163Z"/><path class="cls-4" d="M983.5331,261.4163c-.2-.0744-.4075-.1329-.5984-.2257a2.5225,2.5225,0,0,1-1.5473-2.1387c-.02-.2238.05-.3217.2644-.3253a1.6056,1.6056,0,0,1,.7116.0232c.035.1083.0771.2184.1061.3319a1.72,1.72,0,0,0,1.17,1.2364,3.1077,3.1077,0,0,0,2.0934.0437,1.2567,1.2567,0,0,0,.9729-1.1771.9745.9745,0,0,0-.427-.854,2.4,2.4,0,0,0-.7719-.3531c-.5276-.1372-1.0552-.2745-1.5815-.4163a5.6307,5.6307,0,0,1-1.1349-.4086,1.8544,1.8544,0,0,1-1.1176-1.6824,1.9791,1.9791,0,0,1,1.06-1.8793,3.5869,3.5869,0,0,1,1.9927-.427,4.0338,4.0338,0,0,1,1.3184.2756,2.2859,2.2859,0,0,1,1.486,1.9263.1928.1928,0,0,1-.1772.25c-.1176.0156-.236.0258-.3537.0405-.4685.0586-.4917.02-.6043-.38a1.4473,1.4473,0,0,0-1.2115-1.067,3.1674,3.1674,0,0,0-1.6166.0822,1.1617,1.1617,0,0,0-.74.6223.9091.9091,0,0,0,.326,1.19,2.5448,2.5448,0,0,0,.79.3131c.5733.15,1.15.2869,1.7221.441a4.0247,4.0247,0,0,1,1.054.4179,2.1241,2.1241,0,0,1,.234,3.5456,4.0907,4.0907,0,0,1-1.1255.5988c-.0806.0823-.2192.0348-.2936.1312h-1.7107C983.75,261.4544,983.61,261.5029,983.5331,261.4163Z"/><path class="cls-5" d="M946.7533,261.4163c-.1991-.076-.4038-.14-.5963-.23a2.5535,2.5535,0,0,1-1.5548-2.1331c-.0254-.2186.0489-.3206.2621-.3263a2.0316,2.0316,0,0,1,.7114.01c.0451.1379.0961.269.131.4042a1.6143,1.6143,0,0,0,1.0065,1.12,3.0812,3.0812,0,0,0,2.3547.0529,1.3175,1.3175,0,0,0,.6678-.506,1.0672,1.0672,0,0,0-.2748-1.5043,2.1,2.1,0,0,0-.7084-.3192c-.5485-.1482-1.1005-.2835-1.6487-.4327a6.4845,6.4845,0,0,1-1.1322-.4118,1.999,1.999,0,0,1-.1158-3.4968,3.4171,3.4171,0,0,1,1.2687-.433,3.9619,3.9619,0,0,1,2.23.2684,2.2484,2.2484,0,0,1,1.3843,1.8459c.0321.1977-.0148.2639-.2011.2918-.1639.0245-.3288.0457-.4941.0576-.2606.0187-.322-.0073-.3951-.2905a1.5871,1.5871,0,0,0-1.6216-1.2283,3.1282,3.1282,0,0,0-1.2625.1427,1.219,1.219,0,0,0-.7017.5687.8925.8925,0,0,0,.318,1.24,3.35,3.35,0,0,0,.7889.3117c.57.16,1.1485.2865,1.72.44a4.0877,4.0877,0,0,1,1.0526.4176,2.1369,2.1369,0,0,1,.229,3.5474,3.9657,3.9657,0,0,1-1.1274.5909c-.0757.0895-.2167.04-.2892.1364h-1.7107C946.9705,261.4543,946.8306,261.503,946.7533,261.4163Z"/><path class="cls-4" d="M1040.2708,261.4163c-.2425-.0947-.4944-.1709-.7259-.2874a2.5052,2.5052,0,0,1-1.4343-2.0631c-.0253-.2171.0548-.3306.2586-.3367a1.6614,1.6614,0,0,1,.716.0194c.0582.1707.1167.3478.1789.5236a1.6239,1.6239,0,0,0,.9569.9918,3.157,3.157,0,0,0,2.2244.1034,1.4258,1.4258,0,0,0,.8-.5587,1.0561,1.0561,0,0,0-.2177-1.46,1.9734,1.9734,0,0,0-.7633-.3653c-.5261-.14-1.0541-.2729-1.5791-.4168-.2736-.075-.5458-.1578-.8121-.2549a3.61,3.61,0,0,1-.5114-.2436,2.0046,2.0046,0,0,1,.1239-3.4946,3.9054,3.9054,0,0,1,2.2085-.3888,3.9691,3.9691,0,0,1,1.2324.32,2.2856,2.2856,0,0,1,1.323,1.8139c.0324.1877-.0255.27-.2027.2974-.1638.025-.3288.0467-.4941.0574-.2573.0166-.3309-.0173-.3953-.2955a1.5279,1.5279,0,0,0-1.4811-1.2106,3.0346,3.0346,0,0,0-1.3365.1093,1.2858,1.2858,0,0,0-.7659.5935.8715.8715,0,0,0,.31,1.2326,3.4982,3.4982,0,0,0,.7894.3122c.57.16,1.1485.2878,1.7205.44a4.2423,4.2423,0,0,1,1.0526.4168,2.1528,2.1528,0,0,1,.2969,3.5072,4.0432,4.0432,0,0,1-1.1827.6364c-.0767.0876-.217.0387-.29.1349h-1.7107C1040.4881,261.4543,1040.3482,261.503,1040.2708,261.4163Z"/><path class="cls-4" d="M1029.5849,261.4071c-.2588-.1161-.5281-.2135-.7745-.3518a2.5626,2.5626,0,0,1-1.3186-2.0738.2105.2105,0,0,1,.2-.2446c.1169-.017.2362-.0195.3546-.0251.4123-.02.4151-.02.5575.4174a1.7742,1.7742,0,0,0,1.1388,1.1841,3.2269,3.2269,0,0,0,2.0956.0568,1.6018,1.6018,0,0,0,.6175-.3441,1.0722,1.0722,0,0,0-.1362-1.7583,2.338,2.338,0,0,0-.7173-.3013q-.793-.1992-1.5817-.4152a5.3218,5.3218,0,0,1-1.133-.4125,1.8742,1.8742,0,0,1-1.1018-1.7028,1.9965,1.9965,0,0,1,1.0418-1.827,3.69,3.69,0,0,1,2.27-.4258,3.7544,3.7544,0,0,1,1.1047.2632,2.329,2.329,0,0,1,1.4591,1.9507.1741.1741,0,0,1-.15.2045,5.2355,5.2355,0,0,1-.5628.0711c-.2571.02-.3038-.0029-.38-.29a1.56,1.56,0,0,0-1.4193-1.2086,2.9626,2.9626,0,0,0-1.4759.1279,1.0994,1.0994,0,0,0-.8109.9783.8131.8131,0,0,0,.4386.83,4.0032,4.0032,0,0,0,.7919.3091c.57.16,1.1494.2882,1.7213.4426a4.1271,4.1271,0,0,1,1.1718.4966,2.14,2.14,0,0,1,.3377,3.2324,3.2025,3.2025,0,0,1-.9246.6522c-.1293.0582-.2612.1105-.392.1654-.07.098-.2141.0464-.2845.1427h-1.4256c-.1328-.1264-.2984-.0533-.4487-.0737C1029.755,261.4736,1029.656,261.493,1029.5849,261.4071Z"/><path class="cls-6" d="M928.93,261.4266c-.1963-.0819-.3945-.16-.5886-.2466a2.1947,2.1947,0,0,1-1.23-1.3947,4.366,4.366,0,0,1-.2068-1.33c-.0074-1.5887-.0034-3.1775-.0027-4.7663a1.3906,1.3906,0,0,1,.0169-.2118.18.18,0,0,1,.1905-.168c.9392-.0051.8379-.1268.8438.7381.01,1.4223.0132,2.8448.0335,4.267a4.92,4.92,0,0,0,.11.9149,1.4564,1.4564,0,0,0,.98,1.1272,2.8885,2.8885,0,0,0,2.0189-.0287,1.333,1.333,0,0,0,.8466-.8932,4.5183,4.5183,0,0,0,.1744-1.405q.0031-1.9209.0007-3.8416c0-.166-.0038-.3321.0014-.4979.0113-.3573.0366-.379.4257-.3868.1186-.0024.2373-.0028.3558.0008.2938.0087.324.0291.3243.3339.0016,1.6124.0055,3.2249-.0122,4.8372a5.2806,5.2806,0,0,1-.1467,1.0531,2.27,2.27,0,0,1-1.3249,1.6551c-.1717.0795-.3467.1519-.52.2275-.0721.0943-.2151.0437-.2862.14h-1.7107C929.1488,261.4549,929.0146,261.5,928.93,261.4266Z"/><path class="cls-6" d="M921.0883,261.422c-.1332-.05-.266-.1015-.4-.1507a2.8709,2.8709,0,0,1-1.5794-1.3682,5.2338,5.2338,0,0,1-.3007-4.531,3.3,3.3,0,0,1,2.3745-2.0635,3.938,3.938,0,0,1,2.0435-.0211,2.9669,2.9669,0,0,1,2.1981,2.1631.5884.5884,0,0,1-.4078.2057c-.57.1427-.5786.1424-.8555-.3872a2.1383,2.1383,0,0,0-2.6073-1.071,2.17,2.17,0,0,0-1.69,1.4828,4.8341,4.8341,0,0,0,.0468,3.4123,2.4394,2.4394,0,0,0,3.6962.986,2.248,2.248,0,0,0,.6737-.9018c.0631-.153.1089-.313.1681-.4677a.2186.2186,0,0,1,.2859-.1373c.1843.0444.3682.0909.5506.1426.2413.0684.3.1772.2173.423a3.2277,3.2277,0,0,1-1.9292,2.1444c-.1107.0424-.219.0911-.3285.1369-.0806.0824-.2192.0348-.2936.1312h-1.5681C921.3082,261.4541,921.1709,261.5009,921.0883,261.422Z"/><path class="cls-6" d="M1056.95,261.4163a6.8875,6.8875,0,0,1-.7829-.3371,3.1684,3.1684,0,0,1-1.3452-1.52,5.4878,5.4878,0,0,1-.205-3.958,3.3129,3.3129,0,0,1,2.4329-2.279,4.0233,4.0233,0,0,1,1.7625-.0971,2.9779,2.9779,0,0,1,2.364,1.8315c.0289.0648.0522.1323.0749.2s.0414.1353.0624.2051c-.0918.177-.2785.1618-.4247.2-.5532.1434-.558.1374-.84-.4039a2.01,2.01,0,0,0-1.8358-1.1287,2.4524,2.4524,0,0,0-2.585,1.975,5.0508,5.0508,0,0,0,.1317,2.8733,2.2974,2.2974,0,0,0,2.2224,1.5771,2.2324,2.2324,0,0,0,2.252-1.516c.0543-.153.107-.3066.1605-.46a1.1225,1.1225,0,0,1,.2365.0021c.9637.2423.9773.2834.501,1.1976a3.144,3.144,0,0,1-1.514,1.4491c-.1288.0591-.2584.1164-.3876.1745-.1051.15-.3145.007-.4221.15H1057.24C1057.1673,261.4544,1057.0274,261.5029,1056.95,261.4163Z"/><path class="cls-6" d="M901.8323,261.4312c-.1116-.0395-.2226-.0811-.335-.1182a3.0217,3.0217,0,0,1-1.8829-1.7266,5.4446,5.4446,0,0,1-.2024-4.0241,3.33,3.33,0,0,1,2.5967-2.2795,3.9992,3.9992,0,0,1,1.5528-.0635,3.0221,3.0221,0,0,1,2.5531,2.2683,1.6919,1.6919,0,0,1-.6835.2241c-.2849.05-.3839.0862-.53-.2885a1.8255,1.8255,0,0,0-1.2356-1.1861,2.4705,2.4705,0,0,0-3.1572,1.5523,5.0218,5.0218,0,0,0,.0179,3.1446,2.4211,2.4211,0,0,0,3.1061,1.4982,2.04,2.04,0,0,0,1.2119-1.0327c.128-.2513.2239-.5189.35-.8169.2984-.0718.5716.1217.865.1713.1662.0281.199.1389.1406.3268a3.2126,3.2126,0,0,1-1.9537,2.2048c-.0881.0338-.171.0812-.2563.1223-.0695.098-.2141.0464-.2845.1427h-1.5681C902.0585,261.4532,901.924,261.497,901.8323,261.4312Z"/><path class="cls-6" d="M1086.6071,253.5693c-.9138,1.3243-1.82,2.6539-2.7471,3.9688a1.4422,1.4422,0,0,0-.2945.9183c.025.9234.0223,1.8476.0307,2.7716-.3181.436-.7148.2648-1.1052.1431-.01-.83-.0543-1.661-.0192-2.4888a2.5013,2.5013,0,0,0-.4878-1.6473c-.7968-1.12-1.538-2.28-2.2991-3.4248a2.6023,2.6023,0,0,1-.2-.372c-.0113-.0251.0267-.0913.059-.1121a.2556.2556,0,0,1,.1382-.0212c.3309.01.6617.0219.9925.0334.1787.2492.3685.4912.5342.7488.5767.897,1.1445,1.8,1.7181,2.6989a1.6984,1.6984,0,0,0,.1751.19c.328-.5067.6421-.9958.96-1.4824.4149-.6352.8368-1.2659,1.2472-1.9039a.5255.5255,0,0,1,.5159-.2919c.2592.0167.521-.0071.7817-.0132Z"/><path class="cls-6" d="M870.7753,253.2842c.3072.0062.6145.01.9216.0193.2982.0092.3345.044.348.3147.0036.0708.0017.1419.0017.2129q0,3.6186-.0011,7.2372c0,.0945-.0086.189-.0131.2834a1.7768,1.7768,0,0,1-1.2571.0562Z"/><path class="cls-7" d="M1086.4848,231.9169c-.02-.1236-.036-.2458.1223-.2959v.285Q1086.5534,231.9957,1086.4848,231.9169Z"/><path class="cls-8" d="M1086.4848,231.9169a.8807.8807,0,0,0,.1223-.0109v.2851l-.0577.0132-.0588-.0056Z"/><path class="cls-9" d="M1011.3368,27.3879c-.0431.1709-.1676.1492-.2935.1239a.5716.5716,0,0,0,.0084-.1239Z"/><path class="cls-10" d="M944.1887,111.6171a.47.47,0,0,1-.3719-.1745,11.6894,11.6894,0,0,1-2.2326-2.7514,11.0368,11.0368,0,0,1-1.3528-3.7911,3.0575,3.0575,0,0,1-.03-.4969c-.0069-.57-.0041-1.14-.0134-1.71a11.93,11.93,0,0,1,.5561-3.5633,25.729,25.729,0,0,1,2.7945-6.2078c.7939-1.2958,1.6621-2.5377,2.566-3.7552.48-.6458,1.0193-1.2467,1.5265-1.8722.942-1.1617,1.9695-2.2441,3.0089-3.3184.3771-.39.7027-.8367,1.1121-1.1957.9463-.83,1.8044-1.7524,2.7391-2.5917a48.2329,48.2329,0,0,1,6.5351-5.0114C962.3111,74.37,963.6,73.57,964.95,72.872c.864-.4467,1.7162-.9171,2.5891-1.3455,1.98-.9718,4.0035-1.8475,6.0553-2.6582q2.7458-1.085,5.5565-1.9861c2.3914-.7645,4.8116-1.4267,7.252-2.0185q2.5525-.6191,5.1343-1.0927,1.9848-.366,3.99-.64c.9356-.13,1.8748-.253,2.8114-.36a11.6024,11.6024,0,0,1,2.1922-.1848c.9514-.2425,1.9412-.0343,2.8974-.2474a3.3256,3.3256,0,0,1,.7106-.0245q2.779-.0024,5.5581.001a3.1632,3.1632,0,0,1,1.0586.0987.9155.9155,0,0,0,.3535.0245,13.4357,13.4357,0,0,1,2.4782.18,39.4565,39.4565,0,0,1,4.8251.7864c.2524.062.5083.11.7634.16.3288.0653.4669-.0569.41-.3663-.0466-.2558-.0958-.5115-.1539-.7649-.3538-1.5443-.7141-3.0871-1.0655-4.6319q-.6531-2.8707-1.2953-5.7439-.5744-2.5609-1.1424-5.1234-.6348-2.8383-1.2735-5.6758-.6454-2.8725-1.2914-5.7449c-.3767-1.6845-.7627-3.3672-1.1135-5.0571-.0959-.462-.246-.9079-.3336-1.37a.4392.4392,0,0,0,.4525.1271q.5974-.0921,1.1975-.1678a3.7411,3.7411,0,0,1,.4961-.0309c.2341.0016.2792.0393.332.2771q.2466,1.111.4846,2.2242,1.2669,5.8758,2.5325,11.7518,1.1814,5.4941,2.3581,10.9892,1.17,5.4237,2.3505,10.845c.06.2776.1177.5561.163.8364.0187.1157-.0633.1736-.1741.15-.8581-.1818-1.713-.3792-2.5733-.55-1.234-.2444-2.48-.4114-3.7309-.5438-1.5586-.165-3.12-.253-4.6865-.3113-1.14-.0425-2.28-.0663-3.4166-.03-1.8962.06-3.7917.147-5.6836.3217-2.1042.1943-4.2.4473-6.2849.78A98.0116,98.0116,0,0,0,985.17,68.0407a89.6557,89.6557,0,0,0-14.6762,5.375,58.1913,58.1913,0,0,0-10.8885,6.5685c-1.4631,1.1382-2.8347,2.3831-4.1768,3.6584-1.7555,1.668-3.4707,3.3773-5.0676,5.2008a44.6517,44.6517,0,0,0-5.5482,7.653,23.2994,23.2994,0,0,0-2.2092,5.307,13.6151,13.6151,0,0,0-.4953,3.4413,9.8289,9.8289,0,0,0,1.7091,5.7761A1.8522,1.8522,0,0,1,944.1887,111.6171Z"/><path class="cls-11" d="M965.4319,167.7882c-.5638.0113-1.1278.0371-1.6915.0307-1.0584-.0122-2.1166-.0472-3.175-.0639a6.6781,6.6781,0,0,1-1.1207-.1094,2.0455,2.0455,0,0,1-.2271-1.3751q-.0075-15.279-.0037-30.5579c0-.9735-.0038-1.947.0025-2.92a1.3869,1.3869,0,0,1,.223-.9493,5.0477,5.0477,0,0,1,1.1473-.3332q2.2467-.6433,4.4969-1.2747c.1575-.0444.32-.07.4806-.1049a1.1666,1.1666,0,0,1,.1059.6913q-.02,17.7968-.0092,35.5934A2.0252,2.0252,0,0,1,965.4319,167.7882Z"/><path class="cls-12" d="M978.1492,166.7911a3.0957,3.0957,0,0,1-1.1075.19,27.2746,27.2746,0,0,1-3.7246.3806c-.3238.1314-.4312-.0816-.4988-.3274a3.1725,3.1725,0,0,1-.06-.85q-.0021-18.7289.0029-37.4577c0-.464-.09-.967.3576-1.3157l-.0067.0075c.0967-.0514.2242-.0325.3-.1313l-.0018.0014c.114-.12.3444.0222.4195-.1859.9486-.42,1.8947-.8451,2.8469-1.2564a7.5361,7.5361,0,0,1,1.3006-.546,1.3111,1.3111,0,0,1,.0931.6959q-.0156,19.5095-.0059,39.0188A14.6536,14.6536,0,0,0,978.1492,166.7911Z"/><path class="cls-13" d="M978.1492,166.7911c-.1809-.0342-.3073-.12-.3091-.3246-.0016-.19-.0041-.3794-.0041-.5691q0-19.8136.0006-39.6273a1.7223,1.7223,0,0,1,.14-.97,12.1375,12.1375,0,0,1,1.5655-.7893c.8537-.445,1.7221-.8621,2.5857-1.2883a2.3426,2.3426,0,0,1,.2629-.0939,1.1264,1.1264,0,0,1,.1028.69q-.0284,20.6679-.007,41.3357a2.8019,2.8019,0,0,1-.0765.9167,1.7849,1.7849,0,0,1-.82.1962c-.9547.1808-1.9145.335-2.8737.491A5.2617,5.2617,0,0,1,978.1492,166.7911Z"/><path class="cls-14" d="M1007.784,157.2329a4.7579,4.7579,0,0,1-1.0407.5911,19.3154,19.3154,0,0,1-2.3611,1.1258c-.3345.1382-.4215-.0992-.488-.3362a2.8563,2.8563,0,0,1-.0581-.7786q-.0027-24.1337-.01-48.2671a1.8015,1.8015,0,0,1,.6508-1.5649c.5738-.547,1.135-1.1082,1.726-1.6359a7.4972,7.4972,0,0,1,1.1383-1.03.9327.9327,0,0,1,.3612.811c.0275.3555.0158.7122.0158,1.0684q.0006,23.9049-.0006,47.81C1007.7176,155.7628,1007.7151,156.4988,1007.784,157.2329Z"/><path class="cls-15" d="M965.4319,167.7882q.0007-18.3054.0021-36.6107a2.1575,2.1575,0,0,1,.13-1.0474l.0012.0056c.1233-.11.324.0086.4324-.1459a3.1956,3.1956,0,0,1,.7829-.3068c1.0033-.3471,2.0047-.7,3.0081-1.047a2.9665,2.9665,0,0,1,.3433-.076.6524.6524,0,0,1,.16.5269c-.151,11.4852-.0242,22.971-.0655,34.4565-.0037,1.0442.0048,2.0885-.0038,3.1326a1.2785,1.2785,0,0,1-.2286.9434,20.4235,20.4235,0,0,1-3.017.1682C966.4627,167.8016,965.9472,167.7888,965.4319,167.7882Z"/><path class="cls-16" d="M989.2585,164.5051a1.5215,1.5215,0,0,1-.6663.222c-.7536.2055-1.5145.3846-2.2745.5658a4.3586,4.3586,0,0,1-.49.0618c-.6011.2092-.8318-.1167-.9168-.6407a5.7556,5.7556,0,0,1-.0355-.9237q-.0011-20.3945.0015-40.7888a2.1917,2.1917,0,0,1,.2109-1.3128c.1358-.09.2675-.1875.4082-.2695q1.4306-.8336,2.8651-1.66c.1417-.0816.2929-.1465.44-.2192a2.9564,2.9564,0,0,1,.2373,1.6612q.0129,8.4678.0051,16.9356,0,12.4171-.0018,24.8342A3.6888,3.6888,0,0,0,989.2585,164.5051Z"/><path class="cls-17" d="M1023.5789,81.3508a3.84,3.84,0,0,1,.3586-1.1461,52.3682,52.3682,0,0,0,1.8139-5.08.8519.8519,0,0,1,.1054-.18,1.3185,1.3185,0,0,1,.3672.9695,10.2064,10.2064,0,0,1,.0273,1.2094q.0012,32.5747.0028,65.15a4.7647,4.7647,0,0,1-.0813.99,15.7583,15.7583,0,0,1-1.9694,2.0038.2382.2382,0,0,0-.1645.1556l.0122-.0116a.221.221,0,0,0-.1535.154l.011-.0114a.2132.2132,0,0,0-.1536.1539l.0025.0023c-.3593-.0527-.335-.354-.37-.599a6.46,6.46,0,0,1-.0223-.9243q-.0006-30.4671-.0034-60.9344A7.5754,7.5754,0,0,1,1023.5789,81.3508Z"/><path class="cls-18" d="M1026.1728,143.2628a.3689.3689,0,0,1-.1493-.3066q-.0035-.3561-.0032-.7123,0-31.8787-.0029-63.7576a16.7147,16.7147,0,0,0-.1606-3.542,2.3559,2.3559,0,0,1,.2042-.8215c.1691.0454.1776.2.2159.3127q1.2126,3.5787,2.4122,7.1618a2.4279,2.4279,0,0,1,.0638.3449,3.8168,3.8168,0,0,0-.0764,1.272q-.0042,27.7366.0011,55.4733a6.5754,6.5754,0,0,0,.0826,1.6286,6.21,6.21,0,0,1-.8764,1.0922A17.5267,17.5267,0,0,1,1026.1728,143.2628Z"/><path class="cls-19" d="M959.4394,131.8429c.0021.166.0062.3321.0062.4981q0,17.6523-.0009,35.3046c-1.13.0365-2.2455-.1429-3.3681-.2149-.304-.0195-.6066-.0608-.91-.094a.848.848,0,0,1-.4712-.1107,10.55,10.55,0,0,0,.1027-1.6321q-.0039-15.5943-.0017-31.1886c0-.3085.01-.6173.0074-.9255a.6911.6911,0,0,1,.6511-.77,2.31,2.31,0,0,1,.8154-.2039c.9141-.2164,1.8316-.4189,2.7491-.621A3.5117,3.5117,0,0,1,959.4394,131.8429Z"/><path class="cls-20" d="M1018.876,91.0529a2.0538,2.0538,0,0,1,.11-.2546q1.065-1.7862,2.0206-3.6332a2.01,2.01,0,0,1,.1573-.226.9273.9273,0,0,1,.3657.8079c.03.3788.017.759.017,1.1386q.0008,28.4767.0009,56.9534a16.0488,16.0488,0,0,0,.061,1.8476,10.5949,10.5949,0,0,1-1.3946,1.2514,3.2787,3.2787,0,0,1-.7719.5877c-.0557.0931-.2151.05-.2406.1829l-.0006.0047c-.4022-.0625-.4261-.4025-.49-.6951a5.0047,5.0047,0,0,1-.05-1.0656q-.0014-27.7159-.0028-55.4319A3.66,3.66,0,0,1,1018.876,91.0529Z"/><path class="cls-21" d="M1021.6083,147.6866a.4838.4838,0,0,1-.29-.4522c0-.2136-.0023-.4272-.0023-.6409q0-29.1971.0035-58.3941a3.8541,3.8541,0,0,0-.1557-1.26,4.6218,4.6218,0,0,1,.4329-.9658c.6532-1.3932,1.2568-2.807,1.7991-4.2471.049-.13.0574-.282.1832-.3753.0059.356.0171.7121.0171,1.0681q.0012,31.1354.001,62.2706,0,.3562.006.7123a.408.408,0,0,0,.1545.3074,7.9984,7.9984,0,0,1-1.3248,1.2508c-.1068.13-.3068.1546-.375.329l.01-.0115a.172.172,0,0,0-.1647.1405l.01-.01a.2238.2238,0,0,0-.1552.1479l.0079-.0079a.2911.2911,0,0,0-.1574.1377Z"/><path class="cls-22" d="M1018.876,91.0529c.0055.332.0156.6641.0157.9962q.001,28.1583,0,56.3165a1.875,1.875,0,0,0,.3088,1.3476,15.7269,15.7269,0,0,1-2.3841,1.8331c-.4262.147-.4886-.1671-.5407-.45a6.2488,6.2488,0,0,1-.0383-1.1373q-.0014-26.5668.0083-53.1335a4.8275,4.8275,0,0,1,.0711-1.9031c.1093-.179.2137-.3613.3289-.5365q.9484-1.4428,1.9023-2.8822C1018.6508,91.3491,1018.7664,91.203,1018.876,91.0529Z"/><path class="cls-23" d="M1007.784,157.2329c-.1473-.0314-.2774-.0874-.2843-.2635-.0092-.2371-.0115-.4745-.0115-.7118q-.0007-24.8649.0022-49.73a3.586,3.586,0,0,0-.1491-1.19c.0725-.091.1382-.1885.2183-.2721q1.3961-1.4565,2.7971-2.9081a3.3814,3.3814,0,0,1,.2671-.2265.3074.3074,0,0,1,.0318.3369,3.9781,3.9781,0,0,0-.3711,2.3478q-.0024,24.5622-.0025,49.1246c0,.6882.01,1.3757.0562,2.0625A16.364,16.364,0,0,1,1007.784,157.2329Z"/><path class="cls-24" d="M1014.6236,153.0972a13.1444,13.1444,0,0,1-2.1614,1.4185c-.0644.0906-.2054.054-.262.1577l.0051-.0044q-.0772.0522-.1509.1091l-.1309.0772c-.3137-.3047-.243-.7038-.2443-1.0743-.009-2.5392-.0045-5.0785-.0045-7.6177q0-22.1058.0014-44.2115a2.5034,2.5034,0,0,1,.2281-1.4535c.5589-.685,1.1158-1.3717,1.6778-2.0542.2361-.2867.4828-.5647.7247-.8466a.8743.8743,0,0,1,.2459.7151c.019.332.0092.6648.0092.9972q0,26.0045,0,52.0089C1014.5613,151.9124,1014.5653,152.5057,1014.6236,153.0972Z"/><path class="cls-25" d="M955.4553,132.71a1.5962,1.5962,0,0,1-.2313.1546.2832.2832,0,0,0-.1907.2695q-.0062.3205-.0064.6411,0,16.2116,0,32.423c0,.2375,0,.4751-.0065.7125-.0056.206-.1489.2788-.3241.3149a11.8783,11.8783,0,0,1-1.9767-.1974c-.6114-.0644-1.2169-.1858-1.8242-.2873a.8169.8169,0,0,1-.1914-.0862,3.1992,3.1992,0,0,0,.2454-1.5271q-.0035-15.2055.0017-30.4109a1.9373,1.9373,0,0,1,.2212-1.3051.8224.8224,0,0,1,.5854-.099.37.37,0,0,0,.4211-.04,2.6609,2.6609,0,0,1,.9676-.1951C953.912,132.9359,954.6851,132.8306,955.4553,132.71Z"/><path class="cls-26" d="M998.2128,113.1681c.5513-.4447,1.0957-.8985,1.6569-1.3305a5.2728,5.2728,0,0,1,.9059-.679c.3374.3554.2381.804.2387,1.2195q.0115,7.5837.0049,15.1673,0,15.9863.001,31.9724a3.3046,3.3046,0,0,1-.09.9885,10.7791,10.7791,0,0,1-2.1236.8609c-.0867.0709-.2152.0411-.2971.1234l-.0451.0368-.0582-.0018c-.3442.0085-.3453-.2689-.3837-.4884a5.7529,5.7529,0,0,1-.033-.9948q-.0009-22.7092.0006-45.4185A2.6025,2.6025,0,0,1,998.2128,113.1681Z"/><path class="cls-27" d="M985.0873,121.6887c.0063.3321.0181.6643.0182.9965q.0014,20.69.0008,41.38c0,.19-.0063.38.0016.57.0238.5665.1245.6648.7193.72-.17.1544-.3949.131-.5969.1763-.753.169-1.5069.3338-2.2626.49a4.743,4.743,0,0,1-.5572.05.376.376,0,0,1-.1515-.3061c-.0028-.19-.0037-.38-.0037-.57q0-20.51,0-41.02a2.1639,2.1639,0,0,1,.1356-1.0466C983.27,122.6117,984.162,122.1188,985.0873,121.6887Z"/><path class="cls-28" d="M989.2585,164.5051c-.4271-.0932-.4312-.093-.4428-.4064-.0079-.2134-.0029-.4273-.0029-.641q0-21.1889-.0026-42.3779a3.4535,3.4535,0,0,0-.0793-1.13c-.0387-.1161.0428-.2724.0693-.41a30.9111,30.9111,0,0,1,2.6973-1.6705c.3542.3478.25.799.25,1.2132q.0126,6.9806.0053,13.961.0022,14.9939.0049,29.9877c0,.2624-.0268.521-.0518.7807A12.77,12.77,0,0,1,989.2585,164.5051Z"/><path class="cls-29" d="M1000.93,160.5063a.3865.3865,0,0,1-.14-.3118q-.0023-.32-.0023-.6405,0-23.7,0-47.3993c0-.332-.0075-.6641-.0115-.9961a13.3256,13.3256,0,0,1,1.3766-1.1814,8.2809,8.2809,0,0,1,1.1906-.9675.9378.9378,0,0,1,.11.6168c-.0258,15.7986-.0032,31.5973-.0116,47.3959,0,.7828-.006,1.5654.0617,2.3463a12.4162,12.4162,0,0,1-2.264,1.0037c-.0916.0663-.2262.0338-.3041.1319Z"/><path class="cls-30" d="M1014.6236,153.0972c-.1492-.0291-.2755-.0883-.2819-.2638-.0086-.2369-.0108-.4742-.0108-.7113q-.0006-26.7288-.0014-53.4577c0-.3557-.0148-.7113-.0228-1.0669.4135-.5624.8186-1.1312,1.2434-1.6849a6.3662,6.3662,0,0,1,.7669-.99,7.6175,7.6175,0,0,1,.1512,2.117q.0012,26.7479.001,53.4958c0,.2374-.0008.475.01.712.01.2074.1627.2692.3373.2989A13.7439,13.7439,0,0,1,1014.6236,153.0972Z"/><path class="cls-31" d="M944.7469,165.3553a16.3068,16.3068,0,0,1-2.3593-.6538,2.75,2.75,0,0,1-.911-.338,1.3986,1.3986,0,0,1-.2218-.95q-.0045-14.1768.0025-28.3537c.0008-.9473.0653-.9826,1.0145-.996a5.4587,5.4587,0,0,0,1.3451-.0519,4.2059,4.2059,0,0,1,1.1334-.0246c.534-.1989.7518.0519.7945.5561.022.2607.0192.5219.0192.783q.0008,14.2819,0,28.5638a5.321,5.321,0,0,1-.0364.9242C945.4508,165.25,945.2491,165.5241,944.7469,165.3553Z"/><path class="cls-32" d="M969.9945,167.6194q0-18.6494.0013-37.2988a4.0351,4.0351,0,0,1,.1272-1.4068,1.1308,1.1308,0,0,0,.0091-.3538c.7222-.381,1.5144-.5892,2.26-.9126a1.8571,1.8571,0,0,1,.7261-.2365,1.617,1.617,0,0,0-.1314.692c.01.1416.0019.2847.0019.4271q0,18.9037,0,37.8074c0,.2373,0,.4747.0058.7119.0049.2058.1423.2824.322.3121-.0409.0215-.0811.0594-.1234.0619A27.4978,27.4978,0,0,1,969.9945,167.6194Z"/><path class="cls-33" d="M998.2128,113.1681c.0029.3323.0083.6645.0084.9968q.0006,23.1787.0006,46.3574c0,.2372.0024.4745.0089.7117a.3571.3571,0,0,0,.1757.2916,5.7459,5.7459,0,0,1-1.4627.55c-.1166.1223-.3217-.0069-.4262.15l.0029-.002c-.0865.0644-.2069.0435-.29.1155l-.0529.0334-.0625-.0025c-.389.139-.4422-.1526-.5024-.4069a3.6715,3.6715,0,0,1-.0452-.8514q-.0017-22.4311.0012-44.8623c0-.4929-.0715-1.0109.3576-1.3971A26.0427,26.0427,0,0,1,998.2128,113.1681Z"/><path class="cls-34" d="M943.6169,134.0116c-.1266.144-.2978.1235-.4627.1246-.451.003-.9022-.0018-1.353.0106-.2151.0059-.2962.0927-.308.3087-.0129.2368-.0092.4745-.0092.7118q-.0006,14.1352-.0006,28.2706c0,.3085-.0044.6171-.0068.9256l-.14-.0327c-.0822-.0682-.2035-.0433-.2828-.1185l-.0007,0c-.11-.14-.308-.0206-.4233-.1445l-.0035-.0014c-.0914-.094-.2246-.0769-.3332-.1253l-.0526.0048-.0419-.0321c-.0869-.0825-.216-.0573-.31-.1215l-.064.0011-.0558-.0315c-.0813-.0712-.2068-.0388-.2835-.121a9.3177,9.3177,0,0,1-2.0039-.8371,1.8745,1.8745,0,0,1-.0836-.7013c.019-8.8742.0035-17.7483.0085-26.6224,0-.2136-.0074-.4274-.0019-.6406.0112-.4309-.1137-.7333-.607-.7914-.1919-.0226-.45-.0428-.4426-.3524.282.01.5647.01.8459.0313.9853.074,1.9691.1756,2.9555.2272.7991.0418,1.6012.0261,2.4019.0373C942.9109,133.9962,943.2639,134.0047,943.6169,134.0116Z"/><path class="cls-35" d="M1031.153,89.1a3.2826,3.2826,0,0,1,.3122.7764c.4558,1.3532.9168,2.7047,1.3724,4.058a1.5542,1.5542,0,0,1,.0414.276c.165,12.9367.0258,25.8739.0737,38.8109a13.6838,13.6838,0,0,1-.077,1.7046,6.0462,6.0462,0,0,1-.7432,1.1774,11.9436,11.9436,0,0,1-1.1181,1.5148c-.053.0479-.1148.0891-.1278.1674l.0115-.0124c-.1212.0387-.0863.19-.18.2488l-.0115.0178q-.0591.0759-.1193.1511l-.0008.0012c-.3777-.0313-.4225-.3339-.48-.61a4.1927,4.1927,0,0,1-.0413-.8526q-.0012-23.7612,0-47.5224a4.1694,4.1694,0,0,1,.049-.9231c.0623-.2763.1226-.5742.5018-.59l-.0039.0053c.0309.1079.0223.23.1112.3174l.0343.0306-.0137.044c.0367.1188.03.2526.1222.3522l0,.001c.1251.1163.0081.3134.1426.4265l0,.0008C1031.1356,88.7888,1031.0168,88.987,1031.153,89.1Z"/><path class="cls-36" d="M991.7062,163.8119a.41.41,0,0,1-.1815-.3643c-.0014-.2374-.0032-.4747-.0032-.7121q0-21.9351-.0012-43.87c0-.332-.0148-.664-.0227-.9961l.004.0075c.0712-.0176.1079-.0811.162-.1216l.0113-.0064c.0691-.0863.2128-.0589.2636-.1731a19.0456,19.0456,0,0,1,2.1418-1.4267,1.01,1.01,0,0,1,.1055.62q-.0334,22.5869-.0107,45.1737a1.8957,1.8957,0,0,1-.2137,1.17,7.4622,7.4622,0,0,1-1.7151.5329c-.1248.1147-.32,0-.4384.1336l-.0449.0349Z"/><path class="cls-37" d="M1030.617,87.4944a.8838.8838,0,0,0-.32.7548c.0031.1424,0,.2848,0,.4272v48.193c0,.1423.0019.2847,0,.4271a.8406.8406,0,0,0,.29.6955,7.0159,7.0159,0,0,1-1.1041,1.432c-.1636.0927-.2113.2775-.3258.4092l-.0041.0057a.5939.5939,0,0,0-.1307.1552l.0059-.0069a.2638.2638,0,0,0-.14.1622l.0111-.0115c-.08.0287-.1428.0714-.1389.1689l0,.0093c-.1621-.0606-.3055-.1406-.31-.3416-.005-.2135-.0062-.427-.0062-.6405q0-28.1874,0-56.3748c0-.1661.0053-.3323,0-.4982a.54.54,0,0,1,.3088-.5187l-.0024.0061c.0445.1.0327.2212.1124.3087a.0621.0621,0,0,1,.026.0942c.0476.1081.0336.2377.1168.3333a.062.062,0,0,1,.0258.0941c.0475.1082.0335.2379.1168.3335a.0617.0617,0,0,1,.0258.0938c.0473.1084.0335.238.1168.3338.357.7991.5853,1.644.8709,2.4683A8.0273,8.0273,0,0,1,1030.617,87.4944Z"/><path class="cls-38" d="M1011.9042,100.4983q.0014,5.1294.0027,10.2588,0,21.5149.0008,43.03c0,.3561.01.7122.0158,1.0683a2.6439,2.6439,0,0,1-.8668.5219c-.0777.08-.2235.0421-.2785.1611l.01-.0092c-.07.0162-.1088.077-.1642.1142l-.02.0094c-.0621.0933-.1971.0573-.2612.1471l-.0049.0026a.4475.4475,0,0,1-.2765-.3839c-.0091-.1894-.0077-.3794-.0077-.5692q0-25.6989,0-51.3978c0-.1186.0075-.2378-.0014-.3558a.7425.7425,0,0,1,.25-.636c.1549-.1438.326-.2852.3217-.529A10.8794,10.8794,0,0,1,1011.9042,100.4983Z"/><path class="cls-39" d="M931.4391,159.3807a4.5849,4.5849,0,0,1-1.0283-.73,19.6378,19.6378,0,0,1-2.5738-2.4026,3.2946,3.2946,0,0,1-.1993-.2853,7.6014,7.6014,0,0,0,.0707-1.5575q.0055-10.6313.0077-21.2624c0-.4377-.1118-.91.2305-1.2921a11.9913,11.9913,0,0,1,1.4779.4188c.7436.201,1.4862.4058,2.2292.609.4117.232.3568.6406.3608,1.01.015,1.3748.006,2.75.006,4.1247q0,10.17-.01,20.3392c-.0009.4073.187.9216-.3745,1.1688l.005-.0011A.2453.2453,0,0,0,931.4391,159.3807Z"/><path class="cls-40" d="M944.7469,165.3553c.5371-.09.57-.1221.5847-.6021.0053-.1661.0011-.3325.0011-.4987q0-14.6429,0-29.2856c0-.19.0052-.38-.0027-.57-.0143-.3424-.0273-.3516-.4373-.4053-.047-.0061-.0949-.0045-.1424-.0065a.6945.6945,0,0,1,.194-.0756q1.7982-.1164,3.5971-.2229a1.7881,1.7881,0,0,1,.2113.0115,7.5348,7.5348,0,0,0-.1952,2.3886q-.0024,14.4116-.0062,28.823c0,.4381.1115.91-.2262,1.2946a3.4166,3.4166,0,0,1-1.0472-.1767c-.7875-.1668-1.5661-.3757-2.3471-.572A.813.813,0,0,1,944.7469,165.3553Z"/><path class="cls-41" d="M931.6362,159.5221a.7815.7815,0,0,0,.1357-.239,3.3331,3.3331,0,0,0,.0174-.4973q.0009-12.5391,0-25.0782a1.3813,1.3813,0,0,0-.1358-.8285c.8714.16,1.7453.3086,2.6128.4877a2.6488,2.6488,0,0,1,.954.1822,1.404,1.404,0,0,1,.22.9505q.0051,12.96-.01,25.9207c-.0009.42.1738,1.0136-.5555,1.1048a.0845.0845,0,0,1-.0951-.0431.4219.4219,0,0,0-.186-.1082,12.2278,12.2278,0,0,1-2-1.1546A4.0494,4.0494,0,0,1,931.6362,159.5221Z"/><path class="cls-42" d="M948.3251,166.2063q.0007-15.6128.0014-31.2254a2.541,2.541,0,0,0-.0054-.4969.692.692,0,0,1,.4316-.7839c.0408-.0219.0806-.06.1226-.0631.7683-.0471,1.5229-.234,2.2965-.2251.0019.2607.0055.5214.0056.7821q0,15.716,0,31.4317c0,.19.0044.38-.0019.5689-.0118.355-.0144.3549-.4722.46A10.6941,10.6941,0,0,1,948.3251,166.2063Z"/><path class="cls-43" d="M993.9614,163.1133c-.0055-.2846-.0159-.5693-.0159-.8539q-.0012-22.5321,0-45.0642a2.1419,2.1419,0,0,1,.1349-1.0462,14.3288,14.3288,0,0,1,1.8455-1.2965,1.8529,1.8529,0,0,0-.13.7649c.0117.1415.002.2847.002.4271q0,22.6466,0,45.293c0,.2374.0021.4747.0045.7121.0022.2048.1289.29.3117.3206a6.4309,6.4309,0,0,1-1.6835.5764c-.1136.0412-.2467.0272-.342.12A.1309.1309,0,0,1,993.9614,163.1133Z"/><path class="cls-44" d="M1032.8757,134.726a.3976.3976,0,0,1-.15-.3084c-.0034-.19-.0046-.38-.0047-.57q0-19.38,0-38.7608c0-.19.0013-.38.0049-.57a.39.39,0,0,1,.1535-.3065l-.0021.0019c.1042.1278-.0162.3315.1483.4389l-.0059-.0111c.1042.1276-.0157.3318.15.4386.1018.08.11.2041.147.3147q.9528,2.8293,1.9041,5.6591a3.7492,3.7492,0,0,1,.09.4135c.1392,5.1951.037,10.3912.06,15.5868.0166,3.7259.0032,7.4519.0033,11.1779a19.0348,19.0348,0,0,1-.0874,2.487,17.9,17.9,0,0,1-1.2013,2.1557,8.6024,8.6024,0,0,1-.9254,1.4112c-.0965.06-.0675.1976-.16.26l-.0091.0172c-.0317.0589-.1021.09-.1161.1616Z"/><path class="cls-45" d="M927.9466,131.8513q-.0028,4.0576-.0056,8.1153-.0014,7.5457-.0008,15.0916c0,.2133-.002.427-.0141.64-.01.1739-.1466.226-.2884.2652l.0077-.0008a.3172.3172,0,0,0-.1459-.1564l.0069.0073a.6177.6177,0,0,0-.1349-.1551l-.002-.0025a1.2217,1.2217,0,0,1-.1262-.1446l-.01-.0118c-.0891-.068-.0675-.2253-.2051-.2539a12.5188,12.5188,0,0,1-1.8825-2.9063,17.2484,17.2484,0,0,1-1.335-3.95c.1936-.3618.05-.7425.05-1.1119.0086-5.209.002-10.418.0105-15.6269a2.4758,2.4758,0,0,1,.226-1.3809,6.4614,6.4614,0,0,1,1.0312.4346c.8455.3419,1.689.6886,2.5333,1.0335.0835.0631.201.0419.2812.1132Z"/><path class="cls-46" d="M934.8746,161.525a.4945.4945,0,0,0,.3351-.4941c-.0019-.2136.0014-.4272.0014-.6407q0-12.9579,0-25.9158c0-.3084.0056-.6169.0087-.9254a2.7729,2.7729,0,0,1,1.1342.1464.3447.3447,0,0,0,.3019.1534c.19.0027.38-.0026.57.0063.3435.016.3914.069.4066.4358.0058.1421.0021.2846.0021.427q0,13.559-.0007,27.118a1.6469,1.6469,0,0,1-.1527.9676l-.1369-.0448a.4371.4371,0,0,0-.1844-.1023,3.4993,3.4993,0,0,1-1.0165-.4295A5.7153,5.7153,0,0,1,934.8746,161.525Z"/><path class="cls-47" d="M1035.2864,130.7178a.7646.7646,0,0,1-.1282-.2416,4.9433,4.9433,0,0,1-.014-.5688q-.0006-13.7835,0-27.5669c0-.19.002-.38.0072-.57a.405.405,0,0,1,.1591-.3048l-.0015.007c.0433.1011.0318.222.112.31a.0592.0592,0,0,1,.0257.0923c.048.1095.0312.2428.1231.3362l.035.0285-.0132.0432c.0363.12.03.2558.1231.3564l.0341.0291-.0146.0424c.0364.12.0294.2555.123.3561l.0341.0291-.0146.0424c.0365.12.0295.2555.123.356a1.7326,1.7326,0,0,1,.1287.2455q.5406,1.5945,1.0727,3.192a3.9154,3.9154,0,0,1,.0906.4063c.1724,6.1816.0294,12.3644.0784,18.5465.0023.2862-.0975.561-.0721.8474a14.0265,14.0265,0,0,1-1.2611,2.5714c-.1314.0581-.1108.1956-.156.2987l.0085-.012c-.1307.0556-.1017.196-.1555.2925l.007-.01c-.122.0587-.0934.1986-.1561.2893l.005-.0085c-.11.0629-.0814.2009-.1544.2839l.0011-.0019c-.0966.0681-.0683.2024-.1483.2793Z"/><path class="cls-48" d="M1003.5028,159.3687c-.149-.03-.2729-.09-.2811-.2654-.0078-.1658-.01-.3319-.01-.4978q-.0006-24.345-.0022-48.69a2.1284,2.1284,0,0,1,.1336-.9056,5.9548,5.9548,0,0,1,1.1342-1.0068c-.0053.0231-.003.0535-.0171.0683a1.8208,1.8208,0,0,0-.4015,1.3733q.0145,24.2362.0081,48.4725c0,.2372.0021.4745.0045.7117.0021.2046.1284.2906.3112.3209A2.2312,2.2312,0,0,1,1003.5028,159.3687Z"/><path class="cls-49" d="M1037.2979,126.7323c-.0489-.0775-.13-.1509-.14-.2333a4.42,4.42,0,0,1-.0174-.5679q-.0009-8.8943,0-17.7884a4.6114,4.6114,0,0,1,.0159-.568c.01-.0831.0883-.1578.1356-.2363a6.9656,6.9656,0,0,1,.4862,1.3259c.9293,2.7377,1.8421,5.481,2.7789,8.2161a2.0073,2.0073,0,0,1,.0212,1.3081,69.0724,69.0724,0,0,1-3.0362,8.1181A4.7073,4.7073,0,0,1,1037.2979,126.7323Z"/><path class="cls-50" d="M921.2419,139.6949a.0515.0515,0,0,1-.02-.0821c-.0872-.1494.019-.3556-.1422-.4833a1.0157,1.0157,0,0,1-.2045-.52q-1.8881-6.3637-3.7625-12.7315c-.0133-.0453-.0193-.0928-.0287-.1392-.028-.1481.035-.1979.1763-.1631a27.81,27.81,0,0,0,4.21,3.1932,1.8225,1.8225,0,0,1,.2149.18c.0354.1516.1889.1232.283.1854l-.0059-.0043a1.0651,1.0651,0,0,1,.3586.955c.0073,3.4046.0156,6.8093-.0109,10.2138-.003.3813.13.9924-.6457.8215a.0493.0493,0,0,1-.016-.0806,1.0719,1.0719,0,0,0-.1118-.3446.0791.0791,0,0,1-.0259-.1035c-.0981-.14.0119-.3416-.1386-.4658l.0034.0072C921.2638,140.0073,921.3734,139.8143,921.2419,139.6949Z"/><path class="cls-51" d="M921.6647,141.12c.3983-.0753.4112-.0834.427-.3375.0073-.1183.004-.2372.0041-.3558q0-5.2323.0009-10.4644a1.6933,1.6933,0,0,0-.134-.8326,21.8531,21.8531,0,0,1,2.1353,1.14c.0345.1347.1418.2621.0779.4077a2.1731,2.1731,0,0,0-.0821.9128q-.0043,8.04-.0023,16.08a5.8986,5.8986,0,0,1-.0093.6395c-.0213.1947-.1665.097-.271.08a.0692.0692,0,0,1-.0213-.0953c-.0948-.1427.0177-.3481-.1427-.471a3.7074,3.7074,0,0,1-.34-.9963c-.5385-1.784-1.0642-3.5718-1.5908-5.3593A2.4732,2.4732,0,0,1,921.6647,141.12Z"/><path class="cls-3" d="M1019.45,261.3834l-.9554-.0276c-.0059-1.3058-.0139-2.6116-.0172-3.9174-.0029-1.1635-.0008-2.327,0-3.49,0-.1423.0011-.2848.0083-.4269a.2128.2128,0,0,1,.2286-.2143.6768.6768,0,0,1,.0711-.0026,6.9,6.9,0,0,1,1.2738.0459,4.3827,4.3827,0,0,1,.4214,1.1174q.845,2.4912,1.6747,4.9876a.9977.9977,0,0,0,.2409.4736c.07-.1783.14-.3394.1971-.5049q.9865-2.8566,1.9706-5.7141c.1379-.399.1424-.4116.5406-.4045,1.2665.0226,1.0605-.2147,1.0674,1.0168.0117,2.09.0043,4.1791.0018,6.2686,0,.2606-.02.5211-.03.7817l-.9653.0111a2.5108,2.5108,0,0,1-.0522-.7782q-.0033-2.4933-.0013-4.9866c0-.1535-.0016-.3069-.0024-.4553-.1372-.0053-.1767.05-.2.1184q-1.0109,2.9229-2.0193,5.8468a.6842.6842,0,0,0-.018.1408,1.4115,1.4115,0,0,1-1.14,0c-.3823-1.1646-.7608-2.33-1.1482-3.4934-.2759-.8283-.5642-1.6525-.8457-2.479a.4347.4347,0,0,0-.2464-.3045v.5108q0,2.5529-.0011,5.1058A2.4938,2.4938,0,0,1,1019.45,261.3834Z"/><path class="cls-3" d="M963.4176,261.3718l-.9657.0125c-.0181-.2115-.0517-.4231-.052-.6347q-.0057-3.4155-.0018-6.8311c0-.1419.0022-.2844.015-.4256a.1788.1788,0,0,1,.1762-.1824c.0473-.0029.0947-.0055.1421-.0072.7575-.0269.757-.0265,1.1893.6193q1.602,2.3934,3.2057,4.786c.1426.2125.2957.418.4394.62.1922-.077.1335-.2128.1337-.3162q.0059-2.4549.003-4.91c0-.19-.0013-.38.0058-.569a.2051.2051,0,0,1,.2135-.2255c.1185-.0035.2371-.006.3557-.0055.4662.0021.4746.0026.4752.4734q.0047,3.5936-.0009,7.1869a3.3821,3.3821,0,0,1-.052.4213l-1.1036-.0247q-1.9707-2.9515-3.9435-5.9019c-.0222-.0332-.0736-.0468-.1157-.0721-.1462.0667-.0843.2017-.0845.3042-.0045,1.634-.0018,3.2681-.0047,4.9022C963.4474,260.852,963.4282,261.1119,963.4176,261.3718Z"/><path class="cls-6" d="M887.4362,261.2319c-.1914.1975-.4389.1383-.6692.1388q-2.2355.005-4.471.0016c-.2129,0-.4258-.0035-.6387,0a.4785.4785,0,0,1-.3145-.14c.008-.3077.0226-.6154.0229-.9231q.0032-3.059.0012-6.1181c0-.19-.0046-.38.0032-.569.0109-.2638.0619-.3167.3507-.3172q2.5973-.0053,5.1945,0c.2314,0,.2834.0611.2934.2962.0051.1184.0049.2372.0012.3556-.009.2872-.0341.3192-.3347.32q-1.8856.006-3.7714.0017c-.674-.001-.6268-.0222-.6265.6062,0,.498-.0039.9961.0028,1.494.0038.2906.03.3178.34.3192,1.0911.0049,2.1822.0022,3.2733.0028.19,0,.3794.0009.5691.0043.1332.0023.2269.0585.2278.2049.0056.8837.1144.786-.7166.7888-.9962.0033-1.9924,0-2.9887.0012-.1658,0-.3319.0008-.4975.0086-.142.0067-.2028.0958-.2066.231-.0007.0237-.0025.0474-.0025.0711q0,1.0671,0,2.1342a.2287.2287,0,0,0,.26.2591q.7829.0018,1.5655.0021,1.4232.0012,2.8464.0021a.2282.2282,0,0,1,.2611.2567C887.413,260.8538,887.4274,261.0428,887.4362,261.2319Z"/><path class="cls-6" d="M879.8791,261.3721l-5.948,0c-.0106-.1655-.03-.3311-.03-.4966q-.003-3.49-.0012-6.98c0-.1187-.0021-.2376.0039-.356.0066-.132.0649-.2247.2116-.23.1186-.0042.2372-.0069.3559-.0069q2.3509-.0008,4.702,0c.1186,0,.2373.0022.3558.0083a.2066.2066,0,0,1,.2121.23c.0033.1661.0015.3323.0012.4985a.2011.2011,0,0,1-.207.2308c-.1659.0071-.3322.0086-.4982.0087q-1.6743.001-3.3484.0007c-.1662,0-.3328-.0022-.4983.01a.1731.1731,0,0,0-.17.1847q-.0054.9969-.0056,1.9937a.1991.1991,0,0,0,.2112.2273q.3561.0048.7122.0056c1.0212.0006,2.0423-.0028,3.0634.0018.4173.0019.4239.0164.4276.4513,0,.0475.0007.095,0,.1425-.0069.3846-.0142.4-.4067.4017-1.0686.0046-2.1372.0015-3.2059.0019-.19,0-.38.0017-.57.0038-.1356.0016-.2276.0619-.2281.2056q-.0045,1.1394-.0008,2.2786a.1993.1993,0,0,0,.223.2139c.1662.0022.3324.0044.4986.0045q1.7454,0,3.4909.0013c.21,0,.42.0161.6539.0257A3.3693,3.3693,0,0,1,879.8791,261.3721Z"/><path class="cls-6" d="M1017.0193,261.3722l-5.9481,0c-.01-.1655-.03-.3311-.03-.4966q-.003-3.49-.0013-6.98c0-.1187-.002-.2376.0039-.3561.0067-.132.065-.2246.2117-.23.1185-.0042.2372-.0069.3559-.0069q2.351-.0008,4.702,0c.1186,0,.2373.0021.3557.0083a.2067.2067,0,0,1,.2122.23c.0033.1661.0015.3323.0012.4985a.2012.2012,0,0,1-.2071.2308c-.1659.0071-.3321.0085-.4982.0086q-1.6742.001-3.3484.0008c-.1662,0-.3328-.0022-.4983.01a.1731.1731,0,0,0-.17.1847q-.0056.9969-.0056,1.9937a.199.199,0,0,0,.2111.2273q.3561.0048.7123.0056c1.0211.0006,2.0423-.0028,3.0634.0018.4173.0019.4238.0164.4275.4513,0,.0475.0007.095,0,.1425-.007.3846-.0143.4-.4067.4017-1.0687.0046-2.1373.0015-3.2059.0019q-.285,0-.57.0038c-.1356.0016-.2275.062-.2281.2057q-.0043,1.1393-.0008,2.2785a.1994.1994,0,0,0,.2231.214c.1662.0021.3324.0043.4986.0044q1.7454.0006,3.4908.0013c.21,0,.42.0161.6539.0257A3.37,3.37,0,0,1,1017.0193,261.3722Z"/><path class="cls-6" d="M894.8477,261.3721l-5.9481,0c-.0106-.1655-.03-.3311-.03-.4966q-.003-3.49-.0012-6.98c0-.1187-.0021-.2376.0039-.356.0067-.1321.065-.2247.2116-.23.1186-.0041.2373-.0068.3559-.0068q2.3511-.0008,4.702,0c.1186,0,.2374.0021.3558.0083a.2065.2065,0,0,1,.2121.23c.0033.1661.0015.3323.0012.4985a.2011.2011,0,0,1-.207.2308c-.1659.0071-.3321.0085-.4982.0086q-1.6743.001-3.3484.0008c-.1662,0-.3328-.0022-.4983.01a.1731.1731,0,0,0-.17.1847q-.0056.9969-.0056,1.9937a.199.199,0,0,0,.2111.2273q.3561.0048.7123.0056c1.0211.0006,2.0422-.0028,3.0634.0018.4172.0019.4238.0165.4275.4513,0,.0475.0007.095,0,.1425-.0069.3846-.0142.4-.4067.4017-1.0686.0046-2.1372.0015-3.2059.0019q-.2849,0-.57.0038c-.1356.0016-.2276.0619-.2281.2057q-.0045,1.1393-.0008,2.2785a.1994.1994,0,0,0,.2231.2139c.1661.0022.3323.0044.4985.0045q1.7455,0,3.4909.0013c.21,0,.42.0161.6539.0257A3.3732,3.3732,0,0,1,894.8477,261.3721Z"/><path class="cls-6" d="M1071.9038,261.3721l-5.9553.0123c-.0182-.2115-.0518-.423-.0522-.6345q-.0057-3.4149-.0018-6.83c0-.1419.0035-.2842.0141-.4257a.1877.1877,0,0,1,.1779-.1827,2.4686,2.4686,0,0,1,.2842-.0089q2.4552-.0007,4.91,0c.0711,0,.1425-.001.2134.0033a.2208.2208,0,0,1,.2345.2117c.0088.0941.0089.1893.0093.284.0015.468.001.4743-.4735.4758-1.21.0037-2.4195.0006-3.6293.0022-.1654,0-.3308.0117-.4962.0178a.1573.1573,0,0,0-.1434.135,1.2082,1.2082,0,0,0-.0184.2828c-.0014.498-.0041.996,0,1.494.0042.4817.0076.4874.4617.49.7827.0046,1.5655.0012,2.3483.0014.4507,0,.9014-.0038,1.3521.0028.2605.0039.3081.0453.31.2785.0067.7626.07.7184-.6577.7176q-1.53-.0016-3.06,0c-.166,0-.3321,0-.4981.0028a.2333.2333,0,0,0-.2553.2657c0,.4743-.017.9493.0033,1.4226.0138.3236-.1545.7273.1023.95.2157.1873.5931.0611.8983.0629,1.1148.0065,2.23.0013,3.3446.0038.186,0,.3719.0171.5813.0274A3.3674,3.3674,0,0,1,1071.9038,261.3721Z"/><path class="cls-6" d="M992.5068,261.3846l-.9732,0a3.5473,3.5473,0,0,1-.0525-.99c-.0073-.64-.0184-1.2806.0043-1.92a1.4687,1.4687,0,0,0-.2888-.9231c-.881-1.2917-1.7461-2.5942-2.6159-3.8935-.0512-.0765-.0924-.16-.14-.2428a3.4512,3.4512,0,0,1,1.1648-.0991c.15.0469.2162.18.2916.2973q.9441,1.4625,1.8817,2.9293c.0857.1336.1246.302.2776.3854.1756-.03.2044-.1919.2781-.3045.6484-.9909,1.2958-1.9826,1.9322-2.9813a.5982.5982,0,0,1,.6326-.3447,6.3741,6.3741,0,0,0,.6389.0149.1334.1334,0,0,1,.0944.2068c-.1006.16-.2059.3176-.3135.4731-.8219,1.1886-1.6385,2.3809-2.472,3.5612a1.4436,1.4436,0,0,0-.2919.9211c.0214.7342.0078,1.47.0057,2.2044A2.1731,2.1731,0,0,1,992.5068,261.3846Z"/><path class="cls-52" d="M1076.4662,261.3727c-.2468,0-.4936-.0054-.74.0015a.4936.4936,0,0,1-.3632-.1415c.008-.2365.0227-.473.0229-.71q.003-2.7024.0011-5.405c0-.1659.0032-.332-.0018-.4978-.0092-.2995-.0379-.3305-.3156-.34-.1658-.0053-.3319-.0015-.4979-.0016-.4742,0-.9485.0039-1.4227-.0017-.3659-.0043-.378-.0227-.382-.416-.001-.0948.0014-.19.0017-.2845,0-.1633.0624-.2708.2441-.2716.0948,0,.19-.0033.2845-.0033q2.6676,0,5.3352,0c.0948,0,.19,0,.2843.0048a.216.216,0,0,1,.2275.2175c.0087.1417.01.2843.0059.4263-.0072.2877-.0367.323-.3364.3259-.6639.0064-1.3279-.0007-1.9918.0053-.2884.0027-.321.0358-.3215.3365-.0032,1.9676-.0008,3.9352-.0037,5.9028C1076.4962,260.805,1076.4768,261.0889,1076.4662,261.3727Z"/><path class="cls-52" d="M941.1792,261.3727c-.2467,0-.4935-.0054-.74.0016a.4942.4942,0,0,1-.3632-.1416c.008-.2365.0227-.473.023-.71q.0028-2.7022.001-5.4047c0-.166.0032-.332-.0018-.4978-.0092-.3-.038-.3309-.3153-.34-.1658-.0054-.3319-.0015-.4979-.0016-.4742,0-.9485.0039-1.4226-.0017-.3661-.0043-.3784-.0228-.3825-.4157-.0009-.0948.0015-.19.0018-.2844,0-.1632.0618-.2711.2438-.2719.0711,0,.1422-.0033.2132-.0033q2.7387,0,5.4773,0c.0947,0,.19.003.2839.0109a.1778.1778,0,0,1,.1826.1763c.0273.853.1027.7886-.6406.79q-.8892.001-1.7783.0023c-.1758,0-.2537.0934-.2515.266.0024.19-.0008.3793-.0008.5689q0,2.738-.0015,5.4759C941.2094,260.8525,941.19,261.1126,941.1792,261.3727Z"/><path class="cls-52" d="M1007.3275,261.2327a.4589.4589,0,0,1-.3139.14c-.26-.0077-.52-.0111-.78-.0162q-.009-2.3853-.0176-4.7708c-.0019-.57,0-1.1394,0-1.7091-.0006-.6383.0488-.598-.6315-.5974-.5224,0-1.0448.0035-1.5672-.0011-.4194-.0037-.4194-.0081-.4213-.4506,0-.0237,0-.0474,0-.0712.0045-.433.0156-.4487.4259-.4534.4274-.0048.8548-.0011,1.2822-.0011q1.9946,0,3.9891,0a4.69,4.69,0,0,1,.4978.0136.15.15,0,0,1,.1409.1369c.0066.1179.0208.2357.0212.3536.0017.465,0,.4687-.47.4721-.6411.0045-1.2822.0036-1.9233.0027a.2236.2236,0,0,0-.2537.2592c0,.0475-.0019.095-.0019.1424q.0011,3.2047.0031,6.4094A.9762.9762,0,0,0,1007.3275,261.2327Z"/><path class="cls-53" d="M908.8086,261.3573l-1.0819,0c-.0061-1.0172-.0154-2.0343-.0176-3.0515q-.0045-2.0939-.0006-4.1877c0-.1893,0-.3786.0036-.5678.0031-.1766.1057-.2477.272-.2467.0237,0,.0473-.0014.071-.0012.8479.0062.7713-.0941.7718.7451q.002,3.336,0,6.6721C908.8264,260.9319,908.8149,261.1446,908.8086,261.3573Z"/><path class="cls-54" d="M1064.0657,261.2333a.4911.4911,0,0,1-.3635.1418c-.2468-.0069-.4939-.002-.7409-.002-.0107-.189-.03-.3779-.0307-.5669q-.0031-3.4487-.0008-6.8972,0-.2129.014-.4256a.1769.1769,0,0,1,.1836-.1737c.0471-.0039.0945-.0077.1418-.0074.8321.0049.7726-.0931.7728.7511q0,3.2352.0011,6.4705C1064.0433,260.76,1064.0578,260.9968,1064.0657,261.2333Z"/><path class="cls-6" d="M936.1893,261.3721l-.9659.0125c-.0182-.2118-.0519-.4235-.0523-.6353q-.0057-3.4184-.0017-6.8367c0-.142.0033-.2846.0161-.4259a.1817.1817,0,0,1,.1821-.1775c.0237-.0018.0474-.0055.071-.0054.8555.0071.7818-.1111.7823.735q.0018,3.3116-.001,6.6231C936.22,260.8987,936.2,261.1354,936.1893,261.3721Z"/><path class="cls-20" d="M1022.0577,147.2891c.0217-.2274.1705-.31.375-.329A.7124.7124,0,0,1,1022.0577,147.2891Z"/><path class="cls-55" d="M917.26,125.5754l-.1763.1631a.535.535,0,0,1-.1053-.1636.4917.4917,0,0,1,.0367-.1845.9365.9365,0,0,1,.1732.0752C917.2221,125.4883,917.2371,125.5379,917.26,125.5754Z"/><path class="cls-18" d="M1029.1571,139.8332a.3791.3791,0,0,1,.3258-.4092A.7668.7668,0,0,1,1029.1571,139.8332Z"/><path class="cls-31" d="M940.63,164.0675c.1568.0024.3249-.0285.4233.1445A.4868.4868,0,0,1,940.63,164.0675Z"/><path class="cls-28" d="M991.8079,163.78c.1078-.17.2773-.1381.4384-.1336A.5134.5134,0,0,1,991.8079,163.78Z"/><path class="cls-32" d="M973.83,127.1025c-.0672.2259-.2524.1855-.4195.1859A.64.64,0,0,1,973.83,127.1025Z"/><path class="cls-51" d="M921.2419,139.6949c.1693.1078.1391.2766.1339.4377A.5215.5215,0,0,1,921.2419,139.6949Z"/><path class="cls-45" d="M923.6472,147.8227c.2.1109.1524.2965.1427.4709A.5872.5872,0,0,1,923.6472,147.8227Z"/><path class="cls-43" d="M996.5175,162.2258c.0945-.1853.2664-.1506.4262-.15A.5125.5125,0,0,1,996.5175,162.2258Z"/><path class="cls-42" d="M952.1783,133.2734a.2411.2411,0,0,1-.4211.04Z"/><path class="cls-51" d="M921.08,139.13c.2051.1146.1514.3053.1422.4831A.6509.6509,0,0,1,921.08,139.13Z"/><path class="cls-35" d="M1033.1691,95.0788c-.197-.096-.16-.2719-.15-.4386A.5343.5343,0,0,1,1033.1691,95.0788Z"/><path class="cls-35" d="M1033.0252,94.6513c-.1964-.0966-.1585-.2724-.1483-.4388A.5285.5285,0,0,1,1033.0252,94.6513Z"/><path class="cls-37" d="M1031.153,89.1c-.1687-.1023-.1421-.27-.1428-.4279A.5093.5093,0,0,1,1031.153,89.1Z"/><path class="cls-37" d="M1031.01,88.6714c-.1689-.1016-.1414-.2688-.1426-.4265A.5043.5043,0,0,1,1031.01,88.6714Z"/><path class="cls-11" d="M965.9978,129.99c-.0972.1876-.27.1509-.4324.1459A.5177.5177,0,0,1,965.9978,129.99Z"/><path class="cls-51" d="M921.3724,140.1254c.1913.112.1473.294.1386.4657A.5807.5807,0,0,1,921.3724,140.1254Z"/><path class="cls-44" d="M1036,103.4946a.3246.3246,0,0,1-.123-.3559A.38.38,0,0,1,1036,103.4946Z"/><path class="cls-36" d="M994.0889,163.0669a.3041.3041,0,0,1,.3419-.12A.37.37,0,0,1,994.0889,163.0669Z"/><path class="cls-31" d="M939.4851,163.6406a.2961.2961,0,0,1,.2835.121A.2961.2961,0,0,1,939.4851,163.6406Z"/><path class="cls-31" d="M939.8884,163.792a.3.3,0,0,1,.31.1215A.3253.3253,0,0,1,939.8884,163.792Z"/><path class="cls-31" d="M940.293,163.9408a.297.297,0,0,1,.3332.1254A.3736.3736,0,0,1,940.293,163.9408Z"/><path class="cls-31" d="M941.0537,164.2123a.2916.2916,0,0,1,.2828.1185A.2916.2916,0,0,1,941.0537,164.2123Z"/><path class="cls-26" d="M1000.9347,160.5043a.2722.2722,0,0,1,.3042-.132A.329.329,0,0,1,1000.9347,160.5043Z"/><path class="cls-23" d="M1010.3431,155.8a.27.27,0,0,1,.2613-.1471A.2885.2885,0,0,1,1010.3431,155.8Z"/><path class="cls-28" d="M991.9385,117.5757c-.0388.1324-.1427.1658-.2637.1731A.3349.3349,0,0,1,991.9385,117.5757Z"/><path class="cls-23" d="M1010.7782,155.5383c.0456-.1353.1541-.1621.2785-.1611A.3128.3128,0,0,1,1010.7782,155.5383Z"/><path class="cls-39" d="M927.0287,155.2455c.15.0184.1917.1249.2051.2539A.3651.3651,0,0,1,927.0287,155.2455Z"/><path class="cls-38" d="M1012.2,154.6734a.2524.2524,0,0,1,.2621-.1577A.2865.2865,0,0,1,1012.2,154.6734Z"/><path class="cls-22" d="M1019.2012,149.7086c.0206-.1395.1209-.174.2407-.1829A.2922.2922,0,0,1,1019.2012,149.7086Z"/><path class="cls-51" d="M921.5369,140.6947a.3175.3175,0,0,1,.1118.3444A.3644.3644,0,0,1,921.5369,140.6947Z"/><path class="cls-37" d="M1030.7186,137.822c.01-.1186.0455-.2193.18-.2488A.3037.3037,0,0,1,1030.7186,137.822Z"/><path class="cls-35" d="M1032.9994,134.5449a.261.261,0,0,1,.16-.26A.3039.3039,0,0,1,1032.9994,134.5449Z"/><path class="cls-39" d="M927.9438,131.8506a.2849.2849,0,0,1-.2812-.1133A.2849.2849,0,0,1,927.9438,131.8506Z"/><path class="cls-44" d="M1035.2881,130.7147a.2689.2689,0,0,1,.1483-.2793A.2938.2938,0,0,1,1035.2881,130.7147Z"/><path class="cls-44" d="M1035.4353,130.4373a.2569.2569,0,0,1,.1544-.2839A.2988.2988,0,0,1,1035.4353,130.4373Z"/><path class="cls-44" d="M1035.5847,130.1619c-.009-.1293.01-.2434.156-.2893A.3275.3275,0,0,1,1035.5847,130.1619Z"/><path class="cls-44" d="M1035.7338,129.8829c-.0146-.1328.0028-.2485.1554-.2925A.31.31,0,0,1,1035.7338,129.8829Z"/><path class="cls-44" d="M1035.8808,129.6024c-.0183-.1363.0012-.2529.156-.2987A.345.345,0,0,1,1035.8808,129.6024Z"/><path class="cls-51" d="M921.9686,129.1339c-.14.0072-.2548-.0227-.2831-.1854A.3851.3851,0,0,1,921.9686,129.1339Z"/><path class="cls-44" d="M1035.4209,101.7829a.2735.2735,0,0,1-.112-.31A.3028.3028,0,0,1,1035.4209,101.7829Z"/><path class="cls-32" d="M973.4119,127.287a.2493.2493,0,0,1-.3.1314A.2964.2964,0,0,1,973.4119,127.287Z"/><path class="cls-33" d="M998.51,161.4906a.2881.2881,0,0,1,.2971-.1235A.3082.3082,0,0,1,998.51,161.4906Z"/><path class="cls-18" d="M1028.8628,82.2571a.2744.2744,0,0,1-.1125-.3086A.3013.3013,0,0,1,1028.8628,82.2571Z"/><path class="cls-18" d="M1029.0056,82.6846a.306.306,0,0,1-.1168-.3332A.3508.3508,0,0,1,1029.0056,82.6846Z"/><path class="cls-18" d="M1029.1482,83.1122a.3061.3061,0,0,1-.1168-.3334A.3518.3518,0,0,1,1029.1482,83.1122Z"/><path class="cls-18" d="M1029.2908,83.54a.3066.3066,0,0,1-.1168-.3337A.3528.3528,0,0,1,1029.2908,83.54Z"/><path class="cls-43" d="M996.23,162.3393a.2809.2809,0,0,1,.29-.1155A.2764.2764,0,0,1,996.23,162.3393Z"/><path class="cls-37" d="M1030.7243,87.8171a.2562.2562,0,0,1-.1113-.3173A.3085.3085,0,0,1,1030.7243,87.8171Z"/><path class="cls-37" d="M1030.8671,88.2439a.317.317,0,0,1-.1222-.3521A.3735.3735,0,0,1,1030.8671,88.2439Z"/><path class="cls-44" d="M1035.57,102.2114a.3045.3045,0,0,1-.1231-.3361A.3691.3691,0,0,1,1035.57,102.2114Z"/><path class="cls-44" d="M1035.7146,102.64a.3248.3248,0,0,1-.1231-.3562A.3811.3811,0,0,1,1035.7146,102.64Z"/><path class="cls-44" d="M1035.8571,103.0671a.3244.3244,0,0,1-.123-.3559A.3805.3805,0,0,1,1035.8571,103.0671Z"/><path class="cls-20" d="M1021.9029,147.4181a.1644.1644,0,0,1,.1646-.1406A.18.18,0,0,1,1021.9029,147.4181Z"/><path class="cls-20" d="M1021.6083,147.6854a.193.193,0,0,1,.1573-.1377A.1688.1688,0,0,1,1021.6083,147.6854Z"/><path class="cls-38" d="M1012.0544,154.7781l.1509-.1091A.1317.1317,0,0,1,1012.0544,154.7781Z"/><path class="cls-46" d="M934.5935,161.3737l.186.1083A.1966.1966,0,0,1,934.5935,161.3737Z"/><path class="cls-39" d="M927.2433,155.5112l.1262.1446A.151.151,0,0,1,927.2433,155.5112Z"/><path class="cls-20" d="M1021.7578,147.5556a.1813.1813,0,0,1,.1552-.1479A.1706.1706,0,0,1,1021.7578,147.5556Z"/><path class="cls-23" d="M1010.6241,155.6433l.1641-.1142A.1509.1509,0,0,1,1010.6241,155.6433Z"/><path class="cls-35" d="M1032.8742,134.7237l.1161-.1616A.1489.1489,0,0,1,1032.8742,134.7237Z"/><path class="cls-39" d="M927.3715,155.6583l.1349.155A.175.175,0,0,1,927.3715,155.6583Z"/><path class="cls-18" d="M1028.8884,140.1494a.1928.1928,0,0,1,.14-.1622A.17.17,0,0,1,1028.8884,140.1494Z"/><path class="cls-37" d="M1030.5878,137.9909l.1193-.1512A.1388.1388,0,0,1,1030.5878,137.9909Z"/><path class="cls-39" d="M927.5,155.8061a.2033.2033,0,0,1,.1459.1563A.1721.1721,0,0,1,927.5,155.8061Z"/><path class="cls-18" d="M1029.0223,139.9941l.1307-.1552A.1586.1586,0,0,1,1029.0223,139.9941Z"/><path class="cls-37" d="M1030.8866,137.5856a.1929.1929,0,0,1,.1278-.1675A.1638.1638,0,0,1,1030.8866,137.5856Z"/><path class="cls-18" d="M1028.7606,140.3068a.1651.1651,0,0,1,.1388-.1689A.1833.1833,0,0,1,1028.7606,140.3068Z"/><path class="cls-41" d="M931.4391,159.3807a.223.223,0,0,1,.2021.14A.2484.2484,0,0,1,931.4391,159.3807Z"/><path class="cls-34" d="M937.16,162.6564l.1844.1023A.1832.1832,0,0,1,937.16,162.6564Z"/><path class="cls-21" d="M1024.0389,145.4222a.1986.1986,0,0,1,.1645-.1556A.1986.1986,0,0,1,1024.0389,145.4222Z"/><path class="cls-21" d="M1023.8976,145.5646a.1845.1845,0,0,1,.1535-.154A.1774.1774,0,0,1,1023.8976,145.5646Z"/><path class="cls-28" d="M991.6636,117.7552l-.1619.1216A.1572.1572,0,0,1,991.6636,117.7552Z"/><path class="cls-21" d="M1023.755,145.7071a.1846.1846,0,0,1,.1535-.1539A.177.177,0,0,1,1023.755,145.7071Z"/><path class="cls-3" d="M1053.2612,256.6221a3.8168,3.8168,0,0,0-7.4742-.6835,5.2867,5.2867,0,0,0-.112,2.32,3.7106,3.7106,0,0,0,2.4658,3.0372c.0888.0321.1733.0763.26.1148.072.0945.2151.0438.2862.14h1.4256c.108-.1425.3157-.001.422-.1481.1321-.051.2648-.1.3961-.1532a3.5758,3.5758,0,0,0,2.1738-2.3745A5.6615,5.6615,0,0,0,1053.2612,256.6221Zm-1.3046,2.1811a2.5557,2.5557,0,0,1-2.507,1.7456,2.604,2.604,0,0,1-2.5847-2.0335,5,5,0,0,1,.1087-2.67,2.6347,2.6347,0,0,1,2.2434-1.7132,2.6063,2.6063,0,0,1,2.793,1.9431A4.4224,4.4224,0,0,1,1051.9566,258.8032Z"/><path class="cls-3" d="M1011.5616,242.3663q-2.15-4.2945-4.3109-8.5837-4.434-8.8419-8.8634-17.6864-4.542-9.0653-9.0831-18.1309c-.9455-1.8873-1.86-3.7911-2.9273-5.6145a21.0387,21.0387,0,0,0-1.8075-2.7274,8.2684,8.2684,0,0,0-4.2627-2.8227,4.463,4.463,0,0,0-2.1761-.179,8.5315,8.5315,0,0,0-5.128,3.2277,22.959,22.959,0,0,0-1.3131,1.9471c-1.1088,1.8-2.06,3.6851-3.0061,5.5724q-7.9059,15.7756-15.8027,31.556-3.3449,6.681-6.6863,13.3637c-.0954.1906-.1936.38-.2745.5773a.14.14,0,0,0,.1227.2032,4.8892,4.8892,0,0,0,.498.0131q4.2048.001,8.41,0,.2138,0,.4275-.0033a.338.338,0,0,0,.337-.2119c.0561-.1308.1155-.26.1743-.39q1.1909-2.6238,2.383-5.247c.66-1.4448,1.3094-2.8952,2-4.3253.64-1.3237,1.3274-2.6243,1.9967-3.9337a1.0381,1.0381,0,0,1,.3266-.49h.6131l31.1443,0c.1426,0,.2856.0079.4275-.0013a.3617.3617,0,0,1,.3783.2532c.0686.1511.1473.2976.222.446.6187,1.2286,1.2152,2.469,1.8606,3.6834,1.703,3.2044,3.4272,6.3975,5.1433,9.595.0785.1463.1625.29.2392.437a.3253.3253,0,0,0,.2855.1787c.1182.0086.2372.0081.3558.0081q4.0625.0006,8.1247-.0006a.6579.6579,0,0,0,.4194-.0683A1.2586,1.2586,0,0,0,1011.5616,242.3663Zm-21.4707-23.3278c-.2135.0085-.4273.0088-.6409.0089q-5.3094.0006-10.6189,0-5.4162,0-10.8326-.0006c-.6955,0-.7016-.0073-.3783-.6444q2.85-5.6149,5.7038-11.2277,1.7081-3.3618,3.4175-6.723a10.0674,10.0674,0,0,1,.8891-1.4565,3.0066,3.0066,0,0,1,.7443-.76.7652.7652,0,0,1,1.0467-.0068,2.45,2.45,0,0,1,.61.5938,11.0546,11.0546,0,0,1,1.2223,2.001q2.1927,4.393,4.3813,8.7879,2.1759,4.3611,4.3545,8.7209a5.3134,5.3134,0,0,1,.236.5153A.134.134,0,0,1,990.0909,219.0385Z"/><path class="cls-6" d="M916.7057,259.6457a6.0148,6.0148,0,0,0-1.606-1.8747,1.7623,1.7623,0,0,1,.6089-.2475,1.9962,1.9962,0,0,0,1.3114-1.3008,2.3364,2.3364,0,0,0-.2591-1.9775,1.7161,1.7161,0,0,0-1.13-.7964,5.8868,5.8868,0,0,0-1.2679-.15c-1.019.0118-2.0383.0035-3.0575.0042q-.2132,0-.4263.0087a.1758.1758,0,0,0-.1847.1728c-.0113.1413-.0147.2835-.0148.4253q-.0012,3.4479.0008,6.8956c0,.189.02.3779.03.5668.2466,0,.4934-.0055.74.0016a.494.494,0,0,0,.363-.1418c-.0081-.7091-.0322-1.4186-.0183-2.1272a2.9493,2.9493,0,0,1,.0844-1.2462,7.1505,7.1505,0,0,1,1.266-.0413c.07-.0024.1413.0134.2122.0162a1.2745,1.2745,0,0,1,.9359.4413,7.29,7.29,0,0,1,.617.7761c.51.7665,1.0028,1.5448,1.5023,2.3185.3683-.0007.7367.0021,1.1049-.0037.1583-.0026.1564-.1327.169-.2448C917.3589,260.63,917.0188,260.1461,916.7057,259.6457ZM914.48,256.84q-1.2108,0-2.4216.002c-.1723,0-.2655-.0747-.2658-.25-.0012-.6883-.0047-1.3767.0006-2.065.0018-.23.0493-.2695.31-.2734.4035-.0061.8072-.0016,1.2108-.0015.38,0,.76-.007,1.14.0025a1.9413,1.9413,0,0,1,.7642.1377,1.1326,1.1326,0,0,1,.7613,1.0907,1.2061,1.2061,0,0,1-.7373,1.19A2.0236,2.0236,0,0,1,914.48,256.84Z"/><path class="cls-3" d="M977.0345,255.995a3.7285,3.7285,0,0,0-.3169-.94,2.8312,2.8312,0,0,0-1.8854-1.6038,5.0752,5.0752,0,0,0-1.1268-.1418c-.9248-.02-1.85-.0065-2.7755-.0061a1.61,1.61,0,0,0-.2131.0083.19.19,0,0,0-.1787.1822c-.0108.1414-.0143.2837-.0143.4257q-.0012,3.4152.0018,6.8305c0,.2116.0339.4231.0521.6347l3.4078.0181a3.1556,3.1556,0,0,1,.4088-.1091,2.8873,2.8873,0,0,0,2.4426-2.0081A5.9081,5.9081,0,0,0,977.0345,255.995Zm-1.2437,2.9376a1.9013,1.9013,0,0,1-1.2878,1.3162,3.3023,3.3023,0,0,1-.7682.1292c-.6152.0242-1.2315.0242-1.8473.0239-.2216,0-.2774-.0635-.2788-.3114-.0049-.9239-.0019-1.8479-.0021-2.7719,0-.9-.0034-1.8.0016-2.7008.0016-.2908.0437-.3356.3257-.336.5923-.0007,1.1844.0134,1.7767.0188a2.1514,2.1514,0,0,1,2.1939,1.7591A5.2886,5.2886,0,0,1,975.7908,258.9326Z"/><path class="cls-6" d="M961.3626,260.8221q-1.4041-3.45-2.8148-6.8965c-.3075-.7463-.1643-.6064-.9793-.6229-.071-.0015-.1422.0033-.2131.001a.3092.3092,0,0,0-.3182.229c-.0508.1325-.1024.2647-.1533.3971-.5257,1.3682-1.0545,2.7352-1.5761,4.105-.4206,1.1046-.8325,2.2126-1.2483,3.3191l1.0986.0312c.1-.2381.2057-.4736.297-.7148.1833-.4842.3662-.969.533-1.459a.3365.3365,0,0,1,.3647-.2561c.9195.0016,1.839.0048,2.7584-.0027a.39.39,0,0,1,.4131.299c.2616.7054.5348,1.4065.8036,2.1093l1.2247-.0055C961.49,261.1774,961.4336,260.9967,961.3626,260.8221Zm-4.8934-2.8431a12.3337,12.3337,0,0,1,.5722-1.6569c.1788-.5387.3711-1.073.5575-1.6092h0a.5765.5765,0,0,1-.0057-.1306c.0071-.0413.0217-.1.0514-.115.0707-.0368.1046.03.1385.0783a.3933.3933,0,0,1,.08.31c.3773,1.0377.781,2.0661,1.1595,3.1151A11.3345,11.3345,0,0,1,956.4692,257.979Z"/></g></g></g></g></svg>