<svg xmlns="http://www.w3.org/2000/svg" viewBox="0 0 915.0942 1301.3871"><defs><style>.cls-1{fill:#00629b;}.cls-2{fill:#75787b;}.cls-3{fill:#1d1d1b;}.cls-4{fill:#1e1d1b;}.cls-5{fill:#1e1d1c;}.cls-6{fill:#1e1e1c;}.cls-7{fill:#818d8b;}.cls-8{fill:#c5cecd;}.cls-9{fill:#b4b4b4;}.cls-10{fill:#53585a;}.cls-11{fill:#6dae55;}.cls-12{fill:#63a85b;}.cls-13{fill:#5fa75b;}.cls-14{fill:#399a56;}.cls-15{fill:#6aad58;}.cls-16{fill:#57a35a;}.cls-17{fill:#188d4c;}.cls-18{fill:#158c4a;}.cls-19{fill:#70b054;}.cls-20{fill:#1e914e;}.cls-21{fill:#188f4e;}.cls-22{fill:#249351;}.cls-23{fill:#329755;}.cls-24{fill:#2b9554;}.cls-25{fill:#72b152;}.cls-26{fill:#439d59;}.cls-27{fill:#5ba65b;}.cls-28{fill:#53a15a;}.cls-29{fill:#409d57;}.cls-30{fill:#279452;}.cls-31{fill:#77b549;}.cls-32{fill:#67aa59;}.cls-33{fill:#479f59;}.cls-34{fill:#78b545;}.cls-35{fill:#0d8847;}.cls-36{fill:#4fa05a;}.cls-37{fill:#138b48;}.cls-38{fill:#2f9654;}.cls-39{fill:#76b839;}.cls-40{fill:#75b44c;}.cls-41{fill:#76b73f;}.cls-42{fill:#73b24f;}.cls-43{fill:#4aa05a;}.cls-44{fill:#0a8644;}.cls-45{fill:#75b933;}.cls-46{fill:#77b642;}.cls-47{fill:#068542;}.cls-48{fill:#3c9b57;}.cls-49{fill:#018441;}.cls-50{fill:#74bb27;}.cls-51{fill:#75ba2c;}.cls-52{fill:#1f1f1d;}.cls-53{fill:#20201e;}.cls-54{fill:#21211f;}.cls-55{fill:#bed87e;}</style></defs><g id="Layer_2" data-name="Layer 2"><g id="UNI"><g id="ieee_uni_cas_rgb_pp_c"><path class="cls-1" d="M112.0548,1089.9681l-.2267,22.6659v7.7845c-.1537,9.6927-.46,14.1191-4.5039,18.3933-5.6467,5.9525-14.043,5.9525-16.791,5.9525-10.2252,0-16.1032-3.8162-19.0034-7.9367-2.67-3.6641-3.1269-7.7846-3.3567-16.0271v-5.6483c-.0776-11.905-.0776-14.0414-.3819-24.9559l.458-.458c5.19.0776,6.9446.0776,13.4312-.2282l.382.458c-.1522,7.5548-.2283,13.4312-.2283,19.6135,0,4.0445,0,8.0905.1522,12.1349.1537,4.8083.61,7.4787,1.7559,9.4629a9.0089,9.0089,0,0,0,7.7846,4.046,8.8157,8.8157,0,0,0,6.7164-2.7481c2.0587-2.4422,2.2885-6.1062,2.2885-14.119,0-9.3868-.3819-18.7736-.7639-28.162l.46-.458c4.35.0776,5.8749.0776,11.447-.2282Z"/><path class="cls-1" d="M156.941,1143.544c-6.1062,0-7.4042.0761-12.4407.2282l-.4564-.458c0-2.5943.0745-5.2663.0745-7.8606,0-2.9-.0745-13.3552-.2282-15.8734-.2283-2.7481-.61-7.2505-4.8083-7.2505-2.4407,0-4.2727,1.2964-5.8749,2.3661.0745,13.6595.1521,16.6373.6086,28.39l-.4565.458c-6.1062,0-7.2505,0-12.7465.2282l-.4565-.458c.0745-4.8844.1522-9.7687.1522-14.6531a212.4352,212.4352,0,0,0-1.0682-23.8878l.4564-.534c5.7259-.7623,7.0223-.9921,12.8988-2.2124l.7638.534-.1521,4.1966c3.5088-2.06,7.5547-4.5024,12.2093-4.5024,2.7481,0,7.0984.61,9.4645,4.5785,1.9065,3.13,1.9841,6.64,2.06,13.9669v5.9525c.1522,7.48.1522,9.6166.5341,16.333Z"/><path class="cls-1" d="M178.3509,1143.62c-6.1808-.0761-7.7085,0-13.203.2282l-.458-.5341c.23-6.2584.458-10.913.458-19.2316,0-10.8369-.2282-13.5089-.84-19.3093l.46-.458,13.1254-2.2884.5341.61c-.0761,6.4866-.23,13.0509-.23,19.5375,0,10.531.3074,15.035.6878,20.9115Zm-1.0682-48.3857c-5.4184.6862-6.8685.8384-12.0587,1.7544l-.5341-.458c.0776-1.45.0776-2.9763.0776-4.4264,0-1.8305-.0776-3.4343-.23-6.1807l.4565-.5341,12.4407-1.5278.458.4581-.23,10.38Z"/><path class="cls-1" d="M207.8605,1143.62c-5.4961-.0761-7.48,0-12.4392.2282l-.534-.5341c-1.68-6.2584-2.5183-9.0809-12.669-39.151l.3043-.61a100.4618,100.4618,0,0,0,13.3552-.84l.5341.458c1.0681,5.0365,1.3756,6.4866,3.2821,13.5849l1.45,5.8765,1.91,8.2426,3.8907-15.0351c1.5277-5.9525,1.7544-7.0222,2.8225-12.1348l.5372-.5341,10.6817-.23.3819.5357c-2.1363,6.2568-5.493,16.1792-7.5548,22.36-1.6022,4.8083-3.0523,9.5405-5.4929,17.1714Z"/><path class="cls-1" d="M258.1978,1132.5534l-.5341,8.6245-.46.61c-4.0429,1.6023-6.7909,2.7481-13.1254,2.7481-5.4961,0-15.8765-.916-20.3013-11.2189a25.418,25.418,0,0,1-1.832-9.9985c0-13.203,7.9367-21.0636,19.9194-21.0636a19.5462,19.5462,0,0,1,5.4184.6862c2.5959.6117,8.4708,2.4422,11.1412,11.4486a44.68,44.68,0,0,1,1.2234,11.371l-.4595.5341-24.6516.458a10.8665,10.8665,0,0,0,1.68,4.6561c1.8321,2.7465,4.962,4.1966,9.539,4.1966a23.3316,23.3316,0,0,0,11.9082-3.2805Zm-10.9146-14.1951a9.3293,9.3293,0,0,0-1.1458-5.2663,5.86,5.86,0,0,0-7.9367-1.832c-2.9,1.832-3.4343,5.038-3.664,7.4041Z"/><path class="cls-1" d="M287.1779,1115.61a5.7153,5.7153,0,0,0-3.1268-1.0681c-5.1918,0-5.1918,5.0381-5.1918,8.4723,0,5.2648.4595,13.8893.7638,20.0716l-.3819.5341c-6.1047-.0761-7.325,0-12.9732.2282l-.46-.458c.1553-6.3345.23-12.5929.23-18.85,0-10.6087-.23-14.0429-.6862-19.7673l.4564-.458c5.5737-.8383,7.0238-1.0681,12.669-2.2884l.6117.61-.23,7.0207c2.4437-5.6467,5.9525-7.4026,9.0825-7.4026.5341,0,1.0682.0761,1.6022.0761l.46.534-2.1363,12.4407Z"/><path class="cls-1" d="M313.8106,1118.6641c4.1982,1.6023,10.0731,3.8147,10.0731,12.211a13.22,13.22,0,0,1-.0746,1.6783c-1.3724,10.913-12.821,11.9827-18.6214,11.9827-5.5706,0-8.7782-1.2219-12.5168-2.5959l-.3819-.6862c.3043-3.8162.3819-4.6562.5341-8.6245l.6862-.3043a16.95,16.95,0,0,0,3.0554,2.1363,19.0889,19.0889,0,0,0,8.0889,2.1363c4.2727,0,6.0271-2.06,6.0271-3.9683,0-2.7465-3.3567-3.8923-5.4185-4.5786l-2.9-1.0681c-3.5864-1.374-9.9209-3.8162-9.9209-11.9827a11.4641,11.4641,0,0,1,2.0618-6.7164c3.9684-5.7228,11.4486-6.0286,15.1872-6.0286a38.8481,38.8481,0,0,1,11.6753,1.9081l.3819.458-.7607,8.3186-.6894.2283a16.5594,16.5594,0,0,0-9.5389-3.2045c-4.7322,0-5.3408,2.5182-5.3408,3.4342,0,2.1364,2.0587,2.9763,4.6545,3.8923Z"/><path class="cls-1" d="M343.0516,1143.62c-6.1823-.0761-7.7069,0-13.203.2282l-.4564-.5341c.2266-6.2584.4564-10.913.4564-19.2316,0-10.8369-.23-13.5089-.8384-19.3093l.4565-.458,13.1285-2.2884.5341.61c-.0777,6.4866-.23,13.0509-.23,19.5375,0,10.531.3043,15.035.6862,20.9115Zm-1.0681-48.3857c-5.4185.6862-6.8686.8384-12.0573,1.7544l-.534-.458c.0745-1.45.0745-2.9763.0745-4.4264,0-1.8305-.0745-3.4343-.23-6.1807l.46-.5341,12.4391-1.5278.46.4581-.23,10.38Z"/><path class="cls-1" d="M387.9456,1143.62c-5.7228,0-7.1729,0-12.4392.2282l-.3819-.458.1522-2.9763a13.9819,13.9819,0,0,1-10.0731,4.1221,16.1026,16.1026,0,0,1-9.9985-3.3582c-4.5024-3.74-6.1047-9.6927-6.1047-15.6452,0-7.8606,2.214-14.1951,7.5548-18.3172,5.8-4.5785,12.9763-4.4263,18.6991-4.2742.0776-8.699,0-10.6071-.46-17.7815l.382-.458,12.5944-1.9842.5341.458c-.3074,10.0746-.6118,18.3932-.6118,38.5409,0,9.9969.23,14.577.5341,21.4456Zm-15.1872-31.7484c-8.5453,0-10.2252,6.5627-10.2252,12.4391,0,1.5262,0,10.9906,7.4026,10.9906a9.6431,9.6431,0,0,0,5.1887-1.832c.23-9.2347.3074-11.2188.23-21.37A17.1228,17.1228,0,0,0,372.7584,1111.8717Z"/><path class="cls-1" d="M429.8493,1126.5248c0,7.1728,0,9.0809.5341,16.5612l-.3819.5341c-4.962-.0761-6.6419,0-12.1349.2282l-.4595-.5341V1140.49a15.7746,15.7746,0,0,1-10.6072,4.046c-7.48,0-13.3551-5.2663-13.3551-13.4328a12.2037,12.2037,0,0,1,5.7227-10.455c4.58-2.8241,8.8528-3.664,18.0129-4.8843a4.8108,4.8108,0,0,0-.9936-3.2822c-.9906-.9921-2.1364-1.45-4.9589-1.45-5.1142,0-10.0762,1.9842-12.7466,3.0524l-.6117-.3043.3819-8.3187.46-.6117a46.4646,46.4646,0,0,1,14.9574-2.5182c9.7687,0,12.8211,3.0523,14.3488,5.4945,1.9842,3.206,1.9842,6.1823,1.9065,13.0508Zm-12.5168-2.7481c-5.1886.6878-11.2188,1.5262-11.2188,6.5643,0,3.2045,2.2885,4.6546,5.0365,4.6546a12.3579,12.3579,0,0,0,6.1823-1.9842Z"/><path class="cls-1" d="M474.6719,1143.62c-5.7228,0-7.1729,0-12.4392.2282l-.3819-.458.1521-2.9763a13.9814,13.9814,0,0,1-10.073,4.1221,16.1023,16.1023,0,0,1-9.9985-3.3582c-4.5025-3.74-6.1047-9.6927-6.1047-15.6452,0-7.8606,2.214-14.1951,7.5548-18.3172,5.8-4.5785,12.9763-4.4263,18.6991-4.2742.0776-8.699,0-10.6071-.46-17.7815l.3819-.458,12.5945-1.9842.534.458c-.3074,10.0746-.6117,18.3932-.6117,38.5409,0,9.9969.23,14.577.5341,21.4456Zm-15.1872-31.7484c-8.5453,0-10.2252,6.5627-10.2252,12.4391,0,1.5262,0,10.9906,7.4026,10.9906a9.6431,9.6431,0,0,0,5.1887-1.832c.23-9.2347.3074-11.2188.23-21.37A17.1228,17.1228,0,0,0,459.4847,1111.8717Z"/><path class="cls-1" d="M114.4986,1172.6391c-.0777,8.5468-.1522,17.0192-.1522,25.566,0,9.1586.0745,16.6373.1522,27.704l-.382.3819c-4.046,0-5.4184,0-10.073.2283l-.5357-.382-6.7924-9.9208-7.6324-11.2189c-5.1887-7.5548-6.409-9.5389-9.997-15.493l.458,10.2267.23,9.3884.7623,16.7133-.38.458c-4.4279,0-6.03,0-11.1443.2283l-.38-.458c.0761-7.4027.2283-14.8814.2283-22.36,0-10.2267-.2283-19.0034-.61-30.8339l.3819-.458c5.5706.0776,6.5627.0776,12.5929-.2282l.5341.3819c1.9065,3.0523,3.0523,4.7306,8.7751,13.4312l6.9461,10.1507c3.8923,5.8,4.2727,6.41,6.4867,10.1507l-.3043-12.5929-.3059-10.5326-.5341-10.3028.38-.458c4.7322.0776,6.03,0,10.8384-.2282Z"/><path class="cls-1" d="M157.222,1209.1958c0,7.1728,0,9.0809.5341,16.5612l-.3819.534c-4.9589-.076-6.6388,0-12.1349.2283l-.4564-.5341v-2.8241a15.7758,15.7758,0,0,1-10.6087,4.046c-7.4787,0-13.3567-5.2663-13.3567-13.4328a12.2,12.2,0,0,1,5.7259-10.455c4.5785-2.8241,8.8527-3.6641,18.01-4.8844a4.8164,4.8164,0,0,0-.99-3.2821c-.9937-.9921-2.1379-1.45-4.962-1.45-5.1142,0-10.0731,1.9842-12.745,3.0524l-.61-.3044.3819-8.3186.4565-.6117a46.4831,46.4831,0,0,1,14.959-2.5183c9.7687,0,12.8226,3.0524,14.3472,5.4946,1.9842,3.206,1.9842,6.1823,1.91,13.0508Zm-12.5167-2.7481c-5.1887.6878-11.2189,1.5262-11.2189,6.5643,0,3.2045,2.2916,4.6545,5.0381,4.6545a12.3525,12.3525,0,0,0,6.1808-1.9841Z"/><path class="cls-1" d="M195.3686,1215.6824l-.3043,9.1585-.4581.4581a31.9555,31.9555,0,0,1-9.8448,1.6783c-17.1713,0-21.7514-11.9051-21.7514-20.6817,0-7.7846,3.5119-21.37,21.4471-21.37a31.7563,31.7563,0,0,1,10.6848,1.9841l.38.458c-.61,4.0445-.6878,5.1142-.9921,9.1586l-.7639.2283c-2.2885-1.5262-4.12-2.7465-7.4787-2.7465-7.4026,0-9.8448,6.4105-9.8448,11.9811,0,4.58,1.7544,11.7529,10.3789,11.7529A13.5942,13.5942,0,0,0,194.76,1215.3Z"/><path class="cls-1" d="M214.63,1226.291c-6.1823-.076-7.71,0-13.203.2283l-.46-.5341c.23-6.2584.46-10.913.46-19.2316,0-10.8369-.23-13.5089-.8415-19.3093l.46-.458,13.1254-2.2885.5341.61c-.0745,6.4866-.23,13.0508-.23,19.5375,0,10.531.3074,15.035.6894,20.9115Zm-1.0713-48.3856c-5.4184.6862-6.8685.8383-12.0572,1.7544l-.5341-.458c.0776-1.45.0776-2.9763.0776-4.4264,0-1.8305-.0776-3.4343-.23-6.1808l.4564-.5341,12.4423-1.5277.4564.458-.23,10.38Z"/><path class="cls-1" d="M240.8711,1227.2071c-10.9114,0-14.6531-4.1221-16.6373-7.0984-2.8225-4.12-3.5864-9.0809-3.5864-13.9653,0-14.0429,7.48-21.1413,20.7578-21.1413a27.469,27.469,0,0,1,9.3123,1.45c10.6847,4.1982,10.6847,16.5612,10.6847,19.5375C261.4022,1217.4383,257.052,1227.2071,240.8711,1227.2071Zm5.1142-31.9782a6.4237,6.4237,0,0,0-4.8844-2.3661,6.3157,6.3157,0,0,0-5.5706,3.4342c-1.5277,2.672-1.5277,7.5564-1.5277,9.7688,0,7.4042,1.45,9.9985,2.748,11.2949a6.1693,6.1693,0,0,0,4.2727,1.7559c6.3344,0,7.1759-6.9446,7.1759-13.203C248.1992,1201.7931,247.8173,1197.4428,245.9853,1195.2289Z"/><path class="cls-1" d="M304.4766,1226.215c-6.1047,0-7.4026.076-12.4391.2282l-.46-.458c0-2.5943.0776-5.2663.0776-7.8606,0-2.9-.0776-13.3552-.23-15.8735-.2266-2.748-.6086-7.25-4.8067-7.25-2.4437,0-4.2727,1.2963-5.878,2.3661.0776,13.661.1552,16.6372.6117,28.39l-.4565.458c-6.1077,0-7.25,0-12.7465.2282l-.4565-.458c.0746-4.8844.1522-9.7687.1522-14.6531a212.7989,212.7989,0,0,0-1.0682-23.8878l.4565-.5341c5.7227-.7623,7.0207-.9921,12.8987-2.2124l.7638.5341-.1552,4.1966c3.5119-2.06,7.5579-4.5024,12.2125-4.5024,2.748,0,7.0983.61,9.4644,4.5785,1.9066,3.13,1.9842,6.64,2.0587,13.9668v5.9526c.1522,7.48.1522,9.6166.5341,16.333Z"/><path class="cls-1" d="M346.3275,1209.1958c0,7.1728,0,9.0809.5341,16.5612l-.3819.534c-4.962-.076-6.6419,0-12.1349.2283l-.46-.5341v-2.8241a15.7745,15.7745,0,0,1-10.6071,4.046c-7.48,0-13.3552-5.2663-13.3552-13.4328a12.2036,12.2036,0,0,1,5.7228-10.455c4.58-2.8241,8.8527-3.6641,18.0128-4.8844a4.8106,4.8106,0,0,0-.9936-3.2821c-.9906-.9921-2.1364-1.45-4.9589-1.45-5.1142,0-10.0762,1.9842-12.7466,3.0524l-.6117-.3044.3819-8.3186.46-.6117a46.4648,46.4648,0,0,1,14.9574-2.5183c9.7688,0,12.8211,3.0524,14.3488,5.4946,1.9842,3.206,1.9842,6.1823,1.9066,13.0508Zm-12.5167-2.7481c-5.1887.6878-11.2189,1.5262-11.2189,6.5643,0,3.2045,2.2885,4.6545,5.0366,4.6545a12.3586,12.3586,0,0,0,6.1823-1.9841Z"/><path class="cls-1" d="M367.2561,1226.291c-5.5706-.076-7.6324,0-12.7465.2283l-.4565-.5341c.3043-7.5548.4565-12.1349.4565-20.3774,0-4.5025,0-9.0049-.0746-13.5073-.1552-12.3647-.23-14.8829-.9936-24.1937l.3043-.458,13.0509-2.06.534.5341c-.3043,8.2425-.3819,11.6768-.3819,18.9273,0,24.116.3819,32.13.7639,40.907Z"/><path class="cls-1" d="M435.8609,1226.291c-5.7259,0-7.176,0-12.4392.2283l-.3819-.458.1521-2.9763a13.982,13.982,0,0,1-10.073,4.1221,16.0915,16.0915,0,0,1-9.9985-3.3582c-4.5025-3.74-6.1047-9.6927-6.1047-15.6452,0-7.8607,2.2108-14.1951,7.5548-18.3172,5.8-4.5785,12.9732-4.4264,18.696-4.2742.0776-8.699,0-10.6071-.4565-17.7815l.3819-.458,12.5913-1.9842.5341.458c-.3043,10.0746-.6086,18.3932-.6086,38.5409,0,9.9969.2267,14.577.5341,21.4455Zm-15.1872-31.7484c-8.5485,0-10.2283,6.5627-10.2283,12.4392,0,1.5262,0,10.9906,7.4026,10.9906a9.6538,9.6538,0,0,0,5.1918-1.832c.2267-9.2347.3043-11.2189.2267-21.37A17.12,17.12,0,0,0,420.6737,1194.5426Z"/><path class="cls-1" d="M478.0813,1215.2244l-.5341,8.6245-.4564.61c-4.046,1.6023-6.7941,2.7481-13.1285,2.7481-5.493,0-15.8734-.9161-20.3014-11.2189a25.4189,25.4189,0,0,1-1.8289-9.9985c0-13.203,7.9367-21.0636,19.9163-21.0636a19.5687,19.5687,0,0,1,5.4216.6862c2.5928.6117,8.4708,2.4422,11.1412,11.4486a44.6748,44.6748,0,0,1,1.22,11.371l-.4565.5341-24.6516.458a10.7857,10.7857,0,0,0,1.68,4.6561c1.832,2.7465,4.9589,4.1966,9.539,4.1966a23.3269,23.3269,0,0,0,11.905-3.2806ZM467.17,1201.0293a9.3292,9.3292,0,0,0-1.1458-5.2663,5.8569,5.8569,0,0,0-7.9367-1.8305c-2.9,1.8305-3.4343,5.0365-3.6641,7.4026Z"/><path class="cls-1" d="M523.3324,1172.6391c-.23,10.531-.382,21.0636-.382,31.5962,0,11.0651.1522,14.5755.5341,21.5977l-.46.458c-6.3345,0-7.8591,0-13.5819.2283l-.3819-.458c.3043-7.9367.4564-12.5913.4564-21.5978,0-19.4614-.23-23.3536-.6862-31.5962l.3043-.458c5.4961.0776,7.2505.0776,13.8147-.2282Z"/><path class="cls-1" d="M568.86,1226.215c-6.1047,0-7.4027.076-12.4392.2282l-.46-.458c0-2.5943.0776-5.2663.0776-7.8606,0-2.9-.0776-13.3552-.23-15.8735-.2267-2.748-.6086-7.25-4.8067-7.25-2.4438,0-4.2727,1.2963-5.878,2.3661.0776,13.661.1552,16.6372.6117,28.39l-.4565.458c-6.1078,0-7.25,0-12.7465.2282l-.4565-.458c.0745-4.8844.1522-9.7687.1522-14.6531a212.7989,212.7989,0,0,0-1.0682-23.8878l.4564-.5341c5.7228-.7623,7.0207-.9921,12.8988-2.2124l.7638.5341-.1552,4.1966c3.5119-2.06,7.5578-4.5024,12.2124-4.5024,2.7481,0,7.0984.61,9.4645,4.5785,1.9065,3.13,1.9842,6.64,2.0587,13.9668v5.9526c.1521,7.48.1521,9.6166.5341,16.333Z"/><path class="cls-1" d="M589.6828,1216.0643a32.1827,32.1827,0,0,0,7.5548,1.9081l1.832.3043c4.962,1.1458,13.3551,2.9763,13.3551,12.5929,0,7.4026-6.4089,14.4248-20.3758,14.4248-2.9778,0-8.7751-.1537-13.0509-3.206a10.7619,10.7619,0,0,1-4.7322-8.6245c0-4.96,3.5864-7.8606,5.878-9.615l-3.2045-2.29v-.6862c1.7544-3.13,2.8971-5.19,5.0365-9.3107a13.1128,13.1128,0,0,1-5.1141-4.2742,12.3682,12.3682,0,0,1-2.214-7.4027,12.7987,12.7987,0,0,1,4.8844-10.3028c4.962-4.1221,12.2125-3.97,17.6309-3.8162l3.5088.0761c4.81.076,6.4121,0,12.287-.23l.46.3819-.5341,7.6324-.46.382-5.2663-.3059a9.9749,9.9749,0,0,1,2.0619,6.64c0,7.4027-5.8,10.6848-9.7688,12.0572a21.3811,21.3811,0,0,1-8.5484.9921Zm-1.9842,11.2949a7.2492,7.2492,0,0,0-2.214,5.0365c0,2.672,1.91,5.8765,7.5579,5.8765,5.0365,0,6.9431-2.3661,6.9431-4.6546a3.3675,3.3675,0,0,0-1.5246-2.9763c-.916-.7638-.9937-.7638-7.7846-2.5182Zm4.4279-34.42c-2.8257,0-5.1141,2.4422-5.1141,6.2584a10.5234,10.5234,0,0,0,.6862,3.9684,4.9377,4.9377,0,0,0,4.58,3.206c1.0681,0,4.8067-.534,4.8843-6.7164C597.2376,1196.297,595.6353,1192.9388,592.1265,1192.9388Z"/><path class="cls-1" d="M651.5742,1215.2244l-.5341,8.6245-.46.61c-4.0429,1.6023-6.7909,2.7481-13.1254,2.7481-5.4961,0-15.8765-.9161-20.3013-11.2189a25.4162,25.4162,0,0,1-1.8321-9.9985c0-13.203,7.9367-21.0636,19.9194-21.0636a19.5474,19.5474,0,0,1,5.4185.6862c2.5959.6117,8.4708,2.4422,11.1412,11.4486a44.68,44.68,0,0,1,1.2234,11.371l-.46.5341-24.6517.458a10.8667,10.8667,0,0,0,1.68,4.6561c1.832,2.7465,4.962,4.1966,9.539,4.1966a23.33,23.33,0,0,0,11.9081-3.2806ZM640.66,1201.0293a9.3292,9.3292,0,0,0-1.1458-5.2663,5.8569,5.8569,0,0,0-7.9367-1.8305c-2.9,1.8305-3.4343,5.0365-3.6641,7.4026Z"/><path class="cls-1" d="M696.108,1226.215c-6.1047,0-7.4026.076-12.4392.2282l-.46-.458c0-2.5943.0776-5.2663.0776-7.8606,0-2.9-.0776-13.3552-.23-15.8735-.2266-2.748-.6086-7.25-4.8067-7.25-2.4437,0-4.2727,1.2963-5.878,2.3661.0776,13.661.1552,16.6372.6117,28.39l-.4565.458c-6.1078,0-7.25,0-12.7465.2282l-.4565-.458c.0745-4.8844.1522-9.7687.1522-14.6531a212.7989,212.7989,0,0,0-1.0682-23.8878l.4565-.5341c5.7227-.7623,7.0207-.9921,12.8987-2.2124l.7638.5341-.1552,4.1966c3.5119-2.06,7.5579-4.5024,12.2125-4.5024,2.748,0,7.0983.61,9.4644,4.5785,1.9065,3.13,1.9842,6.64,2.0587,13.9668v5.9526c.1521,7.48.1521,9.6166.5341,16.333Z"/><path class="cls-1" d="M717.5179,1226.291c-6.1824-.076-7.707,0-13.203.2283l-.4565-.5341c.2267-6.2584.4565-10.913.4565-19.2316,0-10.8369-.23-13.5089-.8384-19.3093l.4564-.458,13.1285-2.2885.5341.61c-.0776,6.4866-.23,13.0508-.23,19.5375,0,10.531.3043,15.035.6862,20.9115Zm-1.0682-48.3856c-5.4185.6862-6.8685.8383-12.0572,1.7544l-.5341-.458c.0745-1.45.0745-2.9763.0745-4.4264,0-1.8305-.0745-3.4343-.23-6.1808l.46-.5341,12.4391-1.5277.46.458-.23,10.38Z"/><path class="cls-1" d="M759.6669,1215.2244l-.5341,8.6245-.4595.61c-4.0429,1.6023-6.791,2.7481-13.1254,2.7481-5.4961,0-15.8766-.9161-20.3014-11.2189a25.418,25.418,0,0,1-1.832-9.9985c0-13.203,7.9367-21.0636,19.9194-21.0636a19.5474,19.5474,0,0,1,5.4185.6862c2.5959.6117,8.4708,2.4422,11.1412,11.4486a44.6841,44.6841,0,0,1,1.2234,11.371l-.46.5341-24.6516.458a10.8667,10.8667,0,0,0,1.68,4.6561c1.832,2.7465,4.962,4.1966,9.5389,4.1966a23.3305,23.3305,0,0,0,11.9082-3.2806Zm-10.9145-14.1951a9.33,9.33,0,0,0-1.1458-5.2663,5.8569,5.8569,0,0,0-7.9367-1.8305c-2.9,1.8305-3.4343,5.0365-3.6641,7.4026Z"/><path class="cls-1" d="M788.6471,1198.2812a5.7175,5.7175,0,0,0-3.13-1.0681c-5.1887,0-5.1887,5.038-5.1887,8.4723,0,5.2648.4565,13.8892.7639,20.0716l-.3819.534c-6.1078-.076-7.3281,0-12.9764.2283l-.4564-.458c.1521-6.3345.23-12.5913.23-18.85,0-10.6087-.23-14.043-.6893-19.7673l.46-.458c5.5706-.8384,7.0207-1.0682,12.6689-2.2885l.6117.61-.23,7.0207c2.4407-5.6467,5.9526-7.4026,9.0825-7.4026.5341,0,1.0682.076,1.6023.076l.4564.5341-2.1363,12.4407Z"/><path class="cls-1" d="M809.16,1226.291c-6.1824-.076-7.707,0-13.2031.2283l-.4564-.5341c.2267-6.2584.4564-10.913.4564-19.2316,0-10.8369-.23-13.5089-.8383-19.3093l.4564-.458,13.1285-2.2885.5341.61c-.0776,6.4866-.23,13.0508-.23,19.5375,0,10.531.3043,15.035.6862,20.9115Zm5.1886-58.3842c-2.4406,3.74-5.8749,9.0065-8.241,12.8988l-.5341.3043H797.329l-.3043-.4581a83.2738,83.2738,0,0,0,4.6546-12.745l.3819-.3819,12.06-.1521Z"/><path class="cls-1" d="M850.7062,1209.1958c0,7.1728,0,9.0809.5341,16.5612l-.382.534c-4.962-.076-6.6418,0-12.1348.2283l-.46-.5341v-2.8241a15.7741,15.7741,0,0,1-10.6071,4.046c-7.48,0-13.3551-5.2663-13.3551-13.4328a12.2034,12.2034,0,0,1,5.7227-10.455c4.58-2.8241,8.8527-3.6641,18.0129-4.8844a4.81,4.81,0,0,0-.9937-3.2821c-.99-.9921-2.1363-1.45-4.9589-1.45-5.1141,0-10.0761,1.9842-12.7465,3.0524l-.6117-.3044.3819-8.3186.46-.6117a46.4638,46.4638,0,0,1,14.9574-2.5183c9.7687,0,12.821,3.0524,14.3488,5.4946,1.9841,3.206,1.9841,6.1823,1.9065,13.0508Zm-12.5168-2.7481c-5.1887.6878-11.2188,1.5262-11.2188,6.5643,0,3.2045,2.2885,4.6545,5.0365,4.6545a12.3579,12.3579,0,0,0,6.1823-1.9841Z"/><path class="cls-1" d="M76.6843,1253.5028c-.2018,4.4745-.3354,9.7517-.3354,21.2376,0,12.8226.1336,18.3.5341,25.1779l-.4.4674c-2.9375.0667-3.8721.0667-7.412.2l-.4006-.4673c.1336-4.0739.2671-7.6138.2671-16.229,0-10.0839,0-20.101-.4689-30.12l.3354-.5341c2.9374,0,4.0056,0,7.4119-.2Z"/><path class="cls-1" d="M115.0357,1294.91c-.2018,2.2714-.2018,2.7387-.3353,5.0085l-.4673.4674c-13.0229,0-15.0925.0667-27.7832.2l-.3322-.4673c.1987-5.2756.4-8.8822.4-21.104,0-11.2188,0-17.6309-.4688-25.3115l.4-.4673c13.158-.0668,15.7617-.0668,28.0518-.2l.4.4673c-.2018,2.0044-.3353,2.8055-.4689,5.21l-.4005.4673c-8.6152-.2671-11.4859-.2671-19.9691-.3338-.1987,6.1435-.1987,8.08-.1987,14.2246,8.213.0667,10.7515,0,18.8993-.1335l.3338.4673a47.3685,47.3685,0,0,0-.3338,5.1421l-.4005.4673c-7.7473-.2-9.4163-.2-18.4988-.2-.1336,7.7473-.0683,9.6166,0,15.9619,10.0839,0,12.1534,0,20.77-.3338Z"/><path class="cls-1" d="M150.237,1294.91c-.2,2.2714-.2,2.7387-.3338,5.0085l-.4688.4674c-13.0229,0-15.0925.0667-27.7816.2l-.3338-.4673c.2-5.2756.4021-8.8822.4021-21.104,0-11.2188,0-17.6309-.4689-25.3115l.4006-.4673c13.1564-.0668,15.7616-.0668,28.05-.2l.4.4673c-.2,2.0044-.3338,2.8055-.4673,5.21l-.4006.4673c-8.6167-.2671-11.4874-.2671-19.969-.3338-.2,6.1435-.2,8.08-.2,14.2246,8.2146.0667,10.7515,0,18.8993-.1335l.3354.4673a47.7951,47.7951,0,0,0-.3354,5.1421l-.4.4673c-7.7473-.2-9.4163-.2-18.4988-.2-.1335,7.7473-.0668,9.6166,0,15.9619,10.0839,0,12.155,0,20.77-.3338Z"/><path class="cls-1" d="M185.4384,1294.91c-.1988,2.2714-.1988,2.7387-.3323,5.0085l-.4689.4674c-13.0229,0-15.094.0667-27.7816.2l-.3353-.4673c.2018-5.2756.4005-8.8822.4005-21.104,0-11.2188,0-17.6309-.4657-25.3115l.4005-.4673c13.1565-.0668,15.7617-.0668,28.0487-.2l.4.4673c-.1987,2.0044-.3322,2.8055-.4657,5.21l-.4022.4673c-8.6151-.2671-11.4874-.2671-19.9675-.3338-.2018,6.1435-.2018,8.08-.2018,14.2246,8.2161.0667,10.753,0,18.9009-.1335l.3338.4673a47.3685,47.3685,0,0,0-.3338,5.1421l-.4006.4673c-7.7473-.2-9.4178-.2-18.5-.2-.1335,7.7473-.0652,9.6166,0,15.9619,10.0854,0,12.1566,0,20.77-.3338Z"/><path class="cls-1" d="M229.438,1273.6722c4.8751,2.1379,11.3555,4.9418,11.3555,13.49,0,7.48-5.5427,14.2246-17.1652,14.2246a28.9257,28.9257,0,0,1-13.2216-2.9375l-.267-.4673c.267-2.3382.3322-3.6066.534-6.1451l.6676-.267a19.6941,19.6941,0,0,0,11.753,3.94c6.8778,0,9.75-3.54,9.75-7.547,0-4.6748-3.8721-6.4773-8.2131-8.1479l-3.3411-1.4687c-4.7416-2.2031-11.0853-5.0753-11.0853-13.2232a12.3327,12.3327,0,0,1,2.0711-7.0129c3.071-4.4078,8.6136-5.8765,14.0228-5.8765a34.9332,34.9332,0,0,1,12.023,2.1363l.3323.5357c-.2671,2.5369-.3323,3.4715-.5341,5.8764l-.5341.2671c-2.8722-1.4688-6.0084-3.0726-11.017-3.0726-5.5458,0-9.0173,2.6052-9.0173,6.5457,0,3.0057,2.0028,4.4077,3.4063,5.2756a35.8265,35.8265,0,0,0,5.1421,2.4049Z"/><path class="cls-1" d="M262.045,1295.11c-.2018,2.2047-.2018,2.672-.267,4.608l-.3354.4006a18.1576,18.1576,0,0,1-5.0086.6009c-1.6022,0-5.81,0-7.8808-3.4716-1.2017-1.9376-1.2017-3.54-1.2017-11.4206l.1336-14.6935c-2.3382,0-2.4034.0667-4.81.1335l-.267-.4006c.1335-2.1363.1335-2.67.1335-4.8083l.4005-.4c1.4719,0,2.3382.0667,4.5429,0-.0684-1.402-.0684-2.8723-.0684-4.2742q-.0978-1.9028-.1987-3.8069l.3323-.4673c3.0057-.7344,3.7416-.9347,6.8126-1.8693l.4689.3338c-.2018,4.4077-.2671,5.2756-.2671,10.1506,2.804-.0667,3.6051-.0667,7.412-.2l.3353.4c-.1335,1.7373-.2018,2.4717-.2018,4.7416l-.3322.4c-3.3412-.0667-3.7417-.1335-7.2816-.1335l-.1335,12.4221c.0683.8011.0683,4.608.0683,5.5442,0,4.875.5993,6.4105,3.94,6.4105a9.103,9.103,0,0,0,3.2045-.6008Z"/><path class="cls-1" d="M296.987,1265.8582c-.1335,5.0753-.2018,9.8168-.2018,15.2275,0,8.2146.2018,13.1565.3354,16.0271,0,.9362.0652,1.8709.1335,2.8055l-.2671.4006c-3.2076.0668-3.7416.1335-6.8126.267l-.4006-.4.0652-2.804a17.0637,17.0637,0,0,1-10.4829,3.8054,12.4636,12.4636,0,0,1-7.6138-2.27c-4.2757-3.4731-4.2757-9.1492-4.3409-14.3581v-4.1407c-.1336-9.5514-.1336-10.62-.3354-14.2261l.3354-.4674c3.1392-.0667,3.7385-.0667,6.8778-.3338l.4006.4674-.2671,14.6267c0,1.8025-.0652,3.1377,0,6.3438.0684,2.8054.2019,8.8154,6.9462,8.8154,3.94,0,6.7444-2.2031,8.3466-3.4731.0683-3.6066.0683-6.6776.0683-10.5512,0-9.2828-.0683-11.1536-.4689-15.4946l.4006-.4673c3.0741-.0668,3.8069-.0668,6.881-.2671Z"/><path class="cls-1" d="M327.6409,1248.4943c3.4063-.6009,4.0739-.7344,7.08-1.402l.4657.4006c-.4657,9.2828-.534,25.8455-.534,32.5231,0,10.3525.267,15.2943.534,19.9023l-.3322.4674c-2.9406,0-3.7417.0667-6.8127.2l-.4688-.4.1335-2.47a14.1309,14.1309,0,0,1-9.216,3.3381c-8.8807,0-15.0258-7.0114-15.0258-17.1637,0-7.2784,3.071-11.8864,5.878-14.3581,4.8751-4.4077,11.2189-4.608,14.69-4.608,1.4035,0,2.0711,0,3.8752.1335a148.1787,148.1787,0,0,0-.6024-16.1622Zm.0652,21.9719c-1.1334-.0668-1.9345-.2-3.338-.2-2.0712,0-6.4773.1335-9.6849,3.1393-1.4688,1.4019-3.8721,4.5412-3.8721,10.4844,0,3.8069,1.0681,6.5457,2.4717,8.2147a8.7887,8.7887,0,0,0,6.8778,3.0057,11.0774,11.0774,0,0,0,7.48-2.939C327.7744,1283.4223,327.7744,1281.42,327.7061,1270.4662Z"/><path class="cls-1" d="M370.8239,1292.2378c-.3353,2.672-.4037,3.34-.5372,5.9448l-.4005.4673a21.8122,21.8122,0,0,1-10.6848,2.5369c-10.9518,0-17.83-6.277-17.83-17.898,0-12.4221,7.4771-18.4988,16.2274-18.4988,5.2756,0,8.9489,2.2031,10.9518,4.608,3.8068,4.5413,3.6733,11.1536,3.6081,14.0911l-.4689.4c-10.4177-.0667-12.2217-.0667-23.1735,0,.0652,2.3382.267,5.611,2.5369,8.3482a10.8341,10.8341,0,0,0,8.6167,3.6066,17.4426,17.4426,0,0,0,5.81-1.0014,16.7784,16.7784,0,0,0,4.8067-2.939Zm-6.2134-17.4307a7.4634,7.4634,0,0,0-7.2784-5.2088c-3.7386,0-8.1478,2.5384-8.8154,9.216,8.0795.0668,10.6195,0,16.7615-.0667A14.5615,14.5615,0,0,0,364.6105,1274.8071Z"/><path class="cls-1" d="M408.2469,1300.3189c-3.2045.0668-3.605.0668-6.6791.267l-.4658-.4673c0-.7344.0652-1.4687.0652-2.2031.0684-3.2728.0684-6.5456.0684-9.8184,0-10.2842-.0684-10.9518-.4006-12.3553-1.27-5.0753-5.0769-5.0753-6.0115-5.0753-4.0057,0-7.08,2.3381-8.8807,3.74-.0683,11.6209.0652,17.6977.5341,25.5117l-.4006.4006c-3.2728.0668-3.8069.0668-7.0145.267l-.3322-.4673c.0652-3.74.1987-7.3467.1987-12.2885,0-10.6848-.4658-16.3625-.8011-20.837l.4-.4673c3.3412-.6009,3.94-.7344,7.08-1.3352l.4689.4673-.0683,3.4731a20.2284,20.2284,0,0,1,11.756-4.1407,11.5485,11.5485,0,0,1,5.5427,1.2684,9.047,9.047,0,0,1,3.8721,4.341c.8694,2.0044.9346,4.0072,1.0029,8.1479v7.814c.1988,7.8141.2671,10.82.4658,13.3567Z"/><path class="cls-1" d="M432.3893,1295.11c-.1987,2.2047-.1987,2.672-.267,4.608l-.3323.4006a18.1828,18.1828,0,0,1-5.0116.6009c-1.6023,0-5.81,0-7.8778-3.4716-1.2048-1.9376-1.2048-3.54-1.2048-11.4206l.1336-14.6935c-2.3351,0-2.4034.0667-4.8068.1335l-.267-.4006c.1335-2.1363.1335-2.67.1335-4.8083l.4006-.4c1.4687,0,2.3381.0667,4.54,0-.0652-1.402-.0652-2.8723-.0652-4.2742q-.1026-1.9028-.2019-3.8069l.3354-.4673c3.0057-.7344,3.7386-.9347,6.8126-1.8693l.4658.3338c-.1987,4.4077-.267,5.2756-.267,10.1506,2.807-.0667,3.6081-.0667,7.415-.2l.3323.4c-.1336,1.7373-.1988,2.4717-.1988,4.7416l-.3353.4c-3.338-.0667-3.7386-.1335-7.2784-.1335l-.1336,12.4221c.0652.8011.0652,4.608.0652,5.5442,0,4.875.6024,6.4105,3.94,6.4105a9.1085,9.1085,0,0,0,3.2076-.6008Z"/><path class="cls-1" d="M458.2923,1300.5859l-.3322-.4673c.1335-3.206.1987-6.277.1987-12.3553,0-2.8707.0683-16.83.0683-19.9675,0-7.013-.2018-10.62-.4689-14.0927l.3354-.4673,8.949-.1335c1.3352-.0668,3.4063-.0668,5.21-.0668,3.9373,0,8.1447.1335,11.4859,2.0711a10.1061,10.1061,0,0,1,5.2756,9.1493c0,2.3366-.6676,9.0158-9.952,11.2856a15.8916,15.8916,0,0,1,6.1451,1.2032,10.3954,10.3954,0,0,1,6.3438,10.084c0,6.145-3.8069,10.486-9.1478,12.422-3.54,1.2685-7.08,1.2685-12.3553,1.2685Zm7.2132-27.1807c6.0116.0667,10.62,0,13.4235-2.2047a7.7667,7.7667,0,0,0,2.7387-5.81,7.0138,7.0138,0,0,0-1.8693-4.7415c-2.3381-2.2714-6.4773-2.2714-8.0143-2.2714-2.1363,0-4.2074.0668-6.2786.2Zm0,5.6094c0,7.6138,0,8.7487.2671,16.0287h1.27c5.0085,0,9.0825.0667,11.6877-1.0014a7.5652,7.5652,0,0,0,5.0086-7.3468c0-7.814-8.6168-7.8808-11.8213-7.8808-.6024,0-1.2017,0-4.81.1335Z"/><path class="cls-1" d="M513.9393,1272.6041a6.8746,6.8746,0,0,0-2.6735-.6009,4.9843,4.9843,0,0,0-2.8039.8679c-2.7387,1.936-2.7387,4.8751-2.7387,11.8212,0,7.5455.2018,11.4859.4688,15.226l-.3353.4674c-3.1393,0-3.8721.0667-7.08.2l-.3323-.4c.0653-5.0754.1336-9.6834.1336-15.8952,0-10.6847-.2019-13.4235-.6024-17.2971l.4-.4673c2.54-.4674,4.1423-.8012,6.9462-1.3352l.4006.4005-.3323,5.6762c.8011-2.1363,2.4686-6.41,8.1479-6.41a6.9289,6.9289,0,0,1,1.8693.2l.267.4006c-.6676,3.206-.8011,3.8736-1.27,6.8127Z"/><path class="cls-1" d="M544.7857,1286.6284a125.852,125.852,0,0,0,.4006,13.3567l-.3323.3338c-3.1393.0668-3.6734.1335-6.7443.267l-.27-.4.0683-2.4034a14.315,14.315,0,0,1-9.3495,3.4048c-6.6791,0-11.3524-4.5413-11.3524-11.1521,0-8.949,7.4772-11.8212,19.5-13.2232l1.1333-.1335c0-1.8041,0-3.0725-.5993-4.1407-.6676-1.2032-2.2046-2.4717-5.5426-2.4717-4.341,0-7.3468,1.3352-10.1507,2.5385l-.5341-.3338c.1336-3.0726.1336-3.4731.1988-4.8751l.4005-.4021a34.4445,34.4445,0,0,1,11.5542-2.2031c4.9434,0,9.75,1.669,11.1536,6.8794a44.8431,44.8431,0,0,1,.4658,8.3466Zm-7.48-4.8751c-6.7443,1.0014-13.0229,1.9361-13.0229,7.8808a5.89,5.89,0,0,0,6.3469,6.0768,10.4166,10.4166,0,0,0,7.2784-2.939V1281.62Z"/><path class="cls-1" d="M582.6745,1300.3189c-3.2076.0668-3.6082.0668-6.6791.267l-.4689-.4673c0-.7344.0683-1.4687.0683-2.2031.0652-3.2728.0652-6.5456.0652-9.8184,0-10.2842-.0652-10.9518-.4006-12.3553-1.2668-5.0753-5.0737-5.0753-6.0084-5.0753-4.0087,0-7.08,2.3381-8.8838,3.74-.0652,11.6209.0684,17.6977.5341,25.5117l-.4.4006c-3.2728.0668-3.8069.0668-7.0114.267l-.3354-.4673c.0683-3.74.2019-7.3467.2019-12.2885,0-10.6848-.4689-16.3625-.8012-20.837l.4006-.4673c3.338-.6009,3.94-.7344,7.08-1.3352l.4658.4673-.0652,3.4731a20.2164,20.2164,0,0,1,11.7529-4.1407,11.54,11.54,0,0,1,5.5426,1.2684,9.0685,9.0685,0,0,1,3.8752,4.341c.8664,2.0044.9347,4.0072,1,8.1479v7.814c.2018,7.8141.267,10.82.4689,13.3567Z"/><path class="cls-1" d="M615.94,1292.4381c-.2671,2.8722-.3354,3.206-.5341,5.9447l-.4689.4674a18.8226,18.8226,0,0,1-9.216,2.27c-10.0855,0-16.628-7.2784-16.628-17.6977,0-10.618,6.409-18.6323,16.7615-18.6323a21.9852,21.9852,0,0,1,9.1508,2.1363l.267.4689c-.267,2.4034-.3353,3.2713-.4688,5.2756l-.5341.2671a12.65,12.65,0,0,0-7.412-2.6052c-5.5426,0-10.4208,4.2742-10.4208,12.8226,0,9.0825,5.1452,12.3553,10.3525,12.3553a13.2365,13.2365,0,0,0,8.6168-3.34Z"/><path class="cls-1" d="M650.6613,1300.3189c-3.2076.0668-3.6081.0668-6.6791.267l-.4689-.4673.0683-2.2031c.0652-3.4731.0652-7.0129.0652-10.486l-.0652-7.1449a20.4472,20.4472,0,0,0-.3353-4.5428c-.7328-3.071-2.6021-5.0753-6.0085-5.0753-3.8069,0-6.7474,2.1378-8.9489,3.74-.0684,11.6209.0652,17.6977.4657,25.5117l-.3322.4006c-3.0741.0668-3.8752.0668-7.148.267l-.3323-.4673c.1335-4.7415.3323-10.7515.3323-23.5741,0-5.611-.0652-11.22-.1336-16.83-.1335-5.878-.3322-7.8141-.534-10.82l.3353-.4c3.2045-.5341,4.2727-.7344,7.2784-1.402l.4006.4673c-.4006,7.1465-.4006,14.3582-.4006,21.5714,2.1364-1.402,6.3438-4.1407,11.9548-4.1407a11.3159,11.3159,0,0,1,4.4745.8011,8.9548,8.9548,0,0,1,5.4774,6.3453c.3323,1.3352.3323,2.1364.4658,6.6109v7.814l.0683,3.1393c.1335,5.6094.1335,6.5441.4006,10.2174Z"/><rect class="cls-2" y="963.7275" width="915.0942" height="4.7695"/><g id="CAS"><path class="cls-3" d="M577.7628,0c-.1568,1.5581.591,2.96.7716,4.4614.07.5835.2007,1.16.3037,1.7392a9.7,9.7,0,0,1,1.7961,4.2445q10.8945,48.7212,21.83,97.4332c1.5782,7.0186,3.1933,14.03,4.6451,21.076.7139,3.4649.0263,4.1781-3.45,3.4045-17.9038-3.9836-36.0738-4.8615-54.2932-4.09a323.9128,323.9128,0,0,0-56.0963,7.5245,350.428,350.428,0,0,0-60.7376,18.9882c-20.8779,8.7917-40.7437,19.3649-57.9546,34.286-17.95,15.5617-34.2943,32.5985-46.3891,53.2794a79.6906,79.6906,0,0,0-9.3223,23.058c-3.3215,15.0605-.4758,28.5694,10.5486,39.8679a11.31,11.31,0,0,0,2.1792,2.211c2.8832,3.2344,6.5952,5.3032,10.3653,7.2561a81.9523,81.9523,0,0,0,21.0643,7.2135,127.8545,127.8545,0,0,0,30.2563,2.3727,187.7421,187.7421,0,0,0,54.4528-10.1618A220.6047,220.6047,0,0,0,582.9058,185.9952a235.9635,235.9635,0,0,0,7.7807-22.85c.3668-1.2846.633-1.3583,1.7878-1.2771q3.7589.2646,7.518.5255,7.7781.54,15.5563,1.0814a10.5352,10.5352,0,0,1,1.2851.1791.5779.5779,0,0,1,.4643.7758c-.4239,1.6766-.8548,3.3521-1.3243,5.0163a190.0279,190.0279,0,0,1-20.0583,45.7786,255.7265,255.7265,0,0,1-32.3892,42.856,336.868,336.868,0,0,1-59.3287,50.3821,360.0718,360.0718,0,0,1-44.3266,25.5062,309.506,309.506,0,0,1-62.0818,22.6393,240.5758,240.5758,0,0,1-28.3614,5.0969,184.38,184.38,0,0,1-25.6948,1.1257,133.9418,133.9418,0,0,1-40.7036-7.56,118.0185,118.0185,0,0,1-33.0512-17.1894A95.9435,95.9435,0,0,1,236.38,291.6171a118.3287,118.3287,0,0,1-5.8361-27.1063,151.0039,151.0039,0,0,1-.816-19.9726,83.3826,83.3826,0,0,1,5.2823-25.8477,136.5854,136.5854,0,0,1,14.2049-27.6745,234.28,234.28,0,0,1,26.29-32.8361c18.5942-19.6594,39.3312-36.8286,61.2882-52.5664A624.8714,624.8714,0,0,1,410.96,60.17a673.3894,673.3894,0,0,1,86.7162-38.041c17.4569-6.218,35.1584-11.6375,53.1363-16.14,8.23-2.0611,16.506-3.9267,24.8378-5.5369.308-.2674.798-.1036,1.0715-.4525Z"/><path class="cls-3" d="M851.0755,747.6746c-2.26,15.3568-10.1284,26.63-24.2837,33.3188a65.5463,65.5463,0,0,1-17.6382,5.1576,112.47,112.47,0,0,1-18.1336,1.2548q-87.6877.0034-175.3754.0014c-.52,0-1.0423.0257-1.5609-.0056-.94-.0567-2.0349.3541-2.7826-.2065-.837-.6275-.2253-1.7878-.3958-2.6955a27.8131,27.8131,0,0,1-.1977-4.9287q-.1077-11.8315-.1992-23.663a18.8678,18.8678,0,0,1,.0621-2.077c.0193-.1867.285-.4112.4889-.4986a2.0776,2.0776,0,0,1,.7694-.0723c.7806-.0079,1.5612-.0048,2.3418-.0048q89.6393,0,179.2784.0019a36.5949,36.5949,0,0,0,7.74-.7707c7.4914-1.6137,12.1664-6.2431,14.4156-13.4485a35.4617,35.4617,0,0,0,1.584-10.5c.0264-8.4977.0088-16.9955.007-25.4932,0-.3463-.0119-.6933-.0357-1.0386a.6217.6217,0,0,0-.6551-.6422q-1.3-.0336-2.6-.0337-99.6569-.0021-199.3138-.0107c-1.112,0-2.4812.4515-3.2761-.23-.943-.8083-.3754-2.277-.3782-3.446-.0322-13.6136.0227-27.2276-.0386-40.8411-.0313-6.9294-.2327-13.8583-.39-20.7867a73.1638,73.1638,0,0,1,2.1242-21.13c2.8584-10.4593,8.5993-18.83,17.8446-24.6639a52.0562,52.0562,0,0,1,13.5012-5.9426,84.4855,84.4855,0,0,1,22.8293-3.2323c60.5357-.4459,121.0724-.0748,181.6085-.2061a7.8519,7.8519,0,0,0,3.0854-.2057v34.3387c-1.4309,1.16-3.1414.8144-4.7556.8156q-39.7918.0313-79.584.0146-47.8544,0-95.7088-.0157a60.0979,60.0979,0,0,0-8.542.68c-7.88,1.1221-12.8058,5.6912-15.2545,13.0944A26.6011,26.6011,0,0,0,646.27,637.74c-.0576,8.4069-.0364,16.8141-.0114,25.2211.0086,2.892.2752,3.124,3.0868,3.2031.9531.0268,1.9072.0081,2.8608.0081q97.1392,0,194.2785.0163c1.6966,0,3.4977-.3913,5.0158.8141v78.5627c-.3591.3334-.2414.7751-.269,1.1842A1.6526,1.6526,0,0,1,851.0755,747.6746Z"/><path class="cls-3" d="M64.5688,673.7287c.826-14.0431,3.5877-27.6327,9.5586-40.4569a79.1553,79.1553,0,0,1,29.7866-33.8985,107.4819,107.4819,0,0,1,30.457-12.97,160.2053,160.2053,0,0,1,23.2228-4.298,237.0141,237.0141,0,0,1,26.9769-1.4877q58.67.0134,117.3394.0118c3.7133.0012,3.1813-.53,3.19,3.1017.0242,9.4506.0082,18.9014.0081,28.352,0,.6069.0114,1.2142-.0052,1.8207-.0327,1.1963-.0919,1.2521-1.3919,1.2844-.6934.0173-1.3876.0049-2.0813.0049-22.3752,0-44.7516-.1507-67.125.0481-17.6891.1572-35.3771.0266-53.0649.1494a148.066,148.066,0,0,0-28.16,2.7258,83.9794,83.9794,0,0,0-26.2508,9.4924c-13.4761,7.889-22.0364,19.4832-25.9951,34.5467A87.69,87.69,0,0,0,98.44,686.8845a80.6923,80.6923,0,0,0,3.094,20.7543c4.568,15.547,14.0993,26.98,28.461,34.44a89.12,89.12,0,0,0,24.5516,8.1649,147.07,147.07,0,0,0,20.3832,2.3173q5.4556.2726,10.9125.2749,58.0192-.0018,116.0384,0c.78,0,1.5609.01,2.3413.0092.67-.0006.8892.3869.8825.99-.0058.52.0038,1.04.0038,1.5606q.0006,14.6962-.0007,29.3925c0,.6067-.0094,1.2135-.023,1.82a.7357.7357,0,0,1-.8241.7789c-.78.017-1.5607.0191-2.3411.0191-18.7327.0011-37.4671-.1618-56.1975.044-21.1581.2324-42.3146.0892-63.4716.1176a214.8877,214.8877,0,0,1-23.0839-1.28,168.5531,168.5531,0,0,1-22.2678-3.7854,112.1365,112.1365,0,0,1-30.3474-11.9216c-17.0562-10.0029-28.8295-24.3757-35.5687-42.9133a107.2492,107.2492,0,0,1-5.3654-22.1718c-.494-3.6064-.9219-7.217-1.0707-10.8564-.7116-1.1595-.3339-2.4467-.4283-3.6781-.0689-.8982.1913-1.8592-.5249-2.6272V680.53C64.5561,678.3544,63.997,675.9605,64.5688,673.7287Z"/><path class="cls-4" d="M529.8662,854.3351c-.805-.3164-1.636-.58-2.4106-.9585a9.0751,9.0751,0,0,1-5.4154-7.6779c-.079-.8167.1892-1.1672.9756-1.1842a7.3357,7.3357,0,0,1,2.56.0295c1.0672,5.1089,4.5452,6.4586,9.24,6.4954a8.9571,8.9571,0,0,0,3.7788-.841,4.8993,4.8993,0,0,0,2.1805-1.7776,3.8677,3.8677,0,0,0-.8732-5.3274,7.6016,7.6016,0,0,0-2.8072-1.3059c-1.9257-.5-3.8565-.9839-5.77-1.5267a25.87,25.87,0,0,1-3.6872-1.2248c-2.8182-1.2842-4.577-3.37-4.5609-6.6359a7.15,7.15,0,0,1,4.5357-6.9638,14.17,14.17,0,0,1,12.55.3454,7.9223,7.9223,0,0,1,4.29,6.4256c.0916.6674-.0871.8523-.8621.9693-.2568.0388-.5191.0415-.7754.0822-2.149.341-2.0984.0764-2.5762-1.5457a5.1015,5.1015,0,0,0-4.0508-3.6233,11.4076,11.4076,0,0,0-6.3958.305,4.0727,4.0727,0,0,0-2.4752,2.1635,3.28,3.28,0,0,0,1.3579,4.48,12.1239,12.1239,0,0,0,2.6533,1.0293c2.0845.5784,4.1965,1.0566,6.2862,1.6167a16.7955,16.7955,0,0,1,3.6287,1.3783,7.852,7.852,0,0,1,1.11,13.1021,15.8607,15.8607,0,0,1-4.1105,2.1818c-.2943.3006-.8005.1269-1.0718.4787h-6.245C530.6592,854.474,530.1485,854.6515,529.8662,854.3351Z"/><path class="cls-4" d="M475.2227,854.3351c-.73-.2714-1.4873-.4852-2.1843-.8239a9.2084,9.2084,0,0,1-5.6484-7.8073c-.0729-.8171.1816-1.1746.9652-1.1877a5.8593,5.8593,0,0,1,2.5977.0848c.1276.3951.2813.7972.3872,1.2116a6.278,6.278,0,0,0,4.27,4.5136,11.3451,11.3451,0,0,0,7.6421.1594c2.2556-.745,3.5507-2.3457,3.5517-4.2971a3.5577,3.5577,0,0,0-1.5588-3.1175,8.7567,8.7567,0,0,0-2.8178-1.289c-1.9261-.5008-3.8521-1.0019-5.7736-1.52a20.58,20.58,0,0,1-4.143-1.4915,6.77,6.77,0,0,1-4.08-6.1418,7.2249,7.2249,0,0,1,3.8692-6.8605,13.0923,13.0923,0,0,1,7.2745-1.5587,14.7238,14.7238,0,0,1,4.8131,1.0058,8.3453,8.3453,0,0,1,5.4248,7.0321.704.704,0,0,1-.647.9113c-.4294.057-.8613.094-1.2912.1478-1.71.2141-1.795.0736-2.2059-1.3877a5.2833,5.2833,0,0,0-4.4228-3.8953,11.5575,11.5575,0,0,0-5.9014.3,4.24,4.24,0,0,0-2.7,2.2717,3.3191,3.3191,0,0,0,1.19,4.3428,9.3014,9.3014,0,0,0,2.8845,1.143c2.0926.5476,4.198,1.0472,6.2865,1.61a14.6926,14.6926,0,0,1,3.8476,1.5255c5.1342,3.106,5.0575,9.4369.8541,12.9437a14.937,14.937,0,0,1-4.1085,2.1859c-.2943.3-.8.1271-1.0717.4787h-6.245C476.0157,854.4741,475.505,854.6513,475.2227,854.3351Z"/><path class="cls-5" d="M340.9558,854.3351c-.7268-.2772-1.4741-.5106-2.1769-.839a9.321,9.321,0,0,1-5.6757-7.7869c-.0929-.7981.1785-1.1705.9569-1.1913a7.4157,7.4157,0,0,1,2.5968.0368c.1649.5032.3508.9818.4783,1.4754a5.893,5.893,0,0,0,3.6745,4.0876,11.2472,11.2472,0,0,0,8.5957.193,4.8109,4.8109,0,0,0,2.4381-1.8471,3.8961,3.8961,0,0,0-1.0035-5.4917,7.6675,7.6675,0,0,0-2.5859-1.1652c-2.0023-.541-4.0174-1.0348-6.0186-1.5795a23.6693,23.6693,0,0,1-4.1331-1.5034c-5.3488-2.5911-5.1109-9.81-.4228-12.765a12.4714,12.4714,0,0,1,4.6314-1.5809,14.4642,14.4642,0,0,1,8.1395.98,8.2078,8.2078,0,0,1,5.0533,6.7387c.1172.7217-.054.9634-.734,1.0651-.5985.0894-1.2.1668-1.8039.21-.9514.0684-1.1754-.0264-1.4424-1.06-.7961-3.083-2.9661-4.2707-5.92-4.4843a11.421,11.421,0,0,0-4.609.5211,4.451,4.451,0,0,0-2.5618,2.0761,3.2584,3.2584,0,0,0,1.161,4.5253,12.2482,12.2482,0,0,0,2.88,1.1378c2.08.5831,4.1929,1.0458,6.2789,1.6079a14.9169,14.9169,0,0,1,3.8422,1.5247,7.8006,7.8006,0,0,1,.836,12.95,14.4759,14.4759,0,0,1-4.1156,2.1573c-.2761.3264-.791.1466-1.0556.4976h-6.2449C341.7488,854.474,341.238,854.6515,340.9558,854.3351Z"/><path class="cls-4" d="M682.3474,854.3351c-.8854-.3456-1.8048-.6238-2.65-1.0489a9.1465,9.1465,0,0,1-5.2359-7.5316c-.0924-.7926.2-1.207.9441-1.2292a6.0625,6.0625,0,0,1,2.6137.0708c.2126.6233.426,1.27.6532,1.9113a5.9286,5.9286,0,0,0,3.4933,3.6206,11.5226,11.5226,0,0,0,8.12.3776,5.2037,5.2037,0,0,0,2.9217-2.04,3.8549,3.8549,0,0,0-.7945-5.3294,7.2011,7.2011,0,0,0-2.7865-1.3335c-1.92-.5115-3.8481-.9964-5.7647-1.5215-.9986-.2738-1.9925-.5762-2.9647-.9307a13.2063,13.2063,0,0,1-1.8668-.8894c-5.3182-2.9539-4.1774-10.4887.4523-12.7571a14.2556,14.2556,0,0,1,8.0622-1.4193,14.476,14.476,0,0,1,4.4989,1.169,8.3429,8.3429,0,0,1,4.83,6.6214c.1185.6853-.0931.9869-.74,1.0857-.5981.0913-1.2.1706-1.8037.21-.9392.0606-1.2082-.063-1.443-1.0787-.67-2.8954-2.7-4.0876-5.4069-4.4192a11.0791,11.0791,0,0,0-4.8789.3988,4.6938,4.6938,0,0,0-2.796,2.1667,3.1816,3.1816,0,0,0,1.1331,4.5,12.7924,12.7924,0,0,0,2.8816,1.14c2.08.5838,4.1926,1.0507,6.2808,1.6067a15.48,15.48,0,0,1,3.8428,1.5216c5.3186,3.09,4.6722,9.7588,1.0836,12.803a14.7549,14.7549,0,0,1-4.3174,2.3233c-.28.32-.7923.1412-1.0578.4923h-6.245C683.1405,854.474,682.63,854.6515,682.3474,854.3351Z"/><path class="cls-4" d="M643.3377,854.3015c-.9448-.4239-1.9278-.7795-2.8271-1.2842a9.3559,9.3559,0,0,1-4.8139-7.57.7686.7686,0,0,1,.729-.893c.427-.0622.8625-.0711,1.2947-.0918,1.5052-.0724,1.5152-.0737,2.0351,1.524a6.4772,6.4772,0,0,0,4.1572,4.3225,11.7788,11.7788,0,0,0,7.65.2074,5.8507,5.8507,0,0,0,2.2546-1.2562,3.9144,3.9144,0,0,0-.4973-6.4189,8.5257,8.5257,0,0,0-2.6187-1.1q-2.8948-.7271-5.7739-1.5157a19.4149,19.4149,0,0,1-4.1362-1.506,6.8421,6.8421,0,0,1-4.0223-6.2162,7.2884,7.2884,0,0,1,3.8033-6.67,13.47,13.47,0,0,1,8.2879-1.5543,13.7138,13.7138,0,0,1,4.0326.9606,8.503,8.503,0,0,1,5.3266,7.1215.6354.6354,0,0,1-.5487.7464,19.0894,19.0894,0,0,1-2.0544.26c-.9387.0732-1.1092-.0108-1.3868-1.0605a5.6941,5.6941,0,0,0-5.1814-4.4121,10.8117,10.8117,0,0,0-5.3877.4666,4.0143,4.0143,0,0,0-2.9605,3.5716,2.9686,2.9686,0,0,0,1.6011,3.0292,14.6322,14.6322,0,0,0,2.8912,1.1285c2.0815.5845,4.1956,1.052,6.2834,1.6155a15.0689,15.0689,0,0,1,4.278,1.8131c4.4643,2.8621,4.0774,9.0207,1.2327,11.8a11.698,11.698,0,0,1-3.3754,2.3809c-.4719.2124-.9536.4031-1.4309.6037-.2538.3578-.7815.17-1.0387.5208h-5.2041c-.4848-.4611-1.0893-.1945-1.6382-.269C643.9589,854.5443,643.5973,854.6151,643.3377,854.3015Z"/><path class="cls-6" d="M275.8913,854.3728c-.7167-.2992-1.44-.5831-2.1488-.9a8.0111,8.0111,0,0,1-4.4917-5.0913,15.9428,15.9428,0,0,1-.7549-4.856c-.0271-5.8-.0124-11.6-.01-17.4a5.0559,5.0559,0,0,1,.0615-.7731.6557.6557,0,0,1,.6956-.6134c3.4286-.0186,3.0588-.4627,3.08,2.6945.0354,5.1924.0481,10.3852.122,15.577a17.9721,17.9721,0,0,0,.4026,3.34,5.3169,5.3169,0,0,0,3.5787,4.115,10.5445,10.5445,0,0,0,7.37-.1049,4.8651,4.8651,0,0,0,3.0906-3.26,16.4931,16.4931,0,0,0,.6367-5.1293q.0114-7.0119.0028-14.0238c0-.6059-.0142-1.2124.005-1.8177.0412-1.3042.1334-1.3837,1.5541-1.4121.4327-.0087.8661-.01,1.2987.0028,1.0727.0319,1.183.1063,1.1841,1.2191.0058,5.8862.02,11.7728-.0446,17.6584a19.3111,19.3111,0,0,1-.5356,3.8446,8.2871,8.2871,0,0,1-4.8367,6.042c-.6267.29-1.2654.5544-1.8986.83-.2633.3442-.7851.16-1.0449.5106h-6.245C276.69,854.4762,276.2,854.64,275.8913,854.3728Z"/><path class="cls-6" d="M247.2643,854.3559c-.4862-.1836-.9712-.37-1.4589-.55a10.48,10.48,0,0,1-5.7657-4.9948,19.1057,19.1057,0,0,1-1.0976-16.5408,12.0482,12.0482,0,0,1,8.6682-7.533,14.3768,14.3768,0,0,1,7.46-.0769,10.83,10.83,0,0,1,8.0241,7.8968,2.1487,2.1487,0,0,1-1.4886.7509c-2.0823.5207-2.1124.52-3.1233-1.4137-2.0374-3.8971-5.3412-4.7129-9.518-3.91a7.92,7.92,0,0,0-6.17,5.4128,17.6466,17.6466,0,0,0,.1708,12.4569c2.1738,5.6784,9.5864,6.7744,13.4933,3.6a8.2061,8.2061,0,0,0,2.4592-3.2921c.23-.5585.3975-1.1428.6136-1.7076a.7978.7978,0,0,1,1.0437-.5009c.6729.162,1.3444.3318,2.01.5205.8807.2495,1.0951.6469.7933,1.544-1.2182,3.6214-3.36,6.4185-7.0429,7.8283-.4042.1548-.7995.3328-1.199.5-.2942.3-.8.1268-1.0717.4786h-5.7246C248.0669,854.4733,247.5656,854.6438,247.2643,854.3559Z"/><path class="cls-6" d="M743.2359,854.3352a25.1419,25.1419,0,0,1-2.858-1.2307,11.5645,11.5645,0,0,1-4.9109-5.55,20.0329,20.0329,0,0,1-.7483-14.4489,12.0927,12.0927,0,0,1,8.8815-8.32,14.6908,14.6908,0,0,1,6.4341-.3547,10.8707,10.8707,0,0,1,8.63,6.6863c.1057.2363.1905.4826.2736.7283s.1509.4939.2278.7487c-.3352.6463-1.0168.5907-1.5506.7292-2.0195.5237-2.037.5017-3.0666-1.4744a7.3367,7.3367,0,0,0-6.7019-4.12,8.9529,8.9529,0,0,0-9.4368,7.21,18.4405,18.4405,0,0,0,.4808,10.4894,8.3874,8.3874,0,0,0,8.1133,5.7573,8.15,8.15,0,0,0,8.221-5.5342c.1983-.5587.39-1.1194.586-1.68a4.1023,4.1023,0,0,1,.8632.0076c3.5181.8847,3.5676,1.0347,1.8287,4.3719a11.4736,11.4736,0,0,1-5.5268,5.29c-.47.2156-.9433.4249-1.415.6372-.3834.5488-1.1478.0255-1.5409.5473h-5.7245C744.029,854.4741,743.5184,854.6513,743.2359,854.3352Z"/><path class="cls-6" d="M176.9691,854.39c-.4076-.1443-.8127-.2962-1.2231-.4318a11.0294,11.0294,0,0,1-6.8734-6.303,19.8737,19.8737,0,0,1-.7389-14.69,12.1567,12.1567,0,0,1,9.4793-8.3214,14.5953,14.5953,0,0,1,5.6687-.2317c4.8865.8019,7.8624,3.6407,9.32,8.28a6.1768,6.1768,0,0,1-2.4953.8182c-1.04.1829-1.4013.3145-1.9334-1.0534a6.6658,6.6658,0,0,0-4.5107-4.33c-5.0292-1.3755-9.9737.7726-11.5255,5.6669a18.3325,18.3325,0,0,0,.0651,11.4795c1.8036,5.562,7.6088,6.74,11.3391,5.4692a7.4473,7.4473,0,0,0,4.4243-3.77c.467-.9176.8173-1.8945,1.2788-2.9822,1.0894-.262,2.0867.4444,3.1579.6252.6068.1026.7266.5072.5134,1.1932-1.1672,3.7539-3.3579,6.6009-7.1322,8.0486-.3216.1234-.6241.2966-.9355.4466-.2539.3577-.7816.1693-1.0387.5207h-5.7245C177.7947,854.47,177.3038,854.63,176.9691,854.39Z"/><path class="cls-6" d="M851.5007,825.6891c-3.3356,4.8345-6.6438,9.6883-10.0281,14.4884a5.2655,5.2655,0,0,0-1.0754,3.3522c.0912,3.3712.0817,6.7451.1123,10.1179-1.1612,1.5919-2.61.9668-4.0347.5225-.0369-3.0291-.1982-6.0635-.07-9.0856a9.1312,9.1312,0,0,0-1.7807-6.0135c-2.9088-4.0886-5.6145-8.3217-8.3932-12.5024a9.5087,9.5087,0,0,1-.7291-1.3582c-.0412-.0914.0976-.333.2154-.409a.9367.9367,0,0,1,.5046-.0776c1.2079.0349,2.4155.08,3.6232.1221.6524.91,1.3453,1.7933,1.95,2.7336,2.1056,3.2746,4.1784,6.57,6.2723,9.8524a6.18,6.18,0,0,0,.6392.6923c1.1972-1.85,2.3438-3.6354,3.5045-5.4118,1.5147-2.3187,3.0545-4.6211,4.553-6.95a1.9175,1.9175,0,0,1,1.8831-1.0657c.9463.0609,1.902-.0259,2.8536-.0481Z"/><path class="cls-6" d="M63.5934,824.6485c1.1215.0225,2.2432.0358,3.3643.07,1.0889.0335,1.2212.1607,1.2707,1.149.0129.2585.006.518.006.777q-.0006,13.21-.004,26.42c0,.3449-.0312.69-.0479,1.0347-1.4955.8321-3.0435.4923-4.5891.2051Z"/><path class="cls-7" d="M851.0544,746.6456c-.0715-.451-.1315-.8973.4463-1.08v1.0406Q851.3048,746.9331,851.0544,746.6456Z"/><path class="cls-8" d="M851.0544,746.6456a3.24,3.24,0,0,0,.4463-.0395v1.0405l-.21.0482-.2149-.02Q851.065,747.16,851.0544,746.6456Z"/><path class="cls-9" d="M576.7219,0c-.1573.6238-.6117.5446-1.0715.4525A2.0608,2.0608,0,0,0,575.6811,0Z"/><path class="cls-10" d="M331.5937,307.4839a1.7148,1.7148,0,0,1-1.3577-.6371,42.67,42.67,0,0,1-8.15-10.0439,40.292,40.292,0,0,1-4.9383-13.84,11.14,11.14,0,0,1-.1112-1.8141c-.025-2.08-.0151-4.1611-.049-6.2412a43.5428,43.5428,0,0,1,2.03-13.0083,93.9163,93.9163,0,0,1,10.2015-22.6618c2.8983-4.73,6.0674-9.264,9.3674-13.7086,1.75-2.3576,3.7209-4.551,5.5725-6.8344,3.4388-4.2409,7.19-8.1923,10.984-12.114,1.3769-1.4231,2.5653-3.0547,4.06-4.3651,3.4547-3.0289,6.5871-6.3972,9.9992-9.4614A176.0743,176.0743,0,0,1,393.0589,174.46c4.6916-2.9484,9.397-5.87,14.3242-8.4175,3.1541-1.6306,6.2649-3.348,9.4515-4.9117,7.2292-3.5476,14.615-6.7442,22.1053-9.704q10.0238-3.9607,20.2845-7.25c8.73-2.7908,17.5648-5.2082,26.4737-7.3686q9.3183-2.26,18.743-3.9889,7.2457-1.3361,14.5648-2.338c3.4153-.4727,6.8439-.9235,10.2631-1.3148,2.6465-.3029,5.3023-.8776,8.0027-.6744,3.4734-.8854,7.0867-.1252,10.5771-.9033a12.1455,12.1455,0,0,1,2.5942-.0894q10.1451-.0087,20.29.0036a11.541,11.541,0,0,1,3.8645.36,3.3467,3.3467,0,0,0,1.29.09,49.0247,49.0247,0,0,1,9.047.657,144.0311,144.0311,0,0,1,17.614,2.8708c.9214.2262,1.8559.4,2.787.5854,1.2.2385,1.7044-.2075,1.4986-1.3372-.17-.9339-.35-1.8671-.5617-2.7923-1.2919-5.6374-2.6071-11.27-3.89-16.9091q-2.3838-10.48-4.7284-20.9683-2.0965-9.3491-4.17-18.7033-2.3178-10.3614-4.6492-20.72-2.3559-10.4864-4.7142-20.9721c-1.3751-6.1494-2.7843-12.2921-4.065-18.4612-.35-1.6865-.8978-3.3145-1.2179-5.0017a1.6035,1.6035,0,0,0,1.652.4641q2.1812-.3361,4.3714-.6126a13.6809,13.6809,0,0,1,1.8111-.113c.8546.0058,1.0193.1434,1.212,1.0116q.9,4.0563,1.7692,8.12,4.6251,21.45,9.245,42.9007,4.3126,20.0566,8.6083,40.1169,4.27,19.8,8.5806,39.59c.2195,1.0133.43,2.03.5952,3.053.0682.4226-.231.634-.6356.5482-3.1324-.6638-6.2534-1.3844-9.394-2.0064-4.5046-.8921-9.0518-1.502-13.62-1.9854-5.69-.6021-11.39-.9233-17.1084-1.1364-4.1614-.155-8.3228-.2417-12.4727-.11-6.9222.2191-13.8416.5366-20.7482,1.1743-7.6815.7092-15.3329,1.6328-22.9434,2.8482a357.7669,357.7669,0,0,0-38.5627,8.342,327.3162,327.3162,0,0,0-53.5765,19.6218,212.4425,212.4425,0,0,0-39.7492,23.9788c-5.3411,4.1551-10.3479,8.7-15.2474,13.3552-6.4086,6.0893-12.67,12.329-18.5,18.9859a162.9994,162.9994,0,0,0-20.2541,27.9377,85.06,85.06,0,0,0-8.0648,19.3738,49.7067,49.7067,0,0,0-1.808,12.5626,35.8776,35.8776,0,0,0,6.239,21.0859A6.762,6.762,0,0,1,331.5937,307.4839Z"/><path class="cls-11" d="M409.1434,512.54c-2.0584.0411-4.1173.1355-6.175.1119-3.8639-.0444-7.7268-.172-11.5906-.2332a24.35,24.35,0,0,1-4.0913-.3993c-1.1785-1.5227-.8279-3.3175-.8288-5.02q-.0276-55.7769-.0135-111.5536c0-3.5538-.0141-7.1076.009-10.6612a5.0654,5.0654,0,0,1,.814-3.4654,18.4243,18.4243,0,0,1,4.1886-1.2161q8.2015-2.349,16.4159-4.6537c.5751-.162,1.1692-.2568,1.7545-.3828a4.2556,4.2556,0,0,1,.3865,2.5238q-.0734,64.9679-.0335,129.9358C409.9779,509.2272,410.3322,511.0222,409.1434,512.54Z"/><path class="cls-12" d="M455.5684,508.9c-1.27.6673-2.6944.52-4.0427.693-4.5186.58-9.0137,1.4326-13.5969,1.3893-1.1821.48-1.5744-.2977-1.8212-1.1951a11.5951,11.5951,0,0,1-.22-3.1026q-.0075-68.3709.0106-136.7418c.0007-1.6938-.33-3.53,1.3053-4.803l-.0243.0276c.3531-.1876.8185-.1188,1.0959-.4794l-.0066.005c.4162-.4387,1.2574.0811,1.5313-.6786,3.4629-1.532,6.9168-3.0851,10.3929-4.5866a27.5121,27.5121,0,0,1,4.748-1.9931,4.7886,4.7886,0,0,1,.34,2.54q-.0567,71.22-.0214,142.44A53.5666,53.5666,0,0,0,455.5684,508.9Z"/><path class="cls-13" d="M455.5684,508.9c-.66-.1247-1.1216-.4391-1.1281-1.185-.006-.6925-.0151-1.385-.0151-2.0775q-.001-72.3309.0024-144.6617c0-1.2019-.1738-2.4357.5128-3.5411,1.7519-1.2614,3.8221-1.8947,5.7148-2.8814,3.1167-1.6247,6.2869-3.1471,9.4392-4.703a8.5248,8.5248,0,0,1,.96-.3427,4.11,4.11,0,0,1,.3754,2.5195q-.1033,75.4493-.0255,150.8984a10.2408,10.2408,0,0,1-.2794,3.3467c-.892.6692-1.9941.5267-2.9953.7162-3.4851.66-6.9889,1.2229-10.49,1.7923A19.19,19.19,0,0,1,455.5684,508.9Z"/><path class="cls-14" d="M563.7523,474.0072a17.3765,17.3765,0,0,1-3.7992,2.1578,70.4643,70.4643,0,0,1-8.6194,4.11c-1.2209.5045-1.5385-.3618-1.7814-1.2271a10.4308,10.4308,0,0,1-.2121-2.8425q-.01-88.101-.0361-176.202c-.0016-2.3341.5088-4.2535,2.3757-5.7127,2.0948-1.9968,4.1433-4.0454,6.3011-5.9718,1.3934-1.2442,2.5058-2.8009,4.1554-3.7591,1.09.6968,1.23,1.8243,1.3183,2.9607.1006,1.2978.0578,2.6.0578,3.9q.0021,87.2661-.0023,174.5322C563.51,468.6406,563.5009,471.3274,563.7523,474.0072Z"/><path class="cls-15" d="M409.1434,512.54q.0026-66.8247.0076-133.65a7.8751,7.8751,0,0,1,.4753-3.8234l.0043.02c.45-.4023,1.1829.0313,1.5787-.5328a11.6548,11.6548,0,0,1,2.8578-1.12c3.6628-1.2674,7.3182-2.5559,10.9813-3.8223a10.7553,10.7553,0,0,1,1.2532-.2774,2.3824,2.3824,0,0,1,.5854,1.9233c-.5512,41.9277-.0883,83.8573-.2392,125.7858-.0137,3.8119.0173,7.624-.0139,11.4358-.01,1.2031.083,2.4515-.8344,3.4438a74.5512,74.5512,0,0,1-11.0139.614C412.9063,512.5888,411.0243,512.5424,409.1434,512.54Z"/><path class="cls-16" d="M496.1238,500.5548a5.5555,5.5555,0,0,1-2.4322.81c-2.7511.75-5.5288,1.4039-8.3033,2.0656a15.9176,15.9176,0,0,1-1.7908.2253c-2.1942.764-3.0364-.4258-3.3466-2.3386a20.9916,20.9916,0,0,1-.13-3.3722q-.0042-74.451.0052-148.902c0-1.6307-.2236-3.3141.77-4.7926.4959-.3293.9766-.6845,1.49-.9836q5.2225-3.0428,10.4594-6.0613c.517-.2979,1.069-.5351,1.6048-.8,1.1769,1.8929.863,4.02.8661,6.0643q.0469,30.9121.0187,61.8244,0,45.3294-.0067,90.6586A13.47,13.47,0,0,0,496.1238,500.5548Z"/><path class="cls-17" d="M621.4125,196.995a14.023,14.023,0,0,1,1.3089-4.184,191.0913,191.0913,0,0,0,6.622-18.5458,3.1273,3.1273,0,0,1,.3846-.6577c1.1228.9228,1.1882,2.26,1.3407,3.5394a37.2777,37.2777,0,0,1,.1,4.4149q.0041,118.9162.01,237.8325a17.3877,17.3877,0,0,1-.2966,3.6141,57.5314,57.5314,0,0,1-7.19,7.3152.8693.8693,0,0,0-.6006.568l.0447-.0424a.807.807,0,0,0-.56.5622l.04-.0415a.7783.7783,0,0,0-.5606.5618l.0089.0083c-1.3117-.1925-1.2227-1.2922-1.3517-2.1867a23.6106,23.6106,0,0,1-.0816-3.3741q-.0021-111.2225-.0123-222.4448A27.6487,27.6487,0,0,1,621.4125,196.995Z"/><path class="cls-18" d="M630.8819,423.0084a1.3467,1.3467,0,0,1-.5453-1.1192q-.0123-1.3-.0115-2.6-.0007-116.3754-.0108-232.7508c-.0007-4.3156.3318-8.6534-.5862-12.93a8.6053,8.6053,0,0,1,.7455-2.9991c.6172.166.6482.7284.7882,1.1418q4.4266,13.0642,8.8058,26.1445a8.8374,8.8374,0,0,1,.2328,1.2592,13.939,13.939,0,0,0-.2789,4.6433q-.0151,101.2543.0042,202.5088a24.0035,24.0035,0,0,0,.3016,5.9454,22.6724,22.6724,0,0,1-3.2,3.9869A63.9771,63.9771,0,0,1,630.8819,423.0084Z"/><path class="cls-19" d="M387.2672,381.3194c.0079.6062.0228,1.2124.0228,1.8186q-.0006,64.4406-.0034,128.8813c-4.1236.1332-8.1971-.5216-12.2955-.7845-1.11-.0711-2.2142-.2219-3.32-.3431a3.0944,3.0944,0,0,1-1.72-.404,38.465,38.465,0,0,0,.3749-5.958q-.0143-56.928-.0062-113.856c0-1.1263.0351-2.2534.027-3.3786a2.5233,2.5233,0,0,1,2.377-2.8092c.9027-.5993,1.9827-.509,2.9766-.7442,3.3372-.79,6.6864-1.5293,10.0357-2.267A12.7889,12.7889,0,0,1,387.2672,381.3194Z"/><path class="cls-20" d="M604.2444,232.4129a7.5139,7.5139,0,0,1,.4007-.9293q3.8879-6.5208,7.3762-13.2632a7.3684,7.3684,0,0,1,.5744-.8249c1.0949.6885,1.244,1.8139,1.3351,2.9491.111,1.3829.062,2.7708.062,4.1565q.0026,103.956.0031,207.9121a58.63,58.63,0,0,0,.2227,6.7447c-1.4408,1.8062-3.38,3.0625-5.0909,4.5683a11.9746,11.9746,0,0,1-2.8177,2.1455c-.2036.34-.7856.1821-.8787.6675l-.0019.0172c-1.4682-.228-1.5556-1.4692-1.7873-2.5376a18.2623,18.2623,0,0,1-.1824-3.89q-.0046-101.1787-.01-202.3576A13.3639,13.3639,0,0,1,604.2444,232.4129Z"/><path class="cls-21" d="M614.2186,439.1579a1.7661,1.7661,0,0,1-1.0588-1.6508c-.0015-.78-.0085-1.56-.0085-2.3395q-.0006-106.5858.0127-213.1715a14.0694,14.0694,0,0,0-.5683-4.6006,16.8766,16.8766,0,0,1,1.58-3.5259c2.3846-5.0861,4.5881-10.2472,6.5679-15.5041.1786-.4744.2093-1.03.6686-1.37.0217,1.3.0623,2.5995.0624,3.8994q.0046,113.6613.0036,227.3227,0,1.3.0221,2.6a1.49,1.49,0,0,0,.564,1.1223,29.2218,29.2218,0,0,1-4.8364,4.5661c-.39.4761-1.12.5645-1.369,1.2009l.0364-.0421a.6282.6282,0,0,0-.6013.513l.0369-.0378a.8166.8166,0,0,0-.5668.54l.0289-.0287a1.064,1.064,0,0,0-.5747.5025Z"/><path class="cls-22" d="M604.2444,232.4129c.02,1.2123.057,2.4246.0571,3.637q.0042,102.7934.0009,205.5869c0,1.7279-.1255,3.48,1.1271,4.9191a57.4011,57.4011,0,0,1-8.7032,6.692c-1.5557.5367-1.7837-.61-1.9739-1.6422a22.8319,22.8319,0,0,1-.14-4.1517q-.0048-96.9834.03-193.9669c.0015-2.3091-.6653-4.6665.2592-6.9476.3993-.6534.78-1.3187,1.2009-1.9583q3.4624-5.2674,6.9445-10.5219C603.4222,233.4943,603.8443,232.9609,604.2444,232.4129Z"/><path class="cls-23" d="M563.7523,474.0072c-.5376-.1146-1.0126-.3192-1.0377-.9618-.0338-.8655-.0422-1.7324-.0422-2.5987q-.0027-90.771.008-181.5418a13.093,13.093,0,0,0-.5441-4.3454c.2644-.3323.5043-.6881.7969-.9934q5.0964-5.3168,10.2107-10.6161a12.3169,12.3169,0,0,1,.9752-.8267,1.1219,1.1219,0,0,1,.1162,1.23c-1.7492,2.6589-1.3545,5.6491-1.3547,8.5708q-.0091,89.6662-.0093,179.3324c0,2.5125.0348,5.0223.2053,7.5293A59.7417,59.7417,0,0,1,563.7523,474.0072Z"/><path class="cls-24" d="M588.7207,458.91a47.9816,47.9816,0,0,1-7.89,5.1785c-.2352.3307-.75.197-.9565.5755l.0185-.0159q-.2815.1907-.5509.3983l-.4777.2818c-1.1453-1.1125-.8869-2.5694-.8917-3.9218-.033-9.27-.0166-18.5394-.0167-27.8091q-.0006-80.6983.0053-161.3968c0-1.8062-.2317-3.6612.8326-5.306,2.04-2.5006,4.0734-5.0073,6.1248-7.4989.8619-1.0467,1.7627-2.0613,2.6458-3.0906a3.1916,3.1916,0,0,1,.8975,2.6105c.0694,1.2119.0337,2.4268.0337,3.64q.0014,94.9309-.0017,189.8618C588.4932,454.5846,588.508,456.75,588.7207,458.91Z"/><path class="cls-25" d="M372.7231,384.4859a5.8116,5.8116,0,0,1-.8445.5644,1.0334,1.0334,0,0,0-.6959.9838q-.0228,1.17-.0235,2.34-.0015,59.1812-.0018,118.3622c0,.867-.0006,1.7344-.0239,2.6009-.02.752-.5436,1.0177-1.1829,1.15-2.4432.15-4.813-.4679-7.2162-.7209-2.232-.2349-4.4425-.6782-6.6592-1.0488a2.9828,2.9828,0,0,1-.699-.3146,11.68,11.68,0,0,0,.896-5.5748q-.0126-55.5084.0064-111.0167c.0007-1.6184-.3144-3.3223.8071-4.7646a3.0043,3.0043,0,0,1,2.1374-.3615,1.3509,1.3509,0,0,0,1.5373-.1438c1.0892-.6594,2.3542-.4938,3.532-.7126C367.0893,385.31,369.9113,384.925,372.7231,384.4859Z"/><path class="cls-26" d="M528.812,313.146c2.0127-1.6235,4-3.28,6.0485-4.857a19.2634,19.2634,0,0,1,3.3071-2.4789c1.2317,1.2973.8692,2.9351.8715,4.4519q.042,27.6846.0178,55.3692.0014,58.3586.0036,116.7172a12.0532,12.0532,0,0,1-.3278,3.6084A39.3334,39.3334,0,0,1,530.98,489.1c-.3163.2588-.7854.15-1.0845.4507l-.1646.1344-.2125-.0067c-1.2567.031-1.2606-.9816-1.4008-1.783a21.0146,21.0146,0,0,1-.12-3.6314Q527.9943,401.3619,528,318.46C528,316.6522,527.7877,314.802,528.812,313.146Z"/><path class="cls-27" d="M480.8966,344.2508c.0231,1.2126.0661,2.4252.0662,3.6379q.0051,75.53.003,151.0607c0,.6934-.023,1.3877.006,2.08.0869,2.0682.4546,2.427,2.6258,2.6268-.6222.5636-1.4417.4782-2.1792.6436-2.7486.6168-5.5009,1.2186-8.26,1.788a17.3371,17.3371,0,0,1-2.0339.1843,1.3725,1.3725,0,0,1-.5531-1.1173q-.0153-1.04-.0137-2.0795-.0009-74.8734.0012-149.7468a7.9032,7.9032,0,0,1,.495-3.8208C474.263,347.6205,477.5186,345.821,480.8966,344.2508Z"/><path class="cls-28" d="M496.1238,500.5548c-1.5591-.34-1.574-.34-1.6164-1.4837-.0289-.779-.0106-1.56-.0106-2.34q0-77.3516-.01-154.7031a12.604,12.604,0,0,0-.2894-4.1237c-.1414-.4241.1564-.9945.2531-1.4984a112.7437,112.7437,0,0,1,9.8467-6.0981c1.2929,1.27.9107,2.9169.9135,4.4289q.046,25.4826.0195,50.9655.0081,54.7359.0178,109.4718c.0008.9581-.0978,1.902-.1889,2.85A46.6043,46.6043,0,0,1,496.1238,500.5548Z"/><path class="cls-29" d="M538.7327,485.9568a1.4107,1.4107,0,0,1-.5129-1.138q-.0084-1.1691-.0082-2.3382,0-86.517-.0021-173.0341c0-1.2121-.0273-2.4243-.0419-3.6364a48.6946,48.6946,0,0,1,5.0254-4.3129,30.218,30.218,0,0,1,4.3465-3.5316,3.4218,3.4218,0,0,1,.4009,2.2515c-.094,57.6738-.0115,115.3477-.0421,173.0216-.0016,2.8576-.0221,5.7147.225,8.5654a45.34,45.34,0,0,1-8.2646,3.664c-.3346.2422-.8259.1234-1.11.4816Z"/><path class="cls-30" d="M588.7207,458.91c-.5446-.1063-1.0059-.3223-1.0291-.9629-.0314-.8649-.0395-1.7311-.0395-2.5967q-.0024-97.5753-.0051-195.1508c0-1.2981-.0541-2.5963-.0831-3.8946,1.5092-2.0532,2.9883-4.13,4.539-6.1508a23.2588,23.2588,0,0,1,2.7995-3.6143c.7215,2.5377.5519,5.14.552,7.7284q.0046,97.6449.0038,195.29c0,.8664-.0031,1.7339.0365,2.599.0347.7571.5938.9826,1.2314,1.0912A50.1833,50.1833,0,0,1,588.7207,458.91Z"/><path class="cls-31" d="M333.6314,503.6585a59.55,59.55,0,0,1-8.6129-2.3867,10.0352,10.0352,0,0,1-3.3255-1.2339,5.1051,5.1051,0,0,1-.81-3.4691q-.0165-51.7534.0092-103.507c.003-3.4581.2383-3.587,3.7035-3.636a19.929,19.929,0,0,0,4.9105-.1892,15.3434,15.3434,0,0,1,4.1375-.09c1.9493-.7264,2.7443.1894,2.9,2.03.08.9519.07,1.9053.07,2.8584q.0027,52.137-.0006,104.274a19.41,19.41,0,0,1-.1327,3.3737C336.201,503.2755,335.4649,504.2749,333.6314,503.6585Z"/><path class="cls-32" d="M425.8,511.9238q.0012-68.081.0045-136.1618a14.7311,14.7311,0,0,1,.4646-5.1356,4.133,4.133,0,0,0,.033-1.2912c2.6364-1.3912,5.5284-2.151,8.2512-3.3316a6.777,6.777,0,0,1,2.6506-.8634,5.9,5.9,0,0,0-.48,2.5262c.0383.517.0067,1.0392.0067,1.5591q0,69.0091.0008,138.0183c0,.8663.0007,1.7329.0212,2.5989.0178.7512.52,1.0309,1.1756,1.1393-.1495.0784-.2962.2169-.45.226C433.5843,511.4375,429.72,512.1481,425.8,511.9238Z"/><path class="cls-33" d="M528.812,313.146c.0106,1.2129.03,2.4259.03,3.6388q.0023,84.6153.0025,169.23c0,.8661.0085,1.7325.0323,2.5982a1.3031,1.3031,0,0,0,.6415,1.0645,20.9779,20.9779,0,0,1-5.34,2.0089c-.4257.4465-1.1745-.025-1.5558.5474l.01-.0074c-.3158.2352-.7555.1588-1.06.4215l-.1932.1222-.2284-.0091c-1.42.5072-1.6142-.5573-1.8339-1.4854a13.4061,13.4061,0,0,1-.1652-3.1081q-.0055-81.8863.0044-163.7726c0-1.8-.2608-3.6906,1.3058-5.1A94.9983,94.9983,0,0,1,528.812,313.146Z"/><path class="cls-34" d="M329.5064,389.2366c-.4622.5256-1.0873.45-1.6891.4546-1.6465.011-3.2938-.0064-4.9394.0387-.7851.0215-1.0811.3383-1.1242,1.1272-.0471.8641-.0337,1.7321-.0337,2.5984q-.002,51.6017-.0022,103.2033c0,1.1264-.016,2.2528-.0247,3.3791l-.5114-.1195c-.3-.2487-.743-.1578-1.0324-.4326l-.0026-.0008c-.4-.5119-1.1246-.0754-1.5452-.5277l-.0131-.0049c-.3336-.3432-.82-.281-1.2162-.4577l-.192.0177-.153-.1173c-.3173-.301-.7887-.2091-1.132-.4437l-.2337.0041-.2035-.1149c-.2969-.26-.7553-.1416-1.0351-.4415a34.0308,34.0308,0,0,1-7.3154-3.0561,6.8445,6.8445,0,0,1-.3051-2.56c.07-32.3956.0126-64.7912.031-97.1867.0005-.78-.0269-1.56-.0068-2.3385.0407-1.5729-.4154-2.677-2.2161-2.889-.7-.0824-1.6431-.1562-1.6158-1.2863,1.0295.0359,2.0617.0371,3.0881.1142,3.5971.27,7.1883.6409,10.7893.8293,2.9172.1526,5.8451.0952,8.7683.1362C326.9291,389.18,328.2177,389.2113,329.5064,389.2366Z"/><path class="cls-35" d="M649.0622,225.2841a11.9807,11.9807,0,0,1,1.14,2.8346c1.6641,4.94,3.3469,9.8736,5.01,14.8138a5.663,5.663,0,0,1,.1511,1.0074c.6023,47.2262.0941,94.4546.269,141.6816a49.922,49.922,0,0,1-.2809,6.223,22.07,22.07,0,0,1-2.7134,4.2982,43.5875,43.5875,0,0,1-4.0815,5.53c-.1935.1748-.419.3252-.4666.6113l.042-.0453c-.4422.1413-.3151.6933-.6553.9082l-.0419.0648q-.2157.2775-.4355.5518l-.0029.0042c-1.3788-.1143-1.5424-1.2187-1.7508-2.2264a15.3107,15.3107,0,0,1-.1507-3.1124q-.0045-86.7418,0-173.4835a15.2416,15.2416,0,0,1,.1787-3.37c.2276-1.0087.4476-2.0961,1.8319-2.1526l-.0141.0191c.1129.3941.0815.8387.4058,1.1588l.1254.1118-.05.1605c.1339.4338.11.9223.4461,1.2859l.0008.0036c.4567.4244.03,1.1441.5208,1.557l0,.0027C648.9987,224.1479,648.5651,224.8712,649.0622,225.2841Z"/><path class="cls-36" d="M505.0594,498.0242a1.4962,1.4962,0,0,1-.6628-1.33c-.0051-.8665-.0117-1.7331-.0117-2.6q-.0009-80.0753-.0042-160.1505c0-1.212-.054-2.4241-.083-3.6362l.0146.0274c.26-.0643.3941-.2963.5916-.4439l.0409-.0237c.2524-.3149.7772-.2149.9625-.6319a69.5769,69.5769,0,0,1,7.8188-5.2082,3.6887,3.6887,0,0,1,.3852,2.2644q-.1226,82.4547-.0392,164.91c-.0008,1.4661.1382,2.9686-.78,4.2721a27.249,27.249,0,0,1-6.2611,1.9456c-.4555.4184-1.1667-.0021-1.6.4875l-.1637.1274Z"/><path class="cls-37" d="M647.1054,219.4226a3.2263,3.2263,0,0,0-1.1694,2.7555c.0111.5195.0011,1.04.0011,1.5592q0,87.9658,0,175.9316c0,.52.0068,1.0395.0006,1.5592a3.0682,3.0682,0,0,0,1.0584,2.5392,25.626,25.626,0,0,1-4.0309,5.2276c-.5971.3381-.7713,1.0129-1.1893,1.4936l-.0148.0208a2.1734,2.1734,0,0,0-.4774.5666l.0218-.0251a.9612.9612,0,0,0-.51.592l.04-.0419c-.2915.1049-.5211.2606-.5068.6166l-.0014.0337c-.592-.2211-1.1154-.5129-1.1324-1.2469-.018-.7792-.0225-1.5588-.0225-2.3383q-.0014-102.9-.0006-205.8c0-.6063.0194-1.2131.001-1.8188a1.973,1.973,0,0,1,1.1274-1.8934l-.0089.0224c.1625.3662.1194.8073.4105,1.1267a.2269.2269,0,0,1,.0948.3441c.1735.3945.1226.8676.4263,1.2165a.2268.2268,0,0,1,.0944.3438c.1731.3949.1221.8683.4264,1.2173a.2255.2255,0,0,1,.0942.3425c.1724.3955.122.8689.4263,1.2183,1.3032,2.9174,2.1365,6.0016,3.1791,9.0109A29.2944,29.2944,0,0,1,647.1054,219.4226Z"/><path class="cls-38" d="M578.7933,266.894q.0051,18.7251.01,37.45.0017,78.5418.003,157.0836c0,1.3.0376,2.6.0577,3.9a9.6543,9.6543,0,0,1-3.1644,1.9053c-.2837.2915-.8158.1535-1.0166.5881l.0368-.0335c-.2552.0591-.3972.2811-.5993.4167l-.0723.0344c-.2269.3406-.72.2091-.9537.5368l-.0176.01a1.634,1.634,0,0,1-1.01-1.4014c-.0332-.6916-.0279-1.3853-.0279-2.0781q-.0017-93.8154-.001-187.6308c0-.4331.0274-.8683-.005-1.2989a2.71,2.71,0,0,1,.9117-2.3217c.5654-.5249,1.19-1.0413,1.1743-1.9311A39.6877,39.6877,0,0,1,578.7933,266.894Z"/><path class="cls-39" d="M285.0506,481.8478a16.7265,16.7265,0,0,1-3.7538-2.6628,71.71,71.71,0,0,1-9.3959-8.7711,12.0718,12.0718,0,0,1-.7276-1.0414,27.7557,27.7557,0,0,0,.2579-5.6859q.02-38.81.0281-77.62c.0017-1.598-.408-3.32.8417-4.7168a43.7679,43.7679,0,0,1,5.395,1.5285c2.7146.7339,5.4254,1.4816,8.1378,2.2235,1.5031.8468,1.3027,2.3383,1.3174,3.6879.0546,5.0188.0218,10.0383.0218,15.0575q.0006,37.1249-.0359,74.25c-.0031,1.4867.6826,3.3641-1.367,4.2666l.0183-.0038A.8955.8955,0,0,0,285.0506,481.8478Z"/><path class="cls-40" d="M333.6314,503.6585c1.9607-.33,2.0789-.4457,2.1345-2.1978.0192-.6064.0041-1.2138.0041-1.8208q0-53.4545,0-106.909c0-.6936.0189-1.3881-.01-2.0807-.052-1.25-.0993-1.2834-1.5964-1.4795-.1713-.0224-.3463-.0165-.52-.0239a2.5378,2.5378,0,0,1,.7081-.2759q6.5646-.4249,13.1315-.8137a6.5385,6.5385,0,0,1,.7714.0419c-.931,2.85-.7122,5.796-.7127,8.72q-.0084,52.61-.0227,105.22c-.0011,1.5993.4073,3.3206-.8255,4.7261a12.472,12.472,0,0,1-3.8231-.6452c-2.8747-.6088-5.717-1.3714-8.5682-2.0882A2.9533,2.9533,0,0,1,333.6314,503.6585Z"/><path class="cls-41" d="M285.77,482.364a2.8464,2.8464,0,0,0,.4952-.8725,12.1481,12.1481,0,0,0,.0636-1.8152q.0032-45.7749,0-91.55a5.0429,5.0429,0,0,0-.4955-3.0244c3.181.5857,6.3712,1.1264,9.538,1.78,1.1585.2393,2.41-.003,3.4825.6652a5.1227,5.1227,0,0,1,.8036,3.47q.0188,47.3127-.0381,94.6251c-.0031,1.5343.6348,3.7-2.0276,4.0332a.3086.3086,0,0,1-.3472-.1572,1.5412,1.5412,0,0,0-.679-.3952,44.6519,44.6519,0,0,1-7.301-4.2148A14.77,14.77,0,0,1,285.77,482.364Z"/><path class="cls-42" d="M346.694,506.7652l.0048-113.99a9.2874,9.2874,0,0,0-.0194-1.8137c-.2915-1.4378.4824-2.2219,1.5755-2.862.149-.08.2942-.2207.4475-.23,2.8047-.1721,5.5594-.8543,8.3834-.8218.0071.9517.02,1.9035.02,2.8553q.0016,57.3717.0008,114.7434c0,.6923.0162,1.3851-.0068,2.0767-.043,1.296-.0526,1.2956-1.7236,1.68A39.0386,39.0386,0,0,1,346.694,506.7652Z"/><path class="cls-43" d="M513.292,495.4739c-.02-1.039-.0579-2.078-.058-3.1171q-.0044-82.2549,0-164.51a7.8171,7.8171,0,0,1,.4926-3.8192,52.31,52.31,0,0,1,6.737-4.7329,6.768,6.768,0,0,0-.4738,2.7925c.0427.5163.0075,1.0392.0075,1.5592q0,82.6724.0007,165.3447c0,.8665.0074,1.733.0164,2.5995.0078.7477.4706,1.06,1.1379,1.1705a23.4711,23.4711,0,0,1-6.1458,2.104c-.4148.1506-.9.1-1.2487.4393A.4774.4774,0,0,1,513.292,495.4739Z"/><path class="cls-44" d="M655.3512,391.8445a1.4518,1.4518,0,0,1-.55-1.126q-.0185-1.04-.0169-2.08-.0011-70.7495,0-141.4989c0-.6934.0049-1.387.0182-2.08a1.4246,1.4246,0,0,1,.56-1.119l-.0074.0072c.38.4665-.0593,1.21.5412,1.6021l-.0216-.0406c.3806.4661-.0573,1.2115.5469,1.6012.3718.2929.4008.7451.5367,1.1487q3.4779,10.3287,6.951,20.6592a13.7022,13.7022,0,0,1,.3292,1.5092c.5082,18.9651.1352,37.9337.22,56.9006.0606,13.6016.0115,27.2037.0121,40.8056a69.5713,69.5713,0,0,1-.3191,9.079,65.3491,65.3491,0,0,1-4.3856,7.8694,31.4085,31.4085,0,0,1-3.3782,5.1519c-.3522.22-.2464.7215-.585.95l-.0335.063c-.1155.2151-.3726.3286-.4236.59Z"/><path class="cls-45" d="M272.301,381.35q-.0108,14.8125-.02,29.6251-.005,27.5464-.0029,55.0929c0,.7788-.0072,1.5587-.0514,2.3359-.036.6349-.5354.8252-1.0528.9682l.0278-.0029a1.1565,1.1565,0,0,0-.5324-.5708l.025.0264a2.2592,2.2592,0,0,0-.4923-.5662l-.0075-.0089a4.4569,4.4569,0,0,1-.4606-.5281l-.0347-.043c-.3251-.248-.2462-.8223-.7488-.927a45.7075,45.7075,0,0,1-6.872-10.6093,62.941,62.941,0,0,1-4.8734-14.4206c.7067-1.3208.1818-2.7107.184-4.0592.0312-19.0156.0071-38.0313.0382-57.0469.0028-1.709-.15-3.4762.8248-5.0409a23.5665,23.5665,0,0,1,3.7648,1.5863c3.0864,1.2483,6.1657,2.5141,9.2478,3.7728.3048.2306.7337.1531,1.0266.4134Z"/><path class="cls-46" d="M297.5921,489.6758a1.8054,1.8054,0,0,0,1.2232-1.8037c-.007-.78.0051-1.5594.0051-2.3391q0-47.3036.0017-94.607c0-1.1261.0207-2.2521.032-3.3782,1.3946.0667,2.82-.1078,4.14.5345a1.2572,1.2572,0,0,0,1.102.56c.6929.01,1.387-.01,2.0788.0229,1.2541.0587,1.4291.2521,1.4843,1.5909.0214.5189.0078,1.0393.0078,1.5589q0,49.498-.0024,98.9959c0,1.2038.1593,2.4389-.5575,3.5323l-.5-.1635a1.5916,1.5916,0,0,0-.6729-.3735,12.7758,12.7758,0,0,1-3.7109-1.568A20.8554,20.8554,0,0,1,297.5921,489.6758Z"/><path class="cls-47" d="M664.1516,377.2121a2.7986,2.7986,0,0,1-.4683-.8818,18.0674,18.0674,0,0,1-.0509-2.0766q-.0021-50.3173,0-100.6347c0-.6932.0072-1.3866.0262-2.0794a1.4792,1.4792,0,0,1,.5807-1.1126l-.0053.0255c.1581.3691.1159.81.4086,1.131a.2161.2161,0,0,1,.0941.337c.1753.4.1139.8862.4494,1.2274l.1277.1041-.0483.1576c.1326.44.1077.9336.4494,1.301l.1247.1064-.0536.1548c.1331.4389.1076.9326.449,1.3l.1247.1062-.0534.1549c.1334.4389.1076.9327.449,1.3a6.3123,6.3123,0,0,1,.47.8961q1.974,5.8209,3.9163,11.6527a14.3457,14.3457,0,0,1,.3307,1.4832c.6291,22.5662.1071,45.1371.2862,67.7051.0083,1.0447-.3559,2.0478-.2632,3.0936a51.1847,51.1847,0,0,1-4.6039,9.3869c-.48.2121-.4046.714-.57,1.0905l.0312-.044c-.477.203-.3712.7158-.5678,1.0678l.0255-.0374c-.4453.2142-.3409.7249-.57,1.0559l.0182-.0311c-.4.23-.2971.7338-.5634,1.0367l.0038-.007c-.3525.2487-.2491.739-.5412,1.02Z"/><path class="cls-48" d="M548.1233,481.8041c-.5439-.11-.9962-.3292-1.0261-.969-.0282-.605-.0374-1.2114-.0374-1.8172q-.0024-88.873-.008-177.7462a7.7656,7.7656,0,0,1,.4877-3.306,21.7224,21.7224,0,0,1,4.14-3.6752c-.0195.0844-.0109.1953-.0623.2494-1.3518,1.4226-1.4671,3.1386-1.466,5.0133q.0534,88.4758.03,176.9517c0,.8661.0075,1.7322.0163,2.5982.0077.7469.4687,1.0607,1.136,1.1715A8.1492,8.1492,0,0,1,548.1233,481.8041Z"/><path class="cls-49" d="M671.4947,362.663c-.1786-.2829-.4732-.5508-.5123-.8519a16.1709,16.1709,0,0,1-.0637-2.073q-.0031-32.4688,0-64.9378a16.888,16.888,0,0,1,.0579-2.0736c.0377-.3033.3226-.5759.4953-.8624a25.4107,25.4107,0,0,1,1.7748,4.84c3.3925,9.9942,6.7248,20.0089,10.1446,29.9936a7.3287,7.3287,0,0,1,.0772,4.7753,252.1662,252.1662,0,0,1-11.0836,29.6353A17.2346,17.2346,0,0,1,671.4947,362.663Z"/><path class="cls-50" d="M247.8251,409.9837a.188.188,0,0,1-.0729-.3c-.3183-.5454.07-1.2983-.5188-1.7642a3.7114,3.7114,0,0,1-.7469-1.9q-6.8923-23.2312-13.735-46.4772c-.0488-.1652-.0706-.3385-.105-.508-.1021-.5407.1279-.7224.6437-.5954a101.5443,101.5443,0,0,0,15.37,11.657,6.6765,6.6765,0,0,1,.7843.6566c.1295.5535.69.45,1.0332.677l-.0213-.016c1.19.8793,1.3061,2.1671,1.3089,3.4865.0265,12.4288.0571,24.8578-.04,37.286-.0108,1.3921.4734,3.6228-2.3571,2.9992a.18.18,0,0,1-.0582-.2943,3.9225,3.9225,0,0,0-.4082-1.2581.289.289,0,0,1-.0947-.3779c-.3581-.5105.0436-1.2468-.5059-1.7l.0125.0263C247.905,411.1241,248.305,410.42,247.8251,409.9837Z"/><path class="cls-51" d="M249.3683,415.1859c1.4541-.275,1.5012-.3046,1.5589-1.2323.0268-.4317.0148-.8659.0148-1.299q.0009-19.1.0035-38.2007a6.18,6.18,0,0,0-.4892-3.0395,79.7823,79.7823,0,0,1,7.7951,4.1606c.1259.4918.5176.9567.2843,1.4884a7.93,7.93,0,0,0-.3,3.3322q-.0161,29.35-.0084,58.7a21.5894,21.5894,0,0,1-.034,2.3344c-.0778.7107-.6077.3541-.9892.2917a.2523.2523,0,0,1-.0778-.3477c-.3461-.521.0645-1.271-.521-1.7194a13.5393,13.5393,0,0,1-1.24-3.6373c-1.9657-6.5124-3.8848-13.0389-5.8072-19.5643A9.0754,9.0754,0,0,1,249.3683,415.1859Z"/><path class="cls-3" d="M606.339,854.2152l-3.4878-.101c-.0216-4.7667-.0507-9.5336-.0626-14.3-.0106-4.2474-.0032-8.4949-.001-12.7423,0-.5195.004-1.04.0306-1.5585a.7766.7766,0,0,1,.8344-.7823,2.3964,2.3964,0,0,1,.26-.01,25.192,25.192,0,0,1,4.65.1677,16.0117,16.0117,0,0,1,1.5386,4.0789q3.0845,9.0945,6.1135,18.2077a3.6419,3.6419,0,0,0,.8794,1.7289c.2553-.651.5106-1.2391.7193-1.8433q3.6019-10.4282,7.1941-20.86c.5033-1.4567.52-1.5025,1.9735-1.4767,4.6233.0823,3.8712-.7839,3.8964,3.7117.0429,7.6278.0159,15.2561.0067,22.8841-.0011.9512-.0725,1.9024-.1115,2.8536q-1.7621.02-3.5236.04a9.17,9.17,0,0,1-.1909-2.8408q-.012-9.102-.0045-18.2039c0-.56-.0059-1.12-.009-1.662-.5009-.0195-.6451.1827-.7313.4321q-3.6906,10.67-7.3717,21.3443a2.5008,2.5008,0,0,0-.0657.5138,5.1539,5.1539,0,0,1-4.1631,0c-1.3956-4.2515-2.7774-8.5077-4.1916-12.7531-1.0072-3.0238-2.06-6.0324-3.0873-9.0495a1.5858,1.5858,0,0,0-.8993-1.1116v1.8646q0,9.32-.004,18.6391A9.1087,9.1087,0,0,1,606.339,854.2152Z"/><path class="cls-3" d="M401.79,854.1726l-3.5253.0459c-.0662-.7724-.1887-1.5446-.19-2.3171q-.0209-12.4686-.0065-24.9373c0-.5182.0082-1.0385.0548-1.5539a.6526.6526,0,0,1,.6433-.6657c.1727-.0106.3456-.02.5185-.0262,2.7655-.0984,2.7637-.097,4.3416,2.26q5.8485,8.7378,11.7028,17.4716c.5206.7759,1.08,1.5261,1.6039,2.2646.7017-.281.4875-.777.4883-1.1543q.0215-8.9619.0109-17.9237c0-.6925-.0046-1.3855.021-2.0772a.749.749,0,0,1,.78-.8231c.4326-.0126.8655-.0217,1.2983-.02,1.7022.0074,1.7329.0092,1.7351,1.7282q.0167,13.1181-.0036,26.2362a12.3429,12.3429,0,0,1-.19,1.5379l-4.0287-.09q-7.1945-10.775-14.3959-21.5453c-.0811-.1211-.2689-.1708-.4226-.2633-.5337.2435-.3076.7365-.3086,1.1105-.0163,5.9652-.0065,11.9305-.0168,17.8957C401.8988,852.2753,401.8285,853.2239,401.79,854.1726Z"/><path class="cls-6" d="M124.4153,853.6618c-.6987.7213-1.6023.5051-2.443.507q-8.1607.0181-16.3216.0059c-.7772,0-1.5546-.0129-2.3316-.0017a1.7467,1.7467,0,0,1-1.1483-.51c.0292-1.1233.0826-2.2465.0837-3.37q.0114-11.1672.0042-22.3345c0-.6925-.0167-1.3859.0119-2.0774.04-.9629.2258-1.1559,1.28-1.158q9.4815-.0189,18.9631,0c.8447.0014,1.0346.223,1.0711,1.0815.0183.4321.0178.8659.0042,1.2982-.0329,1.0483-.1245,1.1651-1.2217,1.1686q-6.8838.0222-13.7677.0061c-2.46-.0033-2.2882-.0809-2.2873,2.2133.0008,1.818-.014,3.6361.01,5.4537.0142,1.0611.11,1.16,1.2416,1.1655,3.9831.0179,7.9663.0078,11.9494.01.6925,0,1.3852.0033,2.0776.0156.4864.0086.8282.2136.8316.7481.02,3.2259.4176,2.87-2.616,2.88-3.6367.0121-7.2735.0016-10.91.0042-.6055,0-1.2118.0029-1.8164.0316-.5182.0246-.74.35-.7541.8434-.0025.0864-.0093.1728-.0093.2592q.0008,3.8957.0006,7.7911a.8349.8349,0,0,0,.9485.946q2.8575.0066,5.7149.0078,5.1954.0039,10.3907.0073a.8334.8334,0,0,1,.9535.9371C124.3305,852.2817,124.3832,852.9717,124.4153,853.6618Z"/><path class="cls-6" d="M96.8276,854.174q-10.8569,0-21.7137-.0008c-.0385-.6044-.11-1.2087-.1108-1.813q-.0111-12.7405-.0046-25.4809c0-.4333-.0076-.8673.0143-1.3.0243-.482.2371-.82.7724-.8389.4329-.0152.8662-.0251,1.2993-.0252q8.5825-.0024,17.1649,0c.433,0,.8665.0078,1.2988.03a.7542.7542,0,0,1,.7745.8381c.0121.6064.0055,1.2131.0043,1.82a.7341.7341,0,0,1-.7557.8425c-.6056.026-1.2125.0313-1.8188.0317q-6.1118.0039-12.2235.0026c-.6066,0-1.215-.0078-1.819.036a.632.632,0,0,0-.6211.6742q-.02,3.6391-.02,7.2782a.7266.7266,0,0,0,.7707.83q1.3.0178,2.6.02c3.7277.0023,7.4555-.01,11.1832.0068,1.5233.0069,1.5472.06,1.5607,1.6474.0015.1734.0025.3468-.0006.52-.0253,1.4043-.0519,1.46-1.4846,1.4665-3.901.0169-7.8022.0055-11.7033.007-.6934,0-1.3869.006-2.08.0139-.4951.0057-.8309.2259-.8329.7506q-.016,4.159-.0029,8.318a.728.728,0,0,0,.8143.7811c.6067.0079,1.2134.016,1.82.0162q6.3718.002,12.7436.0049c.7664.0016,1.5327.0586,2.3873.0936A12.3067,12.3067,0,0,1,96.8276,854.174Z"/><path class="cls-6" d="M597.4664,854.174l-21.7139-.0009c-.0386-.6043-.11-1.2086-.1108-1.813q-.0109-12.7405-.0045-25.4809c0-.4333-.0076-.8673.0142-1.3.0244-.4819.2372-.82.7725-.8387.4329-.0153.8662-.025,1.2993-.0251q8.5825-.0026,17.165,0c.4329,0,.8664.0077,1.2987.03a.7544.7544,0,0,1,.7744.8383c.012.6064.0056,1.2132.0043,1.82a.7341.7341,0,0,1-.7558.8424c-.6056.0259-1.2125.0313-1.8188.0317q-6.1117.0036-12.2235.0026c-.6065,0-1.2149-.0078-1.819.036a.6319.6319,0,0,0-.621.6742q-.02,3.6391-.02,7.2782a.7266.7266,0,0,0,.7708.83q1.3.0177,2.6.02c3.7277.0023,7.4555-.01,11.1832.0068,1.5232.0069,1.5471.06,1.5606,1.6475.0015.1733.0026.3468-.0005.52-.0254,1.4043-.0521,1.46-1.4848,1.4666-3.901.0168-7.8022.0055-11.7033.0069-.6934,0-1.3869.006-2.08.0139-.4952.0057-.8308.2262-.8328.7508q-.016,4.1589-.0029,8.3179a.7281.7281,0,0,0,.8143.7811c.6067.0079,1.2134.0159,1.82.0161q6.3718.0021,12.7437.0049c.7664.0016,1.5327.0586,2.3871.0936A12.307,12.307,0,0,1,597.4664,854.174Z"/><path class="cls-6" d="M151.4711,854.174l-21.7137-.0009c-.0385-.6043-.11-1.2086-.1108-1.813q-.0111-12.7405-.0046-25.4809c0-.4333-.0075-.8673.0143-1.3.0243-.482.2372-.82.7725-.839.4329-.0152.8662-.0249,1.2993-.025q8.5824-.0024,17.1649,0c.433,0,.8665.0077,1.2988.03a.7543.7543,0,0,1,.7744.8383c.012.6064.0055,1.2132.0043,1.82a.734.734,0,0,1-.7557.8424c-.6056.0261-1.2125.0313-1.8188.0317q-6.1118.0036-12.2235.0026c-.6066,0-1.215-.0078-1.819.036a.6318.6318,0,0,0-.6211.6742q-.02,3.6391-.02,7.2781a.7267.7267,0,0,0,.7707.83q1.3.0177,2.6.02c3.7277.0023,7.4555-.01,11.1832.0068,1.5233.0069,1.5472.06,1.5607,1.6474.0015.1734.0025.3468-.0006.52-.0253,1.4043-.052,1.46-1.4846,1.4666-3.9011.0168-7.8022.0054-11.7033.0069q-1.04,0-2.08.0139c-.495.0057-.8308.226-.8328.7507q-.016,4.1589-.0028,8.318a.7279.7279,0,0,0,.8143.781c.6066.0079,1.2133.016,1.82.0162q6.3719.002,12.7437.0049c.7664.0016,1.5326.0585,2.3872.0935A12.3074,12.3074,0,0,1,151.4711,854.174Z"/><path class="cls-6" d="M797.8257,854.1737l-21.74.0452c-.0664-.7722-.1892-1.5443-.1906-2.3166q-.0209-12.4663-.0066-24.9326c0-.5181.0127-1.0375.0514-1.5538a.6855.6855,0,0,1,.65-.667,8.99,8.99,0,0,1,1.0376-.0326q8.9624-.0024,17.9248-.0007c.26,0,.52-.0036.779.0122a.8055.8055,0,0,1,.8559.7726c.0324.3437.0329.691.034,1.0367.0055,1.7085.004,1.7317-1.7285,1.7371-4.4163.0136-8.8325.0021-13.2488.0078-.6038.0008-1.2077.043-1.8116.0653a.574.574,0,0,0-.5232.4927,4.4277,4.4277,0,0,0-.0674,1.0323c-.0052,1.8181-.0148,3.6362.0008,5.4541.0152,1.7584.0278,1.779,1.6854,1.7888,2.8575.0168,5.7151.0043,8.5727.0052,1.6453,0,3.2908-.014,4.9357.01.9512.014,1.1248.1653,1.1323,1.0165.0245,2.784.2571,2.6228-2.401,2.62q-5.5852-.0063-11.1706-.0006c-.6062,0-1.2124,0-1.8184.01a.8517.8517,0,0,0-.9321.97c-.0013,1.7314-.0619,3.4653.012,5.1934.0505,1.1811-.5639,2.655.3735,3.4688.7874.6836,2.165.2228,3.2793.2293,4.07.024,8.14.0049,12.21.0139.6789.0016,1.3577.0625,2.1222.1A12.3043,12.3043,0,0,1,797.8257,854.1737Z"/><path class="cls-6" d="M507.9819,854.2194l-3.5528,0a12.9557,12.9557,0,0,1-.1917-3.6138c-.0264-2.3364-.067-4.6752.0157-7.0089a5.3643,5.3643,0,0,0-1.054-3.37c-3.2162-4.7154-6.3746-9.47-9.55-14.2133-.1869-.2792-.3374-.5826-.5114-.8862a12.5981,12.5981,0,0,1,4.252-.3618c.5471.1713.7893.6586,1.0646,1.0851q3.4465,5.3389,6.8692,10.6936c.3132.4877.4549,1.1025,1.0136,1.407.6408-.1085.746-.7006,1.015-1.1116,2.3672-3.6174,4.7305-7.2378,7.0538-10.8834a2.184,2.184,0,0,1,2.3092-1.2583,23.264,23.264,0,0,0,2.3326.0542.487.487,0,0,1,.3443.7551c-.3671.5847-.7514,1.1592-1.1442,1.7271-3,4.3389-5.9816,8.6914-9.0243,13a5.269,5.269,0,0,0-1.0654,3.3624c.0779,2.68.0284,5.3647.0206,8.0474A7.9285,7.9285,0,0,1,507.9819,854.2194Z"/><path class="cls-52" d="M814.4808,854.176c-.9007,0-1.8018-.02-2.7017.0056a1.8023,1.8023,0,0,1-1.3261-.5168c.0293-.8632.083-1.7265.084-2.59q.0106-9.8657.0037-19.7313c0-.6058.012-1.212-.0066-1.8172-.0335-1.0935-.1382-1.2068-1.1519-1.24-.6053-.02-1.2118-.0057-1.8177-.0059-1.7312-.0008-3.4626.0143-5.1936-.0062-1.3358-.0158-1.38-.0828-1.3947-1.5188-.0035-.3461.0053-.6923.0064-1.0384.0018-.5964.2277-.9886.8912-.9915.3461-.0014.6923-.0122,1.0384-.0123q9.7383-.0011,19.4766,0c.346,0,.6926-.0019,1.0379.0176a.7883.7883,0,0,1,.8305.794c.0315.5173.0347,1.0377.0216,1.5561-.0266,1.05-.1341,1.1793-1.2281,1.19-2.4236.0234-4.8476-.0027-7.2712.0194-1.0529.01-1.172.13-1.1738,1.2281-.0116,7.183-.0028,14.3658-.0136,21.5487C814.5906,852.1037,814.52,853.14,814.4808,854.176Z"/><path class="cls-52" d="M320.6074,854.1759c-.9006,0-1.8016-.02-2.7014.0058a1.8029,1.8029,0,0,1-1.326-.5169c.0292-.8633.0829-1.7265.0838-2.59q.0107-9.8652.0038-19.7305c0-.6058.0119-1.2119-.0067-1.8172-.0334-1.0937-.1385-1.2077-1.1508-1.2406-.6053-.02-1.2117-.0057-1.8176-.006-1.7312-.0007-3.4626.0143-5.1935-.0061-1.3363-.0158-1.3813-.0834-1.396-1.5175-.0036-.346.0052-.6922.0064-1.0383.0019-.5956.2256-.99.89-.9927.26-.0011.5191-.0121.7787-.0121q9.9975-.0012,19.9952.0011c.3455,0,.6921.0111,1.0363.04a.6494.6494,0,0,1,.6664.6438c.1,3.1139.375,2.8787-2.3384,2.8819q-3.246.0039-6.4919.0086c-.6416.0014-.9262.3409-.9182.971.0089.6921-.0029,1.3846-.003,2.0768q-.0006,9.9951-.0054,19.99C320.7175,852.2768,320.6463,853.2263,320.6074,854.1759Z"/><path class="cls-52" d="M562.086,853.6648a1.6761,1.6761,0,0,1-1.1463.511c-.9485-.028-1.8975-.04-2.8462-.0589q-.0327-8.7078-.0644-17.416c-.0067-2.08,0-4.16-.0014-6.2394-.0021-2.33.1782-2.1828-2.3054-2.1808-1.9069.0016-3.814.0128-5.7208-.0041-1.5314-.0135-1.5312-.0294-1.5382-1.6447,0-.0866-.0009-.1733,0-.26.0164-1.5806.057-1.6381,1.555-1.6551,1.56-.0176,3.12-.0043,4.6807-.0043q7.281,0,14.5622.0014a17.0852,17.0852,0,0,1,1.8174.05.5466.5466,0,0,1,.5142.5c.0241.43.0762.8606.0777,1.291.006,1.6973.0006,1.711-1.7168,1.7232-2.34.0166-4.6806.0133-7.0209.01a.8159.8159,0,0,0-.9261.9463c.0016.1732-.0072.3466-.0071.52q.0036,11.6988.0115,23.3976A3.4964,3.4964,0,0,0,562.086,853.6648Z"/><path class="cls-53" d="M202.4365,854.12l-3.95-.0017c-.0222-3.7132-.056-7.4263-.0641-11.14-.0111-5.0959-.0032-10.1917-.0023-15.2876,0-.6909.001-1.3818.0131-2.0725.0113-.6446.3861-.9042.9931-.9008.0863,0,.1728-.0049.2591-.0042,3.0953.0225,2.8156-.3436,2.8175,2.72q.0075,12.1784-.0013,24.3566C202.5014,852.5668,202.4593,853.3434,202.4365,854.12Z"/><path class="cls-54" d="M769.2121,853.667a1.7919,1.7919,0,0,1-1.3271.5178c-.9009-.0254-1.8031-.0073-2.7046-.0075-.039-.69-.1113-1.3795-.112-2.0693q-.0117-12.5893-.003-25.1787c0-.518.0164-1.0369.0511-1.5537a.6458.6458,0,0,1,.67-.6341c.1722-.0144.3452-.0282.5178-.0271,3.0376.018,2.8205-.34,2.8209,2.7419q.0014,11.8105.0041,23.6212C769.13,851.9407,769.1833,852.8039,769.2121,853.667Z"/><path class="cls-6" d="M302.3915,854.174q-1.7633.0225-3.5262.0453c-.0665-.7729-.19-1.5458-.1908-2.3189q-.0209-12.4789-.0064-24.958c0-.5185.012-1.0389.0589-1.5547a.6637.6637,0,0,1,.6648-.6481c.0865-.0066.1729-.02.2593-.0195,3.123.0257,2.8538-.4056,2.8555,2.6831q.0066,12.089-.0036,24.1781C302.5021,852.4456,302.43,853.31,302.3915,854.174Z"/><path class="cls-20" d="M615.8592,437.7067c.0793-.83.6224-1.1318,1.3692-1.2011A2.6,2.6,0,0,1,615.8592,437.7067Z"/><path class="cls-55" d="M233.29,358.44q-.3217.2979-.6436.5955a1.9656,1.9656,0,0,1-.3844-.5972,1.7957,1.7957,0,0,1,.1342-.6736,3.4247,3.4247,0,0,1,.6321.2743C233.15,358.1215,233.2053,358.3026,233.29,358.44Z"/><path class="cls-18" d="M641.776,410.4885a1.384,1.384,0,0,1,1.1894-1.4937A2.7993,2.7993,0,0,1,641.776,410.4885Z"/><path class="cls-31" d="M318.6015,498.9573c.5721.0089,1.186-.1041,1.5453.5277A1.7776,1.7776,0,0,1,318.6015,498.9573Z"/><path class="cls-28" d="M505.43,497.907c.3937-.6214,1.0126-.5042,1.6006-.4876A1.8738,1.8738,0,0,1,505.43,497.907Z"/><path class="cls-32" d="M439.8,364.0143c-.245.8248-.9213.6772-1.5313.6787A2.3347,2.3347,0,0,1,439.8,364.0143Z"/><path class="cls-51" d="M247.8251,409.9837c.6179.3935.5076,1.01.4887,1.5978A1.9041,1.9041,0,0,1,247.8251,409.9837Z"/><path class="cls-45" d="M256.6057,439.6549c.729.4045.5563,1.0823.521,1.7189A2.1431,2.1431,0,0,1,256.6057,439.6549Z"/><path class="cls-43" d="M522.6233,492.2342c.3447-.6766.9724-.55,1.556-.5474A1.8721,1.8721,0,0,1,522.6233,492.2342Z"/><path class="cls-42" d="M360.76,386.5418a.88.88,0,0,1-1.5374.1438Z"/><path class="cls-51" d="M247.2334,407.92c.7486.4181.5524,1.1142.5188,1.7633A2.3748,2.3748,0,0,1,247.2334,407.92Z"/><path class="cls-35" d="M656.4221,247.11c-.7192-.35-.5832-.9926-.547-1.601A1.95,1.95,0,0,1,656.4221,247.11Z"/><path class="cls-35" d="M655.8968,245.5492c-.7168-.3527-.5786-.9944-.5413-1.602A1.9306,1.9306,0,0,1,655.8968,245.5492Z"/><path class="cls-37" d="M649.0622,225.2841c-.6159-.3732-.5186-.9843-.5214-1.5621A1.86,1.86,0,0,1,649.0622,225.2841Z"/><path class="cls-37" d="M648.54,223.7193c-.6168-.3709-.5163-.9815-.5208-1.557A1.8417,1.8417,0,0,1,648.54,223.7193Z"/><path class="cls-11" d="M411.2093,374.5545c-.3549.685-.9864.5508-1.5787.5329A1.89,1.89,0,0,1,411.2093,374.5545Z"/><path class="cls-51" d="M248.3013,411.5553c.6983.4089.5379,1.0733.506,1.7A2.12,2.12,0,0,1,248.3013,411.5553Z"/><path class="cls-44" d="M666.755,277.8323a1.1851,1.1851,0,0,1-.4489-1.2992A1.3882,1.3882,0,0,1,666.755,277.8323Z"/><path class="cls-36" d="M513.7573,495.3046a1.11,1.11,0,0,1,1.2482-.4393A1.3515,1.3515,0,0,1,513.7573,495.3046Z"/><path class="cls-31" d="M314.4229,497.3991a1.0807,1.0807,0,0,1,1.0351.4416A1.0807,1.0807,0,0,1,314.4229,497.3991Z"/><path class="cls-31" d="M315.8952,497.9514a1.0966,1.0966,0,0,1,1.132.4437A1.1871,1.1871,0,0,1,315.8952,497.9514Z"/><path class="cls-31" d="M317.3722,498.4947a1.0844,1.0844,0,0,1,1.2163.4577A1.3626,1.3626,0,0,1,317.3722,498.4947Z"/><path class="cls-31" d="M320.1493,499.4858a1.0652,1.0652,0,0,1,1.0324.4326A1.0652,1.0652,0,0,1,320.1493,499.4858Z"/><path class="cls-26" d="M538.7485,485.95a.993.993,0,0,1,1.11-.4817A1.2009,1.2009,0,0,1,538.7485,485.95Z"/><path class="cls-23" d="M573.0943,468.7754a.9859.9859,0,0,1,.9539-.5369A1.0519,1.0519,0,0,1,573.0943,468.7754Z"/><path class="cls-28" d="M505.9073,329.236c-.1418.4834-.5209.6055-.9626.632A1.2231,1.2231,0,0,1,505.9073,329.236Z"/><path class="cls-23" d="M574.6828,467.821c.1666-.4938.5625-.5917,1.0168-.5882A1.1422,1.1422,0,0,1,574.6828,467.821Z"/><path class="cls-39" d="M268.95,466.7519c.5488.0675.7.4561.7489.927A1.3335,1.3335,0,0,1,268.95,466.7519Z"/><path class="cls-38" d="M579.8739,464.6635a.9213.9213,0,0,1,.9567-.5756A1.046,1.046,0,0,1,579.8739,464.6635Z"/><path class="cls-22" d="M605.4313,446.5392c.0753-.509.4417-.635.8788-.6677A1.066,1.066,0,0,1,605.4313,446.5392Z"/><path class="cls-51" d="M248.9019,413.6335a1.1594,1.1594,0,0,1,.4081,1.2573A1.33,1.33,0,0,1,248.9019,413.6335Z"/><path class="cls-37" d="M647.4764,403.1466c.0378-.4329.166-.8006.6551-.9082A1.1085,1.1085,0,0,1,647.4764,403.1466Z"/><path class="cls-35" d="M655.8028,391.1831a.953.953,0,0,1,.5851-.95A1.1092,1.1092,0,0,1,655.8028,391.1831Z"/><path class="cls-39" d="M272.2907,381.3475a1.0408,1.0408,0,0,1-1.0267-.4134A1.0408,1.0408,0,0,1,272.2907,381.3475Z"/><path class="cls-44" d="M664.1578,377.2011a.9817.9817,0,0,1,.5412-1.02A1.0732,1.0732,0,0,1,664.1578,377.2011Z"/><path class="cls-44" d="M664.6952,376.1883a.9381.9381,0,0,1,.5634-1.0367A1.0908,1.0908,0,0,1,664.6952,376.1883Z"/><path class="cls-44" d="M665.24,375.1827c-.0327-.4719.0374-.8884.57-1.0559A1.1959,1.1959,0,0,1,665.24,375.1827Z"/><path class="cls-44" d="M665.7846,374.1642c-.0531-.4846.0105-.9072.5675-1.0678A1.1313,1.1313,0,0,1,665.7846,374.1642Z"/><path class="cls-44" d="M666.3212,373.14c-.0668-.4976.0044-.9232.57-1.0906A1.259,1.259,0,0,1,666.3212,373.14Z"/><path class="cls-51" d="M250.4778,371.43c-.51.0263-.93-.0829-1.0333-.6768A1.4054,1.4054,0,0,1,250.4778,371.43Z"/><path class="cls-44" d="M664.6423,271.5835a.999.999,0,0,1-.4088-1.1307A1.1049,1.1049,0,0,1,664.6423,271.5835Z"/><path class="cls-32" d="M438.2748,364.6879a.91.91,0,0,1-1.0956.48A1.0817,1.0817,0,0,1,438.2748,364.6879Z"/><path class="cls-33" d="M529.8959,489.55a1.0513,1.0513,0,0,1,1.0847-.4508A1.126,1.126,0,0,1,529.8959,489.55Z"/><path class="cls-18" d="M640.7019,200.3033a1.0014,1.0014,0,0,1-.4108-1.1264A1.1,1.1,0,0,1,640.7019,200.3033Z"/><path class="cls-18" d="M641.223,201.8639a1.1167,1.1167,0,0,1-.4263-1.2163A1.2807,1.2807,0,0,1,641.223,201.8639Z"/><path class="cls-18" d="M641.7438,203.425a1.1168,1.1168,0,0,1-.4264-1.2171A1.2848,1.2848,0,0,1,641.7438,203.425Z"/><path class="cls-18" d="M642.2643,204.9858a1.1182,1.1182,0,0,1-.4264-1.218A1.2879,1.2879,0,0,1,642.2643,204.9858Z"/><path class="cls-43" d="M521.5735,492.6483a1.0258,1.0258,0,0,1,1.06-.4216A1.0086,1.0086,0,0,1,521.5735,492.6483Z"/><path class="cls-37" d="M647.4971,220.6005a.9355.9355,0,0,1-.4062-1.1584A1.1258,1.1258,0,0,1,647.4971,220.6005Z"/><path class="cls-37" d="M648.0187,222.1587a1.157,1.157,0,0,1-.4461-1.2854A1.3648,1.3648,0,0,1,648.0187,222.1587Z"/><path class="cls-44" d="M665.1858,273.1479a1.1114,1.1114,0,0,1-.4494-1.2272A1.3482,1.3482,0,0,1,665.1858,273.1479Z"/><path class="cls-44" d="M665.7146,274.7106a1.1859,1.1859,0,0,1-.4493-1.3A1.3913,1.3913,0,0,1,665.7146,274.7106Z"/><path class="cls-44" d="M666.2347,276.2715a1.1847,1.1847,0,0,1-.449-1.2992A1.3887,1.3887,0,0,1,666.2347,276.2715Z"/><path class="cls-20" d="M615.2943,438.1776a.6.6,0,0,1,.6009-.5132A.6584.6584,0,0,1,615.2943,438.1776Z"/><path class="cls-20" d="M614.2186,439.1533a.7048.7048,0,0,1,.5745-.5026A.6166.6166,0,0,1,614.2186,439.1533Z"/><path class="cls-38" d="M579.3415,465.0459l.5508-.3983A.481.481,0,0,1,579.3415,465.0459Z"/><path class="cls-46" d="M296.5659,489.1235l.679.3952A.717.717,0,0,1,296.5659,489.1235Z"/><path class="cls-39" d="M269.7334,467.7219l.4607.5282A.5515.5515,0,0,1,269.7334,467.7219Z"/><path class="cls-20" d="M614.7644,438.68a.6617.6617,0,0,1,.5665-.54A.6224.6224,0,0,1,614.7644,438.68Z"/><path class="cls-23" d="M574.12,468.2042q.2994-.2085.5991-.4168A.5511.5511,0,0,1,574.12,468.2042Z"/><path class="cls-35" d="M655.3457,391.8361l.4236-.59A.5439.5439,0,0,1,655.3457,391.8361Z"/><path class="cls-39" d="M270.2015,468.2589q.2461.2829.4923.566A.6389.6389,0,0,1,270.2015,468.2589Z"/><path class="cls-18" d="M640.7954,411.6428a.7027.7027,0,0,1,.51-.592A.62.62,0,0,1,640.7954,411.6428Z"/><path class="cls-37" d="M646.999,403.7632l.4356-.5519A.5071.5071,0,0,1,646.999,403.7632Z"/><path class="cls-39" d="M270.6688,468.7987a.7409.7409,0,0,1,.5324.57A.6283.6283,0,0,1,270.6688,468.7987Z"/><path class="cls-18" d="M641.2838,411.0759l.4775-.5667A.5794.5794,0,0,1,641.2838,411.0759Z"/><path class="cls-37" d="M648.09,402.2837a.7037.7037,0,0,1,.4666-.6115A.5985.5985,0,0,1,648.09,402.2837Z"/><path class="cls-18" d="M640.3288,412.2175a.6027.6027,0,0,1,.5065-.6166A.67.67,0,0,1,640.3288,412.2175Z"/><path class="cls-41" d="M285.0506,481.8478a.8147.8147,0,0,1,.7377.5123A.906.906,0,0,1,285.0506,481.8478Z"/><path class="cls-34" d="M305.9348,493.806l.6729.3736A.6683.6683,0,0,1,305.9348,493.806Z"/><path class="cls-21" d="M623.0917,430.8916a.7249.7249,0,0,1,.6007-.5681A.7249.7249,0,0,1,623.0917,430.8916Z"/><path class="cls-21" d="M622.5759,431.4114a.6737.6737,0,0,1,.56-.5622A.6471.6471,0,0,1,622.5759,431.4114Z"/><path class="cls-28" d="M504.9039,329.8916q-.2955.222-.5913.4439A.5743.5743,0,0,1,504.9039,329.8916Z"/><path class="cls-21" d="M622.0555,431.9317a.6737.6737,0,0,1,.56-.5619A.6467.6467,0,0,1,622.0555,431.9317Z"/><path class="cls-3" d="M729.77,836.8337c-.5831-5.9963-4.4539-11.6214-12.0867-12.5333-7.9215-.9463-13.6444,3.8731-15.1987,10.0381a19.3029,19.3029,0,0,0-.4087,8.4688c1.0221,5.311,3.7693,9.2008,9.0015,11.0877.3243.117.6327.2783.9485.419.2628.3448.7851.16,1.0448.5109h5.2041c.3944-.52,1.1524-.0036,1.5408-.54.4821-.1861.9666-.3663,1.4459-.5593a13.0539,13.0539,0,0,0,7.9357-8.668A20.6766,20.6766,0,0,0,729.77,836.8337Zm-4.7627,7.9621a9.33,9.33,0,0,1-9.1521,6.3724,9.5059,9.5059,0,0,1-9.4354-7.4235A18.2491,18.2491,0,0,1,706.8163,834c1.1265-3.7447,5.1652-6.07,8.19-6.2542a9.5145,9.5145,0,0,1,10.1959,7.0937A16.1443,16.1443,0,0,1,725.0071,844.7958Z"/><path class="cls-3" d="M577.5427,784.7919q-7.8487-15.6774-15.7371-31.3352-16.1868-32.2782-32.3564-64.5654-16.581-33.0931-33.1585-66.1881c-3.4517-6.89-6.7886-13.8394-10.6862-20.496a76.7953,76.7953,0,0,0-6.5986-9.9564,30.1831,30.1831,0,0,0-15.5613-10.3045,16.2941,16.2941,0,0,0-7.9439-.6535,31.1457,31.1457,0,0,0-18.72,11.7829,83.8622,83.8622,0,0,0-4.7935,7.1079c-4.0474,6.5714-7.521,13.4528-10.9738,20.3426q-28.861,57.59-57.6886,115.197-12.2107,24.3894-24.409,48.7853c-.3481.6957-.7065,1.389-1.002,2.1072a.5127.5127,0,0,0,.4481.7418,17.8721,17.8721,0,0,0,1.8178.0481q15.35.0033,30.7.0011.78,0,1.5608-.012a1.2338,1.2338,0,0,0,1.23-.7736c.2048-.4774.4218-.9495.6365-1.4226q4.3473-9.5781,8.6992-19.1542c2.41-5.2745,4.78-10.5693,7.3027-15.79,2.3351-4.8323,4.8456-9.58,7.2889-14.36a3.7885,3.7885,0,0,1,1.1923-1.7872l2.2382,0H514.7225c.52,0,1.0424.0289,1.5605-.0045a1.32,1.32,0,0,1,1.3811.9242c.25.5517.5375,1.0866.81,1.6281,2.2586,4.4852,4.4362,9.0134,6.7924,13.4467,6.217,11.6977,12.5112,23.3545,18.7758,35.027.2867.5341.5934,1.0576.8732,1.5952a1.1878,1.1878,0,0,0,1.0424.6526c.4315.0314.8659.03,1.299.03q14.83.0021,29.6594-.0025a2.401,2.401,0,0,0,1.5313-.2491A4.5984,4.5984,0,0,0,577.5427,784.7919Zm-78.38-85.16c-.7791.0311-1.56.0322-2.34.0323q-19.3824.0024-38.7647.0011-19.7727,0-39.5452-.0019c-2.539-.0007-2.5614-.0267-1.3811-2.3525q10.4029-20.4978,20.8219-40.9874,6.2358-12.2724,12.476-24.5428a36.7532,36.7532,0,0,1,3.2457-5.3172,10.9785,10.9785,0,0,1,2.7172-2.7743c1.6724-1.0833,2.2972-.9553,3.821-.0249a8.9449,8.9449,0,0,1,2.2248,2.1677,40.3433,40.3433,0,0,1,4.4624,7.3051q8.0041,16.0368,15.9943,32.0806,7.9431,15.9206,15.8961,31.8362a19.4244,19.4244,0,0,1,.8615,1.8809A.4891.4891,0,0,1,499.1624,699.6324Z"/><path class="cls-6" d="M231.2652,847.8714a21.953,21.953,0,0,0-5.8628-6.8436,6.4329,6.4329,0,0,1,2.223-.9034,7.288,7.288,0,0,0,4.7874-4.7486,8.53,8.53,0,0,0-.946-7.2193,6.2652,6.2652,0,0,0-4.1248-2.9073,21.5,21.5,0,0,0-4.6284-.5482c-3.72.043-7.4411.0127-11.1618.0151q-.778.0006-1.556.0318a.6418.6418,0,0,0-.6742.631c-.0415.5157-.054,1.0349-.0542,1.5526q-.0045,12.5865.0028,25.1729c.0007.69.0717,1.3795.11,2.0692.9,0,1.8014-.02,2.7011.0058a1.803,1.803,0,0,0,1.3253-.5179c-.03-2.5886-.1177-5.1784-.0669-7.7655.03-1.5157-.3718-3.0744.3081-4.5493a26.0855,26.0855,0,0,1,4.6215-.1506c.2572-.0089.516.0488.7747.059a4.6535,4.6535,0,0,1,3.4165,1.6111,26.6087,26.6087,0,0,1,2.2526,2.8332c1.863,2.7981,3.6608,5.6395,5.4842,8.4637,1.3445-.0026,2.6893.0078,4.0336-.0136.5776-.0092.5707-.4842.6167-.8933C233.65,851.4635,232.4081,849.6983,231.2652,847.8714ZM223.14,837.63q-4.42.0015-8.84.0072c-.6291.0019-.9693-.2726-.97-.9117-.0043-2.5129-.0171-5.0258.0024-7.5384.0065-.84.18-.9839,1.13-.9982,1.4731-.0222,2.9468-.0059,4.42-.0057,1.3867,0,2.7741-.0255,4.16.0091a7.0911,7.0911,0,0,1,2.79.5028,4.1347,4.1347,0,0,1,2.7792,3.9819,4.4027,4.4027,0,0,1-2.6916,4.3456A7.3826,7.3826,0,0,1,223.14,837.63Z"/><path class="cls-3" d="M451.4991,834.5443a13.6034,13.6034,0,0,0-1.1567-3.4327,10.3351,10.3351,0,0,0-6.8825-5.8547,18.5376,18.5376,0,0,0-4.1137-.5175c-3.3759-.0718-6.7545-.0239-10.132-.0222a5.8281,5.8281,0,0,0-.778.03.6916.6916,0,0,0-.6524.6651c-.0392.5163-.0521,1.0357-.0523,1.5539q-.0045,12.4677.0066,24.9353c.0013.7724.124,1.5447.19,2.3169l12.44.0663a11.5031,11.5031,0,0,1,1.4923-.3983c4.5-.5939,7.3444-3.2035,8.917-7.3307A21.5657,21.5657,0,0,0,451.4991,834.5443Zm-4.54,10.724a6.9409,6.9409,0,0,1-4.7012,4.8047,12.0606,12.0606,0,0,1-2.8046.4719c-2.2457.0882-4.4956.0883-6.7437.087-.8088,0-1.0126-.2315-1.0174-1.1367-.018-3.3729-.0072-6.7459-.008-10.1188-.0007-3.2865-.0122-6.573.0059-9.8594.0059-1.0616.1595-1.2253,1.1892-1.2266,2.1619-.0026,4.3238.0487,6.4858.0686a7.8533,7.8533,0,0,1,8.0089,6.4215A19.3054,19.3054,0,0,1,446.9592,845.2683Z"/><path class="cls-6" d="M394.288,852.1661q-5.1258-12.5931-10.2757-25.1764c-1.1222-2.7244-.6-2.2136-3.5747-2.2738-.2593-.0053-.5191.0121-.7782.0039a1.1284,1.1284,0,0,0-1.1615.8358c-.1854.4837-.3737.9661-.56,1.45-1.9192,4.9946-3.85,9.9852-5.7537,14.9857-1.5356,4.0324-3.0393,8.0772-4.5572,12.1163l4.0107.1141c.3631-.8691.7509-1.7288,1.0841-2.6093.6691-1.7679,1.337-3.5374,1.9458-5.3265A1.229,1.229,0,0,1,376,845.3506c3.3565.0058,6.7131.0177,10.0694-.01a1.4222,1.4222,0,0,1,1.508,1.0914c.955,2.5753,1.9526,5.1348,2.9338,7.7l4.4708-.02C394.7517,853.4631,394.5473,852.8034,394.288,852.1661Zm-17.8636-10.379c.3874-2.13,1.4189-4.0307,2.0887-6.0487.6528-1.9666,1.355-3.9169,2.0355-5.8744l0,0h0a2.1322,2.1322,0,0,1-.0206-.4767c.0261-.1507.0792-.3632.1877-.42.2581-.1345.382.11.5054.2859a1.4355,1.4355,0,0,1,.2926,1.1329c1.3772,3.7883,2.851,7.5425,4.2328,11.3718A41.3756,41.3756,0,0,1,376.4244,841.7871Z"/></g></g></g></g></svg>